<?xml version="1.0" standalone="no"?>
<!DOCTYPE svg PUBLIC "-//W3C//DTD SVG 1.1//EN" "http://www.w3.org/Graphics/SVG/1.1/DTD/svg11.dtd" >
<svg xmlns="http://www.w3.org/2000/svg">
<metadata></metadata>
<defs>
<font id="anomolylightitalic" horiz-adv-x="978" >
<font-face units-per-em="2048" ascent="1638" descent="-410" />
<missing-glyph horiz-adv-x="491" />
<glyph horiz-adv-x="0" />
<glyph unicode="&#xd;" horiz-adv-x="491" />
<glyph unicode=" "  horiz-adv-x="491" />
<glyph unicode="&#x09;" horiz-adv-x="491" />
<glyph unicode="&#xa0;" horiz-adv-x="491" />
<glyph unicode="!" horiz-adv-x="411" d="M0 0l63 295h103l-64 -295h-102zM135 535l146 843h131l-215 -843h-62z" />
<glyph unicode="&#x22;" horiz-adv-x="669" d="M143 801l88 577h131l-157 -577h-62zM451 801l88 577h131l-158 -577h-61z" />
<glyph unicode="#" horiz-adv-x="1220" d="M20 475l19 82h278l127 295h-260l17 82h276l195 459l86 -19l-187 -440h275l194 459l86 -19l-186 -440h260l-16 -82h-279l-125 -295h258l-18 -82h-275l-204 -483l-86 16l196 467h-274l-205 -483l-86 16l197 467h-263zM412 557h274l127 295h-276z" />
<glyph unicode="$" horiz-adv-x="1087" d="M-31 76l41 84q209 -92 369 -92l131 616q-147 59 -203 107q-94 76 -94 200q0 197 135 301q117 90 311 99l41 186h45l-40 -184q166 -1 342 -52l-25 -84q-193 53 -328 54h-6l-115 -539q152 -61 213 -115q100 -86 101 -225q0 -205 -131 -323.5t-350 -126.5l-41 -189h-46 l41 189q-178 4 -391 94zM315 991q0 -74 66 -125q43 -35 151 -78l111 521q-141 -6 -231 -84q-96 -86 -97 -234zM424 70q172 12 266 110t94 252q0 90 -69 150q-49 41 -164 86z" />
<glyph unicode="%" horiz-adv-x="1308" d="M20 6l1240 1409l69 -51l-1241 -1411zM145 926q0 182 80 317q96 160 267 160q219 0 219 -219q0 -182 -82 -316q-96 -156 -269 -155q-215 0 -215 213zM246 924q0 -133 114 -133q125 0 195 141q55 115 55 256q0 137 -118 137q-121 0 -191 -145q-55 -117 -55 -256zM649 188 q0 182 80 318q96 160 266 160q219 -1 219 -220q0 -182 -81 -315q-96 -156 -269 -156q-215 0 -215 213zM750 186q0 -133 114 -133q125 0 195 142q55 115 55 256q0 137 -119 137q-121 0 -190 -146q-55 -117 -55 -256z" />
<glyph unicode="&#x26;" horiz-adv-x="1239" d="M31 297q0 147 92 279.5t242 173.5q-117 61 -117 208q0 203 147 328q131 113 307 113q139 0 230 -74q100 -82 100 -225q0 -35 -6 -60h-102q6 29 6 62q0 104 -64.5 159.5t-160.5 55.5q-135 0 -238 -92q-117 -102 -117 -269q0 -180 209 -180l-18 -80q-186 0 -305 -125 q-109 -115 -109 -262q0 -117 76 -192q84 -84 235 -84q352 0 428 336l29 127l-215 -15l18 82h521l-19 -82l-203 15l-28 -127q-94 -418 -527 -418q-205 0 -313 104q-98 94 -98 242z" />
<glyph unicode="'" horiz-adv-x="423" d="M143 801l88 577h131l-157 -577h-62z" />
<glyph unicode="(" horiz-adv-x="612" d="M61 362q0 324 160 633q166 324 432 484l41 -86q-236 -141 -387 -447q-141 -291 -141 -584q0 -342 203 -503l-72 -80q-236 188 -236 583z" />
<glyph unicode=")" horiz-adv-x="612" d="M-82 -135q236 141 387 448q141 289 141 582q0 342 -202 504l71 80q236 -189 236 -584q0 -324 -160 -633q-166 -324 -432 -483z" />
<glyph unicode="*" horiz-adv-x="835" d="M20 1055l50 94l227 -80l84 -59l-2 110l53 258h103l-54 -258l-49 -110l105 61l264 80l14 -100l-262 -80l-117 -8l64 -76l110 -209l-90 -57l-104 208l-27 105l-61 -107l-197 -209l-74 66l197 209l102 70l-108 12z" />
<glyph unicode="+" horiz-adv-x="1142" d="M82 621l16 81h441l94 441h82l-94 -441h440l-17 -81h-440l-94 -441h-82l94 441h-440z" />
<glyph unicode="," horiz-adv-x="485" d="M-164 -293l375 610l111 -55l-431 -586z" />
<glyph unicode="-" d="M123 621l16 81h717l-16 -81h-717z" />
<glyph unicode="." horiz-adv-x="368" d="M0 0l61 295h103l-62 -295h-102z" />
<glyph unicode="/" horiz-adv-x="688" d="M-102 -4l804 1409l89 -33l-805 -1409z" />
<glyph unicode="0" horiz-adv-x="1144" d="M61 371q0 129 41 319q68 319 166 477q158 252 451 252q364 0 364 -403q0 -127 -41 -326q-68 -319 -163 -475q-156 -252 -445 -252q-373 0 -373 408zM160 365q0 -319 278 -320q219 0 346 201q92 145 156 444q45 215 45 328q0 319 -272 319q-223 0 -353 -200 q-92 -145 -155 -447q-45 -209 -45 -325z" />
<glyph unicode="1" horiz-adv-x="921" d="M184 1053l504 325h90l-295 -1378h-102l281 1274l-429 -289z" />
<glyph unicode="2" horiz-adv-x="1026" d="M-41 0l16 80l721 698q94 90 131 152q57 88 58 188q0 106 -72 164q-63 51 -164 51q-100 0 -198.5 -54t-151.5 -146l-76 26q68 123 189 193q113 63 239 63q141 0 232 -74q102 -80 102 -223q0 -115 -67 -221q-47 -76 -156 -178l-686 -656l725 19l-17 -82h-825z" />
<glyph unicode="3" horiz-adv-x="1058" d="M0 166l78 47q92 -168 307 -168q164 0 283 105q129 111 129 286q0 106 -70 174q-80 78 -227 78h-68l17 82h92q139 0 245.5 100.5t106.5 239.5q0 96 -65.5 159.5t-163.5 63.5q-176 0 -324 -166l-68 47q172 201 398 201q156 0 245 -92q82 -86 82 -213q0 -119 -73 -219 q-80 -111 -222 -160v-4q96 -33 147.5 -114t51.5 -179q0 -219 -162 -350q-147 -121 -354 -121q-268 0 -385 203z" />
<glyph unicode="4" horiz-adv-x="1110" d="M41 272l16 80l746 1049l78 -41l-729 -1020l458 12l58 275h102l-57 -273l274 6l-18 -88h-273l-59 -272h-102l59 272h-553z" />
<glyph unicode="5" horiz-adv-x="1030" d="M-41 129l80 53q35 -61 117 -99t174 -38q176 0 306 128t130 302q0 127 -85 208t-208 81q-135 0 -276 -57l141 671h651l-16 -82l-545 19l-104 -490q72 23 143 23q164 0 276 -94q127 -102 127 -279q0 -223 -156.5 -367.5t-383.5 -144.5q-260 0 -371 166z" />
<glyph unicode="6" horiz-adv-x="1103" d="M41 342q0 301 250 635q258 348 586 444l14 -88q-205 -66 -383 -243q-162 -160 -262 -369q152 125 342 125q160 0 260 -90q113 -101 113 -281q0 -199 -134 -346q-150 -168 -401 -168q-195 0 -295 111q-90 100 -90 270zM145 340q0 -297 287 -297q197 0 320 143 q110 127 110 291q0 147 -90 219q-76 63 -207 64q-219 0 -364 -152q-55 -156 -56 -268z" />
<glyph unicode="7" horiz-adv-x="847" d="M20 23l826 1292l-686 -19l16 82h774l-16 -75l-821 -1317z" />
<glyph unicode="8" horiz-adv-x="1124" d="M61 293q0 141 97 268q88 117 225 182q-129 76 -129 236q0 205 141 326q127 109 307 108q156 0 252 -72q109 -81 109 -235q0 -113 -72 -217q-76 -113 -207 -162q82 -37 132.5 -114.5t50.5 -178.5q0 -217 -166 -350q-150 -121 -352 -121q-162 0 -269 82q-119 90 -119 248z M166 305q0 -125 86 -196q78 -63 199 -64q158 0 276 100q133 111 133 291q0 221 -248 250q-92 10 -145 23q-121 -47 -207 -156q-94 -119 -94 -248zM356 977q0 -184 232 -209q37 -2 108 -14q265 110 265 354q0 109 -80 170q-72 53 -174 53q-145 0 -244 -92q-106 -98 -107 -262 z" />
<glyph unicode="9" horiz-adv-x="1103" d="M143 887q0 199 133 346q150 168 402 168q195 0 295 -111q90 -100 90 -270q0 -301 -248 -635q-260 -348 -588 -444l-14 88q205 66 385 243q160 160 260 369q-152 -125 -342 -125q-160 0 -260 90q-113 100 -113 281zM242 885q0 -147 90 -219q76 -63 207 -64q219 0 364 152 q55 155 55 268q0 297 -286 297q-197 0 -320 -143q-111 -127 -110 -291z" />
<glyph unicode=":" horiz-adv-x="372" d="M0 0l61 295h103l-62 -295h-102zM147 686l62 295h102l-61 -295h-103z" />
<glyph unicode=";" horiz-adv-x="481" d="M-164 -293l375 610l111 -55l-431 -586zM256 686l61 295h103l-62 -295h-102z" />
<glyph unicode="&#x3c;" horiz-adv-x="1021" d="M61 434l25 123l956 449l-26 -121l-852 -396l684 -395l-23 -108z" />
<glyph unicode="=" horiz-adv-x="1097" d="M20 436l17 82h962l-16 -82h-963zM98 805l17 82h962l-16 -82h-963z" />
<glyph unicode="&#x3e;" horiz-adv-x="1021" d="M-20 -14l26 120l852 396l-684 395l21 109l766 -449l-27 -123z" />
<glyph unicode="?" horiz-adv-x="870" d="M82 0l51 233h103l-52 -233h-102zM94 1276q176 125 412 125q178 0 274 -86q90 -78 90 -207q0 -180 -143 -307q-18 -16 -276 -185q-160 -104 -183 -215h-98q33 150 192 263q137 90 275 178q139 113 139 266q0 94 -65 149q-74 61 -213 62q-217 0 -365 -107z" />
<glyph unicode="@" horiz-adv-x="1470" d="M61 381q0 133 35 291q72 340 195 502q193 254 583 253q535 0 535 -444q0 -274 -100 -491q-127 -276 -363 -277q-63 0 -112.5 35t-49.5 92v12q-125 -49 -215 -49q-84 0 -139 47t-55 135q0 190 121 359q131 182 315 182q94 0 195 -53l38 -21l84 84l62 -57l-105 -102 l-202 -500q-6 -14 -6 -23q0 -59 75 -59q180 0 279 256q76 197 76 420q0 373 -428 373q-328 0 -496 -213q-119 -147 -184 -461q-39 -182 -39 -293q0 -381 432 -381q233 0 534 172l31 -72q-285 -182 -567 -182q-528 0 -529 465zM475 494q0 -117 129 -117q55 0 195 35l200 495 l-30 13q-82 33 -160 32q-150 0 -248 -159q-86 -139 -86 -299z" />
<glyph unicode="A" horiz-adv-x="1126" d="M-123 14l770 1364h107l209 -1366l-97 -30l-71 495h-545l-273 -493zM293 559h489l-73 510l-25 211z" />
<glyph unicode="B" horiz-adv-x="1161" d="M20 0l295 1378h461q131 0 201 -82q61 -73 61 -190q0 -123 -63 -229q-66 -113 -170 -158v-2q203 -45 203 -279q0 -182 -138.5 -310t-326.5 -128h-523zM137 66l430 16q145 6 240.5 108.5t95.5 245.5q0 90 -43 150q-49 70 -135 71l-459 9zM279 729l362 8q127 2 213 121 q80 109 80 238q0 197 -172 202l-359 15z" />
<glyph unicode="C" horiz-adv-x="1030" d="M61 342q0 143 43 346q80 381 218 543q145 174 409 174q150 0 361 -51l-27 -86q-246 51 -342 51q-223 0 -338 -152q-102 -135 -176 -479q-45 -213 -45 -338q0 -297 266 -297q113 0 414 90l12 -86q-270 -90 -440 -90q-354 0 -355 375z" />
<glyph unicode="D" horiz-adv-x="1234" d="M20 0l295 1378h392q199 0 323 -123q133 -133 133 -366q0 -348 -186 -604q-207 -285 -547 -285h-410zM137 66l303 12q287 12 463 272q156 232 156 533q0 197 -105 309q-96 102 -256 108l-295 13z" />
<glyph unicode="E" horiz-adv-x="993" d="M20 0l295 1378h740l-19 -82l-633 19l-120 -565l501 14l-20 -90l-494 14l-133 -625l658 19l-19 -82h-756z" />
<glyph unicode="F" horiz-adv-x="993" d="M20 0l295 1378h740l-19 -82l-633 19l-120 -565l501 14l-20 -90l-494 14l-147 -688h-103z" />
<glyph unicode="G" horiz-adv-x="1173" d="M61 342q0 143 43 346q80 381 218 543q145 174 409 174q150 0 361 -51l-27 -86q-246 51 -342 51q-223 0 -338 -152q-102 -135 -176 -479q-45 -213 -45 -338q0 -297 266 -297q135 0 369 86l100 471l-315 -16l16 82h416l-123 -582q-301 -127 -477 -127q-354 0 -355 375z" />
<glyph unicode="H" horiz-adv-x="1257" d="M20 0l295 1378h103l-131 -614h717l131 614h102l-295 -1378h-102l145 682h-717l-145 -682h-103z" />
<glyph unicode="I" horiz-adv-x="438" d="M20 0l295 1378h103l-295 -1378h-103z" />
<glyph unicode="J" horiz-adv-x="854" d="M-115 29l43 73q86 -35 265 -57q256 0 321 303l217 1030h103l-218 -1030q-84 -385 -423 -385q-160 0 -308 66z" />
<glyph unicode="K" horiz-adv-x="1077" d="M20 0l293 1378h103l-129 -614l104 -6l676 622l72 -59l-668 -608l399 -682l-96 -45l-395 702l-111 -6l-145 -682h-103z" />
<glyph unicode="L" horiz-adv-x="958" d="M20 0l295 1378h103l-281 -1315l658 19l-19 -82h-756z" />
<glyph unicode="M" horiz-adv-x="1634" d="M-20 6l444 1372h135l152 -1257l88 194l594 1063h139l-141 -1372l-99 -12l142 1276l-699 -1270h-98l-137 1053l-13 217l-411 -1276z" />
<glyph unicode="N" horiz-adv-x="1271" d="M20 0l295 1378h129l371 -1052l66 -222l268 1274h102l-295 -1378h-129l-436 1274l-268 -1274h-103z" />
<glyph unicode="O" horiz-adv-x="1269" d="M61 389q0 123 37 301q68 311 183 471q176 244 510 244q417 0 417 -414q0 -123 -39 -301q-66 -313 -180 -473q-176 -248 -506 -248q-422 0 -422 420zM160 387q0 -336 332 -336q264 0 409 203q104 145 166 436q41 186 41 299q0 334 -330 334q-266 0 -411 -199 q-102 -143 -166 -434q-41 -199 -41 -303z" />
<glyph unicode="P" horiz-adv-x="1138" d="M20 0l295 1378h480q152 0 231 -98q72 -88 72 -227q0 -178 -115 -310q-130 -149 -345 -149h-3h-385l-127 -594h-103zM266 664l363 10q158 4 258 112.5t100 268.5q0 98 -51 166q-57 74 -154 77l-379 15z" />
<glyph unicode="Q" horiz-adv-x="1269" d="M61 389q0 127 37 301q66 311 183 471q176 244 510 244q417 0 417 -414q0 -119 -39 -301q-61 -285 -157 -438q-147 -236 -416 -275l55 -237l-112 -33l-25 262h-31q-422 0 -422 420zM160 387q0 -336 332 -336q262 0 409 203q104 145 166 436q41 193 41 299q0 334 -330 334 q-266 0 -411 -199q-104 -143 -166 -434q-41 -193 -41 -303z" />
<glyph unicode="R" horiz-adv-x="1144" d="M20 0l295 1378h502q135 0 215 -90q72 -84 72 -213q0 -164 -117 -287q-131 -139 -342 -141l51 -100l219 -533l-94 -39l-274 672h-283l-141 -647h-103zM281 717l364 10q147 4 247.5 104.5t100.5 245.5q0 92 -49 154.5t-141 66.5l-400 15z" />
<glyph unicode="S" horiz-adv-x="1077" d="M-20 76l40 84q209 -92 381 -92q193 0 303.5 101t110.5 263q0 125 -153 199q-141 61 -285 121q-154 86 -154 239q0 207 156 312q133 90 346 90q176 -1 352 -52l-24 -84q-193 53 -338 54q-164 0 -271 -76q-118 -83 -118 -241q0 -107 153 -177q141 -61 285 -125 q154 -94 154 -260q0 -209 -143.5 -329.5t-373.5 -120.5q-199 0 -421 94z" />
<glyph unicode="T" horiz-adv-x="972" d="M164 1296l18 82h893l-18 -82l-391 19l-281 -1315h-102l280 1315z" />
<glyph unicode="U" horiz-adv-x="1239" d="M82 256q0 41 12 98l217 1024h103l-217 -1024q-12 -57 -13 -96q0 -207 318 -207q375 0 438 303l217 1024h103l-218 -1024q-82 -385 -540 -385q-420 0 -420 287z" />
<glyph unicode="V" horiz-adv-x="1101" d="M164 1362l98 33l156 -1301l98 215l592 1084l96 -29l-751 -1364h-111z" />
<glyph unicode="W" horiz-adv-x="1589" d="M164 1364l100 25l45 -1272l74 209l479 1052h127l35 -1261l74 209l495 1065l99 -25l-639 -1366h-115l-37 1053l6 209l-565 -1262h-115z" />
<glyph unicode="X" horiz-adv-x="1155" d="M-41 23l567 669l-286 660l88 49l260 -637l530 633l78 -49l-565 -668l284 -657l-92 -50l-256 633l-530 -633z" />
<glyph unicode="Y" horiz-adv-x="1067" d="M164 1360l98 33l250 -779l94 152l467 627l96 -33l-622 -823l-113 -537h-102l112 537z" />
<glyph unicode="Z" horiz-adv-x="1101" d="M-61 0l18 80l1059 1235l-766 -19l18 82h875l-19 -80l-1061 -1235l824 19l-19 -82h-929z" />
<glyph unicode="[" horiz-adv-x="600" d="M0 -205l352 1665h330l-16 -82h-228l-319 -1501h243l-16 -82h-346z" />
<glyph unicode="\" horiz-adv-x="679" d="M184 1372l99 33l213 -1409l-99 -33z" />
<glyph unicode="]" horiz-adv-x="559" d="M-123 -205l17 82h227l319 1501h-243l16 82h346l-352 -1665h-330z" />
<glyph unicode="_" horiz-adv-x="630" d="M-205 -199l17 82h778l-17 -82h-778z" />
<glyph unicode="`" horiz-adv-x="1032" d="M256 1362l70 113l471 -244l-35 -57z" />
<glyph unicode="a" d="M0 193q0 109 86 192q98 96 266 113l346 34l52 263q4 20 4 32q0 109 -181 109q-82 0 -225 -23l-131 -20l2 80l98 16q172 29 267 29q272 0 272 -180q0 -23 -6 -54l-121 -612l29 -162l-107 -24l-18 116q-172 -72 -191 -79q-117 -41 -206 -41q-236 0 -236 211zM96 190 q0 -129 154 -129q72 0 201 41q88 29 176 60l59 307l-332 -45q-119 -16 -192 -90q-66 -66 -66 -144z" />
<glyph unicode="b" horiz-adv-x="1054" d="M0 25l90 153l283 1338h102l-117 -549q166 49 258 49q336 0 336 -365q0 -254 -112 -446q-135 -229 -371 -230q-164 0 -324 111l-63 -111zM182 139q139 -82 271 -82q205 0 313 207q86 164 86 391q0 281 -248 281q-102 0 -260 -37z" />
<glyph unicode="c" horiz-adv-x="913" d="M61 285q0 78 23 188q55 252 145 373q127 166 371 166q115 0 293 -35l-23 -86q-199 39 -272 39q-184 -2 -283 -127q-80 -102 -129 -330q-22 -106 -22 -180v-6q0 -242 248 -242q123 0 321 72l10 -82q-199 -68 -342 -68q-340 0 -340 318z" />
<glyph unicode="d" horiz-adv-x="1028" d="M61 303q0 268 125 473q143 240 394 240q109 0 270 -51l117 551h102l-283 -1338l25 -168l-104 -24l-17 100q-188 -109 -340 -109q-289 0 -289 326zM164 305q0 -248 211 -248q143 0 301 90l160 752q-152 37 -240 37q-225 0 -340 -211q-92 -170 -92 -420z" />
<glyph unicode="e" horiz-adv-x="985" d="M61 285q0 76 25 194q51 244 119 348q119 182 362 183q316 -1 316 -267q0 -88 -33 -219l-649 11q-6 -23 -17 -70q-20 -109 -20 -178q0 -242 248 -242q133 0 331 72l11 -82q-199 -68 -353 -68q-340 0 -340 318zM215 594l551 12q18 78 18 137q0 188 -223 189 q-154 0 -242 -105q-66 -78 -104 -233z" />
<glyph unicode="f" horiz-adv-x="649" d="M82 0l192 899l-174 21l13 61h178l67 315q51 240 277 240q45 0 123 -16l96 -21l-33 -82l-98 23q-63 14 -98 14q-131 0 -164 -158l-68 -315h277l-17 -82h-276l-193 -899h-102z" />
<glyph unicode="g" horiz-adv-x="1038" d="M-61 -352l53 73q145 -100 321 -100q289 0 351 316l16 83q-168 -51 -256 -51q-336 0 -336 367q0 252 113 446q135 229 370 230q162 0 324 -113l61 107l82 -50l-90 -153l-182 -866q-84 -401 -451 -402q-225 0 -376 113zM188 332q0 -281 248 -281q104 0 258 37l162 758 q-135 84 -266 84q-207 0 -316 -207q-86 -164 -86 -391z" />
<glyph unicode="h" horiz-adv-x="1075" d="M41 0l324 1516h102l-133 -621l233 94q76 31 154 31q100 0 162 -47q69 -54 69 -152q0 -35 -6 -63l-160 -758h-102l162 764q6 29 6 47q0 125 -145 125q-51 0 -107 -18l-278 -93l-179 -825h-102z" />
<glyph unicode="i" horiz-adv-x="446" d="M41 0l209 981h102l-209 -981h-102zM305 1241l60 275h102l-59 -275h-103z" />
<glyph unicode="j" horiz-adv-x="446" d="M-338 -449l19 82q139 0 219 72q98 88 143 303l207 973h102l-207 -973q-57 -272 -176 -373q-100 -84 -307 -84zM305 1241l60 275h102l-59 -275h-103z" />
<glyph unicode="k" horiz-adv-x="987" d="M41 0l321 1516h103l-201 -945l82 -8l586 449l55 -72l-551 -418l359 -493l-84 -58l-379 527l-84 -9l-105 -489h-102z" />
<glyph unicode="l" horiz-adv-x="446" d="M41 0l324 1516h102l-324 -1516h-102z" />
<glyph unicode="m" horiz-adv-x="1617" d="M41 0l174 817l-27 164l105 35l18 -129l252 98q78 31 154 31q158 0 184 -129l252 98q78 31 154 31q188 0 188 -174q0 -33 -8 -72l-164 -770h-102l163 770q6 29 7 55q0 111 -115 111q-47 0 -100 -18l-271 -95q-2 -16 -8 -53l-164 -770h-102l164 770q6 29 6 55 q0 111 -115 111q-47 0 -100 -18l-267 -93l-176 -825h-102z" />
<glyph unicode="n" horiz-adv-x="1077" d="M41 0l174 817l-27 164l103 35l20 -129l246 98q82 33 166 33q100 0 162 -43q69 -52 69 -146q0 -27 -8 -65l-162 -764h-102l162 764q6 29 6 47q0 123 -150 123q-53 0 -102 -16l-279 -93l-176 -825h-102z" />
<glyph unicode="o" horiz-adv-x="1058" d="M61 285q0 78 23 188q55 254 147 375q131 168 379 168q346 0 346 -324q0 -90 -28 -219q-51 -242 -158 -362q-129 -147 -364 -148q-344 0 -345 322zM164 285q0 -244 248 -244q176 0 278 117q90 102 135 315q31 139 31 219q0 246 -252 246q-186 0 -287 -129 q-82 -104 -131 -336q-22 -106 -22 -182v-6z" />
<glyph unicode="p" horiz-adv-x="1062" d="M-51 -449l268 1262l-27 168l105 25l16 -101q193 111 338 111q143 0 221 -101q70 -89 70 -243q0 -268 -125 -469q-145 -238 -395 -238q-106 0 -270 51l-99 -465h-102zM164 82q156 -37 239 -37q227 0 342 209q93 166 93 416q0 266 -213 266q-137 0 -299 -92z" />
<glyph unicode="q" horiz-adv-x="1011" d="M61 336q0 252 113 446q135 229 371 230q162 0 323 -113l62 107l82 -50l-90 -153l-265 -1252h-102l98 469q-168 -51 -256 -51q-336 0 -336 367zM162 332q0 -281 248 -281q104 0 258 37l161 758q-135 84 -268 84q-205 0 -313 -207q-86 -164 -86 -391z" />
<glyph unicode="r" horiz-adv-x="706" d="M41 0l174 817l-27 164l105 35l16 -105q203 79 418 93l-14 -93q-221 -4 -389 -61l-181 -850h-102z" />
<glyph unicode="s" horiz-adv-x="882" d="M-20 16l24 86q176 -49 305 -49q303 0 303 240q0 90 -125 141q-115 45 -231 90q-125 70 -125 199q0 150 115 221q92 59 248 60q131 -1 307 -46l-25 -81q-184 45 -284 45q-111 0 -181 -48q-82 -53 -82 -151q0 -84 125 -135q115 -45 232 -90q125 -70 125 -205 q0 -322 -406 -322q-156 0 -325 45z" />
<glyph unicode="t" horiz-adv-x="733" d="M123 928l12 53h178l84 397h103l-84 -397h317l-18 -82h-318l-149 -700q-4 -18 -4 -39q0 -102 125 -103q57 0 202 52l9 -74q-141 -61 -236 -62q-205 0 -205 166q0 31 6 60l150 700z" />
<glyph unicode="u" horiz-adv-x="1075" d="M82 158q0 27 8 65l160 758h102l-159 -758q-6 -29 -7 -47q0 -123 150 -123q53 0 102 17l279 92l174 819h102l-172 -811l27 -164l-103 -35l-20 129l-246 -98q-82 -33 -166 -33q-100 0 -161 43q-70 51 -70 146z" />
<glyph unicode="v" horiz-adv-x="1009" d="M123 979l100 35l158 -916l80 164l446 750l103 -33l-602 -979h-103z" />
<glyph unicode="w" horiz-adv-x="1464" d="M123 981l102 29l74 -906l76 181l354 696h127l64 -877l75 181l373 725l96 -29l-514 -981h-110l-64 872l-446 -872h-109z" />
<glyph unicode="x" horiz-adv-x="901" d="M-61 23l440 485l-236 446l95 50l204 -426l377 426l92 -54l-422 -456l244 -476l-94 -49l-213 457l-403 -457z" />
<glyph unicode="y" horiz-adv-x="1032" d="M-225 -352l61 65q69 -73 158 -73h2q125 0 215 151l125 209l-178 979l102 35l150 -918l84 166l440 750l98 -37l-733 -1225q-114 -192 -303 -192h-2q-135 0 -219 90z" />
<glyph unicode="z" horiz-adv-x="925" d="M-2 0l18 82l781 831l-582 -20l18 88h689l-19 -82l-778 -831l612 20l-18 -88h-721z" />
<glyph unicode="{" horiz-adv-x="663" d="M61 592l17 82h26q51 0 110.5 62.5t72.5 123.5l43 209q41 203 143.5 295t292.5 115l-6 -84q-156 -31 -225.5 -96.5t-102.5 -229.5l-43 -209q-12 -63 -57 -127q-53 -76 -123 -108q88 -61 88 -174q0 -25 -4 -43l-45 -211q-16 -76 -17 -131q0 -92 48.5 -136.5t156.5 -60.5 l-30 -82q-276 39 -277 272q0 61 16 138l45 211q2 10 3 32q0 57 -30 104.5t-75 47.5h-27z" />
<glyph unicode="|" horiz-adv-x="425" d="M-51 -494l426 2010h102l-426 -2010h-102z" />
<glyph unicode="}" horiz-adv-x="643" d="M-123 -213l6 84q156 31 225.5 96.5t102.5 229.5l43 209q12 63 57 126q53 76 123 109q-88 61 -88 174q0 25 4 43l45 211q16 76 17 131q0 92 -48.5 136t-156.5 61l31 82q276 -39 276 -273q0 -61 -16 -137l-45 -211q-2 -10 -2 -33q0 -57 29.5 -104t74.5 -47h27l-17 -82h-26 q-51 0 -110.5 -62.5t-72.5 -123.5l-43 -209q-41 -203 -143 -295t-293 -115z" />
<glyph unicode="~" horiz-adv-x="942" d="M61 854q51 154 205 154q53 0 168 -31l137 -37q84 -23 125 -22q96 0 133 81l52 -20q-53 -156 -207 -156q-53 0 -144 25l-163 45q-74 20 -123 20q-96 0 -133 -82z" />
<glyph unicode="&#xa1;" horiz-adv-x="411" d="M0 0l215 844h61l-145 -844h-131zM246 1083l63 295h103l-64 -295h-102z" />
<glyph unicode="&#xa2;" horiz-adv-x="974" d="M61 285q0 82 23 188q53 248 141 367q123 166 355 172l32 155h50l-33 -155q114 -2 284 -35l-22 -86q-178 37 -281 39l-184 -885q141 4 328 72l10 -82q-186 -66 -354 -68l-31 -153h-49l32 155q-301 16 -301 316zM164 287q0 -227 215 -240l184 881q-166 -12 -256 -135 q-76 -102 -121 -320q-23 -106 -22 -186z" />
<glyph unicode="&#xa3;" horiz-adv-x="1077" d="M-61 0l16 82h25q70 0 124 53t72 135l90 402h-162l17 82h162l69 309q78 344 391 344q137 -1 334 -64l-37 -77q-199 63 -297 63q-229 0 -288 -266l-70 -309h367l-17 -82h-366l-90 -402q-27 -121 -119 -188h645l-17 -82h-849z" />
<glyph unicode="&#xa4;" horiz-adv-x="1189" d="M61 477l19 82h168q23 154 49 246h-166l19 82h172q86 274 219 395t344 121q137 0 325 -47l-30 -82q-197 45 -306 45q-166 0 -268 -94q-111 -100 -182 -338h340l-19 -82h-344q-31 -111 -51 -246h344l-18 -82h-338q-6 -61 -6 -119q0 -303 254 -303q119 0 368 82l7 -80 q-252 -88 -392 -88q-340 0 -340 393q0 53 7 115h-175z" />
<glyph unicode="&#xa5;" horiz-adv-x="1177" d="M20 283l19 82h430l43 204h-430l16 82h389l-233 709l94 33l232 -742l92 156l434 586l92 -33l-528 -709h391l-17 -82h-430l-43 -204h430l-18 -82h-430l-59 -283h-103l60 283h-431z" />
<glyph unicode="&#xa7;" horiz-adv-x="913" d="M0 -94l25 74q172 -45 299 -46q125 0 205.5 69t80.5 177q0 86 -118 135q-109 39 -218 80q-119 61 -118 176q0 117 80 209q53 61 167 131q-143 66 -143 193q0 145 109 229q100 78 247 78q150 0 297 -43l-28 -76q-135 39 -269 39q-113 0 -185.5 -64.5t-72.5 -162.5 q0 -70 119 -117q209 -84 221 -92q119 -70 119 -197q0 -102 -69 -188q-43 -53 -152 -135q113 -70 113 -195q0 -154 -117 -243q-109 -84 -268 -84q-139 0 -324 53zM254 571q0 -59 88 -98q90 -31 182 -63q195 161 195 288q0 72 -78 117q-27 14 -168 68q-219 -160 -219 -312z " />
<glyph unicode="&#xa8;" horiz-adv-x="1089" d="M276 1221l41 200h103l-41 -200h-103zM666 1221l41 200h102l-41 -200h-102z" />
<glyph unicode="&#xa9;" horiz-adv-x="1632" d="M82 545q0 338 265 599t605 261q256 0 427 -167t171 -411q0 -338 -264 -598t-604 -260q-258 0 -429 165t-171 411zM168 549q0 -217 143.5 -357.5t370.5 -140.5q299 0 542.5 237.5t243.5 536.5q0 217 -144 357.5t-372 140.5q-301 0 -542.5 -237.5t-241.5 -536.5zM489 506 q0 74 23 182q47 221 133 322q94 109 266 108q74 0 234 -33l-29 -79q-154 31 -211 30q-121 0 -184.5 -77.5t-104.5 -270.5q-25 -117 -24 -190q0 -158 151 -158q61 0 263 55l6 -78q-195 -59 -283 -59q-240 0 -240 248z" />
<glyph unicode="&#xaa;" horiz-adv-x="675" d="M82 600l18 82h494l-19 -82h-493zM131 901q0 70 58.5 125t164.5 66l197 20l31 154q2 10 2 16q0 53 -92 53q-59 0 -232 -28l2 75q182 29 236 29q178 0 178 -123q0 -14 -4 -35l-72 -364l18 -109l-94 -22l-10 67q-154 -66 -225 -65q-158 0 -158 141zM219 899q0 -74 82 -74 q72 0 209 56l29 174l-179 -25q-66 -8 -103.5 -49t-37.5 -82z" />
<glyph unicode="&#xab;" horiz-adv-x="776" d="M41 498l401 407l47 -49l-309 -358l148 -359l-58 -49zM348 498l402 407l47 -49l-310 -358l148 -359l-57 -49z" />
<glyph unicode="&#xad;" d="M123 621l16 81h717l-16 -81h-717z" />
<glyph unicode="&#xae;" horiz-adv-x="1632" d="M82 545q0 338 265 599t605 261q256 0 427 -167t171 -411q0 -338 -264 -598t-604 -260q-258 0 -429 165t-171 411zM168 549q0 -217 143.5 -357.5t370.5 -140.5q299 0 542.5 237.5t243.5 536.5q0 217 -144 357.5t-372 140.5q-301 0 -542.5 -237.5t-241.5 -536.5zM463 270 l176 828h309q84 0 136.5 -52t52.5 -128q0 -90 -68 -166q-74 -84 -195 -105l37 -74l127 -284l-84 -35l-172 385h-147l-78 -369h-94zM647 698l182 11q98 6 160 73q53 62 53 136q0 106 -94 110l-229 8z" />
<glyph unicode="&#xaf;" horiz-adv-x="995" d="M197 1296l16 82h594l-16 -82h-594z" />
<glyph unicode="&#xb0;" horiz-adv-x="735" d="M205 1061q0 139 110.5 247.5t251.5 108.5q109 0 179.5 -71t70.5 -177q0 -137 -110.5 -245.5t-251.5 -108.5q-109 0 -179.5 69.5t-70.5 176.5zM285 1061q0 -74 47 -120t123 -46q109 0 195.5 84t86.5 190q0 74 -47 121t-123 47q-109 0 -195.5 -85t-86.5 -191z" />
<glyph unicode="&#xb4;" horiz-adv-x="1032" d="M233 1233l572 242l20 -113l-577 -191z" />
<glyph unicode="&#xb6;" horiz-adv-x="1140" d="M164 872q0 195 133 342q147 164 383 164h481l-336 -1583h-102l319 1501h-180l-319 -1501h-103l158 740h-96q-164 0 -254 102q-84 92 -84 235zM268 874q0 -113 62 -180q66 -78 190 -78h94l146 680h-96q-174 0 -289 -139q-106 -125 -107 -283z" />
<glyph unicode="&#xb7;" horiz-adv-x="327" d="M82 553l61 295h103l-62 -295h-102z" />
<glyph unicode="&#xb8;" horiz-adv-x="964" d="M291 -369l61 64q72 -41 162 -41q127 0 127 96q0 70 -156 70q-49 0 -94 -4l150 221l73 -41l-82 -111q12 2 35 2q63 0 113.5 -36t50.5 -97q0 -90 -67 -139q-57 -43 -150 -43q-154 0 -223 59z" />
<glyph unicode="&#xba;" horiz-adv-x="710" d="M82 600l16 82h494l-17 -82h-493zM143 954q0 49 15 117q33 156 92 232q82 106 237 106q224 0 224 -211q0 -55 -17 -133q-68 -319 -329 -320q-221 0 -222 209zM236 954q0 -137 133 -137q180 0 233 254q19 90 19 127q0 139 -138 139q-102 0 -159 -75q-47 -61 -76 -197 q-12 -57 -12 -111z" />
<glyph unicode="&#xbb;" horiz-adv-x="837" d="M-20 139l309 359l-148 358l58 49l229 -407l-401 -408zM287 139l309 359l-147 358l57 49l229 -407l-401 -408z" />
<glyph unicode="&#xbf;" horiz-adv-x="952" d="M0 270q0 180 143 308q18 16 277 184q160 104 182 215h98q-33 -150 -192 -262q-137 -90 -275 -178q-139 -113 -139 -267q0 -94 66 -149q74 -61 213 -62q217 0 364 107l39 -64q-176 -125 -411 -125q-178 0 -275 86q-90 78 -90 207zM635 1145l51 233h102l-51 -233h-102z" />
<glyph unicode="&#xc0;" horiz-adv-x="1126" d="M-123 14l770 1364h107l209 -1366l-97 -30l-71 495h-545l-273 -493zM293 559h489l-73 510l-25 211zM461 1628l70 113l471 -244l-35 -57z" />
<glyph unicode="&#xc1;" horiz-adv-x="1126" d="M-123 14l770 1364h107l209 -1366l-97 -30l-71 495h-545l-273 -493zM293 559h489l-73 510l-25 211zM405 1499l572 242l20 -113l-577 -191z" />
<glyph unicode="&#xc2;" horiz-adv-x="1126" d="M-123 14l770 1364h107l209 -1366l-97 -30l-71 495h-545l-273 -493zM293 559h489l-73 510l-25 211zM395 1495l360 246l254 -246l-43 -55l-233 178l-311 -178z" />
<glyph unicode="&#xc3;" horiz-adv-x="1126" d="M-123 14l770 1364h107l209 -1366l-97 -30l-71 495h-545l-273 -493zM293 559h489l-73 510l-25 211zM419 1514q49 154 201 153q61 0 135 -46t113 -46q90 0 129 84l51 -20q-51 -156 -203 -156q-61 0 -134.5 46t-112.5 46q-90 0 -129 -84z" />
<glyph unicode="&#xc4;" horiz-adv-x="1126" d="M-123 14l770 1364h107l209 -1366l-97 -30l-71 495h-545l-273 -493zM293 559h489l-73 510l-25 211zM454 1487l41 200h103l-41 -200h-103zM844 1487l41 200h102l-41 -200h-102z" />
<glyph unicode="&#xc5;" horiz-adv-x="1126" d="M-123 14l733 1301q-119 27 -118 125q0 207 251 207q195 0 195 -138q0 -168 -174 -196l199 -1301l-97 -30l-71 495h-545l-273 -493zM293 559h489l-73 510l-25 211zM561 1442q0 -74 131 -74q176 0 176 141q0 76 -131 76q-176 0 -176 -143z" />
<glyph unicode="&#xc6;" horiz-adv-x="1642" d="M-123 14l1047 1364h780l-16 -82l-633 19l-121 -565l502 14l-21 -90l-493 14l-134 -625l658 19l-19 -82h-755l102 477h-428l-379 -493zM408 559h383l159 744l-86 -150z" />
<glyph unicode="&#xc7;" horiz-adv-x="1030" d="M61 342q0 143 43 346q80 381 218 543q145 174 409 174q150 0 361 -51l-27 -86q-246 51 -342 51q-223 0 -338 -152q-102 -135 -176 -479q-45 -213 -45 -338q0 -297 266 -297q113 0 414 90l12 -86q-270 -90 -440 -90q-354 0 -355 375zM86 -369l61 64q72 -41 162 -41 q127 0 127 96q0 70 -156 70q-49 0 -94 -4l150 221l73 -41l-82 -111q12 2 35 2q63 0 113.5 -36t50.5 -97q0 -90 -67 -139q-57 -43 -150 -43q-154 0 -223 59z" />
<glyph unicode="&#xc8;" horiz-adv-x="993" d="M20 0l295 1378h740l-19 -82l-633 19l-120 -565l501 14l-20 -90l-494 14l-133 -625l658 19l-19 -82h-756zM399 1628l70 113l471 -244l-35 -57z" />
<glyph unicode="&#xc9;" horiz-adv-x="993" d="M20 0l295 1378h740l-19 -82l-633 19l-120 -565l501 14l-20 -90l-494 14l-133 -625l658 19l-19 -82h-756zM438 1499l572 242l20 -113l-577 -191z" />
<glyph unicode="&#xca;" horiz-adv-x="993" d="M20 0l295 1378h740l-19 -82l-633 19l-120 -565l501 14l-20 -90l-494 14l-133 -625l658 19l-19 -82h-756zM375 1495l360 246l254 -246l-43 -55l-233 178l-311 -178z" />
<glyph unicode="&#xcb;" horiz-adv-x="993" d="M20 0l295 1378h740l-19 -82l-633 19l-120 -565l501 14l-20 -90l-494 14l-133 -625l658 19l-19 -82h-756zM434 1487l41 200h103l-41 -200h-103zM824 1487l41 200h102l-41 -200h-102z" />
<glyph unicode="&#xcc;" horiz-adv-x="438" d="M20 0l295 1378h103l-295 -1378h-103zM154 1628l70 113l471 -244l-35 -57z" />
<glyph unicode="&#xcd;" horiz-adv-x="438" d="M20 0l295 1378h103l-295 -1378h-103zM98 1499l572 242l20 -113l-577 -191z" />
<glyph unicode="&#xce;" horiz-adv-x="438" d="M20 0l295 1378h103l-295 -1378h-103zM68 1495l360 246l254 -246l-43 -55l-233 178l-311 -178z" />
<glyph unicode="&#xcf;" horiz-adv-x="438" d="M20 0l295 1378h103l-295 -1378h-103zM147 1487l41 200h103l-41 -200h-103zM537 1487l41 200h102l-41 -200h-102z" />
<glyph unicode="&#xd0;" horiz-adv-x="1304" d="M0 625l244 96l141 657h391q199 0 324 -123q133 -133 133 -366q0 -348 -186 -604q-207 -285 -547 -285h-410l135 629l-202 -80zM207 66l303 12q287 12 463 272q155 234 155 533q0 197 -104 309q-96 102 -256 108l-295 13l-117 -547l187 74l22 -76l-229 -90z" />
<glyph unicode="&#xd1;" horiz-adv-x="1271" d="M20 0l295 1378h129l371 -1052l66 -222l268 1274h102l-295 -1378h-129l-436 1274l-268 -1274h-103zM501 1514q49 154 201 153q61 0 135 -46t113 -46q90 0 129 84l51 -20q-51 -156 -203 -156q-61 0 -134.5 46t-112.5 46q-90 0 -129 -84z" />
<glyph unicode="&#xd2;" horiz-adv-x="1269" d="M61 389q0 123 37 301q68 311 183 471q176 244 510 244q417 0 417 -414q0 -123 -39 -301q-66 -313 -180 -473q-176 -248 -506 -248q-422 0 -422 420zM160 387q0 -336 332 -336q264 0 409 203q104 145 166 436q41 186 41 299q0 334 -330 334q-266 0 -411 -199 q-102 -143 -166 -434q-41 -199 -41 -303zM543 1628l70 113l471 -244l-35 -57z" />
<glyph unicode="&#xd3;" horiz-adv-x="1269" d="M61 389q0 123 37 301q68 311 183 471q176 244 510 244q417 0 417 -414q0 -123 -39 -301q-66 -313 -180 -473q-176 -248 -506 -248q-422 0 -422 420zM160 387q0 -336 332 -336q264 0 409 203q104 145 166 436q41 186 41 299q0 334 -330 334q-266 0 -411 -199 q-102 -143 -166 -434q-41 -199 -41 -303zM520 1499l572 242l20 -113l-577 -191z" />
<glyph unicode="&#xd4;" horiz-adv-x="1269" d="M61 389q0 123 37 301q68 311 183 471q176 244 510 244q417 0 417 -414q0 -123 -39 -301q-66 -313 -180 -473q-176 -248 -506 -248q-422 0 -422 420zM160 387q0 -336 332 -336q264 0 409 203q104 145 166 436q41 186 41 299q0 334 -330 334q-266 0 -411 -199 q-102 -143 -166 -434q-41 -199 -41 -303zM498 1495l360 246l254 -246l-43 -55l-233 178l-311 -178z" />
<glyph unicode="&#xd5;" horiz-adv-x="1269" d="M61 389q0 123 37 301q68 311 183 471q176 244 510 244q417 0 417 -414q0 -123 -39 -301q-66 -313 -180 -473q-176 -248 -506 -248q-422 0 -422 420zM160 387q0 -336 332 -336q264 0 409 203q104 145 166 436q41 186 41 299q0 334 -330 334q-266 0 -411 -199 q-102 -143 -166 -434q-41 -199 -41 -303zM532 1514q49 154 201 153q61 0 135 -46t113 -46q90 0 129 84l51 -20q-51 -156 -203 -156q-61 0 -134.5 46t-112.5 46q-90 0 -129 -84z" />
<glyph unicode="&#xd6;" horiz-adv-x="1269" d="M61 389q0 123 37 301q68 311 183 471q176 244 510 244q417 0 417 -414q0 -123 -39 -301q-66 -313 -180 -473q-176 -248 -506 -248q-422 0 -422 420zM160 387q0 -336 332 -336q264 0 409 203q104 145 166 436q41 186 41 299q0 334 -330 334q-266 0 -411 -199 q-102 -143 -166 -434q-41 -199 -41 -303zM557 1487l41 200h103l-41 -200h-103zM947 1487l41 200h102l-41 -200h-102z" />
<glyph unicode="&#xd8;" horiz-adv-x="1269" d="M-61 -59l176 200q-53 96 -54 248q0 127 37 301q66 311 183 471q176 244 510 244q231 0 333 -125l168 190l51 -43l-182 -204q47 -88 47 -232q0 -119 -39 -301q-66 -313 -180 -473q-176 -248 -506 -248q-223 0 -327 115l-166 -186zM160 387q0 -94 26 -166l871 983 q-78 119 -279 119q-266 0 -411 -199q-104 -143 -166 -434q-41 -193 -41 -303zM221 160q80 -109 271 -109q262 0 409 203q104 145 166 436q41 193 41 299q0 86 -21 150z" />
<glyph unicode="&#xd9;" horiz-adv-x="1239" d="M82 256q0 41 12 98l217 1024h103l-217 -1024q-12 -57 -13 -96q0 -207 318 -207q375 0 438 303l217 1024h103l-218 -1024q-82 -385 -540 -385q-420 0 -420 287zM502 1628l70 113l471 -244l-35 -57z" />
<glyph unicode="&#xda;" horiz-adv-x="1239" d="M82 256q0 41 12 98l217 1024h103l-217 -1024q-12 -57 -13 -96q0 -207 318 -207q375 0 438 303l217 1024h103l-218 -1024q-82 -385 -540 -385q-420 0 -420 287zM499 1499l572 242l20 -113l-577 -191z" />
<glyph unicode="&#xdb;" horiz-adv-x="1239" d="M82 256q0 41 12 98l217 1024h103l-217 -1024q-12 -57 -13 -96q0 -207 318 -207q375 0 438 303l217 1024h103l-218 -1024q-82 -385 -540 -385q-420 0 -420 287zM498 1495l360 246l254 -246l-43 -55l-233 178l-311 -178z" />
<glyph unicode="&#xdc;" horiz-adv-x="1239" d="M82 256q0 41 12 98l217 1024h103l-217 -1024q-12 -57 -13 -96q0 -207 318 -207q375 0 438 303l217 1024h103l-218 -1024q-82 -385 -540 -385q-420 0 -420 287zM536 1487l41 200h103l-41 -200h-103zM926 1487l41 200h102l-41 -200h-102z" />
<glyph unicode="&#xdd;" horiz-adv-x="1067" d="M164 1360l98 33l250 -779l94 152l467 627l96 -33l-622 -823l-113 -537h-102l112 537zM434 1499l572 242l20 -113l-577 -191z" />
<glyph unicode="&#xde;" horiz-adv-x="1116" d="M20 0l295 1378h103l-64 -297h377q152 0 232 -98q71 -88 71 -227q0 -178 -114 -310q-131 -150 -349 -149h-385l-63 -297h-103zM203 367l362 10q156 4 257.5 112.5t101.5 268.5q0 98 -52 166q-57 74 -153 77l-379 15z" />
<glyph unicode="&#xdf;" horiz-adv-x="1222" d="M82 0l192 899l-174 21l13 61h178l53 248q37 174 105 237q84 80 280 80q131 0 229 -61q119 -74 119 -203q0 -158 -125 -252q-115 -63 -229 -129q-125 -72 -125 -176q0 -84 125 -135q115 -45 231 -92q125 -70 125 -205q0 -322 -405 -322q-156 0 -326 45l25 86 q176 -49 305 -49q303 0 303 240q0 90 -125 141q-115 45 -231 90q-125 70 -125 199q0 141 125 229q115 66 229 129q125 80 125 201q0 76 -71.5 128t-174.5 52q-160 0 -221 -65q-41 -45 -72 -189l-256 -1208h-102z" />
<glyph unicode="&#xe0;" d="M0 193q0 109 86 192q98 96 266 113l346 34l52 263q4 20 4 32q0 109 -181 109q-82 0 -225 -23l-131 -20l2 80l98 16q172 29 267 29q272 0 272 -180q0 -23 -6 -54l-121 -612l29 -162l-107 -24l-18 116q-172 -72 -191 -79q-117 -41 -206 -41q-236 0 -236 211zM96 190 q0 -129 154 -129q72 0 201 41q88 29 176 60l59 307l-332 -45q-119 -16 -192 -90q-66 -66 -66 -144zM328 1362l70 113l471 -244l-35 -57z" />
<glyph unicode="&#xe1;" d="M0 193q0 109 86 192q98 96 266 113l346 34l52 263q4 20 4 32q0 109 -181 109q-82 0 -225 -23l-131 -20l2 80l98 16q172 29 267 29q272 0 272 -180q0 -23 -6 -54l-121 -612l29 -162l-107 -24l-18 116q-172 -72 -191 -79q-117 -41 -206 -41q-236 0 -236 211zM96 190 q0 -129 154 -129q72 0 201 41q88 29 176 60l59 307l-332 -45q-119 -16 -192 -90q-66 -66 -66 -144zM305 1233l572 242l20 -113l-577 -191z" />
<glyph unicode="&#xe2;" d="M0 193q0 109 86 192q98 96 266 113l346 34l52 263q4 20 4 32q0 109 -181 109q-82 0 -225 -23l-131 -20l2 80l98 16q172 29 267 29q272 0 272 -180q0 -23 -6 -54l-121 -612l29 -162l-107 -24l-18 116q-172 -72 -191 -79q-117 -41 -206 -41q-236 0 -236 211zM96 190 q0 -129 154 -129q72 0 201 41q88 29 176 60l59 307l-332 -45q-119 -16 -192 -90q-66 -66 -66 -144zM272 1229l360 246l254 -246l-43 -55l-233 178l-311 -178z" />
<glyph unicode="&#xe3;" d="M0 193q0 109 86 192q98 96 266 113l346 34l52 263q4 20 4 32q0 109 -181 109q-82 0 -225 -23l-131 -20l2 80l98 16q172 29 267 29q272 0 272 -180q0 -23 -6 -54l-121 -612l29 -162l-107 -24l-18 116q-172 -72 -191 -79q-117 -41 -206 -41q-236 0 -236 211zM96 190 q0 -129 154 -129q72 0 201 41q88 29 176 60l59 307l-332 -45q-119 -16 -192 -90q-66 -66 -66 -144zM317 1305q49 154 201 153q61 0 135 -46t113 -46q90 0 129 84l51 -20q-51 -156 -203 -156q-61 0 -134.5 46t-112.5 46q-90 0 -129 -84z" />
<glyph unicode="&#xe4;" d="M0 193q0 109 86 192q98 96 266 113l346 34l52 263q4 20 4 32q0 109 -181 109q-82 0 -225 -23l-131 -20l2 80l98 16q172 29 267 29q272 0 272 -180q0 -23 -6 -54l-121 -612l29 -162l-107 -24l-18 116q-172 -72 -191 -79q-117 -41 -206 -41q-236 0 -236 211zM96 190 q0 -129 154 -129q72 0 201 41q88 29 176 60l59 307l-332 -45q-119 -16 -192 -90q-66 -66 -66 -144zM358 1221l41 200h103l-41 -200h-103zM748 1221l41 200h102l-41 -200h-102z" />
<glyph unicode="&#xe5;" d="M0 193q0 109 86 192q98 96 266 113l346 34l52 263q4 20 4 32q0 109 -181 109q-82 0 -225 -23l-131 -20l2 80l98 16q172 29 267 29q272 0 272 -180q0 -23 -6 -54l-121 -612l29 -162l-107 -24l-18 116q-172 -72 -191 -79q-117 -41 -206 -41q-236 0 -236 211zM96 190 q0 -129 154 -129q72 0 201 41q88 29 176 60l59 307l-332 -45q-119 -16 -192 -90q-66 -66 -66 -144zM404 1307q0 207 252 206q194 0 194 -137q0 -203 -250 -202q-197 0 -196 133zM473 1309q0 -74 131 -74q176 0 176 141q0 76 -131 76q-176 0 -176 -143z" />
<glyph unicode="&#xe6;" horiz-adv-x="1587" d="M0 193q0 109 86 192q98 96 266 113l346 34l52 263q4 20 4 32q0 109 -181 109q-82 0 -225 -23l-131 -20l2 80l98 16q172 29 267 29q233 0 260 -141q117 133 325 133q316 -1 316 -267q0 -84 -33 -215l-666 -61v-2q-20 -100 -20 -178q0 -242 248 -242q133 0 332 72l10 -82 q-199 -68 -352 -68q-244 0 -312 160q-111 -47 -223 -94q-133 -51 -233 -51q-236 0 -236 211zM96 190q0 -129 154 -129q96 0 424 119q-10 55 -10 105q0 78 20 174l-330 -31q-119 -10 -192 -88q-66 -70 -66 -150zM803 543l565 55q18 77 18 145q0 188 -223 189 q-164 0 -254 -123q-63 -86 -106 -266z" />
<glyph unicode="&#xe7;" horiz-adv-x="913" d="M61 285q0 78 23 188q55 252 145 373q127 166 371 166q115 0 293 -35l-23 -86q-199 39 -272 39q-184 -2 -283 -127q-80 -102 -129 -330q-23 -111 -22 -186q0 -242 248 -242q123 0 321 72l10 -82q-199 -68 -342 -68q-340 0 -340 318zM86 -369l61 64q72 -41 162 -41 q127 0 127 96q0 70 -156 70q-49 0 -94 -4l150 221l73 -41l-82 -111q12 2 35 2q63 0 113.5 -36t50.5 -97q0 -90 -67 -139q-57 -43 -150 -43q-154 0 -223 59z" />
<glyph unicode="&#xe8;" horiz-adv-x="985" d="M61 285q0 76 25 194q51 244 119 348q119 182 362 183q316 -1 316 -267q0 -88 -33 -219l-649 11q-6 -23 -17 -70q-20 -109 -20 -178q0 -242 248 -242q133 0 331 72l11 -82q-199 -68 -353 -68q-340 0 -340 318zM215 594l551 12q18 78 18 137q0 188 -223 189 q-154 0 -242 -105q-66 -78 -104 -233zM338 1362l70 113l471 -244l-35 -57z" />
<glyph unicode="&#xe9;" horiz-adv-x="985" d="M61 285q0 76 25 194q51 244 119 348q119 182 362 183q316 -1 316 -267q0 -88 -33 -219l-649 11q-6 -23 -17 -70q-20 -109 -20 -178q0 -242 248 -242q133 0 331 72l11 -82q-199 -68 -353 -68q-340 0 -340 318zM215 594l551 12q18 78 18 137q0 188 -223 189 q-154 0 -242 -105q-66 -78 -104 -233zM294 1233l572 242l20 -113l-577 -191z" />
<glyph unicode="&#xea;" horiz-adv-x="985" d="M61 285q0 76 25 194q51 244 119 348q119 182 362 183q316 -1 316 -267q0 -88 -33 -219l-649 11q-6 -23 -17 -70q-20 -109 -20 -178q0 -242 248 -242q133 0 331 72l11 -82q-199 -68 -353 -68q-340 0 -340 318zM215 594l551 12q18 78 18 137q0 188 -223 189 q-154 0 -242 -105q-66 -78 -104 -233zM272 1229l360 246l254 -246l-43 -55l-233 178l-311 -178z" />
<glyph unicode="&#xeb;" horiz-adv-x="985" d="M61 285q0 76 25 194q51 244 119 348q119 182 362 183q316 -1 316 -267q0 -88 -33 -219l-649 11q-6 -23 -17 -70q-20 -109 -20 -178q0 -242 248 -242q133 0 331 72l11 -82q-199 -68 -353 -68q-340 0 -340 318zM215 594l551 12q18 78 18 137q0 188 -223 189 q-154 0 -242 -105q-66 -78 -104 -233zM337 1221l41 200h103l-41 -200h-103zM727 1221l41 200h102l-41 -200h-102z" />
<glyph unicode="&#xec;" horiz-adv-x="446" d="M41 0l209 981h102l-209 -981h-102zM92 1362l70 113l471 -244l-35 -57z" />
<glyph unicode="&#xed;" horiz-adv-x="446" d="M41 0l209 981h102l-209 -981h-102zM49 1233l572 242l20 -113l-578 -191z" />
<glyph unicode="&#xee;" horiz-adv-x="446" d="M27 1229l360 246l254 -246l-43 -55l-233 178l-312 -178zM41 0l209 981h102l-209 -981h-102z" />
<glyph unicode="&#xef;" horiz-adv-x="446" d="M41 0l209 981h102l-209 -981h-102zM72 1221l41 200h102l-41 -200h-102zM461 1221l41 200h102l-41 -200h-102z" />
<glyph unicode="&#xf0;" horiz-adv-x="1056" d="M61 264q0 258 127 414q137 168 392 168q182 0 260 -86q-12 182 -95 348l-231 -92l-22 76l217 86q-92 160 -236 262l62 76q168 -111 274 -299l225 90l23 -76l-213 -84q104 -221 104 -471q0 -137 -30 -275q-94 -449 -496 -448q-360 0 -361 311zM162 268q0 -233 258 -233 q317 0 395 364q16 74 16 131q0 233 -256 234q-201 0 -313 -148q-100 -135 -100 -348z" />
<glyph unicode="&#xf1;" horiz-adv-x="1077" d="M41 0l174 817l-27 164l103 35l20 -129l246 98q82 33 166 33q100 0 162 -43q69 -52 69 -146q0 -27 -8 -65l-162 -764h-102l162 764q6 29 6 47q0 123 -150 123q-53 0 -102 -16l-279 -93l-176 -825h-102zM378 1305q49 154 201 153q61 0 135 -46t113 -46q90 0 129 84l51 -20 q-51 -156 -203 -156q-61 0 -134.5 46t-112.5 46q-90 0 -129 -84z" />
<glyph unicode="&#xf2;" horiz-adv-x="1058" d="M61 285q0 78 23 188q55 254 147 375q131 168 379 168q346 0 346 -324q0 -90 -28 -219q-51 -242 -158 -362q-129 -147 -364 -148q-344 0 -345 322zM164 285q0 -244 248 -244q176 0 278 117q90 102 135 315q31 139 31 219q0 246 -252 246q-186 0 -287 -129 q-82 -104 -131 -336q-23 -111 -22 -188zM379 1362l70 113l471 -244l-35 -57z" />
<glyph unicode="&#xf3;" horiz-adv-x="1058" d="M61 285q0 78 23 188q55 254 147 375q131 168 379 168q346 0 346 -324q0 -90 -28 -219q-51 -242 -158 -362q-129 -147 -364 -148q-344 0 -345 322zM164 285q0 -244 248 -244q176 0 278 117q90 102 135 315q31 139 31 219q0 246 -252 246q-186 0 -287 -129 q-82 -104 -131 -336q-23 -111 -22 -188zM356 1233l572 242l20 -113l-577 -191z" />
<glyph unicode="&#xf4;" horiz-adv-x="1058" d="M61 285q0 78 23 188q55 254 147 375q131 168 379 168q346 0 346 -324q0 -90 -28 -219q-51 -242 -158 -362q-129 -147 -364 -148q-344 0 -345 322zM164 285q0 -244 248 -244q176 0 278 117q90 102 135 315q31 139 31 219q0 246 -252 246q-186 0 -287 -129 q-82 -104 -131 -336q-23 -111 -22 -188zM334 1229l360 246l254 -246l-43 -55l-233 178l-311 -178z" />
<glyph unicode="&#xf5;" horiz-adv-x="1058" d="M61 285q0 78 23 188q55 254 147 375q131 168 379 168q346 0 346 -324q0 -90 -28 -219q-51 -242 -158 -362q-129 -147 -364 -148q-344 0 -345 322zM164 285q0 -244 248 -244q176 0 278 117q90 102 135 315q31 139 31 219q0 246 -252 246q-186 0 -287 -129 q-82 -104 -131 -336q-23 -111 -22 -188zM348 1305q49 154 201 153q61 0 135 -46t113 -46q90 0 129 84l51 -20q-51 -156 -203 -156q-61 0 -134.5 46t-112.5 46q-90 0 -129 -84z" />
<glyph unicode="&#xf6;" horiz-adv-x="1058" d="M61 285q0 78 23 188q55 254 147 375q131 168 379 168q346 0 346 -324q0 -90 -28 -219q-51 -242 -158 -362q-129 -147 -364 -148q-344 0 -345 322zM164 285q0 -244 248 -244q176 0 278 117q90 102 135 315q31 139 31 219q0 246 -252 246q-186 0 -287 -129 q-82 -104 -131 -336q-23 -111 -22 -188zM389 1221l41 200h103l-41 -200h-103zM779 1221l41 200h102l-41 -200h-102z" />
<glyph unicode="&#xf7;" horiz-adv-x="1142" d="M82 621l16 81h963l-17 -81h-962zM428 180l53 254h82l-53 -254h-82zM578 889l55 254h82l-53 -254h-84z" />
<glyph unicode="&#xf8;" horiz-adv-x="1058" d="M61 -47l142 149q-41 74 -41 183q0 82 22 188q53 254 148 375q131 168 379 168q180 0 268 -88l125 133l47 -41l-135 -143q41 -74 41 -185q0 -84 -29 -219q-51 -242 -158 -362q-129 -147 -364 -148q-182 0 -266 88l-131 -139zM264 285q0 -59 15 -103l632 676 q-59 80 -206 80q-186 0 -287 -129q-82 -106 -131 -336q-23 -106 -23 -188zM307 123q59 -82 205 -82q176 0 279 117q90 102 135 315q30 145 30 219q0 61 -14 105z" />
<glyph unicode="&#xf9;" horiz-adv-x="1075" d="M82 158q0 27 8 65l160 758h102l-159 -758q-6 -29 -7 -47q0 -123 150 -123q53 0 102 17l279 92l174 819h102l-172 -811l27 -164l-103 -35l-20 129l-246 -98q-82 -33 -166 -33q-100 0 -161 43q-70 51 -70 146zM399 1362l70 113l471 -244l-35 -57z" />
<glyph unicode="&#xfa;" horiz-adv-x="1075" d="M82 158q0 27 8 65l160 758h102l-159 -758q-6 -29 -7 -47q0 -123 150 -123q53 0 102 17l279 92l174 819h102l-172 -811l27 -164l-103 -35l-20 129l-246 -98q-82 -33 -166 -33q-100 0 -161 43q-70 51 -70 146zM356 1233l572 242l20 -113l-577 -191z" />
<glyph unicode="&#xfb;" horiz-adv-x="1075" d="M82 158q0 27 8 65l160 758h102l-159 -758q-6 -29 -7 -47q0 -123 150 -123q53 0 102 17l279 92l174 819h102l-172 -811l27 -164l-103 -35l-20 129l-246 -98q-82 -33 -166 -33q-100 0 -161 43q-70 51 -70 146zM334 1229l360 246l254 -246l-43 -55l-233 178l-311 -178z" />
<glyph unicode="&#xfc;" horiz-adv-x="1075" d="M82 158q0 27 8 65l160 758h102l-159 -758q-6 -29 -7 -47q0 -123 150 -123q53 0 102 17l279 92l174 819h102l-172 -811l27 -164l-103 -35l-20 129l-246 -98q-82 -33 -166 -33q-100 0 -161 43q-70 51 -70 146zM419 1221l41 200h103l-41 -200h-103zM809 1221l41 200h102 l-41 -200h-102z" />
<glyph unicode="&#xfd;" horiz-adv-x="1032" d="M-225 -352l61 65q70 -74 160 -73q125 0 215 151l125 209l-178 979l102 35l150 -918l84 166l440 750l98 -37l-733 -1225q-115 -193 -305 -192q-135 0 -219 90zM356 1233l572 242l20 -113l-577 -191z" />
<glyph unicode="&#xfe;" horiz-adv-x="1062" d="M-51 -449l418 1965h102l-127 -594q176 94 307 94q143 0 221 -101q70 -89 70 -243q0 -268 -125 -469q-145 -238 -395 -238q-106 0 -270 51l-99 -465h-102zM164 82q156 -37 239 -37q227 0 342 209q93 166 93 416q0 266 -213 266q-137 0 -299 -92z" />
<glyph unicode="&#xff;" horiz-adv-x="1032" d="M-225 -352l61 65q70 -74 160 -73q125 0 215 151l125 209l-178 979l102 35l150 -918l84 166l440 750l98 -37l-733 -1225q-115 -193 -305 -192q-135 0 -219 90zM378 1221l41 200h103l-41 -200h-103zM768 1221l41 200h102l-41 -200h-102z" />
<glyph unicode="&#x152;" horiz-adv-x="1683" d="M61 401q0 104 39 289q66 305 181 459q174 229 505 229h959l-19 -82l-632 19l-121 -565l502 14l-21 -90l-493 14l-134 -625l658 19l-19 -82h-974q-430 0 -431 401zM166 406q0 -324 344 -324h219l258 1214h-219q-268 0 -406 -186q-98 -131 -159 -420q-37 -176 -37 -284z " />
<glyph unicode="&#x153;" horiz-adv-x="1726" d="M61 285q0 82 23 188q53 254 147 375q131 168 379 168q274 0 330 -199q117 193 369 193q315 -1 315 -267q0 -88 -33 -219l-649 11q-37 -135 -37 -248q0 -242 248 -242q133 0 332 72l10 -82q-199 -68 -352 -68q-272 0 -328 205q-131 -209 -409 -209q-344 0 -345 322z M164 285q0 -244 248 -244q176 0 278 117q90 102 135 315q31 145 31 219q0 246 -252 246q-186 0 -287 -129q-82 -106 -131 -336q-23 -106 -22 -188zM956 594l551 12q19 78 19 137q0 188 -223 189q-154 0 -242 -105q-66 -78 -105 -233z" />
<glyph unicode="&#x178;" horiz-adv-x="1067" d="M164 1360l98 33l250 -779l94 152l467 627l96 -33l-622 -823l-113 -537h-102l112 537zM423 1487l41 200h103l-41 -200h-103zM813 1487l41 200h102l-41 -200h-102z" />
<glyph unicode="&#x2c6;" horiz-adv-x="995" d="M170 1229l360 246l254 -246l-43 -55l-233 178l-311 -178z" />
<glyph unicode="&#x2dc;" horiz-adv-x="1142" d="M276 1305q49 154 201 153q61 0 135 -46t113 -46q90 0 129 84l51 -20q-51 -156 -203 -156q-61 0 -134.5 46t-112.5 46q-90 0 -129 -84z" />
<glyph unicode="&#x2000;" horiz-adv-x="870" />
<glyph unicode="&#x2001;" horiz-adv-x="1741" />
<glyph unicode="&#x2002;" horiz-adv-x="870" />
<glyph unicode="&#x2003;" horiz-adv-x="1741" />
<glyph unicode="&#x2004;" horiz-adv-x="580" />
<glyph unicode="&#x2005;" horiz-adv-x="435" />
<glyph unicode="&#x2006;" horiz-adv-x="290" />
<glyph unicode="&#x2007;" horiz-adv-x="290" />
<glyph unicode="&#x2008;" horiz-adv-x="217" />
<glyph unicode="&#x2009;" horiz-adv-x="348" />
<glyph unicode="&#x200a;" horiz-adv-x="96" />
<glyph unicode="&#x2010;" d="M123 621l16 81h717l-16 -81h-717z" />
<glyph unicode="&#x2011;" d="M123 621l16 81h717l-16 -81h-717z" />
<glyph unicode="&#x2012;" d="M123 621l16 81h717l-16 -81h-717z" />
<glyph unicode="&#x2013;" horiz-adv-x="1024" d="M-8 621l16 81h1024l-16 -81h-1024z" />
<glyph unicode="&#x2014;" horiz-adv-x="2048" d="M-8 621l16 81h2048l-16 -81h-2048z" />
<glyph unicode="&#x2018;" horiz-adv-x="403" d="M41 819l430 586l55 -31l-374 -610z" />
<glyph unicode="&#x2019;" horiz-adv-x="362" d="M20 793l375 610l111 -55l-430 -586z" />
<glyph unicode="&#x201a;" horiz-adv-x="362" d="M-205 -293l375 610l111 -55l-431 -586z" />
<glyph unicode="&#x201c;" horiz-adv-x="731" d="M41 817l430 586l55 -31l-374 -610zM369 817l430 586l55 -31l-375 -610z" />
<glyph unicode="&#x201d;" horiz-adv-x="690" d="M20 793l375 610l111 -55l-430 -586zM348 793l375 610l111 -55l-431 -586z" />
<glyph unicode="&#x201e;" horiz-adv-x="690" d="M-205 -293l375 610l111 -55l-431 -586zM123 -293l375 610l110 -55l-430 -586z" />
<glyph unicode="&#x2022;" horiz-adv-x="786" d="M102 575q0 135 108.5 240t244.5 105q102 0 165.5 -64t63.5 -162q0 -135 -108.5 -239.5t-243.5 -104.5q-102 0 -166 63.5t-64 161.5z" />
<glyph unicode="&#x202f;" horiz-adv-x="348" />
<glyph unicode="&#x2039;" horiz-adv-x="468" d="M41 498l401 407l47 -49l-309 -358l148 -359l-58 -49z" />
<glyph unicode="&#x203a;" horiz-adv-x="530" d="M-20 139l309 359l-148 358l58 49l229 -407l-401 -408z" />
<glyph unicode="&#x205f;" horiz-adv-x="435" />
<glyph unicode="&#x2122;" horiz-adv-x="1284" d="M92 1300l17 78h491l-16 -78l-195 25l-129 -608h-92l129 608zM498 723l215 655h98l63 -573l44 117l258 456h108l-63 -655l-93 -12l41 387l23 164l-297 -545h-80l-49 381l-8 164l-178 -551z" />
<glyph unicode="&#x25fc;" horiz-adv-x="1003" d="M0 0v1004h1004v-1004h-1004z" />
</font>
</defs>
</svg>
