<?xml version="1.0" standalone="no"?>
<!DOCTYPE svg PUBLIC "-//W3C//DTD SVG 1.1//EN" "http://www.w3.org/Graphics/SVG/1.1/DTD/svg11.dtd" >
<svg xmlns="http://www.w3.org/2000/svg">
<metadata></metadata>
<defs>
<font id="anomolybold" horiz-adv-x="552" >
<font-face units-per-em="2048" ascent="1638" descent="-410" />
<missing-glyph horiz-adv-x="491" />
<glyph horiz-adv-x="2048" />
<glyph horiz-adv-x="2048" />
<glyph unicode="&#xd;" horiz-adv-x="491" />
<glyph unicode=" "  horiz-adv-x="491" />
<glyph unicode="&#x09;" horiz-adv-x="491" />
<glyph unicode="&#xa0;" horiz-adv-x="491" />
<glyph unicode="!" horiz-adv-x="530" d="M82 1378h367l-93 -905h-184zM111 0v336h307v-336h-307z" />
<glyph unicode="&#x22;" horiz-adv-x="1021" d="M82 1378h367l-93 -618h-184zM573 1378h367l-92 -618h-184z" />
<glyph unicode="#" horiz-adv-x="1462" d="M82 375v243h280l41 170h-217v242h275l90 379l276 -53l-77 -326h120l91 379l276 -53l-78 -326h221v-242h-278l-43 -170h219v-243h-277l-94 -398l-276 48l82 350h-121l-94 -398l-277 48l82 350h-221zM649 618h123l41 170h-121z" />
<glyph unicode="$" horiz-adv-x="1286" d="M61 96l97 238l129 -45q147 -51 305 -51h10v348q-236 57 -303 100q-154 92 -154 301q0 389 457 406v163h72v-163q127 -2 289 -33l153 -29l-65 -246l-199 43q-102 23 -178 25v-311q223 -51 311 -111q158 -107 158 -332q0 -391 -469 -417v-168h-72v166q-248 0 -479 92z M453 987q-1 -86 149 -127v289q-150 -18 -149 -162zM674 244q162 24 162 155q0 119 -162 168v-323z" />
<glyph unicode="%" horiz-adv-x="1773" d="M61 1012q0 387 355 387q354 0 354 -387t-354 -387t-355 387zM324 82l850 1366l274 -137l-848 -1370zM334 1012q0 -78 10 -107q16 -49 72 -49q55 0 73 49q11 31 11 107q0 78 -11 106q-18 49 -73 49t-72 -49q-10 -29 -10 -106zM1004 362q0 387 354 388q354 -1 354 -388 t-354 -387t-354 387zM1276 362q0 -78 10 -106q16 -49 72 -49q55 0 74 49q10 30 10 106q0 78 -10 107q-18 49 -74 49q-55 0 -72 -49q-10 -29 -10 -107z" />
<glyph unicode="&#x26;" horiz-adv-x="1435" d="M82 408q0 233 201 335q-125 96 -125 252q0 125 78 232q127 170 407 170q281 0 408 -170q78 -106 77 -232v-53h-307v53q0 152 -178 152t-178 -152q0 -68 37 -96q55 -45 217 -45v-250q-213 0 -285 -59q-45 -39 -45 -137q0 -207 248 -207q147 0 201 57q43 45 43 150v294h514 v-251l-207 26v-69q0 -180 -98 -295q-137 -162 -453 -162q-315 0 -459 176q-96 119 -96 281z" />
<glyph unicode="'" horiz-adv-x="530" d="M82 1378h367l-93 -618h-184z" />
<glyph unicode="(" horiz-adv-x="690" d="M0 627q0 573 512 886l174 -225q-379 -233 -379 -661q0 -427 383 -658l-174 -227q-516 317 -516 885z" />
<glyph unicode=")" horiz-adv-x="690" d="M0 -31q383 231 383 658q0 428 -379 661l174 225q512 -313 512 -886q0 -567 -516 -885z" />
<glyph unicode="*" horiz-adv-x="1191" d="M82 901l88 273l207 -68l104 -64l-28 119v217h286v-217l-28 -119l104 64l207 68l88 -273l-207 -67l-121 -11l92 -80l130 -176l-234 -168l-127 176l-47 113l-47 -113l-127 -176l-232 168l127 176l93 80l-121 11z" />
<glyph unicode="+" horiz-adv-x="1208" d="M61 471v250h418v418h250v-418h418v-250h-418v-418h-250v418h-418z" />
<glyph unicode="," horiz-adv-x="684" d="M14 -264l328 674l315 -183l-426 -620z" />
<glyph unicode="-" horiz-adv-x="860" d="M123 471v250h614v-250h-614z" />
<glyph unicode="." d="M123 0v336h307v-336h-307z" />
<glyph unicode="/" horiz-adv-x="827" d="M20 27l506 1396l281 -102l-506 -1397z" />
<glyph unicode="0" horiz-adv-x="1312" d="M82 690q0 729 575 729q574 0 574 -729t-574 -729q-575 0 -575 729zM389 690q0 -236 33 -325q57 -152 235 -152q176 0 234 152q33 89 33 325t-33 326q-57 152 -234 151q-178 0 -235 -151q-33 -90 -33 -326z" />
<glyph unicode="1" horiz-adv-x="1093" d="M123 1014l504 364h221v-1378h-307l2 899l10 131h-4l-78 -94l-164 -119z" />
<glyph unicode="2" horiz-adv-x="1183" d="M82 0v197l618 632q94 96 95 175q0 70 -55.5 115.5t-131.5 45.5q-168 0 -241 -198l-275 80q68 184 215 280q135 88 301 88q199 0 342 -112q152 -119 152 -299q0 -176 -168 -349l-330 -336l-129 -102l617 33v-250h-1010z" />
<glyph unicode="3" horiz-adv-x="1200" d="M41 209l240 147q131 -141 276 -141q125 0 195 66q59 55 59 131q0 74 -57 125q-68 61 -197 61h-170v250h143q231 0 232 156q0 72 -54.5 116.5t-134.5 44.5q-68 0 -117.5 -29.5t-111.5 -107.5l-244 141q203 246 473 246q188 0 330 -98q166 -115 166 -313q0 -219 -182 -275 v-4q231 -80 231 -313q0 -184 -147 -312q-158 -137 -414 -137q-299 0 -516 246z" />
<glyph unicode="4" horiz-adv-x="1224" d="M51 238v233l471 963l266 -115l-364 -750l-74 -102v-4l252 8v254h307v-242l254 9v-254h-254v-238h-307v238h-551z" />
<glyph unicode="5" horiz-adv-x="1177" d="M41 213l229 158q129 -158 273 -158q115 0 186 74q63 68 64 159q0 92 -72 152q-82 68 -229 68q-145 0 -326 -54v766h856v-250l-549 33v-250q20 2 59 2q266 0 424 -147q140 -133 140 -326q0 -195 -135 -327q-154 -150 -418 -150q-139 0 -244 47q-131 57 -258 203z" />
<glyph unicode="6" horiz-adv-x="1234" d="M82 494q0 297 188 550q209 276 582 402l106 -256q-297 -98 -444 -291q45 16 113 16q209 0 356 -114q170 -132 170 -359q0 -195 -137 -329q-152 -152 -404 -152q-217 0 -366 131q-164 147 -164 402zM377 494q0 -279 233 -279q117 0 187 72q61 63 61 159q0 109 -86 168 q-76 53 -190 54q-111 0 -189 -45q-16 -55 -16 -129z" />
<glyph unicode="7" horiz-adv-x="993" d="M0 1128v250h963v-233l-582 -1198l-272 100l473 977l86 137z" />
<glyph unicode="8" horiz-adv-x="1255" d="M82 412q0 184 182 323q-133 98 -133 266q0 201 166 316q141 98 330 98q221 0 364 -125q137 -121 137 -286q0 -168 -145 -273q191 -124 191 -319q0 -180 -144 -310q-154 -139 -403 -139q-248 0 -404 139q-141 129 -141 310zM389 412q0 -76 57 -131q66 -66 181 -66t180 66 q57 55 57 131q0 86 -66.5 138t-176.5 56q-31 2 -95 8q-137 -84 -137 -202zM438 1001q0 -100 92 -135q18 -8 181 -32q106 63 106 167q0 68 -51 115t-139 47q-80 0 -134.5 -44t-54.5 -118z" />
<glyph unicode="9" horiz-adv-x="1234" d="M82 936q0 195 137 330q152 152 404 151q217 0 366 -131q164 -147 164 -401q0 -297 -188 -549q-209 -279 -582 -404l-107 256q297 98 445 291q-45 -16 -113 -16q-209 0 -356 115q-170 131 -170 358zM377 932q0 -109 86 -168q76 -53 190 -53q111 0 189 45q16 55 16 129 q0 279 -233 278q-117 0 -185 -71q-63 -63 -63 -160z" />
<glyph unicode=":" horiz-adv-x="634" d="M164 0v336h307v-336h-307zM164 645v336h307v-336h-307z" />
<glyph unicode=";" horiz-adv-x="684" d="M14 -264l328 674l315 -183l-426 -620zM260 645v336h307v-336h-307z" />
<glyph unicode="&#x3c;" horiz-adv-x="1146" d="M61 393v205l1024 442v-288l-688 -256l688 -256v-289z" />
<glyph unicode="=" horiz-adv-x="1208" d="M61 246v250h1086v-250h-1086zM61 696v250h1086v-250h-1086z" />
<glyph unicode="&#x3e;" horiz-adv-x="1146" d="M61 -49v289l689 256l-689 256v288l1024 -442v-205z" />
<glyph unicode="?" horiz-adv-x="1081" d="M20 1212q242 188 498 189q227 0 369 -115q133 -110 133 -278q0 -174 -107 -283l-202 -147q-111 -82 -115 -187l-291 -2q6 195 115 307q20 20 198 142q106 74 107 170q0 139 -211 139q-150 0 -317 -131zM301 0v264h297v-264h-297z" />
<glyph unicode="@" horiz-adv-x="1579" d="M61 672q0 326 111 502q172 274 621 274q444 0 614 -270q111 -174 111 -496q0 -279 -193 -408l135 -190q-301 -188 -667 -188q-446 0 -619 274q-113 176 -113 502zM348 672q0 -266 74 -379q98 -154 371 -154q223 0 407 86q-55 -10 -106 -10q-154 0 -230 115 q-92 -33 -174 -33q-119 0 -188 63q-78 74 -78 215q0 213 94 333t252 120q109 0 229 -57l62 71l147 -106q-66 268 -415 268q-272 0 -371 -151q-74 -115 -74 -381zM672 575q0 -94 102 -94q23 0 53 8l76 347q-43 8 -72 8q-90 0 -124.5 -61.5t-34.5 -207.5zM1083 416h4 q51 0 93 59q51 74 51 207q0 86 -6 162l-68 -76z" />
<glyph unicode="A" horiz-adv-x="1355" d="M0 37l526 1341h303l527 -1341l-293 -66l-131 344l-53 -6h-402l-53 6l-131 -344zM514 555l53 6h221l52 -6l-101 299l-61 211h-4l-62 -211z" />
<glyph unicode="B" horiz-adv-x="1306" d="M123 0v1378h584q203 0 323 -116q111 -104 111 -256q0 -80 -41 -164q-51 -100 -135 -129v-4q115 -6 187.5 -94t72.5 -207q0 -160 -125 -279q-135 -129 -352 -129h-625zM430 225l318 21q82 6 129 57q41 47 41 115q0 61 -35 107t-95 50l-358 23v-373zM432 797l277 22 q49 4 87 45t38 109q0 70 -38 112.5t-89 47.5l-275 20v-356z" />
<glyph unicode="C" horiz-adv-x="1226" d="M82 688q0 393 149 561q133 154 424 154q139 0 332 -33l121 -20l-51 -246l-121 20q-182 31 -268 31q-156 0 -215 -96q-61 -102 -62 -371q0 -256 53.5 -360.5t196.5 -104.5q78 0 227 37l191 47l86 -239l-193 -50q-184 -47 -331 -47q-539 0 -539 717z" />
<glyph unicode="D" horiz-adv-x="1374" d="M123 0v1378h500q297 0 471 -153q198 -176 198 -518q0 -330 -190 -523q-182 -184 -479 -184h-500zM430 223l195 19q152 14 243 110q117 122 117 355q0 236 -111 337q-82 76 -247 93l-197 18v-932z" />
<glyph unicode="E" horiz-adv-x="1165" d="M123 0v1378h944v-250l-637 29v-340l498 27v-258l-498 26v-391l653 29v-250h-960z" />
<glyph unicode="F" horiz-adv-x="1148" d="M123 0v1378h944v-250l-637 29v-340l498 27v-258l-498 26v-612h-307z" />
<glyph unicode="G" horiz-adv-x="1339" d="M82 688q0 354 117 522q137 195 460 195q123 0 328 -35l133 -22l-51 -246l-133 22q-158 27 -266 27q-160 0 -217 -86q-61 -94 -62 -377q0 -463 273 -463q90 0 245 54v270l-272 -29v250h580v-659l-226 -76q-195 -66 -338 -66q-297 0 -444 221q-127 186 -127 498z" />
<glyph unicode="H" horiz-adv-x="1372" d="M123 0v1378h307v-534h512v534h307v-1378h-307v594h-512v-594h-307z" />
<glyph unicode="I" d="M123 0v1378h307v-1378h-307z" />
<glyph unicode="J" horiz-adv-x="1019" d="M0 51l100 238q244 -76 338 -76q152 0 152 176v989h307v-989q0 -205 -129 -319q-123 -106 -330 -107q-156 0 -438 88z" />
<glyph unicode="K" horiz-adv-x="1294" d="M123 0v1378h307v-534l109 -17l438 578l256 -143l-356 -449l-95 -94v-4l109 -115l362 -518l-286 -115l-422 643l-115 -16v-594h-307z" />
<glyph unicode="L" horiz-adv-x="1107" d="M123 0v1378h307v-1157l637 29v-250h-944z" />
<glyph unicode="M" horiz-adv-x="1781" d="M82 10l139 1368h324l276 -712l68 -279h4l70 279l278 712h320l139 -1368l-314 -28l-49 675l-8 279h-6l-57 -279l-252 -657h-248l-248 657l-57 279h-6l-9 -279l-51 -675z" />
<glyph unicode="N" horiz-adv-x="1366" d="M123 0v1378h291l428 -686l94 -209h4l-4 219v676h307v-1378h-289l-428 686l-96 209h-4l4 -219v-676h-307z" />
<glyph unicode="O" horiz-adv-x="1441" d="M82 688q0 291 94 455q152 262 547 262t545 -264q92 -162 92 -453t-92 -452q-150 -266 -545 -267q-395 0 -547 264q-94 164 -94 455zM389 688q0 -238 60 -340q76 -127 274 -127q213 0 285 152q45 94 45 315q0 223 -45 316q-72 149 -282 149h-3q-201 0 -274 -125 q-59 -100 -60 -340z" />
<glyph unicode="P" horiz-adv-x="1263" d="M123 0v1378h627q205 0 323 -131q109 -119 109 -293q0 -182 -117 -309q-131 -143 -352 -143q-31 0 -56 2l-227 18v-522h-307zM430 729l281 25q84 8 129 67q39 51 39 127q0 72 -36 126t-93 59l-320 20v-424z" />
<glyph unicode="Q" horiz-adv-x="1441" d="M82 688q0 291 94 455q152 262 547 262t545 -264q92 -162 92 -453q0 -504 -299 -651l156 -182l-256 -172l-199 290l-39 -4q-395 0 -547 264q-94 164 -94 455zM389 688q0 -238 60 -340q76 -127 274 -127q213 0 285 152q45 94 45 315q0 223 -45 316q-72 149 -282 149h-3 q-201 0 -274 -125q-59 -100 -60 -340z" />
<glyph unicode="R" horiz-adv-x="1257" d="M123 0v1378h616q209 0 330 -125q106 -111 107 -266q0 -123 -70 -227q-78 -117 -213 -166l106 -131l238 -402l-307 -90l-328 590h-172v-561h-307zM430 786l270 21q74 6 121 55t47 125q0 137 -129 146l-309 20v-367z" />
<glyph unicode="S" horiz-adv-x="1183" d="M20 96l97 238l129 -45q147 -51 305 -51q244 0 244 161q0 123 -179 174q-315 88 -333 97q-178 92 -179 317q0 406 494 406q147 0 324 -33l153 -29l-65 -246l-199 43q-113 25 -197 25q-202 0 -202 -164q0 -92 178 -137q264 -68 334 -109q178 -106 178 -344 q0 -223 -164 -329q-137 -90 -371 -90q-254 0 -485 92z" />
<glyph unicode="T" horiz-adv-x="1179" d="M41 1128v250h1098v-250l-396 23v-1151h-307v1151z" />
<glyph unicode="U" horiz-adv-x="1398" d="M123 395v983h307v-983q0 -86 39 -123q59 -53 229 -53q172 0 232 53q39 37 39 123v983h307v-983q0 -197 -133 -305q-147 -121 -445 -121q-575 0 -575 426z" />
<glyph unicode="V" horiz-adv-x="1339" d="M0 1321l285 88l313 -760l70 -248h4l69 248l314 758l284 -86l-540 -1321h-256z" />
<glyph unicode="W" horiz-adv-x="1773" d="M0 1354l305 53l189 -756l32 -256h6l33 256l164 727h313l168 -727l33 -256h6l33 256l186 758l306 -53l-383 -1356h-295l-164 711l-41 293h-6l-43 -293l-160 -711h-297z" />
<glyph unicode="X" horiz-adv-x="1216" d="M0 88l428 600l-426 590l268 129l242 -373l94 -162h4l92 162l244 373l266 -129l-424 -590l429 -600l-265 -127l-342 541h-4l-98 -162l-244 -379z" />
<glyph unicode="Y" horiz-adv-x="1247" d="M0 1268l254 139l274 -442l95 -195h4l94 195l272 442l254 -139l-469 -727v-541h-307v539z" />
<glyph unicode="Z" horiz-adv-x="1196" d="M61 0v184l574 834l117 139l-656 -29v250h1018v-184l-571 -834l-119 -139l711 29v-250h-1074z" />
<glyph unicode="[" horiz-adv-x="735" d="M82 -233v1714h555v-250h-248v-1215h264v-249h-571z" />
<glyph unicode="\" horiz-adv-x="827" d="M20 1321l281 102l506 -1396l-281 -103z" />
<glyph unicode="]" horiz-adv-x="735" d="M82 16h264v1215h-248v250h555v-1714h-571v249z" />
<glyph unicode="_" horiz-adv-x="860" d="M0 -96h860v-164h-860v164z" />
<glyph unicode="`" horiz-adv-x="983" d="M184 1317l150 237l465 -264l-115 -186z" />
<glyph unicode="a" horiz-adv-x="1134" d="M41 289q0 117 84 192q94 86 268 86h293l-4 166q0 41 -72 41q-139 0 -460 -45l-54 236q358 51 484 51q162 0 270 -53q137 -66 139 -199l10 -479l125 -146l-252 -168l-120 142l-224 -97q-84 -36 -167 -36h-5q-137 0 -229 98q-86 90 -86 211zM348 276q0 -65 76 -65h2 q14 0 25 2l241 45l-2 119l-248 -21q-94 -8 -94 -80z" />
<glyph unicode="b" horiz-adv-x="1200" d="M20 139l125 146v1231h308v-566l75 25q100 33 187 33q190 0 301.5 -143.5t111.5 -379.5q0 -233 -125.5 -369t-308.5 -136q-168 0 -319 112l-105 -121zM453 244l53 -17q68 -20 123 -20q188 0 188 268q0 180 -53 252q-47 59 -158 59q-63 0 -153 -12v-530z" />
<glyph unicode="c" horiz-adv-x="1042" d="M72 481q0 535 508 535q113 0 221 -19l168 -28l-43 -236l-201 27q-92 12 -150 12q-106 0 -149 -55q-47 -63 -47 -230q0 -280 219 -280h2q68 0 148 26l184 62l90 -227l-182 -60q-125 -41 -246 -41q-225 0 -367 125q-156 137 -155 389z" />
<glyph unicode="d" horiz-adv-x="1200" d="M72 485q0 236 111.5 379.5t301.5 143.5q86 0 187 -33l76 -25v566h307v-1231l125 -146l-250 -168l-105 121q-151 -112 -316 -112h-3q-182 0 -305 133q-129 139 -129 372zM383 475q0 -268 188 -268q55 0 123 20l54 17v530q-88 12 -154 12q-111 0 -158 -59q-53 -72 -53 -252 z" />
<glyph unicode="e" horiz-adv-x="1103" d="M143 829q111 180 410 181q250 0 371 -131q102 -111 102 -299q0 -29 -8 -168l-637 26q20 -231 219 -231q90 0 199 39l153 55l90 -227l-151 -54q-152 -53 -295 -53q-227 0 -367 121q-157 136 -157 390q0 234 71 351zM379 596l364 14q-10 164 -190 164q-170 0 -174 -178z " />
<glyph unicode="f" horiz-adv-x="901" d="M41 793v188h178v266q0 156 98 236q87 69 232 69h4q86 0 174 -22l182 -47l-82 -236l-176 43q-25 6 -53 6q-72 0 -72 -49v-266h297v-240h-297v-741h-307v741z" />
<glyph unicode="g" horiz-adv-x="1200" d="M72 510q0 233 129 373q123 133 305 133q168 0 319 -113l105 121l250 -168l-125 -145v-707q0 -238 -156 -362q-137 -111 -360 -111q-139 0 -279 53l-156 60l91 227l157 -61q94 -37 176 -37q219 0 220 237v35l-76 -25q-97 -32 -182 -32h-5q-190 0 -301.5 143t-111.5 379z M383 520q0 -180 53 -250q47 -61 158 -61q62 0 154 12v531l-54 16q-68 20 -123 20q-188 0 -188 -268z" />
<glyph unicode="h" horiz-adv-x="1193" d="M123 0v1516h307v-590l109 53q88 43 190 43q141 0 236 -80q106 -86 106 -235v-707h-307v713q0 69 -87 69h-3q-31 0 -74 -8l-170 -33v-741h-307z" />
<glyph unicode="i" d="M123 0v981h307v-981h-307zM123 1190v326h307v-326h-307z" />
<glyph unicode="j" d="M-162 -188q170 0 219 34q66 45 66 211v924h307v-924q0 -276 -151 -395q-141 -111 -441 -111v261zM123 1190v326h307v-326h-307z" />
<glyph unicode="k" horiz-adv-x="1144" d="M123 0v1516h307v-861l53 -16l420 377l207 -215l-289 -219l-86 -60v-4l86 -72l287 -327l-256 -160l-373 463l-49 -16v-406h-307z" />
<glyph unicode="l" d="M123 0v1516h307v-1516h-307z" />
<glyph unicode="m" horiz-adv-x="1755" d="M20 848l250 168l107 -123l174 82q92 43 188 43q162 0 248 -113l150 70q92 43 188 43q131 0 215 -76q92 -84 92 -235v-707h-307v713q0 67 -78 67h-2q-10 0 -20 -2l-181 -37q2 -10 3 -34v-707h-308v713q0 67 -78 67h-2q-10 0 -20 -2l-186 -37v-741h-308v702z" />
<glyph unicode="n" horiz-adv-x="1216" d="M20 848l250 168l111 -127l180 90q86 43 191 43q141 0 235 -80q106 -86 107 -235v-707h-308v713q0 69 -87 69h-3q-31 0 -73 -8l-170 -33v-741h-308v702z" />
<glyph unicode="o" horiz-adv-x="1191" d="M72 475q0 541 522 541q526 0 526 -541q0 -512 -526 -512q-522 0 -522 512zM379 475q0 -156 48 -215t167 -59q121 0 170 59t49 215q0 174 -46 238.5t-173 64.5q-125 0 -170 -63.5t-45 -239.5z" />
<glyph unicode="p" horiz-adv-x="1200" d="M20 856l250 168l105 -121q152 113 319 113q182 0 305 -133q129 -140 129 -373q0 -236 -111.5 -379t-301.5 -143q-86 0 -187 32l-75 25v-494h-308v1160zM453 221q90 -12 153 -12q111 0 158 61q53 70 53 250q0 268 -188 268q-55 0 -123 -20l-53 -16v-531z" />
<glyph unicode="q" horiz-adv-x="1200" d="M72 510q0 233 129 373q123 133 305 133q168 0 319 -113l105 121l250 -168l-125 -145v-1160h-307v494l-76 -25q-97 -32 -182 -32h-5q-190 0 -301.5 143t-111.5 379zM383 520q0 -180 53 -250q47 -61 158 -61q66 0 154 12v531l-54 16q-68 20 -123 20q-188 0 -188 -268z" />
<glyph unicode="r" horiz-adv-x="835" d="M20 848l250 168l113 -131q90 59 166 84q86 27 233 39l13 -256q-188 0 -342 -33v-719h-308v702z" />
<glyph unicode="s" horiz-adv-x="1054" d="M61 47l82 232l78 -25q156 -49 305 -49q160 0 160 84q0 61 -151 90q-217 43 -279 72q-152 74 -152 245q0 317 433 318q133 0 299 -27l127 -20l-54 -236l-116 19q-176 28 -238 28h-4q-139 0 -139 -82q0 -37 151 -61q195 -35 279 -82q151 -86 151 -264q0 -324 -463 -324 q-190 0 -364 51z" />
<glyph unicode="t" horiz-adv-x="942" d="M41 793v188h178v397h307v-397h297v-240h-297v-481q0 -35 47 -35q35 0 80 15l154 49l94 -232l-184 -55q-96 -29 -164 -29q-141 0 -231 66q-102 76 -103 221v481z" />
<glyph unicode="u" horiz-adv-x="1216" d="M123 274v707h307v-713q0 -69 87 -69h3q31 0 74 8l170 33v741h307v-702l125 -146l-250 -168l-110 127l-181 -90q-86 -43 -190 -43q-141 0 -236 80q-106 86 -106 235z" />
<glyph unicode="v" horiz-adv-x="1155" d="M0 930l291 86l211 -512l69 -215h9l71 215l213 512l291 -88l-444 -928h-271z" />
<glyph unicode="w" horiz-adv-x="1576" d="M0 946l291 72l129 -418l53 -225h8l54 225l120 381h271l118 -381l52 -221h8l53 221l131 418l289 -72l-356 -946h-256l-121 422l-49 233h-9l-51 -233l-119 -422h-258z" />
<glyph unicode="x" horiz-adv-x="1093" d="M0 109l369 389l-340 370l241 148l279 -328l280 328l244 -148l-340 -370l361 -389l-248 -152l-295 350l-297 -350z" />
<glyph unicode="y" horiz-adv-x="1146" d="M-102 -324l155 209l49 -28q94 -55 150 -56q74 0 119 111l53 129l-74 141l-344 744l287 90l211 -502l69 -221h9l71 221l213 502l281 -96l-512 -1143q-49 -113 -156 -172q-96 -53 -215 -54q-147 0 -323 101z" />
<glyph unicode="z" horiz-adv-x="1048" d="M61 0v180l443 482l112 102l-528 -27v244h893v-180l-442 -482l-113 -102l561 27v-244h-926z" />
<glyph unicode="{" horiz-adv-x="911" d="M82 506v254h104q63 0 64 76v206q0 219 123 325t413 142l43 -254q-176 -23 -224 -59.5t-48 -153.5v-206q0 -121 -94 -201q94 -90 94 -203v-209q0 -117 48 -154.5t224 -60.5l-43 -254q-291 37 -413.5 143.5t-122.5 327.5v207q0 74 -64 74h-104z" />
<glyph unicode="|" horiz-adv-x="471" d="M82 -479v1995h307v-1995h-307z" />
<glyph unicode="}" horiz-adv-x="911" d="M82 8q176 23 224 60.5t48 154.5v209q0 113 95 203q-94 80 -95 201v206q0 117 -48 154t-224 59l43 254q291 -37 414 -142t123 -325v-206q0 -76 63 -76h104v-254h-104q-63 0 -63 -74v-207q0 -221 -123 -327.5t-414 -143.5z" />
<glyph unicode="~" horiz-adv-x="1157" d="M51 666q39 322 303 321q80 0 233.5 -45t217.5 -45q33 0 61 117l240 -90q-39 -326 -303 -326q-78 0 -229.5 45t-221.5 45q-33 0 -61 -121z" />
<glyph unicode="&#xa1;" horiz-adv-x="530" d="M82 0l92 905h184l91 -905h-367zM113 1042v336h307v-336h-307z" />
<glyph unicode="&#xa2;" horiz-adv-x="1103" d="M72 481q0 518 489 537v170h72v-170q76 -2 168 -17l168 -24l-43 -236l-201 23q-39 4 -92 8v-563q51 2 115 20l184 52l90 -228l-182 -49q-111 -31 -207 -33v-157h-72v157q-215 10 -344 129q-145 133 -145 381zM379 487q0 -253 182 -276v563q-98 -6 -137 -65 q-45 -63 -45 -222z" />
<glyph unicode="&#xa3;" horiz-adv-x="1224" d="M61 0v250h48q133 0 133 98l2 238h-160v250h164l2 182q2 199 123 299q109 90 299 90q139 0 319 -45l131 -33l-63 -246l-135 35q-152 39 -222 39q-143 0 -145 -141l-2 -180h365v-250h-369l-2 -242q0 -66 -29 -108l129 14h467v-250h-1055z" />
<glyph unicode="&#xa4;" horiz-adv-x="1312" d="M82 389v229h133q-2 23 -2 70v70h-131v229h154q41 227 167 326q115 90 328 90q133 0 326 -33l121 -20l-52 -246l-120 20q-182 31 -256 31q-90 0 -138.5 -37t-68.5 -131h256v-229h-277v-140h277v-229h-262q16 -88 57 -126t123 -38q80 0 221 35l166 41l86 -240l-168 -43 q-184 -47 -324 -47q-385 0 -460 418h-156z" />
<glyph unicode="&#xa5;" horiz-adv-x="1370" d="M102 1268l254 139l254 -442l64 -166h24l66 166l250 442l254 -139l-277 -469h238v-250h-389v-98h389v-250h-389v-201h-308v201h-389v250h389v98h-389v250h236z" />
<glyph unicode="&#xa7;" horiz-adv-x="1101" d="M102 -113l76 232q248 -72 375 -72q74 0 113 41q31 29 30 64q0 66 -143 100q-207 51 -264 84q-143 80 -144 258q0 125 101 235q-109 84 -109 238q0 137 105 233q115 102 303 103q111 0 293 -29l129 -20l-56 -240l-112 21q-139 27 -236 26q-66 0 -98 -35q-25 -27 -25 -59 q0 -51 144 -82q193 -45 266 -90q143 -90 143 -281q0 -111 -92 -221q98 -92 98 -239q0 -145 -110 -244q-121 -106 -324 -107q-170 0 -463 84zM449 594q0 -39 65 -59q45 -14 117 -29q59 59 59 108q0 55 -39 76q-29 16 -123 39q-80 -66 -79 -135z" />
<glyph unicode="&#xa8;" horiz-adv-x="1150" d="M205 1210v306h266v-306h-266zM676 1210v306h266v-306h-266z" />
<glyph unicode="&#xa9;" horiz-adv-x="1640" d="M102 688q0 297 211 507t508 210t507 -210t210 -507t-210 -508t-507 -211t-508 211t-211 508zM340 688q0 -201 141.5 -342t339.5 -141q201 0 342.5 142t141.5 341t-142.5 340t-341.5 141t-340 -141t-141 -340zM512 668q0 182 80 266q72 76 225 76q86 0 170 -15l84 -14 l-37 -164l-73 12q-98 16 -132 17q-57 0 -82.5 -38t-25.5 -140t20.5 -140.5t71.5 -38.5q35 0 121 21l96 22l64 -157l-125 -31q-86 -20 -168 -20q-289 0 -289 344z" />
<glyph unicode="&#xaa;" horiz-adv-x="851" d="M82 965q0 76 58.5 129t168.5 53h160l-2 84q0 16 -29 16q-76 0 -213 -18l-75 -10l-37 163l112 17q127 18 197 18q98 0 168 -35q90 -43 92 -133l6 -280l82 -97l-176 -118l-74 86l-69 -31q-102 -45 -164 -45q-90 0 -147.5 61.5t-57.5 139.5zM86 492v188h655v-188h-655z M297 956q0 -23 33 -22q33 0 96 14l47 10v43l-61 -4q-115 -8 -115 -41z" />
<glyph unicode="&#xab;" horiz-adv-x="1259" d="M41 498l438 450l183 -153l-232 -297l236 -299l-193 -142zM594 498l438 450l182 -153l-231 -297l236 -299l-193 -142z" />
<glyph unicode="&#xad;" horiz-adv-x="860" d="M123 471v250h614v-250h-614z" />
<glyph unicode="&#xae;" horiz-adv-x="1640" d="M102 688q0 297 211 507t508 210t507 -210t210 -507t-210 -508t-507 -211t-508 211t-211 508zM340 688q0 -201 141.5 -342t339.5 -141q201 0 342.5 142t141.5 341t-142.5 340t-341.5 141t-340 -141t-141 -340zM545 350v662h327q113 0 181 -64q59 -55 59 -139 q0 -131 -133 -184l61 -54l111 -172l-203 -67l-123 205l-28 59h-43v-246h-209zM754 739l106 17q45 6 45 55q0 41 -35 45l-116 14v-131z" />
<glyph unicode="&#xaf;" horiz-adv-x="1095" d="M238 1272v209h614v-209h-614z" />
<glyph unicode="&#xb0;" horiz-adv-x="927" d="M102 1053q0 150 106.5 255t256.5 105t255 -105t105 -255t-105.5 -256.5t-254.5 -106.5q-150 0 -256.5 106.5t-106.5 256.5zM225 1053q0 -98 70 -169t170 -71q98 0 167.5 71t69.5 169t-69.5 167.5t-167.5 69.5q-100 0 -170 -69.5t-70 -167.5z" />
<glyph unicode="&#xb4;" horiz-adv-x="983" d="M184 1290l465 264l150 -237l-500 -213z" />
<glyph unicode="&#xb6;" horiz-adv-x="1353" d="M41 918q0 190 153.5 325t370.5 135h748v-1585h-307v1333h-140v-1333h-307v662q-215 4 -366.5 138t-151.5 325zM348 918q0 -82 64.5 -144.5t146.5 -66.5v419q-82 -4 -146.5 -65.5t-64.5 -142.5z" />
<glyph unicode="&#xb7;" horiz-adv-x="634" d="M164 573v336h307v-336h-307z" />
<glyph unicode="&#xb8;" horiz-adv-x="1042" d="M279 -455l77 158q16 -16 70 -37q61 -25 104 -24q68 0 68 57q0 51 -94 90q-72 29 -168 41l123 244l186 -80l-45 -88q96 -6 160 -82q53 -63 53 -141q0 -98 -78 -166t-200 -68q-154 0 -256 96z" />
<glyph unicode="&#xba;" horiz-adv-x="823" d="M82 1077q0 340 328 340q331 0 331 -340q0 -324 -331 -323q-328 0 -328 323zM100 492v188h615v-188h-615zM297 1077q0 -88 24.5 -118.5t88.5 -30.5q66 0 91 30.5t25 118.5q0 100 -23.5 133t-92.5 33q-66 0 -89.5 -32.5t-23.5 -133.5z" />
<glyph unicode="&#xbb;" horiz-adv-x="1259" d="M41 199l235 299l-231 297l182 153l439 -450l-433 -441zM594 199l235 299l-231 297l182 153l439 -450l-433 -441z" />
<glyph unicode="&#xbf;" horiz-adv-x="1122" d="M61 371q0 174 107 282l203 148q111 82 114 186l291 2q-6 -195 -114 -307q-20 -20 -199 -141q-106 -74 -107 -170q0 -139 211 -140q150 0 318 131l176 -196q-242 -188 -498 -189q-227 0 -364.5 113t-137.5 281zM483 1114v264h297v-264h-297z" />
<glyph unicode="&#xc0;" horiz-adv-x="1355" d="M0 37l526 1341h303l527 -1341l-293 -66l-131 344l-53 -6h-402l-53 6l-131 -344zM360 1595l105 260l504 -180l-80 -202zM514 555l53 6h221l52 -6l-101 299l-61 211h-4l-62 -211z" />
<glyph unicode="&#xc1;" horiz-adv-x="1355" d="M0 37l526 1341h303l527 -1341l-293 -66l-131 344l-53 -6h-402l-53 6l-131 -344zM360 1675l504 180l105 -260l-529 -122zM514 555l53 6h221l52 -6l-101 299l-61 211h-4l-62 -211z" />
<glyph unicode="&#xc2;" horiz-adv-x="1355" d="M0 37l526 1341h303l527 -1341l-293 -66l-131 344l-53 -6h-402l-53 6l-131 -344zM317 1649l353 213l354 -213l-96 -176l-258 108l-258 -108zM514 555l53 6h221l52 -6l-101 299l-61 211h-4l-62 -211z" />
<glyph unicode="&#xc3;" horiz-adv-x="1355" d="M0 37l526 1341h303l527 -1341l-293 -66l-131 344l-53 -6h-402l-53 6l-131 -344zM274 1561q27 248 267 247q66 0 139.5 -35.5t93.5 -35.5q41 0 75 23.5t42 56.5l149 -64q-27 -252 -266 -252q-63 0 -137 36t-96 36q-98 0 -117 -76zM514 555l53 6h221l52 -6l-101 299 l-61 211h-4l-62 -211z" />
<glyph unicode="&#xc4;" horiz-adv-x="1355" d="M0 37l526 1341h303l527 -1341l-293 -66l-131 344l-53 -6h-402l-53 6l-131 -344zM311 1538v285h267v-285h-267zM514 555l53 6h221l52 -6l-101 299l-61 211h-4l-62 -211zM782 1538v285h267v-285h-267z" />
<glyph unicode="&#xc5;" horiz-adv-x="1355" d="M0 37l514 1311q-117 57 -117 196q0 236 279 236q281 0 280 -236q0 -135 -116 -194l516 -1313l-293 -66l-131 344l-53 -6h-402l-53 6l-131 -344zM514 555l53 6h221l52 -6l-101 299l-61 211h-4l-62 -211zM586 1544q0 -55 90 -55q92 0 92 55q0 63 -92 64q-90 0 -90 -64z" />
<glyph unicode="&#xc6;" horiz-adv-x="1914" d="M0 51l692 1327h1125v-250l-637 29v-340l497 27v-258l-497 26v-391l653 29v-250h-961v309h-342l-75 6l-181 -344zM578 553l67 8h227v610h-6l-71 -204z" />
<glyph unicode="&#xc7;" horiz-adv-x="1226" d="M82 688q0 393 149 561q133 154 424 154q139 0 332 -33l121 -20l-51 -246l-121 20q-182 31 -268 31q-156 0 -215 -96q-61 -102 -62 -371q0 -256 53.5 -360.5t196.5 -104.5q78 0 227 37l191 47l86 -239l-193 -50q-184 -47 -331 -47q-539 0 -539 717zM340 -455l77 158 q16 -16 70 -37q61 -25 104 -24q68 0 68 57q0 51 -94 90q-72 29 -168 41l123 244l186 -80l-45 -88q96 -6 160 -82q53 -63 53 -141q0 -98 -78 -166t-200 -68q-154 0 -256 96z" />
<glyph unicode="&#xc8;" horiz-adv-x="1165" d="M123 0v1378h944v-250l-637 29v-340l498 27v-258l-498 26v-391l653 29v-250h-960zM299 1595l104 260l504 -180l-80 -202z" />
<glyph unicode="&#xc9;" horiz-adv-x="1165" d="M123 0v1378h944v-250l-637 29v-340l498 27v-258l-498 26v-391l653 29v-250h-960zM299 1675l504 180l104 -260l-528 -122z" />
<glyph unicode="&#xca;" horiz-adv-x="1165" d="M123 0v1378h944v-250l-637 29v-340l498 27v-258l-498 26v-391l653 29v-250h-960zM236 1649l352 213l354 -213l-96 -176l-258 108l-258 -108z" />
<glyph unicode="&#xcb;" horiz-adv-x="1165" d="M123 0v1378h944v-250l-637 29v-340l498 27v-258l-498 26v-391l653 29v-250h-960zM221 1538v285h266v-285h-266zM692 1538v285h266v-285h-266z" />
<glyph unicode="&#xcc;" d="M-29 1595l105 260l504 -180l-80 -202zM123 0v1378h307v-1378h-307z" />
<glyph unicode="&#xcd;" d="M-29 1675l504 180l105 -260l-529 -122zM123 0v1378h307v-1378h-307z" />
<glyph unicode="&#xce;" d="M-76 1649l352 213l355 -213l-96 -176l-259 108l-258 -108zM123 0v1378h307v-1378h-307z" />
<glyph unicode="&#xcf;" d="M-92 1538v285h266v-285h-266zM123 0v1378h307v-1378h-307zM379 1538v285h266v-285h-266z" />
<glyph unicode="&#xd0;" horiz-adv-x="1472" d="M0 635l221 113v630h500q297 0 471 -153q199 -176 199 -518q0 -330 -191 -523q-182 -184 -479 -184h-500v457l-84 -43zM528 225l195 17q152 12 244 110q116 122 116 355q0 236 -110 337q-82 78 -248 93l-197 16v-250l84 43l138 -221l-222 -113v-387z" />
<glyph unicode="&#xd1;" horiz-adv-x="1366" d="M123 0v1378h291l428 -686l94 -209h4l-4 219v676h307v-1378h-289l-428 686l-96 209h-4l4 -219v-676h-307zM315 1561q27 248 267 247q66 0 139.5 -35.5t93.5 -35.5q41 0 75 23.5t42 56.5l149 -64q-27 -252 -266 -252q-63 0 -137 36t-96 36q-98 0 -117 -76z" />
<glyph unicode="&#xd2;" horiz-adv-x="1441" d="M82 688q0 291 94 455q152 262 547 262t545 -264q92 -162 92 -453t-92 -452q-150 -266 -545 -267q-395 0 -547 264q-94 164 -94 455zM389 688q0 -238 60 -340q76 -127 274 -127q213 0 285 152q45 94 45 315q0 223 -45 316q-72 150 -285 149q-201 0 -274 -125 q-59 -100 -60 -340zM442 1595l105 260l504 -180l-80 -202z" />
<glyph unicode="&#xd3;" horiz-adv-x="1441" d="M82 688q0 291 94 455q152 262 547 262t545 -264q92 -162 92 -453t-92 -452q-150 -266 -545 -267q-395 0 -547 264q-94 164 -94 455zM381 1675l504 180l104 -260l-528 -122zM389 688q0 -238 60 -340q76 -127 274 -127q213 0 285 152q45 94 45 315q0 223 -45 316 q-72 150 -285 149q-201 0 -274 -125q-59 -100 -60 -340z" />
<glyph unicode="&#xd4;" horiz-adv-x="1441" d="M82 688q0 291 94 455q152 262 547 262t545 -264q92 -162 92 -453t-92 -452q-150 -266 -545 -267q-395 0 -547 264q-94 164 -94 455zM365 1649l352 213l354 -213l-96 -176l-258 108l-258 -108zM389 688q0 -238 60 -340q76 -127 274 -127q213 0 285 152q45 94 45 315 q0 223 -45 316q-72 150 -285 149q-201 0 -274 -125q-59 -100 -60 -340z" />
<glyph unicode="&#xd5;" horiz-adv-x="1441" d="M82 688q0 291 94 455q152 262 547 262t545 -264q92 -162 92 -453t-92 -452q-150 -266 -545 -267q-395 0 -547 264q-94 164 -94 455zM336 1561q27 248 266 247q66 0 139.5 -35.5t94.5 -35.5q41 0 74.5 23.5t41.5 56.5l150 -64q-27 -252 -266 -252q-63 0 -137 36t-97 36 q-98 0 -117 -76zM389 688q0 -238 60 -340q76 -127 274 -127q213 0 285 152q45 94 45 315q0 223 -45 316q-72 150 -285 149q-201 0 -274 -125q-59 -100 -60 -340z" />
<glyph unicode="&#xd6;" horiz-adv-x="1441" d="M82 688q0 291 94 455q152 262 547 262t545 -264q92 -162 92 -453t-92 -452q-150 -266 -545 -267q-395 0 -547 264q-94 164 -94 455zM352 1538v285h266v-285h-266zM389 688q0 -238 60 -340q76 -127 274 -127q213 0 285 152q45 94 45 315q0 223 -45 316q-72 150 -285 149 q-201 0 -274 -125q-59 -100 -60 -340zM823 1538v285h267v-285h-267z" />
<glyph unicode="&#xd8;" horiz-adv-x="1441" d="M82 688q0 291 94 455q152 262 547 262q256 0 410 -111l116 156l62 -47l-121 -160q170 -170 170 -555q0 -291 -92 -452q-150 -266 -545 -267q-256 0 -410 111l-116 -156l-62 47l119 158q-172 174 -172 559zM389 688q0 -215 47 -317l527 698q-80 84 -240 84 q-201 0 -274 -125q-59 -100 -60 -340zM481 303q82 -82 242 -82q213 0 285 152q45 94 45 315t-45 313z" />
<glyph unicode="&#xd9;" horiz-adv-x="1398" d="M123 395v983h307v-983q0 -86 39 -123q59 -53 229 -53q172 0 232 53q39 37 39 123v983h307v-983q0 -197 -133 -305q-147 -121 -445 -121q-575 0 -575 426zM401 1595l105 260l504 -180l-80 -202z" />
<glyph unicode="&#xda;" horiz-adv-x="1398" d="M123 395v983h307v-983q0 -86 39 -123q59 -53 229 -53q172 0 232 53q39 37 39 123v983h307v-983q0 -197 -133 -305q-147 -121 -445 -121q-575 0 -575 426zM381 1675l504 180l104 -260l-528 -122z" />
<glyph unicode="&#xdb;" horiz-adv-x="1398" d="M123 395v983h307v-983q0 -86 39 -123q59 -53 229 -53q172 0 232 53q39 37 39 123v983h307v-983q0 -197 -133 -305q-147 -121 -445 -121q-575 0 -575 426zM350 1649l352 213l355 -213l-96 -176l-259 108l-258 -108z" />
<glyph unicode="&#xdc;" horiz-adv-x="1398" d="M123 395v983h307v-983q0 -86 39 -123q59 -53 229 -53q172 0 232 53q39 37 39 123v983h307v-983q0 -197 -133 -305q-147 -121 -445 -121q-575 0 -575 426zM332 1538v285h266v-285h-266zM803 1538v285h266v-285h-266z" />
<glyph unicode="&#xdd;" horiz-adv-x="1247" d="M0 1268l254 139l274 -442l95 -195h4l94 195l272 442l254 -139l-469 -727v-541h-307v539zM319 1675l504 180l105 -260l-529 -122z" />
<glyph unicode="&#xde;" horiz-adv-x="1216" d="M123 0v1378h307v-260h309q213 0 334 -135q103 -114 103 -272q0 -170 -115 -299q-135 -154 -363 -154h-268v-258h-307zM430 479l270 25q70 6 119 62.5t49 144.5q0 74 -39 118q-35 39 -90 43l-309 21v-414z" />
<glyph unicode="&#xdf;" horiz-adv-x="1492" d="M41 793v188h178v274q0 139 133 220q121 72 303 71q215 0 369 -92q174 -104 174 -283q0 -123 -72 -202q-18 -20 -133 -105q-72 -53 -71 -110q0 -51 133 -92q182 -59 243 -103q134 -90 134 -256q0 -143 -123 -235q-135 -102 -375 -103q-106 0 -291 62l-49 16l78 231l51 -18 q141 -51 207 -51q186 0 186 102q0 55 -133 94q-184 53 -244 93q-133 86 -133 260q0 123 74 211q33 39 137 118q74 55 74 97q0 66 -70 100q-57 29 -143 29q-152 0 -152 -54v-1255h-307v741z" />
<glyph unicode="&#xe0;" horiz-adv-x="1134" d="M41 289q0 117 84 192q94 86 268 86h293l-4 166q0 41 -72 41q-139 0 -460 -45l-54 236q358 51 484 51q162 0 270 -53q137 -66 139 -199l10 -479l125 -146l-252 -168l-120 142l-224 -97q-86 -37 -172 -36q-137 0 -229 98q-86 90 -86 211zM266 1317l150 237l465 -264 l-115 -186zM348 276q0 -66 78 -65q14 0 25 2l241 45l-2 119l-248 -21q-94 -8 -94 -80z" />
<glyph unicode="&#xe1;" horiz-adv-x="1134" d="M41 289q0 117 84 192q94 86 268 86h293l-4 166q0 41 -72 41q-139 0 -460 -45l-54 236q358 51 484 51q162 0 270 -53q137 -66 139 -199l10 -479l125 -146l-252 -168l-120 142l-224 -97q-86 -37 -172 -36q-137 0 -229 98q-86 90 -86 211zM225 1290l465 264l150 -237 l-500 -213zM348 276q0 -66 78 -65q14 0 25 2l241 45l-2 119l-248 -21q-94 -8 -94 -80z" />
<glyph unicode="&#xe2;" horiz-adv-x="1134" d="M41 289q0 117 84 192q94 86 268 86h293l-4 166q0 41 -72 41q-139 0 -460 -45l-54 236q358 51 484 51q162 0 270 -53q137 -66 139 -199l10 -479l125 -146l-252 -168l-120 142l-224 -97q-86 -37 -172 -36q-137 0 -229 98q-86 90 -86 211zM184 1290l363 264l364 -264 l-106 -176l-258 150l-258 -150zM348 276q0 -66 78 -65q14 0 25 2l241 45l-2 119l-248 -21q-94 -8 -94 -80z" />
<glyph unicode="&#xe3;" horiz-adv-x="1134" d="M41 289q0 117 84 192q94 86 268 86h293l-4 166q0 41 -72 41q-139 0 -460 -45l-54 236q358 51 484 51q162 0 270 -53q137 -66 139 -199l10 -479l125 -146l-252 -168l-120 142l-224 -97q-86 -37 -172 -36q-137 0 -229 98q-86 90 -86 211zM170 1282q27 248 267 248 q66 0 139.5 -36t93.5 -36q41 0 75 23.5t42 56.5l149 -63q-27 -252 -266 -252q-63 0 -137 35.5t-96 35.5q-98 0 -117 -75zM348 276q0 -66 78 -65q14 0 25 2l241 45l-2 119l-248 -21q-94 -8 -94 -80z" />
<glyph unicode="&#xe4;" horiz-adv-x="1134" d="M41 289q0 117 84 192q94 86 268 86h293l-4 166q0 41 -72 41q-139 0 -460 -45l-54 236q358 51 484 51q162 0 270 -53q137 -66 139 -199l10 -479l125 -146l-252 -168l-120 142l-224 -97q-86 -37 -172 -36q-137 0 -229 98q-86 90 -86 211zM185 1210v306h266v-306h-266z M348 276q0 -66 78 -65q14 0 25 2l241 45l-2 119l-248 -21q-94 -8 -94 -80zM656 1210v306h266v-306h-266z" />
<glyph unicode="&#xe5;" horiz-adv-x="1134" d="M41 289q0 117 84 192q94 86 268 86h293l-4 166q0 41 -72 41q-139 0 -460 -45l-54 236q358 51 484 51q162 0 270 -53q137 -66 139 -199l10 -479l125 -146l-252 -168l-120 142l-224 -97q-86 -37 -172 -36q-137 0 -229 98q-86 90 -86 211zM286 1339q0 236 279 236 q280 0 280 -236q0 -227 -280 -227q-279 0 -279 227zM348 276q0 -66 78 -65q14 0 25 2l241 45l-2 119l-248 -21q-94 -8 -94 -80zM475 1339q0 -55 90 -55q92 0 92 55q0 63 -92 64q-90 0 -90 -64z" />
<glyph unicode="&#xe6;" horiz-adv-x="1720" d="M41 289q0 113 82 188q94 86 270 90l293 6l-4 160q-2 41 -72 41q-139 0 -460 -45l-54 236q358 51 484 51q190 0 297 -78q104 72 292 72q250 0 371 -131q102 -111 102 -299q0 -47 -8 -150l-630 -39q33 -184 213 -184q90 0 198 39l154 55l90 -227l-152 -54 q-152 -53 -295 -53q-270 0 -411 166l-273 -117q-86 -37 -172 -36q-135 0 -227 98q-88 92 -88 211zM348 276q0 -66 78 -65q14 0 25 2l274 51q-20 53 -29 109l-254 -17q-94 -6 -94 -80zM991 580l369 6q0 188 -191 188q-174 0 -178 -194z" />
<glyph unicode="&#xe7;" horiz-adv-x="1042" d="M72 481q0 535 508 535q113 0 221 -19l168 -28l-43 -236l-201 27q-92 12 -150 12q-106 0 -149 -55q-47 -63 -47 -230q0 -281 221 -280q68 0 148 26l184 62l90 -227l-182 -60q-125 -41 -246 -41q-225 0 -367 125q-156 137 -155 389zM279 -455l77 158q16 -16 70 -37 q61 -25 104 -24q68 0 68 57q0 51 -94 90q-72 29 -168 41l123 244l186 -80l-45 -88q96 -6 160 -82q53 -63 53 -141q0 -98 -78 -166t-200 -68q-154 0 -256 96z" />
<glyph unicode="&#xe8;" horiz-adv-x="1103" d="M72 481q0 231 71 348q111 180 410 181q250 0 371 -131q102 -111 102 -299q0 -29 -8 -168l-637 26q20 -231 219 -231q90 0 199 39l153 55l90 -227l-151 -54q-152 -53 -295 -53q-227 0 -367 121q-158 137 -157 393zM266 1317l150 237l465 -264l-115 -186zM379 596l364 14 q-10 164 -190 164q-170 0 -174 -178z" />
<glyph unicode="&#xe9;" horiz-adv-x="1103" d="M72 481q0 231 71 348q111 180 410 181q250 0 371 -131q102 -111 102 -299q0 -29 -8 -168l-637 26q20 -231 219 -231q90 0 199 39l153 55l90 -227l-151 -54q-152 -53 -295 -53q-227 0 -367 121q-158 137 -157 393zM245 1290l465 264l150 -237l-500 -213zM379 596l364 14 q-10 164 -190 164q-170 0 -174 -178z" />
<glyph unicode="&#xea;" horiz-adv-x="1103" d="M72 481q0 231 71 348q111 180 410 181q250 0 371 -131q102 -111 102 -299q0 -29 -8 -168l-637 26q20 -231 219 -231q90 0 199 39l153 55l90 -227l-151 -54q-152 -53 -295 -53q-227 0 -367 121q-158 137 -157 393zM184 1290l363 264l364 -264l-106 -176l-258 150 l-258 -150zM379 596l364 14q-10 164 -190 164q-170 0 -174 -178z" />
<glyph unicode="&#xeb;" horiz-adv-x="1103" d="M72 481q0 231 71 348q111 180 410 181q250 0 371 -131q102 -111 102 -299q0 -29 -8 -168l-637 26q20 -231 219 -231q90 0 199 39l153 55l90 -227l-151 -54q-152 -53 -295 -53q-227 0 -367 121q-158 137 -157 393zM205 1210v306h266v-306h-266zM379 596l364 14 q-10 164 -190 164q-170 0 -174 -178zM676 1210v306h266v-306h-266z" />
<glyph unicode="&#xec;" d="M-31 1317l150 237l465 -264l-115 -186zM123 0v981h307v-981h-307z" />
<glyph unicode="&#xed;" d="M-31 1290l465 264l150 -237l-500 -213zM123 0v981h307v-981h-307z" />
<glyph unicode="&#xee;" d="M-88 1290l362 264l365 -264l-107 -176l-258 150l-258 -150zM123 0v981h307v-981h-307z" />
<glyph unicode="&#xef;" d="M-92 1210v306h266v-306h-266zM123 0v981h307v-981h-307zM379 1210v306h266v-306h-266z" />
<glyph unicode="&#xf0;" horiz-adv-x="1044" d="M0 438q0 242 143 367q135 119 379 119q23 0 76 -4q-45 72 -100 129l-201 -103l-137 221l123 62q-74 49 -150 90l152 229q164 -86 280 -176l199 103l137 -222l-135 -67q278 -320 278 -746q0 -227 -124 -354q-135 -133 -398 -133q-244 0 -379 119q-143 125 -143 366z M307 438q0 -135 60 -188q47 -43 155 -43q109 0 158 43q57 53 57 188t-57 189q-49 43 -158 43t-155 -43q-59 -53 -60 -189z" />
<glyph unicode="&#xf1;" horiz-adv-x="1216" d="M20 848l250 168l111 -127l180 90q86 43 191 43q141 0 235 -80q106 -86 107 -235v-707h-308v713q0 70 -90 69q-31 0 -73 -8l-170 -33v-741h-308v702zM210 1282q27 248 267 248q66 0 139.5 -36t93.5 -36q41 0 75 23.5t42 56.5l149 -63q-27 -252 -266 -252q-63 0 -137 35.5 t-96 35.5q-98 0 -117 -75z" />
<glyph unicode="&#xf2;" horiz-adv-x="1191" d="M72 475q0 541 522 541q526 0 526 -541q0 -512 -526 -512q-522 0 -522 512zM286 1317l150 237l465 -264l-115 -186zM379 475q0 -156 48 -215t167 -59q121 0 170 59t49 215q0 174 -46 238.5t-173 64.5q-125 0 -170 -63.5t-45 -239.5z" />
<glyph unicode="&#xf3;" horiz-adv-x="1191" d="M72 475q0 541 522 541q526 0 526 -541q0 -512 -526 -512q-522 0 -522 512zM286 1290l465 264l150 -237l-500 -213zM379 475q0 -156 48 -215t167 -59q121 0 170 59t49 215q0 174 -46 238.5t-173 64.5q-125 0 -170 -63.5t-45 -239.5z" />
<glyph unicode="&#xf4;" horiz-adv-x="1191" d="M72 475q0 541 522 541q526 0 526 -541q0 -512 -526 -512q-522 0 -522 512zM235 1290l363 264l364 -264l-106 -176l-258 150l-258 -150zM379 475q0 -156 48 -215t167 -59q121 0 170 59t49 215q0 174 -46 238.5t-173 64.5q-125 0 -170 -63.5t-45 -239.5z" />
<glyph unicode="&#xf5;" horiz-adv-x="1191" d="M72 475q0 541 522 541q526 0 526 -541q0 -512 -526 -512q-522 0 -522 512zM210 1282q27 248 267 248q66 0 139.5 -36t93.5 -36q41 0 75 23.5t42 56.5l149 -63q-27 -252 -266 -252q-63 0 -137 35.5t-96 35.5q-98 0 -117 -75zM379 475q0 -156 48 -215t167 -59q121 0 170 59 t49 215q0 174 -46 238.5t-173 64.5q-125 0 -170 -63.5t-45 -239.5z" />
<glyph unicode="&#xf6;" horiz-adv-x="1191" d="M72 475q0 541 522 541q526 0 526 -541q0 -512 -526 -512q-522 0 -522 512zM225 1210v306h266v-306h-266zM379 475q0 -156 48 -215t167 -59q121 0 170 59t49 215q0 174 -46 238.5t-173 64.5q-125 0 -170 -63.5t-45 -239.5zM696 1210v306h266v-306h-266z" />
<glyph unicode="&#xf7;" horiz-adv-x="1208" d="M61 471v250h1086v-250h-1086zM479 53v254h250v-254h-250zM479 885v254h250v-254h-250z" />
<glyph unicode="&#xf8;" horiz-adv-x="1191" d="M72 475q0 541 522 541q199 0 319 -72l123 158l60 -47l-121 -156q145 -131 145 -424q0 -512 -526 -512q-180 0 -303 64l-125 -160l-60 47l121 156q-156 127 -155 405zM379 475q0 -119 27 -178l344 438q-49 43 -156 43q-125 0 -170 -63.5t-45 -239.5zM455 236 q47 -35 139 -35q121 0 170 59t49 215q0 129 -22 191z" />
<glyph unicode="&#xf9;" horiz-adv-x="1216" d="M123 274v707h307v-713q0 -70 90 -69q31 0 74 8l170 33v741h307v-702l125 -146l-250 -168l-110 127l-181 -90q-86 -43 -190 -43q-141 0 -236 80q-106 86 -106 235zM307 1317l150 237l465 -264l-115 -186z" />
<glyph unicode="&#xfa;" horiz-adv-x="1216" d="M123 274v707h307v-713q0 -70 90 -69q31 0 74 8l170 33v741h307v-702l125 -146l-250 -168l-110 127l-181 -90q-86 -43 -190 -43q-141 0 -236 80q-106 86 -106 235zM266 1290l465 264l150 -237l-500 -213z" />
<glyph unicode="&#xfb;" horiz-adv-x="1216" d="M123 274v707h307v-713q0 -70 90 -69q31 0 74 8l170 33v741h307v-702l125 -146l-250 -168l-110 127l-181 -90q-86 -43 -190 -43q-141 0 -236 80q-106 86 -106 235zM245 1290l363 264l364 -264l-106 -176l-258 150l-258 -150z" />
<glyph unicode="&#xfc;" horiz-adv-x="1216" d="M123 274v707h307v-713q0 -70 90 -69q31 0 74 8l170 33v741h307v-702l125 -146l-250 -168l-110 127l-181 -90q-86 -43 -190 -43q-141 0 -236 80q-106 86 -106 235zM225 1210v306h266v-306h-266zM696 1210v306h266v-306h-266z" />
<glyph unicode="&#xfd;" horiz-adv-x="1146" d="M-102 -324l155 209l49 -28q94 -55 150 -56q74 0 119 111l53 129l-74 141l-344 744l287 90l211 -502l69 -221h9l71 221l213 502l281 -96l-512 -1143q-49 -113 -156 -172q-96 -53 -215 -54q-147 0 -323 101zM266 1290l465 264l150 -237l-500 -213z" />
<glyph unicode="&#xfe;" horiz-adv-x="1200" d="M123 -449v1965h307v-564q119 63 242 64q182 0 305 -133q129 -140 129 -373q0 -236 -111.5 -379t-302.5 -143q-86 0 -186 32l-76 25v-494h-307zM430 221q90 -12 154 -12q111 0 157 61q54 70 54 250q0 268 -189 268q-57 0 -123 -20l-53 -16v-531z" />
<glyph unicode="&#xff;" horiz-adv-x="1146" d="M-102 -324l155 209l49 -28q94 -55 150 -56q74 0 119 111l53 129l-74 141l-344 744l287 90l211 -502l69 -221h9l71 221l213 502l281 -96l-512 -1143q-49 -113 -156 -172q-96 -53 -215 -54q-147 0 -323 101zM195 1210v306h266v-306h-266zM666 1210v306h266v-306h-266z" />
<glyph unicode="&#x152;" horiz-adv-x="1943" d="M82 688q0 690 661 690h1102v-250l-637 29v-340l498 27v-258l-498 26v-391l654 29v-250h-1119q-662 0 -661 688zM389 688q0 -227 70 -326q82 -111 284 -110h158v874h-158q-205 0 -284 -110q-70 -98 -70 -328z" />
<glyph unicode="&#x153;" horiz-adv-x="1847" d="M72 475q0 541 522 541q244 0 364 -117q104 111 338 111q250 0 371 -131q102 -111 102 -299q0 -29 -8 -168l-637 26q20 -231 219 -231q90 0 199 39l154 55l90 -227l-152 -54q-152 -53 -295 -53q-233 0 -360 133q-121 -137 -385 -137q-522 0 -522 512zM379 475 q0 -156 48 -215t167 -59q121 0 170 59t49 215q0 174 -46 238.5t-173 64.5q-125 0 -170 -63.5t-45 -239.5zM1122 596l365 14q-10 164 -191 164q-170 0 -174 -178z" />
<glyph unicode="&#x178;" horiz-adv-x="1247" d="M0 1268l254 139l274 -442l95 -195h4l94 195l272 442l254 -139l-469 -727v-541h-307v539zM256 1538v285h266v-285h-266zM727 1538v285h266v-285h-266z" />
<glyph unicode="&#x2c6;" horiz-adv-x="1095" d="M184 1290l363 264l364 -264l-106 -176l-258 150l-258 -150z" />
<glyph unicode="&#x2dc;" horiz-adv-x="1142" d="M190 1282q27 248 267 248q66 0 139.5 -36t93.5 -36q41 0 75 23.5t42 56.5l149 -63q-27 -252 -266 -252q-63 0 -137 35.5t-96 35.5q-98 0 -117 -75z" />
<glyph unicode="&#x2000;" horiz-adv-x="931" />
<glyph unicode="&#x2001;" horiz-adv-x="1862" />
<glyph unicode="&#x2002;" horiz-adv-x="931" />
<glyph unicode="&#x2003;" horiz-adv-x="1862" />
<glyph unicode="&#x2004;" horiz-adv-x="620" />
<glyph unicode="&#x2005;" horiz-adv-x="465" />
<glyph unicode="&#x2006;" horiz-adv-x="310" />
<glyph unicode="&#x2007;" horiz-adv-x="310" />
<glyph unicode="&#x2008;" horiz-adv-x="232" />
<glyph unicode="&#x2009;" horiz-adv-x="372" />
<glyph unicode="&#x200a;" horiz-adv-x="103" />
<glyph unicode="&#x2010;" horiz-adv-x="860" d="M123 471v250h614v-250h-614z" />
<glyph unicode="&#x2011;" horiz-adv-x="860" d="M123 471v250h614v-250h-614z" />
<glyph unicode="&#x2012;" horiz-adv-x="860" d="M123 471v250h614v-250h-614z" />
<glyph unicode="&#x2013;" horiz-adv-x="1024" d="M0 471v250h1024v-250h-1024z" />
<glyph unicode="&#x2014;" horiz-adv-x="2048" d="M0 471v250h2048v-250h-2048z" />
<glyph unicode="&#x2018;" horiz-adv-x="663" d="M0 784l426 621l217 -129l-328 -674z" />
<glyph unicode="&#x2019;" horiz-adv-x="663" d="M20 731l328 674l316 -182l-426 -621z" />
<glyph unicode="&#x201a;" horiz-adv-x="684" d="M0 -264l328 674l315 -183l-426 -620z" />
<glyph unicode="&#x201c;" horiz-adv-x="1236" d="M0 784l426 621l217 -129l-328 -674zM573 784l426 621l218 -129l-328 -674z" />
<glyph unicode="&#x201d;" horiz-adv-x="1236" d="M20 731l328 674l316 -182l-426 -621zM594 731l328 674l315 -182l-426 -621z" />
<glyph unicode="&#x201e;" horiz-adv-x="1257" d="M0 -264l328 674l315 -183l-426 -620zM573 -264l328 674l316 -183l-426 -620z" />
<glyph unicode="&#x2022;" horiz-adv-x="946" d="M143 635q0 137 96.5 233.5t233.5 96.5t233.5 -96.5t96.5 -233.5t-96.5 -233.5t-233.5 -96.5t-233.5 96.5t-96.5 233.5z" />
<glyph unicode="&#x202f;" horiz-adv-x="372" />
<glyph unicode="&#x2039;" horiz-adv-x="702" d="M41 498l438 450l183 -153l-232 -297l232 -297l-183 -154z" />
<glyph unicode="&#x203a;" horiz-adv-x="702" d="M41 201l231 297l-231 297l182 153l439 -450l-439 -451z" />
<glyph unicode="&#x205f;" horiz-adv-x="465" />
<glyph unicode="&#x2122;" horiz-adv-x="1624" d="M82 1194v184h596v-184l-189 45v-522h-217v522zM688 723l74 655h211l123 -342l20 -114l19 114l125 342h206l76 -655l-227 -18l-17 370l-20 -108l-80 -250h-168l-78 246l-20 112l-4 -112l-15 -258z" />
</font>
</defs>
</svg>
