<?xml version="1.0" standalone="no"?>
<!DOCTYPE svg PUBLIC "-//W3C//DTD SVG 1.1//EN" "http://www.w3.org/Graphics/SVG/1.1/DTD/svg11.dtd" >
<svg xmlns="http://www.w3.org/2000/svg">
<metadata></metadata>
<defs>
<font id="anomolymediumregular" horiz-adv-x="512" >
<font-face units-per-em="2048" ascent="1638" descent="-410" />
<missing-glyph horiz-adv-x="491" />
<glyph horiz-adv-x="2048" />
<glyph horiz-adv-x="2048" />
<glyph unicode="&#xd;" horiz-adv-x="491" />
<glyph unicode=" "  horiz-adv-x="491" />
<glyph unicode="&#x09;" horiz-adv-x="491" />
<glyph unicode="&#xa0;" horiz-adv-x="491" />
<glyph unicode="!" horiz-adv-x="479" d="M96 1378h287l-74 -884h-141zM119 0v322h237v-322h-237z" />
<glyph unicode="&#x22;" horiz-adv-x="897" d="M90 1378h287l-72 -604h-143zM520 1378h287l-72 -604h-143z" />
<glyph unicode="#" horiz-adv-x="1388" d="M82 410v188h280l50 213h-234v186h277l92 406l211 -41l-82 -365h174l92 406l213 -41l-84 -365h236v-186h-279l-49 -213h231v-188h-276l-96 -428l-211 36l86 392h-174l-97 -428l-213 36l88 392h-235zM582 598h176l49 213h-176z" />
<glyph unicode="$" horiz-adv-x="1198" d="M68 82l73 182l135 -43q137 -43 271 -43h24v438q-217 53 -286 99q-141 88 -142 286q0 375 428 392v170h62v-170q129 -2 297 -33l121 -23l-50 -188l-149 31q-123 27 -219 28v-393q213 -51 297 -108q147 -105 147 -322q0 -377 -444 -403v-175h-62v173h-30q-154 0 -383 71z M381 1001q0 -74 55 -114q41 -33 135 -58v375q-190 -14 -190 -203zM633 184q207 29 207 201q0 92 -60 145q-47 41 -147 70v-416z" />
<glyph unicode="%" horiz-adv-x="1640" d="M51 1047q0 373 324 372q323 1 323 -372t-323 -373q-324 0 -324 373zM264 1047q0 -92 17 -134q25 -59 94 -59q70 0 94 59q18 42 18 134q0 195 -112 194q-70 0 -94 -59q-16 -43 -17 -135zM270 55l881 1381l209 -107l-883 -1384zM942 340q0 373 324 373q323 0 323 -373 t-323 -373q-324 0 -324 373zM1155 340q0 -92 16 -133q25 -59 95 -60q70 0 94 60q18 41 18 133q0 195 -112 195q-70 0 -95 -60q-16 -43 -16 -135z" />
<glyph unicode="&#x26;" horiz-adv-x="1384" d="M98 395q0 254 217 348q-141 92 -141 267q0 123 76 225q119 162 379 162q219 0 335.5 -109.5t116.5 -312.5h-237q0 229 -215 229q-119 0 -174 -67q-43 -51 -43 -127q0 -80 32 -119q53 -63 211 -64v-192q-209 0 -276 -78q-43 -47 -43 -162q0 -252 293 -252q289 0 289 252 v90l-113 -10v193h559v-193l-209 10v-90q0 -176 -96 -289q-133 -156 -430 -155q-297 0 -434 170q-96 117 -97 274z" />
<glyph unicode="'" horiz-adv-x="466" d="M90 1378h287l-72 -604h-143z" />
<glyph unicode="(" horiz-adv-x="659" d="M27 627q0 258 106 477q121 246 361 397l135 -178q-365 -231 -365 -696q0 -464 369 -695l-135 -178q-242 154 -363 398q-109 217 -108 475z" />
<glyph unicode=")" horiz-adv-x="659" d="M27 -68q369 231 368 695q0 465 -364 696l135 178q240 -152 360 -397q107 -219 107 -477t-109 -475q-121 -244 -362 -398z" />
<glyph unicode="*" horiz-adv-x="1056" d="M53 952l70 213l219 -71l102 -62l-28 115v231h225v-231l-29 -115l103 62l219 71l70 -213l-220 -71l-118 -11l90 -77l137 -187l-182 -131l-136 187l-47 110l-45 -110l-135 -187l-182 131l137 187l90 77l-119 11z" />
<glyph unicode="+" horiz-adv-x="1179" d="M68 522v193h426v426h192v-426h426v-193h-426v-426h-192v426h-426z" />
<glyph unicode="," horiz-adv-x="573" d="M-20 -274l299 653l249 -139l-387 -609z" />
<glyph unicode="-" horiz-adv-x="909" d="M129 522v193h649v-193h-649z" />
<glyph unicode="." d="M137 0v322h238v-322h-238z" />
<glyph unicode="/" horiz-adv-x="778" d="M27 16l508 1401l217 -78l-508 -1402z" />
<glyph unicode="0" horiz-adv-x="1255" d="M88 690q0 309 86 479q129 250 455 250t452 -252q86 -168 86 -477t-86 -477q-127 -252 -452 -252q-326 0 -455 252q-86 168 -86 477zM326 690q0 -256 43 -366q68 -168 260 -168q193 0 258 170q43 108 43 364t-43 367q-66 168 -258 168q-193 0 -260 -168q-43 -111 -43 -367 z" />
<glyph unicode="1" horiz-adv-x="1011" d="M117 1026l473 352h176v-1378h-238v993l11 119h-4l-76 -84l-205 -154z" />
<glyph unicode="2" horiz-adv-x="1140" d="M102 0v158l600 647q106 115 107 213q0 90 -65.5 147.5t-155.5 57.5q-186 0 -262 -199l-209 61q59 162 192 250q121 80 279 80q182 0 315 -104q143 -115 144 -293q0 -172 -168 -352l-363 -392l-121 -110l656 29v-193h-949z" />
<glyph unicode="3" horiz-adv-x="1148" d="M55 195l183 114q129 -152 297 -151q141 0 221 80q68 68 67 161q0 90 -67 154q-78 76 -221 76h-136v192h127q104 0 170 45q78 51 78 152q0 90 -65.5 147.5t-157.5 57.5q-139 0 -250 -148l-186 109q180 231 436 231q178 0 309 -94q152 -111 152 -303q0 -225 -193 -289v-4 q242 -78 242 -326q0 -178 -137 -303q-147 -133 -389 -133q-285 0 -480 232z" />
<glyph unicode="4" horiz-adv-x="1153" d="M61 250v180l490 993l203 -90l-398 -809l-65 -98v-4l323 12v258h238v-250l260 11v-203h-260v-250h-238v250h-553z" />
<glyph unicode="5" horiz-adv-x="1118" d="M47 184l176 123q121 -152 285 -151q125 0 206 80.5t81 197.5q0 115 -86 189.5t-234 74.5q-182 0 -305 -57v737h786v-192l-548 28v-331q41 8 94 8q238 0 383 -132t145 -329q0 -199 -139 -330q-145 -137 -383 -137q-270 0 -461 221z" />
<glyph unicode="6" horiz-adv-x="1191" d="M88 483q0 299 182 557q199 279 543 398l82 -199q-326 -111 -475 -397q57 53 172 53q201 0 346 -113q166 -129 166 -352q0 -190 -129 -321q-141 -147 -383 -148q-207 0 -346 129q-158 143 -158 393zM317 475q0 -319 273 -319q133 0 215 88q72 77 72 190q0 127 -95 201 q-86 66 -211 65q-141 0 -237 -79q-16 -72 -17 -146z" />
<glyph unicode="7" horiz-adv-x="980" d="M41 1186v192h899v-180l-571 -1239l-211 80l485 1053l72 122z" />
<glyph unicode="8" horiz-adv-x="1198" d="M88 399q0 199 201 338q-152 98 -152 279q0 193 154 305q131 94 307 94q207 0 342 -121q125 -117 125 -276q0 -182 -164 -289q209 -119 209 -330q0 -176 -133 -301q-143 -135 -379 -135q-233 0 -377 135q-133 125 -133 301zM326 399q0 -94 65 -161q76 -80 207 -80 q133 0 207 80q65 67 65 161q0 154 -202 213q-55 10 -176 33q-166 -100 -166 -246zM375 1016q0 -172 229 -199q55 -6 84 -10q135 76 135 209q0 86 -60.5 145.5t-164.5 59.5q-92 0 -157.5 -56.5t-65.5 -148.5z" />
<glyph unicode="9" horiz-adv-x="1191" d="M88 942q0 190 129 322q141 147 383 147q207 0 348 -129q156 -143 156 -393q0 -299 -182 -557q-199 -279 -543 -398l-82 199q326 111 475 397q-57 -53 -172 -53q-201 0 -346 113q-166 129 -166 352zM315 938q0 -127 95 -201q86 -66 211 -65q141 0 237 80q16 71 16 145 q0 319 -272 320q-133 0 -210 -83t-77 -196z" />
<glyph unicode=":" horiz-adv-x="526" d="M147 0v322h238v-322h-238zM147 659v322h238v-322h-238z" />
<glyph unicode=";" horiz-adv-x="573" d="M-20 -274l299 653l249 -139l-387 -609zM215 659v322h238v-322h-238z" />
<glyph unicode="&#x3c;" horiz-adv-x="1103" d="M68 408v176l968 444v-229l-714 -303l714 -303v-230z" />
<glyph unicode="=" horiz-adv-x="1179" d="M68 311v193h1044v-193h-1044zM68 733v193h1044v-193h-1044z" />
<glyph unicode="&#x3e;" horiz-adv-x="1103" d="M68 -37v230l714 303l-714 303v229l968 -444v-176z" />
<glyph unicode="?" horiz-adv-x="1034" d="M35 1235q211 166 459 166q221 0 354 -111q125 -106 125 -268q0 -172 -111 -283q-104 -78 -209 -153q-113 -86 -116 -191h-226q4 178 117 287q102 72 205 145q111 82 110 197q0 76 -57 125q-68 57 -197 57q-166 0 -321 -123zM307 0v254h232v-254h-232z" />
<glyph unicode="@" horiz-adv-x="1476" d="M39 672q0 322 108 493q166 262 594 262q426 0 590 -258q107 -170 107 -487q0 -227 -129 -365q-117 -125 -281 -124q-150 0 -211 114q-102 -31 -184 -31q-127 0 -199 70q-84 76 -84 229q0 215 102.5 348.5t274.5 133.5q111 0 240 -70l63 76l154 -111q-72 291 -443 291 q-291 0 -395 -172q-78 -123 -78 -399q0 -293 94 -424q111 -152 386 -152q285 0 518 137l92 -155q-254 -166 -621 -166q-698 0 -698 760zM575 571q0 -129 103 -129q23 0 61 7l64 10l82 401l-49 14q-43 12 -80 13q-180 0 -181 -316zM1014 389q0 -12 14 -12q63 0 113 61 q67 80 67 244q0 143 -18 238l-86 -101l-90 -428v-2z" />
<glyph unicode="A" horiz-adv-x="1290" d="M14 29l518 1349h224l520 -1349l-225 -54l-146 396l-55 -4l-467 4l-145 -396zM453 557l63 4h258l60 -4l-127 344l-62 225h-4l-61 -225z" />
<glyph unicode="B" horiz-adv-x="1257" d="M137 0v1378h541q186 0 299 -116q100 -104 100 -252q0 -86 -41 -168q-49 -98 -133 -127v-4q119 -6 192.5 -99.5t73.5 -212.5q0 -160 -112 -272q-127 -127 -330 -127h-590zM375 170l354 20q98 4 152 72q49 58 49 144q0 78 -43 136t-119 62l-393 17v-451zM375 774l305 17 q68 4 114 59t46 137q0 84 -45 141.5t-115 61.5l-305 18v-434z" />
<glyph unicode="C" horiz-adv-x="1159" d="M88 688q0 387 133 555q127 160 408 160q139 0 307 -31l115 -20l-37 -191l-119 21q-157 28 -248 28h-6q-178 0 -245.5 -113.5t-67.5 -408.5q0 -283 59 -397q63 -125 225 -125q80 0 238 39l176 47l66 -186l-177 -46q-184 -49 -321 -49q-260 0 -383 175.5t-123 541.5z" />
<glyph unicode="D" horiz-adv-x="1325" d="M137 0v1378h465q281 0 447 -151q188 -174 188 -518q0 -334 -182 -527q-172 -182 -453 -182h-465zM375 170l229 16q168 12 273 127q122 138 122 396q0 457 -393 483l-231 16v-1038z" />
<glyph unicode="E" horiz-adv-x="1107" d="M137 0v1378h875v-192l-637 24v-415l497 22v-201l-497 23v-471l653 25v-193h-891z" />
<glyph unicode="F" horiz-adv-x="1091" d="M137 0v1378h875v-192l-637 24v-415l497 22v-201l-497 23v-639h-238z" />
<glyph unicode="G" horiz-adv-x="1290" d="M88 686q0 365 113 531q127 188 432 188q119 0 303 -33l129 -22l-37 -191l-133 23q-142 26 -246 26h-8q-182 0 -247.5 -109.5t-65.5 -412.5q0 -518 307 -518q92 0 205 39l75 29v335l-284 -24v192h522v-633l-203 -71q-190 -66 -325 -66q-276 0 -416 213q-121 186 -121 504z " />
<glyph unicode="H" horiz-adv-x="1331" d="M137 0v1378h238v-561h581v561h238v-1378h-238v625h-581v-625h-238z" />
<glyph unicode="I" d="M137 0v1378h238v-1378h-238z" />
<glyph unicode="J" horiz-adv-x="962" d="M6 43l78 182q214 -69 312 -69h3q188 0 189 219v1003h237v-1003q0 -201 -120 -309q-113 -102 -306 -103q-147 0 -393 80z" />
<glyph unicode="K" horiz-adv-x="1216" d="M137 0v1378h238v-561l106 -14l477 592l197 -115l-405 -479l-80 -80v-4l88 -94l413 -557l-221 -93l-463 664l-112 -12v-625h-238z" />
<glyph unicode="L" horiz-adv-x="1058" d="M137 0v1378h238v-1210l643 25v-193h-881z" />
<glyph unicode="M" horiz-adv-x="1738" d="M96 8l144 1370h258l307 -831l61 -250h6l64 250l309 831h254l143 -1370l-243 -22l-66 807l-12 256h-6l-58 -256l-290 -793h-195l-289 793l-57 256h-6l-10 -256l-68 -807z" />
<glyph unicode="N" horiz-adv-x="1345" d="M137 0v1378h236l499 -811l99 -211h4l-4 217v805h237v-1378h-233l-502 811l-100 211h-4l6 -217v-805h-238z" />
<glyph unicode="O" horiz-adv-x="1384" d="M88 688q0 297 90 461q143 256 516 256t514 -258q88 -162 88 -459t-88 -459q-141 -260 -514 -260t-516 258q-90 164 -90 461zM326 688q0 -256 63 -373q83 -151 302 -151h3q229 0 312 168q53 110 53 356q0 248 -53 356q-80 166 -312 166q-223 0 -305 -149 q-63 -115 -63 -373z" />
<glyph unicode="P" horiz-adv-x="1200" d="M137 0v1378h582q186 0 297 -127q100 -116 100 -282q0 -172 -104 -291q-119 -131 -322 -131q-27 0 -26 0l-289 12v-559h-238zM375 711l303 22q100 8 156 80q49 64 49 156q0 86 -45 151.5t-119 69.5l-344 18v-497z" />
<glyph unicode="Q" horiz-adv-x="1384" d="M88 688q0 297 90 461q143 256 516 256t514 -258q88 -162 88 -459q0 -547 -333 -674l133 -196l-203 -127l-156 278h-43q-373 0 -516 258q-90 164 -90 461zM326 688q0 -256 63 -373q83 -151 302 -151h3q229 0 312 168q53 110 53 356q0 248 -53 356q-80 166 -312 166 q-223 0 -305 -149q-63 -115 -63 -373z" />
<glyph unicode="R" horiz-adv-x="1214" d="M137 0v1378h582q190 0 303 -121q98 -104 98 -256q0 -131 -78 -237q-86 -119 -233 -152l96 -120l269 -447l-234 -74l-358 619h-207v-590h-238zM375 760l305 20q92 6 147.5 68.5t55.5 152.5q0 80 -44 132.5t-120 56.5l-344 18v-448z" />
<glyph unicode="S" horiz-adv-x="1132" d="M41 88l74 182l121 -43q139 -47 290 -47q287 0 287 205q0 147 -180 207q-168 49 -338 100q-180 88 -180 309q0 391 458 392q150 0 336 -37l115 -21l-49 -190l-144 31q-137 32 -235 32h-6q-238 0 -238 -207q0 -117 180 -167q297 -84 338 -107q181 -102 181 -342 q0 -215 -156 -319q-129 -86 -350 -86q-219 0 -428 79z" />
<glyph unicode="T" horiz-adv-x="1110" d="M41 1186v192h1028v-192l-395 20v-1206h-238v1206z" />
<glyph unicode="U" horiz-adv-x="1357" d="M137 381v997h238v-997q0 -104 49 -152q69 -67 249 -67h5q186 0 256 67q49 47 49 152v997h238v-997q0 -412 -543 -412q-541 0 -541 412z" />
<glyph unicode="V" horiz-adv-x="1265" d="M14 1335l219 70l332 -870l66 -238h4l67 238l330 868l219 -68l-514 -1335h-207z" />
<glyph unicode="W" horiz-adv-x="1718" d="M14 1358l234 43l217 -860l35 -240h4l35 240l194 837h248l199 -837l34 -240h7l34 240l215 862l234 -43l-373 -1360h-231l-199 827l-39 265h-6l-41 -265l-194 -827h-232z" />
<glyph unicode="X" horiz-adv-x="1157" d="M14 68l428 620l-428 615l203 102l358 -571h5l94 155l266 416l201 -102l-426 -615l428 -620l-203 -103l-360 576h-5l-92 -156l-266 -420z" />
<glyph unicode="Y" horiz-adv-x="1193" d="M14 1298l199 105l295 -492l88 -180h4l88 180l293 492l199 -105l-463 -745v-553h-238v551z" />
<glyph unicode="Z" horiz-adv-x="1161" d="M68 0v150l632 940l99 120l-697 -24v192h971v-149l-633 -940l-100 -121l754 25v-193h-1026z" />
<glyph unicode="[" horiz-adv-x="659" d="M82 -223v1698h479v-195h-242v-1311h259v-192h-496z" />
<glyph unicode="\" horiz-adv-x="778" d="M27 1339l217 78l508 -1401l-217 -79z" />
<glyph unicode="]" horiz-adv-x="659" d="M82 -31h258v1311h-242v195h480v-1698h-496v192z" />
<glyph unicode="_" horiz-adv-x="860" d="M14 -102h832v-138h-832v138z" />
<glyph unicode="`" horiz-adv-x="999" d="M207 1331l112 197l486 -258l-84 -142z" />
<glyph unicode="a" horiz-adv-x="1097" d="M61 266q0 113 80 189q92 84 258 90l306 10l-5 207q-2 67 -113 67h-3q-104 0 -303 -26l-121 -17l-39 181l117 18q197 31 325 31q150 0 248 -47q125 -61 127 -187l10 -536l103 -150l-199 -123l-96 136l-219 -93q-84 -36 -172 -36h-5q-133 0 -219 90q-80 84 -80 196z M299 258q0 -98 115 -98q27 0 61 10l236 55l-2 183l-273 -29q-66 -6 -101.5 -42t-35.5 -79z" />
<glyph unicode="b" horiz-adv-x="1159" d="M55 96l103 152v1268h237v-560l88 25q96 29 183 29q195 0 300 -142.5t105 -386.5q0 -231 -117.5 -368.5t-294.5 -137.5q-137 0 -245 66l-78 49l-82 -117zM395 211l70 -27q74 -32 143 -32h4h1q216 0 216 321q0 205 -56 285t-187 80q-55 0 -121 -11l-70 -10v-606z" />
<glyph unicode="c" horiz-adv-x="1015" d="M90 481v8q0 524 471 525q111 0 207 -17l158 -26l-33 -183l-188 27q-72 10 -142 10q-125 0 -176 -67q-59 -74 -59 -271v-6q0 -327 248 -327h2q82 0 145 22l182 66l70 -183l-172 -55q-115 -37 -232 -37q-219 0 -350 136.5t-131 377.5z" />
<glyph unicode="d" horiz-adv-x="1159" d="M88 481q0 244 105.5 386.5t300.5 142.5q80 0 182 -29l88 -25v560h237v-1268l103 -152l-199 -123l-82 117l-78 -49q-104 -66 -245 -66q-176 0 -291 136q-121 139 -121 370zM330 473q0 -321 216 -321h1q61 0 147 32l70 27v606l-70 10q-70 10 -121 11q-131 0 -187 -80 t-56 -285z" />
<glyph unicode="e" horiz-adv-x="1067" d="M90 481q0 233 64 348q102 180 383 181q440 0 440 -424q0 -20 -6 -135l-643 20q2 -18 2 -39q18 -280 250 -280h2q82 0 190 36l148 52l67 -177l-139 -49q-133 -47 -273 -47q-215 0 -344 123q-141 137 -141 391zM328 596l426 12q-4 109 -47 160q-51 59 -170 59 q-201 0 -209 -231z" />
<glyph unicode="f" horiz-adv-x="833" d="M55 836v145h178v283q0 145 93 219q78 63 209 63q72 0 139 -18l170 -43l-60 -182l-151 36q-37 10 -68 11q-94 0 -94 -86v-283h289v-186h-289v-795h-238v795z" />
<glyph unicode="g" horiz-adv-x="1159" d="M90 510q0 231 119 371q113 135 289 135q129 0 235 -62l90 -53l84 117l197 -123l-103 -152v-761q0 -227 -143 -347q-125 -102 -330 -102q-147 0 -266 51l-149 62l73 174l158 -66q94 -35 178 -35q242 0 242 267v49l-86 -25q-106 -30 -179 -30h-5q-193 0 -299 145 q-104 139 -105 385zM330 516q0 -203 56 -282.5t187 -79.5q61 0 121 10l70 10v606l-76 29q-76 31 -143 31q-215 0 -215 -324z" />
<glyph unicode="h" horiz-adv-x="1153" d="M137 0v1516h238v-601l147 68q86 39 178 39q131 0 220 -72q96 -80 96 -219v-731h-238v735q0 100 -114 101q-39 0 -89 -13l-200 -53v-770h-238z" />
<glyph unicode="i" d="M137 0v981h238v-981h-238zM137 1208v308h238v-308h-238z" />
<glyph unicode="j" d="M-147 -250q158 0 215 45q70 55 69 225v961h238v-940q0 -268 -137 -385q-123 -104 -385 -105v199zM137 1208v308h238v-308h-238z" />
<glyph unicode="k" horiz-adv-x="1095" d="M137 0v1516h238v-889l76 -15l423 398l160 -166l-303 -254l-96 -62v-4l96 -80l316 -350l-193 -129l-414 484l-65 -15v-434h-238z" />
<glyph unicode="l" d="M137 0v1516h238v-1516h-238z" />
<glyph unicode="m" horiz-adv-x="1712" d="M55 893l199 123l86 -125l199 88q86 39 174 39q160 0 231 -119l180 80q88 39 174 39q119 0 195 -70q82 -76 82 -217v-731h-238v735q0 98 -90 99q-23 0 -53 -9l-207 -55q2 -12 2 -39v-731h-237v735q0 98 -93 99q-23 0 -51 -9l-213 -55v-770h-237v741z" />
<glyph unicode="n" horiz-adv-x="1173" d="M55 893l199 123l88 -127l201 94q86 39 180 39q131 0 217 -72q96 -80 96 -219v-731h-237v735q0 100 -115 101q-37 0 -88 -13l-201 -53v-770h-237v741z" />
<glyph unicode="o" horiz-adv-x="1157" d="M90 475q0 238 82 363q115 178 406 178t407 -178q84 -125 84 -363q0 -512 -491 -512q-487 0 -488 512zM326 475q0 -178 57 -254t195 -76q137 0 195 77t58 253q0 193 -53 276t-200 83q-145 0 -198.5 -83t-53.5 -276z" />
<glyph unicode="p" horiz-adv-x="1159" d="M55 895l199 123l82 -117l78 49q104 66 245 66q176 0 294 -137.5t118 -368.5q0 -244 -104 -383q-106 -145 -301 -145q-80 0 -183 28l-88 25v-484h-237v1192zM395 174l70 -10q70 -10 121 -10q131 0 187 79.5t56 284.5q0 322 -217 322q-61 0 -147 -33l-70 -27v-606z" />
<glyph unicode="q" horiz-adv-x="1159" d="M55 510q0 231 121 371q115 135 291 135q141 0 246 -66l78 -49l81 117l199 -123l-102 -152v-1192h-238v484l-88 -25q-99 -28 -177 -28h-5q-195 0 -301 145q-104 139 -105 383zM297 518q0 -205 56.5 -284.5t187.5 -79.5q51 0 121 10l69 10v606l-69 27q-86 33 -148 33 q-217 0 -217 -322z" />
<glyph unicode="r" horiz-adv-x="790" d="M55 893l199 123l86 -123q162 94 399 113l11 -197q-207 -4 -355 -45v-764h-237v741z" />
<glyph unicode="s" horiz-adv-x="991" d="M61 41l62 178l72 -22q143 -45 282 -45q201 0 201 124q0 88 -152 123q-254 59 -278 72q-152 70 -152 240q0 305 400 305q102 0 268 -27l115 -18l-41 -183l-109 17q-190 29 -217 29q-178 0 -178 -123q0 -63 151 -95q215 -45 279 -79q151 -81 151 -261q0 -311 -432 -311 q-178 0 -329 47z" />
<glyph unicode="t" horiz-adv-x="890" d="M55 838v143h178v397h238v-397h303v-186h-303v-555q0 -72 82 -72q41 0 88 16l131 43l70 -178l-152 -47q-92 -29 -160 -29q-127 0 -206 62q-90 70 -91 205v555z" />
<glyph unicode="u" horiz-adv-x="1173" d="M137 250v731h238v-735q0 -100 114 -101q41 0 89 13l200 53v770h238v-741l102 -152l-198 -123l-89 127l-200 -94q-82 -39 -180 -39q-131 0 -218 72q-96 80 -96 219z" />
<glyph unicode="v" horiz-adv-x="1091" d="M14 946l224 70l237 -594l66 -199h6l67 199l240 592l223 -68l-426 -946h-213z" />
<glyph unicode="w" horiz-adv-x="1525" d="M14 958l224 58l159 -522l49 -211h9l49 211l151 487h217l150 -487l47 -209h8l49 209l162 522l223 -58l-340 -958h-204l-150 514l-49 215h-8l-49 -215l-150 -514h-205z" />
<glyph unicode="x" horiz-adv-x="1019" d="M14 80l361 418l-334 399l192 115l279 -367l279 367l194 -115l-334 -399l355 -418l-191 -119l-303 387l-303 -387z" />
<glyph unicode="y" horiz-adv-x="1083" d="M-88 -334l119 160q127 -80 190 -80q94 0 144 123l61 156l-70 147l-338 772l220 72l237 -588l66 -203h6l67 203l238 586l217 -76l-500 -1169q-90 -215 -336 -215q-139 0 -321 112z" />
<glyph unicode="z" horiz-adv-x="1007" d="M76 0v147l477 572l98 96l-549 -18v184h824v-147l-480 -572l-96 -96l582 18v-184h-856z" />
<glyph unicode="{" horiz-adv-x="831" d="M82 535v196h78q37 0 63.5 36t26.5 77v207q0 213 108.5 313t364.5 135l33 -196q-166 -23 -217.5 -70t-51.5 -182v-207q0 -129 -106 -209q106 -88 106 -211v-209q0 -135 52.5 -183t216.5 -71l-33 -197q-256 35 -364.5 135.5t-108.5 315.5v209q0 43 -25.5 77t-64.5 34h-78z " />
<glyph unicode="|" horiz-adv-x="458" d="M111 -483v1999h237v-1999h-237z" />
<glyph unicode="}" horiz-adv-x="831" d="M76 -39q164 23 216 71t52 183v209q0 123 107 211q-106 80 -107 209v207q0 135 -51 182t-217 70l33 196q256 -35 364.5 -135t108.5 -313v-207q0 -41 26.5 -77t63.5 -36h78v-196h-78q-39 0 -64.5 -34t-25.5 -77v-209q0 -215 -108.5 -315.5t-364.5 -135.5z" />
<glyph unicode="~" horiz-adv-x="1040" d="M49 750q33 264 246 264q86 0 236.5 -45t213.5 -45q29 0 40.5 17t25.5 87l178 -65q-33 -268 -246 -269q-76 0 -230.5 45t-219.5 45q-29 0 -40 -17t-26 -89z" />
<glyph unicode="&#xa1;" horiz-adv-x="477" d="M96 0l72 885h143l72 -885h-287zM121 1057v321h237v-321h-237z" />
<glyph unicode="&#xa2;" horiz-adv-x="1071" d="M90 481v8q0 281 127 410q109 111 328 115v168h61v-168q113 -4 334 -41l-33 -182q-154 27 -301 34v-671q113 6 314 75l69 -176q-223 -76 -383 -82v-157h-61v157q-205 8 -322 125q-133 131 -133 385zM328 481q0 -305 217 -325v671q-113 -6 -162 -75q-55 -78 -55 -265v-6z " />
<glyph unicode="&#xa3;" horiz-adv-x="1167" d="M66 0v193h38q139 0 142 129l2 292h-160v193h162l4 225q4 375 387 375q129 0 315 -47l101 -27l-51 -188l-58 16q-139 39 -268 39q-186 0 -188 -168l-5 -225h367v-193h-369l-2 -295q-2 -84 -45 -137l131 11h482v-193h-985z" />
<glyph unicode="&#xa4;" horiz-adv-x="1251" d="M76 424v178h141v172h-141v178h157q39 238 156 345.5t330 107.5q123 0 297 -33l108 -20l-37 -191l-133 25q-104 20 -178 20q-258 0 -303 -254h285v-178h-299q-2 -29 -2 -86t2 -86h299v-178h-285q45 -254 303 -254q74 0 178 20l133 25l39 -190l-110 -21q-176 -33 -297 -33 q-213 0 -330 107.5t-153 345.5h-160z" />
<glyph unicode="&#xa5;" horiz-adv-x="1300" d="M104 1298l199 105l272 -492l68 -161h16l68 161l270 492l199 -105l-313 -548h291v-195h-404v-133h404v-193h-404v-229h-238v229h-403v193h403v133h-403v195h289z" />
<glyph unicode="&#xa7;" horiz-adv-x="1036" d="M117 -104l57 178q219 -66 350 -66q86 0 135 47q41 41 41 90q0 88 -141 129q-242 70 -266 82q-141 76 -141 246q0 133 122 252q-131 80 -131 240q0 127 95 215q104 96 278 96q113 0 281 -29l98 -16l-41 -184l-61 12q-158 31 -258 31q-78 0 -121 -43q-35 -35 -35 -82 q0 -76 143 -113q213 -55 264 -86q143 -82 144 -270q0 -119 -111 -234q117 -88 117 -244q0 -135 -100 -227q-111 -100 -299 -100q-166 0 -420 76zM385 602q0 -57 76 -86q49 -12 149 -41q86 80 86 150t-49 100q-33 20 -155 53q-106 -80 -107 -176z" />
<glyph unicode="&#xa8;" horiz-adv-x="1124" d="M236 1214v269h210v-269h-210zM680 1214v269h209v-269h-209z" />
<glyph unicode="&#xa9;" horiz-adv-x="1640" d="M102 688q0 297 211 507t508 210t507 -210t210 -507t-210 -508t-507 -211t-508 211t-211 508zM287 688q0 -221 157.5 -378.5t376.5 -157.5q221 0 379 157.5t158 378.5q0 219 -158 377t-379 158t-377.5 -158t-156.5 -377zM512 674q0 377 307 377q70 0 166 -19l82 -16 l-29 -135l-73 14q-94 18 -140 18q-76 0 -107.5 -51t-31.5 -188q0 -133 27.5 -184.5t95.5 -51.5q45 0 143 25l90 22l50 -131l-119 -28q-94 -23 -170 -23q-291 0 -291 371z" />
<glyph unicode="&#xaa;" horiz-adv-x="782" d="M76 948q0 170 217 180l168 7l-2 98q-2 45 -56 45q-74 0 -192 -18l-74 -11l-31 133l103 15q123 18 182 18q92 0 156 -31q82 -41 84 -127l6 -315l70 -100l-148 -90l-57 84l-82 -35q-88 -39 -150 -39q-86 0 -143 59q-51 53 -51 127zM78 528v152h606v-152h-606zM248 944 q0 -45 57 -45q47 0 92 12l68 21l-2 90l-105 -14q-111 -16 -110 -64z" />
<glyph unicode="&#xab;" horiz-adv-x="1099" d="M47 498l397 436l138 -119l-230 -317l230 -318l-138 -119zM518 498l397 436l138 -119l-230 -317l230 -318l-138 -119z" />
<glyph unicode="&#xad;" horiz-adv-x="909" d="M129 522v193h649v-193h-649z" />
<glyph unicode="&#xae;" horiz-adv-x="1640" d="M102 688q0 297 211 507t508 210t507 -210t210 -507t-210 -508t-507 -211t-508 211t-211 508zM287 688q0 -221 157.5 -378.5t376.5 -157.5q221 0 379 157.5t158 378.5q0 219 -158 377t-379 158t-377.5 -158t-156.5 -377zM549 324v716h323q111 0 177 -63q57 -59 57 -143 q0 -68 -40 -123.5t-116 -77.5l58 -62l137 -209l-164 -57l-186 305h-76v-286h-170zM719 725l131 14q88 11 88 95q0 76 -64 81l-155 13v-203z" />
<glyph unicode="&#xaf;" horiz-adv-x="1060" d="M227 1280v166h607v-166h-607z" />
<glyph unicode="&#xb0;" horiz-adv-x="872" d="M96 1073q0 139 99.5 239.5t240.5 100.5t240.5 -100.5t99.5 -239.5q0 -141 -99 -241.5t-241 -100.5q-141 0 -240.5 100.5t-99.5 241.5zM205 1073q0 -96 67.5 -163.5t163.5 -67.5t164 68.5t68 162.5q0 96 -68 164t-164 68t-163.5 -68t-67.5 -164z" />
<glyph unicode="&#xb4;" horiz-adv-x="999" d="M207 1270l485 258l113 -197l-514 -203z" />
<glyph unicode="&#xb6;" horiz-adv-x="1269" d="M61 930q0 186 142.5 317t343.5 131h641v-1583h-232v1393h-147v-1393h-229v686h-68q-186 0 -318.5 134.5t-132.5 314.5zM291 930q0 -100 71.5 -178t167.5 -78h50v514h-52q-94 0 -165.5 -79t-71.5 -179z" />
<glyph unicode="&#xb7;" horiz-adv-x="526" d="M147 567v322h236l2 -322h-238z" />
<glyph unicode="&#xb8;" horiz-adv-x="1015" d="M295 -426l67 127q20 -16 75 -35.5t100 -19.5q82 0 81 63q0 80 -165 105q-53 8 -99 12l115 235l152 -67l-50 -94h15q12 -2 16 -2q86 -12 139 -76q47 -55 47 -123q0 -92 -71.5 -150.5t-181.5 -58.5q-145 0 -240 84z" />
<glyph unicode="&#xba;" horiz-adv-x="768" d="M76 1075q0 340 305 340q311 0 311 -340q0 -324 -311 -323q-305 0 -305 323zM94 528v152h574v-152h-574zM248 1075q0 -100 30.5 -142t102.5 -42q76 0 107.5 42t31.5 142q0 113 -28.5 157t-110.5 44q-76 0 -104.5 -45t-28.5 -156z" />
<glyph unicode="&#xbb;" horiz-adv-x="1099" d="M47 180l229 318l-229 317l137 119l398 -436l-398 -437zM518 180l230 318l-230 317l137 119l398 -436l-398 -437z" />
<glyph unicode="&#xbf;" horiz-adv-x="1034" d="M61 379q0 172 111 283q104 78 209 153q113 86 117 191h225q-4 -178 -117 -287q-102 -72 -205 -146q-111 -82 -110 -196q0 -76 57 -125q68 -57 197 -57q166 0 321 122l133 -151q-211 -166 -458 -166q-221 0 -350.5 108.5t-129.5 270.5zM496 1147v254h231v-254h-231z" />
<glyph unicode="&#xc0;" horiz-adv-x="1290" d="M14 29l518 1349h224l520 -1349l-225 -54l-146 396l-55 -4l-467 4l-145 -396zM350 1618l92 207l510 -205l-69 -150zM453 557l63 4h258l60 -4l-127 344l-62 225h-4l-61 -225z" />
<glyph unicode="&#xc1;" horiz-adv-x="1290" d="M14 29l518 1349h224l520 -1349l-225 -54l-146 396l-55 -4l-467 4l-145 -396zM350 1620l510 205l92 -207l-532 -148zM453 557l63 4h258l60 -4l-127 344l-62 225h-4l-61 -225z" />
<glyph unicode="&#xc2;" horiz-adv-x="1290" d="M14 29l518 1349h224l520 -1349l-225 -54l-146 396l-55 -4l-467 4l-145 -396zM305 1599l338 226l338 -226l-74 -135l-264 131l-264 -131zM453 557l63 4h258l60 -4l-127 344l-62 225h-4l-61 -225z" />
<glyph unicode="&#xc3;" horiz-adv-x="1290" d="M14 29l518 1349h224l520 -1349l-225 -54l-146 396l-55 -4l-467 4l-145 -396zM279 1515q23 215 236 215q63 0 142 -39t107 -39q94 0 117 80l117 -47q-23 -219 -236 -219q-63 0 -142 39t-108 39q-96 0 -116 -78zM453 557l63 4h258l60 -4l-127 344l-62 225h-4l-61 -225z" />
<glyph unicode="&#xc4;" horiz-adv-x="1290" d="M14 29l518 1349h224l520 -1349l-225 -54l-146 396l-55 -4l-467 4l-145 -396zM317 1495v254h211v-254h-211zM453 557l63 4h258l60 -4l-127 344l-62 225h-4l-61 -225zM762 1495v254h209v-254h-209z" />
<glyph unicode="&#xc5;" horiz-adv-x="1290" d="M14 29l504 1312q-133 45 -133 189q0 215 258 215q260 0 260 -215q0 -143 -133 -189l506 -1312l-225 -54l-146 396l-55 -4l-467 4l-145 -396zM453 557l63 4h258l60 -4l-127 344l-62 225h-4l-61 -225zM535 1530q0 -72 108 -72q113 0 113 72q0 80 -113 80q-109 0 -108 -80z " />
<glyph unicode="&#xc6;" horiz-adv-x="1832" d="M14 39l715 1339h1008v-192l-637 24v-415l497 22v-201l-497 23v-471l653 25v-193h-891v367h-340l-84 6l-213 -398zM535 555l75 6h252v662l-104 -252z" />
<glyph unicode="&#xc7;" horiz-adv-x="1159" d="M88 688q0 387 133 555q127 160 408 160q139 0 307 -31l115 -20l-37 -191l-119 21q-162 29 -254 28q-178 0 -245.5 -113.5t-67.5 -408.5q0 -283 59 -397q63 -125 225 -125q80 0 238 39l176 47l66 -186l-177 -46q-184 -49 -321 -49q-260 0 -383 175.5t-123 541.5zM342 -426 l67 127q20 -16 75 -35.5t100 -19.5q82 0 81 63q0 80 -165 105q-53 8 -99 12l115 235l152 -67l-50 -94h15q12 -2 16 -2q86 -12 139 -76q47 -55 47 -123q0 -92 -71.5 -150.5t-181.5 -58.5q-145 0 -240 84z" />
<glyph unicode="&#xc8;" horiz-adv-x="1107" d="M137 0v1378h875v-192l-637 24v-415l497 22v-201l-497 23v-471l653 25v-193h-891zM289 1618l92 207l510 -205l-70 -150z" />
<glyph unicode="&#xc9;" horiz-adv-x="1107" d="M137 0v1378h875v-192l-637 24v-415l497 22v-201l-497 23v-471l653 25v-193h-891zM289 1620l510 205l92 -207l-533 -148z" />
<glyph unicode="&#xca;" horiz-adv-x="1107" d="M137 0v1378h875v-192l-637 24v-415l497 22v-201l-497 23v-471l653 25v-193h-891zM244 1599l338 226l338 -226l-74 -135l-264 131l-265 -131z" />
<glyph unicode="&#xcb;" horiz-adv-x="1107" d="M137 0v1378h875v-192l-637 24v-415l497 22v-201l-497 23v-471l653 25v-193h-891zM256 1495v254h211v-254h-211zM700 1495v254h209v-254h-209z" />
<glyph unicode="&#xcc;" d="M-45 1618l92 207l510 -205l-70 -150zM137 0v1378h238v-1378h-238z" />
<glyph unicode="&#xcd;" d="M-45 1620l510 205l92 -207l-532 -148zM137 0v1378h238v-1378h-238z" />
<glyph unicode="&#xce;" d="M-82 1599l338 226l338 -226l-74 -135l-264 131l-264 -131zM137 0v1378h238v-1378h-238z" />
<glyph unicode="&#xcf;" d="M-70 1495v254h211v-254h-211zM137 0v1378h238v-1378h-238zM375 1495v254h209v-254h-209z" />
<glyph unicode="&#xd0;" horiz-adv-x="1402" d="M-6 631l221 108v639h465q281 0 446 -151q189 -174 189 -518q0 -334 -182 -527q-172 -182 -453 -182h-465v514l-119 -57zM453 170l229 16q168 12 272 127q123 138 123 396q0 455 -393 483l-231 16v-354l112 55l105 -174l-217 -104v-461z" />
<glyph unicode="&#xd1;" horiz-adv-x="1345" d="M137 0v1378h236l499 -811l99 -211h4l-4 217v805h237v-1378h-233l-502 811l-100 211h-4l6 -217v-805h-238zM299 1515q23 215 236 215q63 0 142 -39t107 -39q94 0 117 80l117 -47q-23 -219 -236 -219q-63 0 -142 39t-108 39q-96 0 -116 -78z" />
<glyph unicode="&#xd2;" horiz-adv-x="1384" d="M88 688q0 297 90 461q143 256 516 256t514 -258q88 -162 88 -459t-88 -459q-141 -260 -514 -260t-516 258q-90 164 -90 461zM326 688q0 -256 63 -373q84 -152 305 -151q229 0 312 168q53 110 53 356q0 248 -53 356q-80 166 -312 166q-223 0 -305 -149q-63 -115 -63 -373z M412 1618l92 207l510 -205l-70 -150z" />
<glyph unicode="&#xd3;" horiz-adv-x="1384" d="M88 688q0 297 90 461q143 256 516 256t514 -258q88 -162 88 -459t-88 -459q-141 -260 -514 -260t-516 258q-90 164 -90 461zM326 688q0 -256 63 -373q84 -152 305 -151q229 0 312 168q53 110 53 356q0 248 -53 356q-80 166 -312 166q-223 0 -305 -149q-63 -115 -63 -373z M371 1620l510 205l92 -207l-533 -148z" />
<glyph unicode="&#xd4;" horiz-adv-x="1384" d="M88 688q0 297 90 461q143 256 516 256t514 -258q88 -162 88 -459t-88 -459q-141 -260 -514 -260t-516 258q-90 164 -90 461zM326 688q0 -256 63 -373q84 -152 305 -151q229 0 312 168q53 110 53 356q0 248 -53 356q-80 166 -312 166q-223 0 -305 -149q-63 -115 -63 -373z M356 1599l338 226l338 -226l-74 -135l-264 131l-264 -131z" />
<glyph unicode="&#xd5;" horiz-adv-x="1384" d="M88 688q0 297 90 461q143 256 516 256t514 -258q88 -162 88 -459t-88 -459q-141 -260 -514 -260t-516 258q-90 164 -90 461zM326 688q0 -256 63 -373q84 -152 305 -151q229 0 312 168q53 110 53 356q0 248 -53 356q-80 166 -312 166q-223 0 -305 -149q-63 -115 -63 -373z M346 1515q23 215 236 215q63 0 142 -39t107 -39q94 0 117 80l117 -47q-23 -219 -236 -219q-63 0 -142 39t-108 39q-96 0 -116 -78z" />
<glyph unicode="&#xd6;" horiz-adv-x="1384" d="M88 688q0 297 90 461q143 256 516 256t514 -258q88 -162 88 -459t-88 -459q-141 -260 -514 -260t-516 258q-90 164 -90 461zM326 688q0 -256 63 -373q84 -152 305 -151q229 0 312 168q53 110 53 356q0 248 -53 356q-80 166 -312 166q-223 0 -305 -149q-63 -115 -63 -373z M358 1495v254h211v-254h-211zM803 1495v254h209v-254h-209z" />
<glyph unicode="&#xd8;" horiz-adv-x="1384" d="M88 688q0 297 90 461q143 256 516 256q248 0 396 -115l120 166l56 -43l-125 -172q155 -170 155 -553q0 -297 -88 -459q-141 -260 -514 -260q-248 0 -393 113l-119 -166l-55 41l123 172q-162 168 -162 559zM326 688q0 -252 61 -369l574 793q-86 98 -267 98 q-223 0 -305 -149q-63 -115 -63 -373zM430 260q86 -96 264 -96q229 0 312 168q53 110 53 356q0 250 -55 363z" />
<glyph unicode="&#xd9;" horiz-adv-x="1357" d="M137 381v997h238v-997q0 -104 49 -152q70 -68 254 -67q186 0 256 67q49 47 49 152v997h238v-997q0 -412 -543 -412q-541 0 -541 412zM397 1618l92 207l510 -205l-69 -150z" />
<glyph unicode="&#xda;" horiz-adv-x="1357" d="M137 381v997h238v-997q0 -104 49 -152q70 -68 254 -67q186 0 256 67q49 47 49 152v997h238v-997q0 -412 -543 -412q-541 0 -541 412zM371 1620l510 205l92 -207l-533 -148z" />
<glyph unicode="&#xdb;" horiz-adv-x="1357" d="M137 381v997h238v-997q0 -104 49 -152q70 -68 254 -67q186 0 256 67q49 47 49 152v997h238v-997q0 -412 -543 -412q-541 0 -541 412zM342 1599l338 226l338 -226l-74 -135l-264 131l-264 -131z" />
<glyph unicode="&#xdc;" horiz-adv-x="1357" d="M137 381v997h238v-997q0 -104 49 -152q70 -68 254 -67q186 0 256 67q49 47 49 152v997h238v-997q0 -412 -543 -412q-541 0 -541 412zM358 1495v254h211v-254h-211zM803 1495v254h209v-254h-209z" />
<glyph unicode="&#xdd;" horiz-adv-x="1193" d="M14 1298l199 105l295 -492l88 -180h4l88 180l293 492l199 -105l-463 -745v-553h-238v551zM268 1620l510 205l92 -207l-532 -148z" />
<glyph unicode="&#xde;" horiz-adv-x="1198" d="M137 0v1378h238v-274h344q186 0 297 -127q100 -117 100 -283q0 -199 -125 -310.5t-327 -111.5h-289v-272h-238zM375 436l303 23q100 8 156 80q49 63 49 155q0 86 -45 151.5t-119 69.5l-344 19v-498z" />
<glyph unicode="&#xdf;" horiz-adv-x="1435" d="M55 836v145h178v297q0 129 121 203q109 66 273 65q199 0 340 -88q162 -98 161 -264q0 -129 -79 -207q-2 -2 -146 -104q-80 -55 -80 -129q0 -80 140 -123q219 -68 258 -90q139 -82 139 -256q0 -145 -124 -232.5t-337 -87.5q-109 0 -285 58l-47 14l60 180l53 -18 q139 -47 217 -47q219 0 219 135q0 86 -139 127q-223 66 -256 84q-139 80 -139 256q0 131 80 215q20 23 149 112q80 55 80 117q0 80 -82 125q-70 39 -168 39q-72 0 -121 -22.5t-49 -61.5v-1278h-238v795z" />
<glyph unicode="&#xe0;" horiz-adv-x="1097" d="M61 266q0 113 80 189q92 84 258 90l306 10l-5 207q-2 68 -116 67q-104 0 -303 -26l-121 -17l-39 181l117 18q197 31 325 31q150 0 248 -47q125 -61 127 -187l10 -536l103 -150l-199 -123l-96 136l-219 -93q-86 -37 -177 -36q-133 0 -219 90q-80 84 -80 196zM254 1331 l112 197l486 -258l-84 -142zM299 258q0 -98 115 -98q27 0 61 10l236 55l-2 183l-273 -29q-66 -6 -101.5 -42t-35.5 -79z" />
<glyph unicode="&#xe1;" horiz-adv-x="1097" d="M61 266q0 113 80 189q92 84 258 90l306 10l-5 207q-2 68 -116 67q-104 0 -303 -26l-121 -17l-39 181l117 18q197 31 325 31q150 0 248 -47q125 -61 127 -187l10 -536l103 -150l-199 -123l-96 136l-219 -93q-86 -37 -177 -36q-133 0 -219 90q-80 84 -80 196zM234 1270 l485 258l113 -197l-514 -203zM299 258q0 -98 115 -98q27 0 61 10l236 55l-2 183l-273 -29q-66 -6 -101.5 -42t-35.5 -79z" />
<glyph unicode="&#xe2;" horiz-adv-x="1097" d="M61 266q0 113 80 189q92 84 258 90l306 10l-5 207q-2 68 -116 67q-104 0 -303 -26l-121 -17l-39 181l117 18q197 31 325 31q150 0 248 -47q125 -61 127 -187l10 -536l103 -150l-199 -123l-96 136l-219 -93q-86 -37 -177 -36q-133 0 -219 90q-80 84 -80 196zM192 1270 l344 258l344 -258l-79 -135l-265 157l-264 -157zM299 258q0 -98 115 -98q27 0 61 10l236 55l-2 183l-273 -29q-66 -6 -101.5 -42t-35.5 -79z" />
<glyph unicode="&#xe3;" horiz-adv-x="1097" d="M61 266q0 113 80 189q92 84 258 90l306 10l-5 207q-2 68 -116 67q-104 0 -303 -26l-121 -17l-39 181l117 18q197 31 325 31q150 0 248 -47q125 -61 127 -187l10 -536l103 -150l-199 -123l-96 136l-219 -93q-86 -37 -177 -36q-133 0 -219 90q-80 84 -80 196zM172 1290 q23 215 236 215q63 0 142 -39t107 -39q94 0 117 80l117 -47q-23 -219 -236 -219q-63 0 -142 39t-108 39q-96 0 -116 -78zM299 258q0 -98 115 -98q27 0 61 10l236 55l-2 183l-273 -29q-66 -6 -101.5 -42t-35.5 -79z" />
<glyph unicode="&#xe4;" horiz-adv-x="1097" d="M61 266q0 113 80 189q92 84 258 90l306 10l-5 207q-2 68 -116 67q-104 0 -303 -26l-121 -17l-39 181l117 18q197 31 325 31q150 0 248 -47q125 -61 127 -187l10 -536l103 -150l-199 -123l-96 136l-219 -93q-86 -37 -177 -36q-133 0 -219 90q-80 84 -80 196zM216 1214v269 h210v-269h-210zM299 258q0 -98 115 -98q27 0 61 10l236 55l-2 183l-273 -29q-66 -6 -101.5 -42t-35.5 -79zM660 1214v269h209v-269h-209z" />
<glyph unicode="&#xe5;" horiz-adv-x="1097" d="M61 266q0 113 80 189q92 84 258 90l306 10l-5 207q-2 68 -116 67q-104 0 -303 -26l-121 -17l-39 181l117 18q197 31 325 31q150 0 248 -47q125 -61 127 -187l10 -536l103 -150l-199 -123l-96 136l-219 -93q-86 -37 -177 -36q-133 0 -219 90q-80 84 -80 196zM292 1339 q0 215 259 215q260 0 260 -215q0 -207 -260 -206q-258 0 -259 206zM299 258q0 -98 115 -98q27 0 61 10l236 55l-2 183l-273 -29q-66 -6 -101.5 -42t-35.5 -79zM442 1339q0 -72 109 -71q112 -1 112 71q0 80 -112 80q-109 0 -109 -80z" />
<glyph unicode="&#xe6;" horiz-adv-x="1685" d="M61 266q0 111 80 185q92 86 258 94l306 14l-5 203q-2 68 -116 67q-82 0 -312 -28l-112 -17q-10 49 -39 183l117 18q197 31 325 31q213 0 295 -103q96 96 295 97q440 0 440 -424l-6 -123l-639 -47q23 -264 250 -264q84 0 191 36l147 52l70 -177l-142 -49 q-139 -47 -274 -47q-252 0 -381 164l-272 -115q-86 -37 -177 -36q-131 0 -217 90q-82 84 -82 196zM299 258q0 -98 115 -98q27 0 61 10l275 66q-29 70 -39 165l-275 -22q-66 -4 -101.5 -40t-35.5 -81zM942 567l430 23q0 121 -49 179t-170 58q-125 0 -174 -79 q-35 -57 -37 -181z" />
<glyph unicode="&#xe7;" horiz-adv-x="1015" d="M90 481v8q0 524 471 525q111 0 207 -17l158 -26l-33 -183l-188 27q-72 10 -142 10q-125 0 -176 -67q-59 -74 -59 -271v-6q0 -328 250 -327q82 0 145 22l182 66l70 -183l-172 -55q-115 -37 -232 -37q-219 0 -350 136.5t-131 377.5zM295 -426l67 127q20 -16 75 -35.5 t100 -19.5q82 0 81 63q0 80 -165 105q-53 8 -99 12l115 235l152 -67l-50 -94h15q12 -2 16 -2q86 -12 139 -76q47 -55 47 -123q0 -92 -71.5 -150.5t-181.5 -58.5q-145 0 -240 84z" />
<glyph unicode="&#xe8;" horiz-adv-x="1067" d="M90 481q0 233 64 348q102 180 383 181q440 0 440 -424q0 -20 -6 -135l-643 20q2 -18 2 -39q18 -281 252 -280q82 0 190 36l148 52l67 -177l-139 -49q-133 -47 -273 -47q-215 0 -344 123q-141 137 -141 391zM260 1331l112 197l486 -258l-84 -142zM328 596l426 12 q-4 109 -47 160q-51 59 -170 59q-201 0 -209 -231z" />
<glyph unicode="&#xe9;" horiz-adv-x="1067" d="M90 481q0 233 64 348q102 180 383 181q440 0 440 -424q0 -20 -6 -135l-643 20q2 -18 2 -39q18 -281 252 -280q82 0 190 36l148 52l67 -177l-139 -49q-133 -47 -273 -47q-215 0 -344 123q-141 137 -141 391zM248 1270l485 258l113 -197l-514 -203zM328 596l426 12 q-4 109 -47 160q-51 59 -170 59q-201 0 -209 -231z" />
<glyph unicode="&#xea;" horiz-adv-x="1067" d="M90 481q0 233 64 348q102 180 383 181q440 0 440 -424q0 -20 -6 -135l-643 20q2 -18 2 -39q18 -281 252 -280q82 0 190 36l148 52l67 -177l-139 -49q-133 -47 -273 -47q-215 0 -344 123q-141 137 -141 391zM192 1270l344 258l344 -258l-79 -135l-265 157l-264 -157z M328 596l426 12q-4 109 -47 160q-51 59 -170 59q-201 0 -209 -231z" />
<glyph unicode="&#xeb;" horiz-adv-x="1067" d="M90 481q0 233 64 348q102 180 383 181q440 0 440 -424q0 -20 -6 -135l-643 20q2 -18 2 -39q18 -281 252 -280q82 0 190 36l148 52l67 -177l-139 -49q-133 -47 -273 -47q-215 0 -344 123q-141 137 -141 391zM230 1214v269h210v-269h-210zM328 596l426 12q-4 109 -47 160 q-51 59 -170 59q-201 0 -209 -231zM674 1214v269h209v-269h-209z" />
<glyph unicode="&#xec;" d="M-43 1331l113 197l485 -258l-84 -142zM137 0v981h238v-981h-238z" />
<glyph unicode="&#xed;" d="M-43 1270l485 258l113 -197l-514 -203zM137 0v981h238v-981h-238z" />
<glyph unicode="&#xee;" d="M-90 1270l344 258l344 -258l-80 -135l-264 157l-264 -157zM137 0v981h238v-981h-238z" />
<glyph unicode="&#xef;" d="M-72 1214v269h211v-269h-211zM137 0v981h238v-981h-238zM373 1214v269h209v-269h-209z" />
<glyph unicode="&#xf0;" horiz-adv-x="1044" d="M35 426q0 471 487 471q47 0 140 -29q-51 111 -123 199l-205 -98l-103 174l146 69q-115 100 -197 146l117 180q172 -96 299 -219l203 100l102 -176l-151 -72q260 -327 260 -743q0 -475 -488 -475q-487 0 -487 473zM272 426q0 -156 68 -221q59 -57 182 -58q123 0 183 58 q67 65 67 221q0 154 -67 219q-59 57 -183 57q-123 0 -182 -57q-68 -66 -68 -219z" />
<glyph unicode="&#xf1;" horiz-adv-x="1173" d="M55 893l199 123l88 -127l201 94q86 39 180 39q131 0 217 -72q96 -80 96 -219v-731h-237v735q0 100 -115 101q-37 0 -88 -13l-201 -53v-770h-237v741zM227 1290q23 215 236 215q63 0 142 -39t107 -39q94 0 117 80l117 -47q-23 -219 -236 -219q-63 0 -142 39t-108 39 q-96 0 -116 -78z" />
<glyph unicode="&#xf2;" horiz-adv-x="1157" d="M90 475q0 238 82 363q115 178 406 178t407 -178q84 -125 84 -363q0 -512 -491 -512q-487 0 -488 512zM275 1331l112 197l486 -258l-84 -142zM326 475q0 -178 57 -254t195 -76q137 0 195 77t58 253q0 193 -53 276t-200 83q-145 0 -198.5 -83t-53.5 -276z" />
<glyph unicode="&#xf3;" horiz-adv-x="1157" d="M90 475q0 238 82 363q115 178 406 178t407 -178q84 -125 84 -363q0 -512 -491 -512q-487 0 -488 512zM275 1270l485 258l113 -197l-514 -203zM326 475q0 -178 57 -254t195 -76q137 0 195 77t58 253q0 193 -53 276t-200 83q-145 0 -198.5 -83t-53.5 -276z" />
<glyph unicode="&#xf4;" horiz-adv-x="1157" d="M90 475q0 238 82 363q115 178 406 178t407 -178q84 -125 84 -363q0 -512 -491 -512q-487 0 -488 512zM233 1270l344 258l344 -258l-79 -135l-265 157l-264 -157zM326 475q0 -178 57 -254t195 -76q137 0 195 77t58 253q0 193 -53 276t-200 83q-145 0 -198.5 -83 t-53.5 -276z" />
<glyph unicode="&#xf5;" horiz-adv-x="1157" d="M90 475q0 238 82 363q115 178 406 178t407 -178q84 -125 84 -363q0 -512 -491 -512q-487 0 -488 512zM213 1290q23 215 236 215q63 0 142 -39t107 -39q94 0 117 80l117 -47q-23 -219 -236 -219q-63 0 -142 39t-108 39q-96 0 -116 -78zM326 475q0 -178 57 -254t195 -76 q137 0 195 77t58 253q0 193 -53 276t-200 83q-145 0 -198.5 -83t-53.5 -276z" />
<glyph unicode="&#xf6;" horiz-adv-x="1157" d="M90 475q0 238 82 363q115 178 406 178t407 -178q84 -125 84 -363q0 -512 -491 -512q-487 0 -488 512zM250 1214v269h210v-269h-210zM326 475q0 -178 57 -254t195 -76q137 0 195 77t58 253q0 193 -53 276t-200 83q-145 0 -198.5 -83t-53.5 -276zM694 1214v269h209v-269 h-209z" />
<glyph unicode="&#xf7;" horiz-adv-x="1179" d="M68 522v193h1044v-193h-1044zM494 96v254h192v-254h-192zM494 887v254h192v-254h-192z" />
<glyph unicode="&#xf8;" horiz-adv-x="1157" d="M90 475q0 238 82 363q115 178 406 178q190 0 305 -76l112 147l56 -43l-113 -147q131 -129 131 -422q0 -512 -491 -512q-180 0 -297 70l-115 -152l-55 45l114 150q-135 127 -135 399zM326 475q0 -147 36 -219l396 520q-57 57 -180 58q-145 0 -198.5 -83t-53.5 -276z M406 197q57 -51 172 -52q137 0 195 77t58 253q0 162 -32 238z" />
<glyph unicode="&#xf9;" horiz-adv-x="1173" d="M137 250v731h238v-735q0 -100 114 -101q41 0 89 13l200 53v770h238v-741l102 -152l-198 -123l-89 127l-200 -94q-82 -39 -180 -39q-131 0 -218 72q-96 80 -96 219zM289 1331l112 197l486 -258l-84 -142z" />
<glyph unicode="&#xfa;" horiz-adv-x="1173" d="M137 250v731h238v-735q0 -100 114 -101q41 0 89 13l200 53v770h238v-741l102 -152l-198 -123l-89 127l-200 -94q-82 -39 -180 -39q-131 0 -218 72q-96 80 -96 219zM260 1270l485 258l113 -197l-514 -203z" />
<glyph unicode="&#xfb;" horiz-adv-x="1173" d="M137 250v731h238v-735q0 -100 114 -101q41 0 89 13l200 53v770h238v-741l102 -152l-198 -123l-89 127l-200 -94q-82 -39 -180 -39q-131 0 -218 72q-96 80 -96 219zM241 1270l344 258l344 -258l-79 -135l-265 157l-264 -157z" />
<glyph unicode="&#xfc;" horiz-adv-x="1173" d="M137 250v731h238v-735q0 -100 114 -101q41 0 89 13l200 53v770h238v-741l102 -152l-198 -123l-89 127l-200 -94q-82 -39 -180 -39q-131 0 -218 72q-96 80 -96 219zM250 1214v269h210v-269h-210zM694 1214v269h209v-269h-209z" />
<glyph unicode="&#xfd;" horiz-adv-x="1083" d="M-88 -334l119 160q127 -80 190 -80q94 0 144 123l61 156l-70 147l-338 772l220 72l237 -588l66 -203h6l67 203l238 586l217 -76l-500 -1169q-90 -215 -336 -215q-139 0 -321 112zM227 1270l485 258l113 -197l-514 -203z" />
<glyph unicode="&#xfe;" horiz-adv-x="1138" d="M137 -449v1965h238v-578l18 12q104 66 246 66q176 0 294 -137.5t118 -368.5q0 -244 -105 -383q-106 -145 -301 -145q-80 0 -182 28l-88 25v-484h-238zM375 174l69 -10q70 -10 121 -10q131 0 187.5 79.5t56.5 284.5q0 322 -217 322q-61 0 -148 -33l-69 -27v-606z" />
<glyph unicode="&#xff;" horiz-adv-x="1083" d="M-88 -334l119 160q127 -80 190 -80q94 0 144 123l61 156l-70 147l-338 772l220 72l237 -588l66 -203h6l67 203l238 586l217 -76l-500 -1169q-90 -215 -336 -215q-139 0 -321 112zM207 1214v269h210v-269h-210zM651 1214v269h209v-269h-209z" />
<glyph unicode="&#x152;" horiz-adv-x="1857" d="M88 688q0 287 96 447q147 244 525 243h1052v-192l-637 24v-415l498 22v-201l-498 23v-471l654 25v-193h-1069q-377 0 -525 244q-96 158 -96 444zM326 688q0 -246 71 -356q86 -137 312 -137h178v989h-178q-225 0 -314 -137q-70 -111 -69 -359z" />
<glyph unicode="&#x153;" horiz-adv-x="1808" d="M90 475q0 238 82 363q115 178 406 178q242 0 364 -123q111 117 336 117q440 0 440 -424q0 -20 -6 -135l-643 20l2 -39q16 -281 252 -280q84 0 190 36l148 52l68 -177l-140 -49q-133 -47 -272 -47q-227 0 -359 137q-121 -141 -380 -141q-487 0 -488 512zM326 475 q0 -178 57 -254t195 -76q137 0 195 77t58 253q0 193 -53 276t-200 83q-145 0 -198.5 -83t-53.5 -276zM1069 596l426 12q-4 109 -47 160q-51 59 -170 59q-201 0 -209 -231z" />
<glyph unicode="&#x178;" horiz-adv-x="1193" d="M14 1298l199 105l295 -492l88 -180h4l88 180l293 492l199 -105l-463 -745v-553h-238v551zM270 1495v254h211v-254h-211zM715 1495v254h209v-254h-209z" />
<glyph unicode="&#x2c6;" horiz-adv-x="1060" d="M186 1270l344 258l344 -258l-79 -135l-265 157l-264 -157z" />
<glyph unicode="&#x2dc;" horiz-adv-x="1142" d="M213 1290q23 215 236 215q63 0 142 -39t107 -39q94 0 117 80l117 -47q-23 -219 -236 -219q-63 0 -142 39t-108 39q-96 0 -116 -78z" />
<glyph unicode="&#x2000;" horiz-adv-x="912" />
<glyph unicode="&#x2001;" horiz-adv-x="1825" />
<glyph unicode="&#x2002;" horiz-adv-x="912" />
<glyph unicode="&#x2003;" horiz-adv-x="1825" />
<glyph unicode="&#x2004;" horiz-adv-x="608" />
<glyph unicode="&#x2005;" horiz-adv-x="456" />
<glyph unicode="&#x2006;" horiz-adv-x="304" />
<glyph unicode="&#x2007;" horiz-adv-x="304" />
<glyph unicode="&#x2008;" horiz-adv-x="228" />
<glyph unicode="&#x2009;" horiz-adv-x="365" />
<glyph unicode="&#x200a;" horiz-adv-x="101" />
<glyph unicode="&#x2010;" horiz-adv-x="909" d="M129 522v193h649v-193h-649z" />
<glyph unicode="&#x2011;" horiz-adv-x="909" d="M129 522v193h649v-193h-649z" />
<glyph unicode="&#x2012;" horiz-adv-x="909" d="M129 522v193h649v-193h-649z" />
<glyph unicode="&#x2013;" horiz-adv-x="1024" d="M0 522v193h1024v-193h-1024z" />
<glyph unicode="&#x2014;" horiz-adv-x="2048" d="M0 522v193h2048v-193h-2048z" />
<glyph unicode="&#x2018;" horiz-adv-x="567" d="M0 797l385 608l162 -94l-299 -654z" />
<glyph unicode="&#x2019;" horiz-adv-x="587" d="M41 752l299 653l248 -139l-385 -609z" />
<glyph unicode="&#x201a;" horiz-adv-x="585" d="M-4 -274l299 653l250 -139l-387 -609z" />
<glyph unicode="&#x201c;" horiz-adv-x="1058" d="M0 797l385 608l162 -94l-299 -654zM492 797l385 608l161 -94l-299 -654z" />
<glyph unicode="&#x201d;" horiz-adv-x="1079" d="M41 752l299 653l248 -139l-385 -609zM532 752l299 653l248 -139l-385 -609z" />
<glyph unicode="&#x201e;" horiz-adv-x="1079" d="M-4 -274l299 653l250 -139l-387 -609zM489 -274l299 653l250 -139l-387 -609z" />
<glyph unicode="&#x2022;" horiz-adv-x="913" d="M143 635q0 131 91.5 222t222.5 91t222 -91t91 -222t-91 -222t-222 -91t-222.5 91t-91.5 222z" />
<glyph unicode="&#x202f;" horiz-adv-x="365" />
<glyph unicode="&#x2039;" horiz-adv-x="628" d="M47 498l397 436l138 -119l-230 -317l230 -318l-138 -119z" />
<glyph unicode="&#x203a;" horiz-adv-x="628" d="M47 180l229 318l-229 317l137 119l398 -436l-398 -437z" />
<glyph unicode="&#x205f;" horiz-adv-x="456" />
<glyph unicode="&#x2122;" horiz-adv-x="1540" d="M76 1231v147h559v-147l-191 37v-551h-176v551zM655 723l74 655h172l137 -381l21 -114l22 114l138 381h170l75 -655l-180 -16l-22 305l-7 127l-26 -127l-103 -295h-135l-100 291l-27 131l-6 -131l-24 -301z" />
</font>
</defs>
</svg>
