<?xml version="1.0" standalone="no"?>
<!DOCTYPE svg PUBLIC "-//W3C//DTD SVG 1.1//EN" "http://www.w3.org/Graphics/SVG/1.1/DTD/svg11.dtd" >
<svg xmlns="http://www.w3.org/2000/svg">
<metadata></metadata>
<defs>
<font id="anomolylightregular" horiz-adv-x="1275" >
<font-face units-per-em="2048" ascent="1638" descent="-410" />
<missing-glyph horiz-adv-x="491" />
<glyph horiz-adv-x="0" />
<glyph unicode="&#xd;" horiz-adv-x="491" />
<glyph unicode=" "  horiz-adv-x="491" />
<glyph unicode="&#x09;" horiz-adv-x="491" />
<glyph unicode="&#xa0;" horiz-adv-x="491" />
<glyph unicode="!" horiz-adv-x="376" d="M123 1378h131l-35 -843h-61zM137 0v295h103v-295h-103z" />
<glyph unicode="&#x22;" horiz-adv-x="684" d="M123 1378h131l-35 -577h-61zM430 1378h131l-35 -577h-61z" />
<glyph unicode="#" horiz-adv-x="1245" d="M82 475v82h280l64 295h-262v82h278l97 459l86 -19l-93 -440h279l96 459l86 -19l-92 -440h262v-82h-280l-62 -295h260v-82h-276l-103 -483l-86 16l99 467h-279l-102 -483l-86 16l98 467h-264zM453 557h278l64 295h-281z" />
<glyph unicode="$" horiz-adv-x="1032" d="M82 51l29 78l147 -39q100 -27 203 -27q8 0 26 3h25v608q-188 45 -256 94q-119 84 -119 262q0 350 375 363v184h41v-186q98 0 313 -31l58 -8l-19 -80l-55 8q-221 33 -297 33v-551q195 -47 270 -105q127 -96 127 -299q0 -350 -397 -376v-189h-41v187h-20q-131 0 -267 34z M240 1030q0 -119 82 -180q57 -43 190 -78v541q-272 -14 -272 -283zM553 70q295 42 295 288q0 143 -88 217q-63 49 -207 89v-594z" />
<glyph unicode="%" horiz-adv-x="1302" d="M102 1053q0 346 263 346q262 0 262 -346q0 -344 -262 -344t-263 344zM166 6l944 1409l76 -51l-944 -1411zM199 1053q0 -266 166 -267q165 1 165 267q0 268 -165 268q-166 0 -166 -268zM696 319q0 346 262 347q263 -1 263 -347q0 -344 -263 -344q-262 0 -262 344zM793 319 q0 -266 165 -266q166 0 166 266q0 268 -166 269q-166 0 -165 -269z" />
<glyph unicode="&#x26;" horiz-adv-x="1218" d="M102 369q0 301 246 374q-170 78 -170 297q0 117 66 213q100 143 321 144q213 0 314 -142q68 -98 67 -215h-102q0 96 -53 170q-74 104 -226 105q-160 0 -233 -107q-51 -72 -51 -168q0 -264 254 -264v-80q-203 0 -279 -114q-51 -74 -51 -213q0 -125 71 -213 q96 -123 297 -123q356 0 357 336v127l-211 -15v82h520v-82l-207 15v-127q0 -418 -459 -418q-260 0 -383 155q-88 113 -88 263z" />
<glyph unicode="'" horiz-adv-x="376" d="M123 1378h131l-35 -577h-61z" />
<glyph unicode="(" horiz-adv-x="608" d="M82 627q0 260 94 483q102 240 289 369l59 -86q-162 -111 -254 -324q-86 -203 -86 -442q0 -240 88 -443q92 -210 254 -321l-57 -84q-186 127 -291 366q-96 221 -96 482z" />
<glyph unicode=")" horiz-adv-x="608" d="M82 -137q162 111 254 321q88 203 88 443t-86 442q-92 213 -254 324l59 86q186 -129 289 -369q94 -223 94 -483t-96 -482q-104 -240 -291 -366z" />
<glyph unicode="*" horiz-adv-x="796" d="M0 1053l31 96l245 -80l97 -59l-27 110v258h103v-258l-25 -110l96 59l246 80l31 -96l-246 -80l-113 -10l86 -74l152 -209l-82 -59l-152 208l-45 105l-43 -105l-151 -208l-82 59l151 209l86 74l-112 10z" />
<glyph unicode="+" horiz-adv-x="1126" d="M82 621v81h440v441h82v-441h440v-81h-440v-441h-82v441h-440z" />
<glyph unicode="," horiz-adv-x="405" d="M-41 -295l246 612l119 -55l-310 -584z" />
<glyph unicode="-" horiz-adv-x="1003" d="M143 621v81h717v-81h-717z" />
<glyph unicode="." horiz-adv-x="368" d="M164 0v295h102v-295h-102z" />
<glyph unicode="/" horiz-adv-x="684" d="M41 -4l512 1409l90 -33l-512 -1409z" />
<glyph unicode="0" horiz-adv-x="1144" d="M102 690q0 313 72 477q109 252 401 252q289 0 398 -254q69 -162 69 -475t-69 -473q-109 -254 -398 -254q-293 0 -401 252q-72 162 -72 475zM205 690q0 -301 61 -444q86 -201 309 -201q219 0 304 201q61 145 61 444t-61 445q-84 203 -304 202q-223 0 -309 -200 q-61 -145 -61 -447z" />
<glyph unicode="1" horiz-adv-x="913" d="M123 1053l414 325h90v-1378h-103l6 1274h-4l-73 -70l-279 -219z" />
<glyph unicode="2" horiz-adv-x="1040" d="M113 0v80l557 678q135 164 135 289q0 129 -90 210q-82 76 -201 76q-104 0 -185 -54t-116 -146l-82 26q41 121 143.5 188.5t239.5 67.5q154 0 266 -90q127 -102 127 -278q0 -152 -168 -357l-426 -518l-102 -109l727 19v-82h-825z" />
<glyph unicode="3" horiz-adv-x="1054" d="M82 166l72 51q125 -172 338 -172q170 0 270 109q86 92 86 219q0 125 -86 213q-98 102 -270 102h-68v82h92q115 0 200 76t85 201q0 129 -90 210q-84 76 -203 76q-180 0 -293 -166l-74 47q131 201 367 201q156 0 268 -88q127 -102 127 -280q0 -236 -217 -316v-4 q125 -39 199 -139q67 -94 67 -215q0 -168 -118 -283q-129 -127 -342 -127q-264 0 -410 203z" />
<glyph unicode="4" horiz-adv-x="1071" d="M82 272v80l522 1049l82 -41l-516 -1020l465 12v275h102v-273l273 6v-88h-273v-272h-102v272h-553z" />
<glyph unicode="5" horiz-adv-x="1005" d="M61 129l70 53q47 -61 133 -99t176 -38q145 0 253 100.5t108 262.5q0 160 -111 262q-104 94 -250 94q-115 0 -264 -70v684h651v-82l-548 19v-490q76 20 161 21q184 0 316 -109q147 -122 147 -329t-147 -332q-131 -113 -316 -113q-252 0 -379 166z" />
<glyph unicode="6" horiz-adv-x="1112" d="M102 465q0 301 168 567q178 283 469 389l35 -92q-199 -74 -342 -242q-135 -158 -194 -366q125 127 313 127q184 0 313 -107q146 -122 146 -335q0 -180 -115 -306q-127 -139 -344 -139q-184 0 -309 121q-139 137 -140 383zM205 465q0 -199 90 -310.5t254 -111.5 q168 0 270 117q90 105 90 252q0 170 -110 264q-98 86 -246 86q-215 0 -336 -154q-12 -74 -12 -143z" />
<glyph unicode="7" horiz-adv-x="835" d="M20 1296v82h775v-75l-551 -1317l-90 37l551 1292z" />
<glyph unicode="8" horiz-adv-x="1091" d="M102 373q0 111 63.5 209t168.5 159q-182 94 -182 306q0 178 127 280q111 88 266 88q180 0 293 -112q106 -106 106 -254q0 -211 -203 -322q248 -102 248 -354q0 -166 -115 -281q-125 -129 -329 -129q-205 0 -330 129q-113 115 -113 281zM205 373q0 -125 82 -219 q96 -109 258 -109t258 109q82 94 82 219q0 162 -125 250q-74 51 -168 61q-150 18 -168 23q-219 -133 -219 -334zM254 1047q0 -250 283 -279q37 -2 110 -14q191 103 191 293q0 117 -78 198q-84 88 -215 88q-119 0 -201 -76q-90 -82 -90 -210z" />
<glyph unicode="9" horiz-adv-x="1112" d="M102 958q0 180 115 306q127 139 344 139q184 0 309 -121q140 -137 140 -383q0 -301 -168 -567q-178 -283 -469 -389l-35 92q199 74 342 241q135 158 194 367q-125 -127 -313 -127q-184 0 -313 109q-145 121 -146 333zM203 952q0 -170 110 -264q98 -86 246 -86 q215 0 336 154q12 73 12 143q0 199 -90 310.5t-254 111.5q-168 0 -268 -117q-92 -104 -92 -252z" />
<glyph unicode=":" horiz-adv-x="317" d="M113 0v295h102v-295h-102zM113 686v295h102v-295h-102z" />
<glyph unicode=";" horiz-adv-x="376" d="M-41 -295l246 612l119 -55l-310 -584zM172 686v295h102v-295h-102z" />
<glyph unicode="&#x3c;" horiz-adv-x="1024" d="M82 434v123l860 449v-115l-768 -395l768 -396v-114z" />
<glyph unicode="=" horiz-adv-x="1126" d="M82 436v82h962v-82h-962zM82 805v82h962v-82h-962z" />
<glyph unicode="&#x3e;" horiz-adv-x="1024" d="M82 -14v114l768 396l-768 395v115l860 -449v-123z" />
<glyph unicode="?" horiz-adv-x="940" d="M61 1276q152 125 385 125q205 0 324 -105q109 -96 109 -243q0 -168 -119 -285q-109 -84 -219 -168q-119 -92 -119 -199h-98q0 147 116 250q109 78 219 158q117 100 117 246q0 113 -84 184q-90 80 -250 80q-203 0 -327 -107zM322 0v233h102v-233h-102z" />
<glyph unicode="@" horiz-adv-x="1476" d="M102 672q0 334 99 502q150 254 540 253q389 0 535 -249q98 -166 98 -496q0 -221 -114 -352q-98 -115 -232 -115q-68 0 -115 39t-55 100q-115 -49 -217 -49q-227 0 -227 262q0 209 88 335t239 126q94 0 207 -53l43 -21l66 84l73 -57l-81 -102l-99 -500q-2 -10 -2 -12 q0 -70 80 -70q92 0 160 86q84 104 84 299q0 311 -84 457q-121 207 -447 207q-328 0 -450 -213q-86 -147 -86 -461q0 -313 86 -461q123 -213 450 -213q233 0 498 172l43 -68q-283 -186 -541 -186q-391 0 -540 254q-98 168 -99 502zM512 567q0 -190 154 -190q68 0 172 29l22 6 l96 495l-34 13q-92 33 -166 32q-244 0 -244 -385z" />
<glyph unicode="A" horiz-adv-x="1159" d="M41 14l481 1364h111l485 -1366l-90 -30l-176 495h-547l-174 -493zM336 559h487l-182 510l-61 209h-5l-61 -209z" />
<glyph unicode="B" horiz-adv-x="1163" d="M164 0v1378h461q156 0 249 -116q82 -102 82 -246q0 -96 -43 -178q-49 -90 -131 -119v-2q129 -8 207 -115q72 -96 72 -221q0 -154 -94 -260q-104 -121 -281 -121h-522zM266 66l426 16q129 4 201 96q63 82 63 203q0 113 -57 190q-63 84 -172 86l-461 9v-600zM266 729l361 8 q100 2 166 88q61 80 61 191t-57 190q-63 88 -168 92l-363 15v-584z" />
<glyph unicode="C" horiz-adv-x="1028" d="M102 688q0 379 103 543q109 174 373 174q109 0 258 -29l106 -20l-14 -82l-113 20q-135 25 -227 25q-223 0 -307 -152q-74 -135 -74 -479q0 -330 74 -475q80 -158 274 -158q102 0 258 45l150 43l24 -80l-145 -40q-182 -51 -297 -52q-244 0 -348 189q-94 168 -95 528z" />
<glyph unicode="D" horiz-adv-x="1230" d="M164 0v1378h397q254 0 400 -147q167 -170 167 -520q0 -342 -165 -533q-154 -178 -402 -178h-397zM266 66l299 12q199 8 322 158q139 168 139 475q0 571 -461 589l-299 13v-1247z" />
<glyph unicode="E" horiz-adv-x="1001" d="M164 0v1378h739v-82l-637 19v-565l498 14v-90l-498 14v-625l654 19v-82h-756z" />
<glyph unicode="F" horiz-adv-x="985" d="M164 0v1378h739v-82l-637 19v-565l498 14v-90l-498 14v-688h-102z" />
<glyph unicode="G" horiz-adv-x="1196" d="M102 684q0 383 101 545q109 176 377 176q111 0 256 -29l125 -24l-15 -82l-131 24q-131 25 -227 25q-223 0 -307 -152q-76 -137 -76 -483q0 -627 377 -627q113 0 254 56l94 37v464l-314 -16v82h416v-582l-160 -61q-176 -68 -301 -68q-238 0 -358 201q-111 184 -111 514z " />
<glyph unicode="H" horiz-adv-x="1249" d="M164 0v1378h102v-614h717v614h102v-1378h-102v682h-717v-682h-102z" />
<glyph unicode="I" horiz-adv-x="430" d="M164 0v1378h102v-1378h-102z" />
<glyph unicode="J" horiz-adv-x="847" d="M20 25l29 77q156 -57 277 -57q256 0 256 303v1030h102v-1030q0 -193 -100 -293q-92 -92 -258 -92q-133 0 -306 62z" />
<glyph unicode="K" horiz-adv-x="1071" d="M164 0v1378h102v-614l107 -6l549 616l82 -57l-555 -596l51 -53l510 -635l-90 -47l-545 702l-109 -6v-682h-102z" />
<glyph unicode="L" horiz-adv-x="960" d="M164 0v1378h102v-1315l654 19v-82h-756z" />
<glyph unicode="M" horiz-adv-x="1656" d="M123 6l151 1372h132l368 -1063l51 -194h6l52 194l372 1063h127l152 -1372l-94 -12l-133 1276h-7l-57 -217l-369 -1053h-92l-364 1053l-58 217h-6l-18 -217l-119 -1059z" />
<glyph unicode="N" horiz-adv-x="1263" d="M164 0v1378h129l600 -1052l106 -217h7l-7 217l-2 1052h103v-1378h-127l-600 1053l-109 217h-6l8 -217v-1053h-102z" />
<glyph unicode="O" d="M102 690q0 311 82 471q125 244 457 244q328 0 453 -246q80 -160 80 -469q0 -311 -80 -473q-125 -248 -453 -248q-332 0 -457 246q-82 162 -82 475zM205 690q0 -295 69 -436q100 -203 367 -203q262 0 360 203q70 141 70 436q0 293 -70 434q-98 199 -360 199 q-266 0 -367 -199q-69 -139 -69 -426v-8z" />
<glyph unicode="P" horiz-adv-x="1099" d="M164 0v1378h514q160 0 254 -118q86 -109 86 -267q0 -164 -94 -276q-106 -127 -287 -127h-6l-365 4v-594h-102zM266 657l371 17q131 6 205 106q67 90 67 217q0 119 -61.5 208t-165.5 93l-416 15v-656z" />
<glyph unicode="Q" d="M102 690q0 311 82 471q125 244 457 244q328 0 453 -246q80 -160 80 -469q0 -279 -64 -436q-98 -238 -348 -272l98 -238l-96 -37l-80 264q-33 -2 -43 -2q-332 0 -457 246q-82 162 -82 475zM205 690q0 -295 69 -436q100 -203 367 -203q262 0 360 203q70 141 70 436 q0 293 -70 434q-98 199 -360 199q-266 0 -367 -199q-69 -139 -69 -426v-8z" />
<glyph unicode="R" horiz-adv-x="1134" d="M164 0v1378h514q160 0 252 -108q82 -96 82 -238q0 -152 -92 -260q-102 -123 -273 -125l74 -100l332 -533l-92 -41l-416 674h-279v-647h-102zM266 709l375 18q125 6 201 100q67 84 67 205q0 109 -57 180q-61 82 -172 86l-414 15v-604z" />
<glyph unicode="S" horiz-adv-x="1032" d="M82 72l29 78l106 -39q117 -43 262 -43q158 0 254 63q115 76 115 227q0 197 -184 271q-170 51 -342 104q-184 80 -185 297q0 362 391 363q164 0 359 -43l37 -9l-19 -79l-35 8q-182 43 -327 43q-303 0 -303 -283q0 -168 184 -231q170 -53 342 -107q184 -92 184 -334 q0 -203 -139 -299q-114 -77 -302 -77h-5q-172 0 -320 53z" />
<glyph unicode="T" horiz-adv-x="974" d="M41 1296v82h893v-82l-395 19v-1315h-103v1315z" />
<glyph unicode="U" d="M164 354v1024h102v-1024q0 -139 68 -211q88 -92 303 -92q373 0 373 303v1024h102v-1024q0 -385 -475 -385q-473 0 -473 385z" />
<glyph unicode="V" horiz-adv-x="1122" d="M41 1362l92 33l428 -1301h4l62 215l362 1084l92 -29l-463 -1364h-110z" />
<glyph unicode="W" horiz-adv-x="1607" d="M41 1364l94 25l273 -1063l38 -209h5l36 209l256 1052h119l260 -1052l39 -209h4l37 209l271 1065l94 -25l-353 -1366h-106l-264 1053l-39 209h-4l-37 -209l-260 -1053h-109z" />
<glyph unicode="X" horiz-adv-x="1040" d="M41 27l430 661l-430 660l82 53l395 -641h4l84 141l312 500l81 -53l-428 -660l428 -661l-81 -54l-396 641h-4l-84 -141l-311 -500z" />
<glyph unicode="Y" horiz-adv-x="1091" d="M41 1360l92 33l412 -777h4l76 150l333 627l93 -33l-451 -823v-537h-102v537z" />
<glyph unicode="Z" horiz-adv-x="1093" d="M82 0v80l811 1235l-776 -19v82h874v-80l-813 -1235l834 19v-82h-930z" />
<glyph unicode="[" horiz-adv-x="509" d="M82 -205v1665h330v-82h-228v-1501h244v-82h-346z" />
<glyph unicode="\" horiz-adv-x="684" d="M41 1372l90 33l512 -1409l-90 -33z" />
<glyph unicode="]" horiz-adv-x="509" d="M82 -123h244v1501h-228v82h330v-1665h-346v82z" />
<glyph unicode="_" horiz-adv-x="860" d="M41 -117h778v-82h-778v82z" />
<glyph unicode="`" horiz-adv-x="1032" d="M248 1362l45 113l524 -244l-22 -57z" />
<glyph unicode="a" horiz-adv-x="1032" d="M102 223q0 104 76 180q84 84 236 99l325 30l-4 283q0 61 -78 94q-57 25 -127 25q-84 0 -256 -27l-92 -14l-16 80l96 16q156 27 268 27q303 0 308 -201l10 -643l61 -162l-96 -35l-47 127l-211 -86q-96 -39 -184 -39q-123 0 -199 76q-70 70 -70 170zM205 221 q0 -160 182 -160q72 0 137 23l224 78l-7 307l-319 -45q-104 -14 -160.5 -72.5t-56.5 -130.5z" />
<glyph unicode="b" horiz-adv-x="1081" d="M123 10l61 168v1338h103v-549l106 26q90 23 176 23q389 0 389 -545q0 -227 -100 -366.5t-266 -139.5q-121 0 -250 74l-82 47l-41 -111zM287 147l96 -49q104 -53 197 -53q133 0 204.5 114.5t71.5 311.5q0 246 -69.5 355.5t-239.5 109.5q-72 0 -166 -18l-94 -19v-752z" />
<glyph unicode="c" horiz-adv-x="964" d="M123 479v8q0 281 96 403t307 122q94 0 316 -35l-13 -82q-209 35 -292 35q-158 0 -230 -88q-82 -102 -82 -355v-8q0 -430 310 -430q123 0 321 70l27 -78q-219 -76 -355 -76q-211 0 -315 154q-90 133 -90 360z" />
<glyph unicode="d" horiz-adv-x="1081" d="M123 471q0 545 389 545q86 0 176 -23l107 -26v549h102v-1338l61 -168l-96 -35l-41 111l-82 -47q-129 -74 -250 -74q-166 0 -266 139.5t-100 366.5zM225 471q0 -197 72 -311.5t205 -114.5q92 0 196 53l97 49v752l-95 19q-94 18 -165 18q-170 0 -240 -109.5t-70 -355.5z " />
<glyph unicode="e" horiz-adv-x="995" d="M123 479q0 240 51 348q84 182 328 183q211 0 301 -117q76 -96 76 -295v-37q-2 -25 -2 -37l-652 11v-56q0 -432 318 -432q111 0 313 72l27 -78q-219 -76 -355 -76q-211 0 -315 154q-90 133 -90 360zM227 594l549 12q0 162 -51 236q-63 90 -223 90q-154 0 -219 -105 q-49 -80 -56 -233z" />
<glyph unicode="f" horiz-adv-x="704" d="M82 920v61h178v315q0 240 225 240q53 0 127 -16l101 -21l-15 -82l-104 23q-59 14 -100 14q-131 0 -132 -158v-315h277v-82h-277v-899h-102v899z" />
<glyph unicode="g" horiz-adv-x="1081" d="M123 510q0 229 96 366.5t260 137.5q115 0 244 -68l98 -51l41 113l96 -35l-61 -168v-868q0 -209 -117 -312q-102 -90 -270 -90q-203 0 -379 113l37 73q176 -104 344 -104q283 0 283 320v77l-107 -24q-98 -23 -176 -23q-389 0 -389 543zM225 510q0 -246 68 -352 q72 -113 242 -113q72 0 165 18l95 19v756l-117 53q-98 45 -189 45q-264 0 -264 -426z" />
<glyph unicode="h" horiz-adv-x="1071" d="M164 0v1516h102v-621l221 94q78 33 160 33q111 0 180 -57q80 -63 80 -185v-780h-102v780q0 158 -164 158q-57 0 -115 -20l-260 -93v-825h-102z" />
<glyph unicode="i" horiz-adv-x="430" d="M164 0v981h102v-981h-102zM164 1241v275h102v-275h-102z" />
<glyph unicode="j" horiz-adv-x="428" d="M-123 -367q139 0 205 72q80 88 80 303v973h102v-973q0 -256 -108 -364q-92 -92 -279 -93v82zM162 1241v275h102v-275h-102z" />
<glyph unicode="k" horiz-adv-x="974" d="M164 0v1516h102v-945l82 -8l492 449l65 -70l-358 -334l-105 -78v-4l90 -88l381 -405l-69 -66l-496 531l-82 -9v-489h-102z" />
<glyph unicode="l" horiz-adv-x="430" d="M164 0v1516h102v-1516h-102z" />
<glyph unicode="m" horiz-adv-x="1630" d="M123 981l96 35l47 -129l246 100q80 33 147 33q154 0 201 -133l242 100q80 33 147 33q96 0 154 -57q63 -63 63 -183v-780h-102v780q0 158 -115 158q-55 0 -112 -20l-263 -93q2 -14 3 -45v-780h-103v780q0 158 -115 158q-55 0 -112 -20l-260 -93v-825h-103v817z" />
<glyph unicode="n" horiz-adv-x="1091" d="M123 981l96 35l47 -129l242 102q78 33 160 33q111 0 180 -57q80 -63 80 -185v-780h-103v780q0 158 -163 158q-57 0 -115 -20l-260 -93v-825h-103v817z" />
<glyph unicode="o" horiz-adv-x="1089" d="M123 473q0 252 72 375q98 168 348 168t350 -168q74 -125 74 -375q0 -510 -424 -510q-233 0 -336 148q-84 123 -84 362zM225 473q0 -215 68 -317q74 -115 250 -115t254 117q67 102 67 315q0 231 -59 336q-74 129 -262 129q-186 0 -258 -129q-59 -104 -60 -336z" />
<glyph unicode="p" horiz-adv-x="1081" d="M123 971l96 35l41 -111l82 47q129 74 250 74q166 0 266 -139.5t100 -366.5q0 -545 -389 -545q-86 0 -176 23l-106 26v-463h-103v1252zM287 82l94 -19q94 -18 166 -18q170 0 241 113q68 106 68 352q0 197 -71.5 311.5t-204.5 114.5q-92 0 -197 -53l-96 -49v-752z" />
<glyph unicode="q" horiz-adv-x="1081" d="M123 510q0 227 100.5 366.5t265.5 139.5q121 0 250 -74l82 -47l41 111l96 -35l-61 -168v-1252h-102v463l-107 -26q-90 -23 -176 -23q-389 0 -389 545zM225 510q0 -246 68 -352q72 -113 242 -113q72 0 165 18l95 19v752l-97 49q-104 53 -196 53q-133 0 -205 -114.5 t-72 -311.5z" />
<glyph unicode="r" horiz-adv-x="702" d="M123 981l96 35l39 -105q184 78 399 93l5 -86q-231 -14 -375 -68v-850h-103v817z" />
<glyph unicode="s" horiz-adv-x="907" d="M102 27l23 79q186 -59 293 -59q133 0 208.5 53.5t75.5 149.5q0 139 -151 190q-139 35 -279 72q-152 61 -151 225q0 279 330 279q80 0 307 -37l-17 -82q-201 39 -280 39q-238 0 -238 -199q0 -117 152 -159l278 -74q152 -72 152 -254q0 -156 -125 -227q-100 -57 -262 -58 q-115 0 -316 62z" />
<glyph unicode="t" horiz-adv-x="790" d="M82 928v53h178v397h102v-397h318v-82h-318v-700q0 -141 150 -142q55 0 104 19l89 33l24 -74l-90 -33q-80 -29 -154 -29q-225 0 -225 226v700z" />
<glyph unicode="u" horiz-adv-x="1091" d="M164 205v776h102v-776q0 -158 164 -158q57 0 115 21l260 92v821h102v-813l62 -164l-97 -35l-47 129l-241 -102q-78 -33 -160 -33q-111 0 -180 57q-80 63 -80 185z" />
<glyph unicode="v" horiz-adv-x="968" d="M41 979l96 35l344 -916h4l58 164l288 750l97 -33l-393 -979h-103z" />
<glyph unicode="w" horiz-adv-x="1423" d="M41 981l96 29l217 -725l43 -181h6l43 181l211 696h113l207 -696l41 -181h6l43 181l219 725l96 -29l-305 -981h-106l-256 872h-4l-49 -180l-205 -692h-107z" />
<glyph unicode="x" horiz-adv-x="876" d="M41 23l340 477l-328 450l80 54l305 -435l305 435l80 -54l-327 -450l340 -477l-80 -54l-318 463l-317 -463z" />
<glyph unicode="y" horiz-adv-x="956" d="M-59 -352l47 65q85 -73 174 -73h2q135 0 190 147l78 205l-391 987l92 35l342 -918h6l56 166l288 750l90 -37l-471 -1225q-74 -192 -272 -192h-2q-127 0 -229 90z" />
<glyph unicode="z" horiz-adv-x="925" d="M102 0v82l617 831l-590 -20v88h688v-82l-614 -831l620 20v-88h-721z" />
<glyph unicode="{" horiz-adv-x="671" d="M82 592v82h27q51 0 96 62.5t45 123.5v209q0 201 84 295q80 88 264 115l12 -84q-143 -20 -200.5 -91t-57.5 -235v-209q0 -59 -35.5 -124.5t-95.5 -102.5q59 -37 95 -101.5t36 -123.5v-211q0 -166 57.5 -237t200.5 -91l-12 -82q-184 25 -266 116t-82 294v211 q0 59 -44 121.5t-97 62.5h-27z" />
<glyph unicode="|" horiz-adv-x="430" d="M164 -494v2010h102v-2010h-102z" />
<glyph unicode="}" horiz-adv-x="671" d="M61 -131q143 20 200.5 91t57.5 237v211q0 59 36 123.5t96 101.5q-59 37 -95.5 102.5t-36.5 124.5v209q0 164 -57 234.5t-201 91.5l13 84q184 -27 264 -115q84 -94 84 -295v-209q0 -61 45 -123.5t96 -62.5h27v-82h-27q-53 0 -97 -62.5t-44 -121.5v-211q0 -203 -82 -294 t-266 -116z" />
<glyph unicode="~" horiz-adv-x="956" d="M82 854q18 154 172 154q57 0 176 -31l143 -37q88 -23 132 -22q96 0 114 81l55 -20q-18 -156 -172 -156q-55 0 -149 25l-174 45q-80 20 -127 20q-96 0 -115 -82z" />
<glyph unicode="&#xa1;" horiz-adv-x="376" d="M123 0l35 844h61l35 -844h-131zM137 1083v295h103v-295h-103z" />
<glyph unicode="&#xa2;" horiz-adv-x="1005" d="M123 479v8q0 295 106 418q88 102 283 103v159h41v-159q84 -4 330 -41l-13 -82q-113 20 -317 43v-879q127 4 344 80l27 -78q-209 -74 -371 -82v-155h-41v155q-389 10 -389 510zM225 479q0 -414 287 -430v881q-143 -4 -211 -94q-76 -104 -76 -349v-8z" />
<glyph unicode="&#xa3;" horiz-adv-x="1054" d="M72 0v82h24q70 0 113 53t43 135l4 402h-162v82h162l4 309q4 344 320 344q133 0 311 -53l41 -13l-27 -75l-47 14q-156 47 -270 47q-221 0 -226 -264l-4 -309h367v-82h-367l-4 -402q-2 -121 -78 -188h646v-82h-850z" />
<glyph unicode="&#xa4;" horiz-adv-x="1132" d="M61 477v82h168q-4 82 -4 129q0 80 2 117h-166v82h172q27 260 129 385q113 137 332 137q106 0 244 -33l86 -20l-14 -82l-92 20q-121 27 -211 27q-184 0 -273 -113q-78 -102 -98 -321h340v-82h-344q-2 -37 -2 -117q0 -88 2 -129h344v-82h-338q20 -207 94 -307 q82 -115 244 -115q104 0 239 45l111 37l25 -80l-107 -34q-164 -53 -282 -54q-373 0 -426 508h-175z" />
<glyph unicode="&#xa5;" horiz-adv-x="1167" d="M102 283v82h430v204h-430v82h390l-386 709l93 33l309 -586l72 -156h4l71 156l308 586l92 -33l-381 -709h391v-82h-430v-204h430v-82h-430v-283h-103v283h-430z" />
<glyph unicode="&#xa7;" horiz-adv-x="907" d="M143 -90l23 76q158 -51 301 -52q115 0 180 62q59 57 60 137q0 133 -142 186l-262 78q-141 66 -141 224q0 154 170 278q-178 68 -178 244q0 109 75 184q84 84 230 84q68 0 299 -37l-17 -78q-178 35 -264 35q-102 0 -160.5 -56t-58.5 -132q0 -123 141 -168q131 -39 265 -80 q141 -70 141 -250q0 -135 -148 -260q154 -72 154 -250q0 -117 -80 -194q-90 -88 -252 -88q-152 0 -336 57zM260 621q0 -96 100 -142q2 0 213 -61q134 112 134 227q0 111 -91 164q-45 27 -198 65q-158 -109 -158 -253z" />
<glyph unicode="&#xa8;" horiz-adv-x="1089" d="M297 1221v200h102v-200h-102zM686 1221v200h102v-200h-102z" />
<glyph unicode="&#xa9;" horiz-adv-x="1640" d="M102 688q0 297 211 507t508 210t507 -210t210 -507t-210 -508t-507 -211t-508 211t-211 508zM186 688q0 -264 186.5 -450.5t448.5 -186.5t449.5 186.5t187.5 450.5q0 262 -187.5 448.5t-449.5 186.5t-448.5 -186.5t-186.5 -448.5zM512 688q0 221 66 322q70 109 241 108 q82 0 162 -16l80 -17l-12 -79l-76 14q-86 16 -148 16q-121 0 -165 -76.5t-44 -271.5q0 -188 42 -268t149 -80q63 0 180 33l80 22l23 -78l-107 -28q-115 -31 -184 -31q-158 0 -228 117q-59 102 -59 313z" />
<glyph unicode="&#xaa;" horiz-adv-x="643" d="M61 600v82h514v-82h-514zM61 918q0 152 199 174l184 20l-2 125q-2 98 -108 98q-66 0 -150 -14l-71 -12l-17 71l78 13q104 16 160 16q197 0 198 -135l7 -383l43 -111l-88 -30l-27 75l-107 -43q-66 -27 -122 -26q-80 0 -129 51q-47 45 -48 111zM154 918q0 -88 104 -89 q49 0 84 13l107 37l-5 180l-188 -33q-102 -18 -102 -108z" />
<glyph unicode="&#xab;" horiz-adv-x="792" d="M61 498l316 407l47 -49l-223 -358l223 -359l-47 -43zM369 498l315 407l47 -49l-223 -358l223 -359l-47 -43z" />
<glyph unicode="&#xad;" horiz-adv-x="1003" d="M143 621v81h717v-81h-717z" />
<glyph unicode="&#xae;" horiz-adv-x="1640" d="M102 688q0 297 211 507t508 210t507 -210t210 -507t-210 -508t-507 -211t-508 211t-211 508zM186 688q0 -264 186.5 -450.5t448.5 -186.5t449.5 186.5t187.5 450.5q0 262 -187.5 448.5t-449.5 186.5t-448.5 -186.5t-186.5 -448.5zM555 270v828h319q104 0 166 -68 q55 -61 56 -151q0 -82 -49 -146q-55 -70 -154 -86l51 -74l186 -284l-83 -37l-254 387h-144v-369h-94zM649 698l180 11q84 4 129 57q41 47 41 113q0 59 -32.5 103t-85.5 46l-232 8v-338z" />
<glyph unicode="&#xaf;" horiz-adv-x="995" d="M205 1296v82h594v-82h-594z" />
<glyph unicode="&#xb0;" horiz-adv-x="763" d="M82 1114q0 123 88 211t213 88q123 0 211 -88t88 -211q0 -125 -88 -213t-211 -88q-125 0 -213 88t-88 213zM164 1114q0 -90 64.5 -154.5t154.5 -64.5t153.5 64.5t63.5 154.5t-63.5 153.5t-153.5 63.5t-154.5 -63.5t-64.5 -153.5z" />
<glyph unicode="&#xb4;" horiz-adv-x="1032" d="M248 1231l524 244l45 -113l-547 -188z" />
<glyph unicode="&#xb6;" horiz-adv-x="1128" d="M102 956q0 174 124 298t298 124h482v-1583h-103v1501h-180v-1501h-102v740h-97q-174 0 -298 123.5t-124 297.5zM205 956q0 -135 95 -237.5t226 -102.5h95v680h-97q-131 0 -225 -103t-94 -237z" />
<glyph unicode="&#xb7;" horiz-adv-x="317" d="M113 553v295h102v-295h-102z" />
<glyph unicode="&#xb8;" horiz-adv-x="964" d="M328 -369l47 64q82 -41 172 -41q109 0 108 78q0 88 -166 88q-55 0 -100 -4l103 221l81 -41l-57 -111q10 2 29 2q92 0 149 -49q49 -43 49 -106q0 -80 -63 -123q-55 -37 -143 -37q-125 0 -209 59z" />
<glyph unicode="&#xba;" horiz-adv-x="659" d="M61 1069q0 154 45 234q63 109 222 108q160 0 225 -108q45 -80 45 -234q0 -322 -270 -321q-266 0 -267 321zM80 600v82h493v-82h-493zM154 1069q0 -250 174 -250q178 0 178 250q0 137 -33 197q-41 74 -145 73q-100 0 -142 -73q-33 -59 -32 -197z" />
<glyph unicode="&#xbb;" horiz-adv-x="792" d="M61 139l224 359l-224 358l48 49l315 -407l-315 -402zM369 139l223 359l-223 358l47 49l315 -407l-315 -402z" />
<glyph unicode="&#xbf;" horiz-adv-x="940" d="M61 326q0 168 119 284q109 84 219 168q119 92 119 199h98q0 -147 -116 -250q-109 -78 -219 -158q-117 -100 -117 -245q0 -113 84 -185q90 -80 250 -80q203 0 327 107l54 -64q-152 -125 -385 -125q-205 0 -324 105q-109 96 -109 244zM516 1145v233h102v-233h-102z" />
<glyph unicode="&#xc0;" horiz-adv-x="1159" d="M41 14l481 1364h111l485 -1366l-90 -30l-176 495h-547l-174 -493zM309 1628l45 113l524 -244l-22 -57zM336 559h487l-182 510l-61 209h-5l-61 -209z" />
<glyph unicode="&#xc1;" horiz-adv-x="1159" d="M41 14l481 1364h111l485 -1366l-90 -30l-176 495h-547l-174 -493zM256 1497l524 244l45 -113l-547 -188zM336 559h487l-182 510l-61 209h-5l-61 -209z" />
<glyph unicode="&#xc2;" horiz-adv-x="1159" d="M41 14l481 1364h111l485 -1366l-90 -30l-176 495h-547l-174 -493zM272 1495l308 246l307 -246l-31 -55l-276 172l-277 -172zM336 559h487l-182 510l-61 209h-5l-61 -209z" />
<glyph unicode="&#xc3;" horiz-adv-x="1159" d="M41 14l481 1364h111l485 -1366l-90 -30l-176 495h-547l-174 -493zM256 1514q18 154 174 153q61 0 152.5 -46t130.5 -46q98 0 116 84l56 -20q-18 -156 -174 -156q-61 0 -152.5 46t-130.5 46q-98 0 -117 -84zM336 559h487l-182 510l-61 209h-5l-61 -209z" />
<glyph unicode="&#xc4;" horiz-adv-x="1159" d="M41 14l481 1364h111l485 -1366l-90 -30l-176 495h-547l-174 -493zM332 1487v200h102v-200h-102zM336 559h487l-182 510l-61 209h-5l-61 -209zM721 1487v200h102v-200h-102z" />
<glyph unicode="&#xc5;" horiz-adv-x="1159" d="M41 14l469 1329q-147 23 -148 160q0 174 218 174q219 0 219 -174q0 -135 -154 -162l473 -1329l-90 -30l-176 495h-547l-174 -493zM336 559h487l-182 510l-61 209h-5l-61 -209zM432 1503q0 -104 148 -104q92 0 125 31q24 22 24 73q0 55 -20 78q-33 35 -129 35 q-94 0 -127 -35q-20 -23 -21 -78z" />
<glyph unicode="&#xc6;" horiz-adv-x="1677" d="M41 14l758 1364h780v-82l-637 19v-565l498 14v-90l-498 14v-625l653 19v-82h-755v477h-434l-275 -493zM451 559h389v744l-47 -129z" />
<glyph unicode="&#xc7;" horiz-adv-x="1028" d="M102 688q0 379 103 543q109 174 373 174q109 0 258 -29l106 -20l-14 -82l-113 20q-135 25 -227 25q-223 0 -307 -152q-74 -135 -74 -479q0 -330 74 -475q80 -158 274 -158q102 0 258 45l150 43l24 -80l-145 -40q-182 -51 -297 -52q-244 0 -348 189q-94 168 -95 528z M348 -369l47 64q82 -41 172 -41q109 0 108 78q0 88 -166 88q-55 0 -100 -4l103 221l81 -41l-57 -111q10 2 29 2q92 0 149 -49q49 -43 49 -106q0 -80 -63 -123q-55 -37 -143 -37q-125 0 -209 59z" />
<glyph unicode="&#xc8;" horiz-adv-x="1001" d="M164 0v1378h739v-82l-637 19v-565l498 14v-90l-498 14v-625l654 19v-82h-756zM268 1628l45 113l524 -244l-22 -57z" />
<glyph unicode="&#xc9;" horiz-adv-x="1001" d="M164 0v1378h739v-82l-637 19v-565l498 14v-90l-498 14v-625l654 19v-82h-756zM248 1497l524 244l45 -113l-547 -188z" />
<glyph unicode="&#xca;" horiz-adv-x="1001" d="M164 0v1378h739v-82l-637 19v-565l498 14v-90l-498 14v-625l654 19v-82h-756zM231 1495l308 246l307 -246l-31 -55l-276 172l-277 -172z" />
<glyph unicode="&#xcb;" horiz-adv-x="1001" d="M164 0v1378h739v-82l-637 19v-565l498 14v-90l-498 14v-625l654 19v-82h-756zM291 1487v200h102v-200h-102zM680 1487v200h102v-200h-102z" />
<glyph unicode="&#xcc;" horiz-adv-x="430" d="M-69 1628l45 113l524 -244l-22 -57zM164 0v1378h102v-1378h-102z" />
<glyph unicode="&#xcd;" horiz-adv-x="430" d="M-69 1497l524 244l45 -113l-547 -188zM164 0v1378h102v-1378h-102z" />
<glyph unicode="&#xce;" horiz-adv-x="430" d="M-93 1495l308 246l307 -246l-31 -55l-276 172l-277 -172zM164 0v1378h102v-1378h-102z" />
<glyph unicode="&#xcf;" horiz-adv-x="430" d="M-31 1487v200h102v-200h-102zM164 0v1378h102v-1378h-102zM358 1487v200h102v-200h-102z" />
<glyph unicode="&#xd0;" horiz-adv-x="1269" d="M-20 625l223 96v657h397q254 0 399 -147q168 -170 168 -520q0 -342 -166 -533q-154 -178 -401 -178h-397v618l-187 -79zM305 66l299 12q199 8 322 158q139 170 139 475q0 571 -461 589l-299 13v-547l170 74l37 -86l-207 -90v-598z" />
<glyph unicode="&#xd1;" horiz-adv-x="1263" d="M164 0v1378h129l600 -1052l106 -217h7l-7 217l-2 1052h103v-1378h-127l-600 1053l-109 217h-6l8 -217v-1053h-102zM317 1514q18 154 174 153q61 0 152.5 -46t130.5 -46q98 0 116 84l56 -20q-18 -156 -174 -156q-61 0 -152.5 46t-130.5 46q-98 0 -117 -84z" />
<glyph unicode="&#xd2;" d="M102 690q0 311 82 471q125 244 457 244q328 0 453 -246q80 -160 80 -469q0 -311 -80 -473q-125 -248 -453 -248q-332 0 -457 246q-82 162 -82 475zM205 690q0 -295 69 -436q100 -203 367 -203q262 0 360 203q70 141 70 436q0 293 -70 434q-98 199 -360 199 q-266 0 -367 -199q-70 -141 -69 -434zM350 1628l45 113l524 -244l-22 -57z" />
<glyph unicode="&#xd3;" d="M102 690q0 311 82 471q125 244 457 244q328 0 453 -246q80 -160 80 -469q0 -311 -80 -473q-125 -248 -453 -248q-332 0 -457 246q-82 162 -82 475zM205 690q0 -295 69 -436q100 -203 367 -203q262 0 360 203q70 141 70 436q0 293 -70 434q-98 199 -360 199 q-266 0 -367 -199q-70 -141 -69 -434zM330 1497l524 244l45 -113l-547 -188z" />
<glyph unicode="&#xd4;" d="M102 690q0 311 82 471q125 244 457 244q328 0 453 -246q80 -160 80 -469q0 -311 -80 -473q-125 -248 -453 -248q-332 0 -457 246q-82 162 -82 475zM205 690q0 -295 69 -436q100 -203 367 -203q262 0 360 203q70 141 70 436q0 293 -70 434q-98 199 -360 199 q-266 0 -367 -199q-70 -141 -69 -434zM333 1495l308 246l307 -246l-31 -55l-276 172l-277 -172z" />
<glyph unicode="&#xd5;" d="M102 690q0 311 82 471q125 244 457 244q328 0 453 -246q80 -160 80 -469q0 -311 -80 -473q-125 -248 -453 -248q-332 0 -457 246q-82 162 -82 475zM205 690q0 -295 69 -436q100 -203 367 -203q262 0 360 203q70 141 70 436q0 293 -70 434q-98 199 -360 199 q-266 0 -367 -199q-70 -141 -69 -434zM328 1514q18 154 174 153q61 0 152.5 -46t130.5 -46q98 0 116 84l56 -20q-18 -156 -174 -156q-61 0 -152.5 46t-130.5 46q-98 0 -117 -84z" />
<glyph unicode="&#xd6;" d="M102 690q0 311 82 471q125 244 457 244q328 0 453 -246q80 -160 80 -469q0 -311 -80 -473q-125 -248 -453 -248q-332 0 -457 246q-82 162 -82 475zM205 690q0 -295 69 -436q100 -203 367 -203q262 0 360 203q70 141 70 436q0 293 -70 434q-98 199 -360 199 q-266 0 -367 -199q-70 -141 -69 -434zM393 1487v200h102v-200h-102zM782 1487v200h102v-200h-102z" />
<glyph unicode="&#xd8;" d="M98 -63l135 200q-131 168 -131 553q0 311 82 471q125 244 457 244q233 0 363 -123l126 186l54 -36l-135 -201q125 -164 125 -541q0 -311 -80 -473q-125 -248 -453 -248q-229 0 -362 119l-127 -188zM205 690q0 -324 86 -467l659 979q-104 121 -309 121q-266 0 -367 -199 q-70 -141 -69 -434zM332 168q106 -117 309 -117q262 0 360 203q70 141 70 436q0 309 -80 455z" />
<glyph unicode="&#xd9;" d="M164 354v1024h102v-1024q0 -139 68 -211q88 -92 303 -92q373 0 373 303v1024h102v-1024q0 -385 -475 -385q-473 0 -473 385zM350 1628l45 113l524 -244l-22 -57z" />
<glyph unicode="&#xda;" d="M164 354v1024h102v-1024q0 -139 68 -211q88 -92 303 -92q373 0 373 303v1024h102v-1024q0 -385 -475 -385q-473 0 -473 385zM350 1497l524 244l45 -113l-547 -188z" />
<glyph unicode="&#xdb;" d="M164 354v1024h102v-1024q0 -139 68 -211q88 -92 303 -92q373 0 373 303v1024h102v-1024q0 -385 -475 -385q-473 0 -473 385zM333 1495l308 246l307 -246l-31 -55l-276 172l-277 -172z" />
<glyph unicode="&#xdc;" d="M164 354v1024h102v-1024q0 -139 68 -211q88 -92 303 -92q373 0 373 303v1024h102v-1024q0 -385 -475 -385q-473 0 -473 385zM393 1487v200h102v-200h-102zM782 1487v200h102v-200h-102z" />
<glyph unicode="&#xdd;" horiz-adv-x="1091" d="M41 1360l92 33l412 -777h4l76 150l333 627l93 -33l-451 -823v-537h-102v537zM264 1497l524 244l45 -113l-547 -188z" />
<glyph unicode="&#xde;" horiz-adv-x="1052" d="M164 0v1378h102v-297h412q162 0 254 -116q80 -103 80 -248q0 -162 -94 -283q-104 -135 -281 -135h-371v-299h-102zM266 360l371 17q123 6 201 110q71 99 71 230q0 117 -55 194q-63 86 -172 90l-416 15v-656z" />
<glyph unicode="&#xdf;" horiz-adv-x="1320" d="M82 920v61h178v340q0 109 96 170q86 55 217 55q164 0 285 -78q135 -90 135 -233q0 -141 -92 -215q-86 -49 -174 -98q-92 -59 -92 -168q0 -133 151 -179q139 -35 281 -71q152 -66 152 -254q0 -156 -125 -227q-100 -57 -263 -58q-115 0 -315 62l23 79q186 -59 292 -59 q133 0 209 53.5t76 149.5q0 139 -151 184q-139 35 -281 70q-152 63 -152 250q0 150 93 225q86 47 174 96q92 57 92 160q0 104 -105 170q-94 57 -215 57q-88 0 -145 -35q-63 -39 -64 -106v-1321h-102v899z" />
<glyph unicode="&#xe0;" horiz-adv-x="1032" d="M102 223q0 104 76 180q84 84 236 99l325 30l-4 283q0 61 -78 94q-57 25 -127 25q-84 0 -256 -27l-92 -14l-16 80l96 16q156 27 268 27q303 0 308 -201l10 -643l61 -162l-96 -35l-47 127l-211 -86q-96 -39 -184 -39q-123 0 -199 76q-70 70 -70 170zM205 221 q0 -160 182 -160q72 0 137 23l224 78l-7 307l-319 -45q-104 -14 -160.5 -72.5t-56.5 -130.5zM238 1362l45 113l524 -244l-22 -57z" />
<glyph unicode="&#xe1;" horiz-adv-x="1032" d="M102 223q0 104 76 180q84 84 236 99l325 30l-4 283q0 61 -78 94q-57 25 -127 25q-84 0 -256 -27l-92 -14l-16 80l96 16q156 27 268 27q303 0 308 -201l10 -643l61 -162l-96 -35l-47 127l-211 -86q-96 -39 -184 -39q-123 0 -199 76q-70 70 -70 170zM205 221 q0 -160 182 -160q72 0 137 23l224 78l-7 307l-319 -45q-104 -14 -160.5 -72.5t-56.5 -130.5zM238 1231l524 244l45 -113l-547 -188z" />
<glyph unicode="&#xe2;" horiz-adv-x="1032" d="M102 223q0 104 76 180q84 84 236 99l325 30l-4 283q0 61 -78 94q-57 25 -127 25q-84 0 -256 -27l-92 -14l-16 80l96 16q156 27 268 27q303 0 308 -201l10 -643l61 -162l-96 -35l-47 127l-211 -86q-96 -39 -184 -39q-123 0 -199 76q-70 70 -70 170zM205 221 q0 -160 182 -160q72 0 137 23l224 78l-7 307l-319 -45q-104 -14 -160.5 -72.5t-56.5 -130.5zM210 1229l308 246l307 -246l-31 -55l-276 172l-277 -172z" />
<glyph unicode="&#xe3;" horiz-adv-x="1032" d="M102 223q0 104 76 180q84 84 236 99l325 30l-4 283q0 61 -78 94q-57 25 -127 25q-84 0 -256 -27l-92 -14l-16 80l96 16q156 27 268 27q303 0 308 -201l10 -643l61 -162l-96 -35l-47 127l-211 -86q-96 -39 -184 -39q-123 0 -199 76q-70 70 -70 170zM205 221 q0 -160 182 -160q72 0 137 23l224 78l-7 307l-319 -45q-104 -14 -160.5 -72.5t-56.5 -130.5zM215 1305q18 154 174 153q61 0 152.5 -46t130.5 -46q98 0 116 84l56 -20q-18 -156 -174 -156q-61 0 -152.5 46t-130.5 46q-98 0 -117 -84z" />
<glyph unicode="&#xe4;" horiz-adv-x="1032" d="M102 223q0 104 76 180q84 84 236 99l325 30l-4 283q0 61 -78 94q-57 25 -127 25q-84 0 -256 -27l-92 -14l-16 80l96 16q156 27 268 27q303 0 308 -201l10 -643l61 -162l-96 -35l-47 127l-211 -86q-96 -39 -184 -39q-123 0 -199 76q-70 70 -70 170zM205 221 q0 -160 182 -160q72 0 137 23l224 78l-7 307l-319 -45q-104 -14 -160.5 -72.5t-56.5 -130.5zM277 1221v200h102v-200h-102zM666 1221v200h102v-200h-102z" />
<glyph unicode="&#xe5;" horiz-adv-x="1032" d="M102 223q0 104 76 180q84 84 236 99l325 30l-4 283q0 61 -78 94q-57 25 -127 25q-84 0 -256 -27l-92 -14l-16 80l96 16q156 27 268 27q303 0 308 -201l10 -643l61 -162l-96 -35l-47 127l-211 -86q-96 -39 -184 -39q-123 0 -199 76q-70 70 -70 170zM205 221 q0 -160 182 -160q72 0 137 23l224 78l-7 307l-319 -45q-104 -14 -160.5 -72.5t-56.5 -130.5zM307 1339q0 174 217 174q219 0 219 -174q0 -166 -219 -165q-217 0 -217 165zM376 1339q0 -104 148 -104q92 0 125 31q24 22 24 73q0 55 -20 78q-33 35 -129 35q-94 0 -127 -35 q-20 -23 -21 -78z" />
<glyph unicode="&#xe6;" horiz-adv-x="1613" d="M102 223q0 104 76 180q84 84 236 99l325 30l-4 283q0 61 -78 94q-57 25 -127 25q-84 0 -256 -27l-92 -14l-16 80l96 16q156 27 268 27q252 0 291 -150q82 143 299 144q211 0 301 -117q76 -96 76 -295v-37q-2 -25 -2 -37l-651 -61q6 -416 317 -416q111 0 314 72l26 -78 q-219 -76 -354 -76q-217 0 -322 162l-270 -111q-94 -39 -184 -39q-123 0 -199 76q-70 70 -70 170zM205 221q0 -160 182 -160q72 0 137 23l273 94q-51 119 -56 277l-319 -31q-104 -10 -164 -74q-53 -55 -53 -129zM844 543l551 53q0 168 -52 244q-63 92 -223 92 q-172 0 -233 -123q-41 -84 -43 -266z" />
<glyph unicode="&#xe7;" horiz-adv-x="964" d="M123 479v8q0 281 96 403t307 122q94 0 316 -35l-13 -82q-209 35 -292 35q-158 0 -230 -88q-82 -102 -82 -355v-8q0 -430 310 -430q123 0 321 70l27 -78q-219 -76 -355 -76q-211 0 -315 154q-90 133 -90 360zM328 -369l47 64q82 -41 172 -41q109 0 108 78q0 88 -166 88 q-55 0 -100 -4l103 221l81 -41l-57 -111q10 2 29 2q92 0 149 -49q49 -43 49 -106q0 -80 -63 -123q-55 -37 -143 -37q-125 0 -209 59z" />
<glyph unicode="&#xe8;" horiz-adv-x="995" d="M123 479q0 240 51 348q84 182 328 183q211 0 301 -117q76 -96 76 -295v-37q-2 -25 -2 -37l-652 11v-56q0 -432 318 -432q111 0 313 72l27 -78q-219 -76 -355 -76q-211 0 -315 154q-90 133 -90 360zM227 594l549 12q0 162 -51 236q-63 90 -223 90q-154 0 -219 -105 q-49 -80 -56 -233zM248 1362l45 113l524 -244l-22 -57z" />
<glyph unicode="&#xe9;" horiz-adv-x="995" d="M123 479q0 240 51 348q84 182 328 183q211 0 301 -117q76 -96 76 -295v-37q-2 -25 -2 -37l-652 11v-56q0 -432 318 -432q111 0 313 72l27 -78q-219 -76 -355 -76q-211 0 -315 154q-90 133 -90 360zM227 594l549 12q0 162 -51 236q-63 90 -223 90q-154 0 -219 -105 q-49 -80 -56 -233zM248 1231l524 244l45 -113l-547 -188z" />
<glyph unicode="&#xea;" horiz-adv-x="995" d="M123 479q0 240 51 348q84 182 328 183q211 0 301 -117q76 -96 76 -295v-37q-2 -25 -2 -37l-652 11v-56q0 -432 318 -432q111 0 313 72l27 -78q-219 -76 -355 -76q-211 0 -315 154q-90 133 -90 360zM210 1229l308 246l307 -246l-31 -55l-276 172l-277 -172zM227 594 l549 12q0 162 -51 236q-63 90 -223 90q-154 0 -219 -105q-49 -80 -56 -233z" />
<glyph unicode="&#xeb;" horiz-adv-x="995" d="M123 479q0 240 51 348q84 182 328 183q211 0 301 -117q76 -96 76 -295v-37q-2 -25 -2 -37l-652 11v-56q0 -432 318 -432q111 0 313 72l27 -78q-219 -76 -355 -76q-211 0 -315 154q-90 133 -90 360zM227 594l549 12q0 162 -51 236q-63 90 -223 90q-154 0 -219 -105 q-49 -80 -56 -233zM277 1221v200h102v-200h-102zM666 1221v200h102v-200h-102z" />
<glyph unicode="&#xec;" horiz-adv-x="430" d="M-70 1362l45 113l525 -244l-23 -57zM164 0v981h102v-981h-102z" />
<glyph unicode="&#xed;" horiz-adv-x="430" d="M-70 1231l525 244l45 -113l-547 -188zM164 0v981h102v-981h-102z" />
<glyph unicode="&#xee;" horiz-adv-x="430" d="M-92 1229l307 246l307 -246l-30 -55l-277 172l-276 -172zM164 0v981h102v-981h-102z" />
<glyph unicode="&#xef;" horiz-adv-x="430" d="M-31 1221v200h103v-200h-103zM164 0v981h102v-981h-102zM358 1221v200h103v-200h-103z" />
<glyph unicode="&#xf0;" horiz-adv-x="1044" d="M102 399q0 446 420 447q176 0 262 -78q-59 182 -163 334l-213 -92l-37 86l188 82q-139 168 -287 254l50 84q186 -109 335 -297l209 92l37 -86l-188 -82q227 -336 227 -742q0 -449 -420 -448q-420 0 -420 446zM205 399q0 -365 317 -364q318 -1 318 364t-318 365 q-317 0 -317 -365z" />
<glyph unicode="&#xf1;" horiz-adv-x="1091" d="M123 981l96 35l47 -129l242 102q78 33 160 33q111 0 180 -57q80 -63 80 -185v-780h-103v780q0 158 -163 158q-57 0 -115 -20l-260 -93v-825h-103v817zM256 1305q18 154 174 153q61 0 152.5 -46t130.5 -46q98 0 116 84l56 -20q-18 -156 -174 -156q-61 0 -152.5 46 t-130.5 46q-98 0 -117 -84z" />
<glyph unicode="&#xf2;" horiz-adv-x="1089" d="M123 473q0 252 72 375q98 168 348 168t350 -168q74 -125 74 -375q0 -510 -424 -510q-233 0 -336 148q-84 123 -84 362zM225 473q0 -215 68 -317q74 -115 250 -115t254 117q67 102 67 315q0 231 -59 336q-74 129 -262 129q-186 0 -258 -129q-59 -104 -60 -336zM268 1362 l45 113l524 -244l-22 -57z" />
<glyph unicode="&#xf3;" horiz-adv-x="1089" d="M123 473q0 252 72 375q98 168 348 168t350 -168q74 -125 74 -375q0 -510 -424 -510q-233 0 -336 148q-84 123 -84 362zM225 473q0 -215 68 -317q74 -115 250 -115t254 117q67 102 67 315q0 231 -59 336q-74 129 -262 129q-186 0 -258 -129q-59 -104 -60 -336zM248 1231 l524 244l45 -113l-547 -188z" />
<glyph unicode="&#xf4;" horiz-adv-x="1089" d="M123 473q0 252 72 375q98 168 348 168t350 -168q74 -125 74 -375q0 -510 -424 -510q-233 0 -336 148q-84 123 -84 362zM225 473q0 -215 68 -317q74 -115 250 -115t254 117q67 102 67 315q0 231 -59 336q-74 129 -262 129q-186 0 -258 -129q-59 -104 -60 -336zM231 1229 l308 246l307 -246l-31 -55l-276 172l-277 -172z" />
<glyph unicode="&#xf5;" horiz-adv-x="1089" d="M123 473q0 252 72 375q98 168 348 168t350 -168q74 -125 74 -375q0 -510 -424 -510q-233 0 -336 148q-84 123 -84 362zM215 1305q18 154 174 153q61 0 152.5 -46t130.5 -46q98 0 116 84l56 -20q-18 -156 -174 -156q-61 0 -152.5 46t-130.5 46q-98 0 -117 -84zM225 473 q0 -215 68 -317q74 -115 250 -115t254 117q67 102 67 315q0 231 -59 336q-74 129 -262 129q-186 0 -258 -129q-59 -104 -60 -336z" />
<glyph unicode="&#xf6;" horiz-adv-x="1089" d="M123 473q0 252 72 375q98 168 348 168t350 -168q74 -125 74 -375q0 -510 -424 -510q-233 0 -336 148q-84 123 -84 362zM225 473q0 -215 68 -317q74 -115 250 -115t254 117q67 102 67 315q0 231 -59 336q-74 129 -262 129q-186 0 -258 -129q-59 -104 -60 -336zM297 1221 v200h102v-200h-102zM686 1221v200h102v-200h-102z" />
<glyph unicode="&#xf7;" horiz-adv-x="1126" d="M82 621v81h962v-81h-962zM522 180v254h82v-254h-82zM522 889v254h82v-254h-82z" />
<glyph unicode="&#xf8;" horiz-adv-x="1089" d="M111 -49l106 145q-94 123 -94 377q0 252 72 375q98 168 348 168q176 0 280 -84l95 129l53 -39l-103 -139q98 -123 99 -410q0 -510 -424 -510q-180 0 -279 86l-100 -137zM225 473q0 -193 54 -293l491 676q-76 82 -227 82q-186 0 -258 -129q-59 -104 -60 -336zM317 123 q76 -82 226 -82q176 0 254 117q67 102 67 315q0 223 -55 328z" />
<glyph unicode="&#xf9;" horiz-adv-x="1091" d="M164 205v776h102v-776q0 -158 164 -158q57 0 115 21l260 92v821h102v-813l62 -164l-97 -35l-47 129l-241 -102q-78 -33 -160 -33q-111 0 -180 57q-80 63 -80 185zM248 1362l45 113l524 -244l-22 -57z" />
<glyph unicode="&#xfa;" horiz-adv-x="1091" d="M164 205v776h102v-776q0 -158 164 -158q57 0 115 21l260 92v821h102v-813l62 -164l-97 -35l-47 129l-241 -102q-78 -33 -160 -33q-111 0 -180 57q-80 63 -80 185zM248 1231l524 244l45 -113l-547 -188z" />
<glyph unicode="&#xfb;" horiz-adv-x="1091" d="M164 205v776h102v-776q0 -158 164 -158q57 0 115 21l260 92v821h102v-813l62 -164l-97 -35l-47 129l-241 -102q-78 -33 -160 -33q-111 0 -180 57q-80 63 -80 185zM231 1229l308 246l307 -246l-31 -55l-276 172l-277 -172z" />
<glyph unicode="&#xfc;" horiz-adv-x="1091" d="M164 205v776h102v-776q0 -158 164 -158q57 0 115 21l260 92v821h102v-813l62 -164l-97 -35l-47 129l-241 -102q-78 -33 -160 -33q-111 0 -180 57q-80 63 -80 185zM297 1221v200h102v-200h-102zM686 1221v200h102v-200h-102z" />
<glyph unicode="&#xfd;" horiz-adv-x="956" d="M-59 -352l47 65q86 -74 176 -73q135 0 190 147l78 205l-391 987l92 35l342 -918h6l56 166l288 750l90 -37l-471 -1225q-74 -193 -274 -192q-127 0 -229 90zM207 1231l524 244l45 -113l-547 -188z" />
<glyph unicode="&#xfe;" horiz-adv-x="1081" d="M164 -449v1965h102v-607l56 33q129 74 249 74q166 0 266.5 -139.5t100.5 -366.5q0 -545 -389 -545q-86 0 -176 23l-107 26v-463h-102zM266 82l94 -19q94 -18 166 -18q170 0 242 113q68 106 68 352q0 197 -72 311.5t-205 114.5q-92 0 -197 -53l-96 -49v-752z" />
<glyph unicode="&#xff;" horiz-adv-x="956" d="M-59 -352l47 65q86 -74 176 -73q135 0 190 147l78 205l-391 987l92 35l342 -918h6l56 166l288 750l90 -37l-471 -1225q-74 -193 -274 -192q-127 0 -229 90zM256 1221v200h102v-200h-102zM645 1221v200h102v-200h-102z" />
<glyph unicode="&#x152;" horiz-adv-x="1677" d="M102 690q0 305 82 459q125 229 457 229h958v-82l-636 19v-565l497 14v-90l-497 14v-625l653 19v-82h-975q-334 0 -457 231q-82 152 -82 459zM205 690q0 -289 69 -422q98 -186 367 -186h219v1214h-219q-268 0 -367 -186q-70 -131 -69 -420z" />
<glyph unicode="&#x153;" horiz-adv-x="1736" d="M123 473q0 252 72 375q98 168 348 168q274 0 366 -199q82 193 334 193q211 0 301 -117q76 -96 76 -295v-37q-2 -25 -2 -37l-651 11v-56q0 -432 317 -432q111 0 313 72l27 -78q-219 -76 -354 -76q-252 0 -350 215q-92 -217 -377 -217q-233 0 -336 148q-84 123 -84 362z M225 473q0 -215 68 -317q74 -115 250 -115t254 117q67 102 67 315q0 231 -59 336q-74 129 -262 129q-186 0 -258 -129q-59 -104 -60 -336zM969 594l549 12q0 162 -52 236q-63 90 -223 90q-154 0 -219 -105q-49 -80 -55 -233z" />
<glyph unicode="&#x178;" horiz-adv-x="1091" d="M41 1360l92 33l412 -777h4l76 150l333 627l93 -33l-451 -823v-537h-102v537zM301 1487v200h102v-200h-102zM690 1487v200h102v-200h-102z" />
<glyph unicode="&#x2c6;" horiz-adv-x="995" d="M190 1229l308 246l307 -246l-31 -55l-276 172l-277 -172z" />
<glyph unicode="&#x2dc;" horiz-adv-x="1142" d="M256 1305q18 154 174 153q61 0 152.5 -46t130.5 -46q98 0 116 84l56 -20q-18 -156 -174 -156q-61 0 -152.5 46t-130.5 46q-98 0 -117 -84z" />
<glyph unicode="&#x2000;" horiz-adv-x="870" />
<glyph unicode="&#x2001;" horiz-adv-x="1741" />
<glyph unicode="&#x2002;" horiz-adv-x="870" />
<glyph unicode="&#x2003;" horiz-adv-x="1741" />
<glyph unicode="&#x2004;" horiz-adv-x="580" />
<glyph unicode="&#x2005;" horiz-adv-x="435" />
<glyph unicode="&#x2006;" horiz-adv-x="290" />
<glyph unicode="&#x2007;" horiz-adv-x="290" />
<glyph unicode="&#x2008;" horiz-adv-x="217" />
<glyph unicode="&#x2009;" horiz-adv-x="348" />
<glyph unicode="&#x200a;" horiz-adv-x="96" />
<glyph unicode="&#x2010;" horiz-adv-x="1003" d="M143 621v81h717v-81h-717z" />
<glyph unicode="&#x2011;" horiz-adv-x="1003" d="M143 621v81h717v-81h-717z" />
<glyph unicode="&#x2012;" horiz-adv-x="1003" d="M143 621v81h717v-81h-717z" />
<glyph unicode="&#x2013;" horiz-adv-x="1024" d="M0 621v81h1024v-81h-1024z" />
<glyph unicode="&#x2014;" horiz-adv-x="2048" d="M0 621v81h2048v-81h-2048z" />
<glyph unicode="&#x2018;" horiz-adv-x="385" d="M-20 819l309 584l55 -27l-246 -612z" />
<glyph unicode="&#x2019;" horiz-adv-x="344" d="M41 791l246 612l119 -55l-310 -584z" />
<glyph unicode="&#x201a;" horiz-adv-x="405" d="M0 -295l246 612l119 -55l-310 -584z" />
<glyph unicode="&#x201c;" horiz-adv-x="712" d="M-20 819l309 584l55 -27l-246 -612zM307 819l309 584l56 -27l-246 -612z" />
<glyph unicode="&#x201d;" horiz-adv-x="671" d="M41 791l246 612l119 -55l-310 -584zM369 791l245 612l119 -55l-309 -584z" />
<glyph unicode="&#x201e;" horiz-adv-x="733" d="M0 -295l246 612l119 -55l-310 -584zM328 -295l245 612l119 -55l-309 -584z" />
<glyph unicode="&#x2022;" horiz-adv-x="856" d="M143 635q0 119 83 202t202 83t202 -83t83 -202t-83 -202t-202 -83t-202 83t-83 202z" />
<glyph unicode="&#x202f;" horiz-adv-x="348" />
<glyph unicode="&#x2039;" horiz-adv-x="485" d="M61 498l316 407l47 -49l-223 -358l223 -359l-47 -49z" />
<glyph unicode="&#x203a;" horiz-adv-x="485" d="M61 139l224 359l-224 358l48 49l315 -407l-315 -408z" />
<glyph unicode="&#x205f;" horiz-adv-x="435" />
<glyph unicode="&#x2122;" horiz-adv-x="1374" d="M61 1300v78h492v-78l-199 25v-608h-92v608zM590 723l76 655h98l162 -456l24 -117l27 117l164 456h96l76 -655l-88 -12l-43 387l-13 164l-39 -164l-141 -381h-76l-139 381l-39 164l-12 -164l-47 -387z" />
<glyph unicode="&#x25fc;" horiz-adv-x="1003" d="M0 0v1004h1004v-1004h-1004z" />
</font>
</defs>
</svg>
