<?xml version="1.0" standalone="no"?>
<!DOCTYPE svg PUBLIC "-//W3C//DTD SVG 1.1//EN" "http://www.w3.org/Graphics/SVG/1.1/DTD/svg11.dtd" >
<svg xmlns="http://www.w3.org/2000/svg">
<metadata></metadata>
<defs>
<font id="anomolyblackregular" horiz-adv-x="1482" >
<font-face units-per-em="2048" ascent="1638" descent="-410" />
<missing-glyph horiz-adv-x="491" />
<glyph horiz-adv-x="0" />
<glyph unicode="&#xd;" horiz-adv-x="491" />
<glyph unicode=" "  horiz-adv-x="491" />
<glyph unicode="&#x09;" horiz-adv-x="491" />
<glyph unicode="&#xa0;" horiz-adv-x="491" />
<glyph unicode="!" horiz-adv-x="579" d="M61 1378h457l-100 -891h-258zM94 0v354h389v-354h-389z" />
<glyph unicode="&#x22;" horiz-adv-x="1116" d="M61 1378h461l-104 -700h-254zM594 1378h461l-105 -700h-254z" />
<glyph unicode="#" horiz-adv-x="1544" d="M61 354v308h289l23 83h-207v306h283l92 364l356 -65l-76 -299h78l92 364l357 -65l-76 -299h211v-306h-287l-22 -83h206v-308h-284l-97 -383l-356 58l80 325h-78l-96 -383l-356 58l79 325h-211zM723 662h78l22 83h-78z" />
<glyph unicode="$" horiz-adv-x="1421" d="M82 100l127 299q156 -53 215 -67q115 -31 221 -35v260q-227 47 -323 115q-143 98 -144 301q0 215 146 323q119 92 321 103v157h131v-157q139 -8 465 -66l-88 -311q-129 31 -377 70v-224q233 -51 340 -133q141 -110 141 -323q0 -209 -147 -324q-127 -98 -334 -111v-163 h-131v159q-252 8 -563 127zM567 975q0 -43 78 -74v182q-78 -27 -78 -108zM776 307q92 29 92 105q0 74 -92 110v-215z" />
<glyph unicode="%" horiz-adv-x="1814" d="M41 995q0 406 395 406t395 -406q0 -45 -4 -71l351 534l350 -164l-361 -553q86 43 211 43q396 1 396 -405t-396 -406q-395 0 -395 406q0 41 6 90l-354 -541l-348 170l344 527q-80 -35 -195 -35q-395 0 -395 405zM395 995q0 -80 15 -96q8 -12 28 -12q33 0 41 41q2 12 2 67 q0 80 -11 94.5t-32 14.5q-33 0 -41 -41q-2 -12 -2 -68zM1337 379q0 -80 15 -96q8 -12 28 -13q33 0 41 41q2 13 2 68q0 80 -11 94t-32 14q-33 0 -41 -41q-2 -12 -2 -67z" />
<glyph unicode="&#x26;" horiz-adv-x="1476" d="M61 422q0 215 172 323q-96 96 -96 234q0 127 88 240q137 178 443 178q305 0 444 -178q86 -113 86 -240v-29h-389v29q0 104 -141 104t-142 -104q0 -49 31 -68q43 -29 172 -28v-314q-178 0 -237 -43q-41 -29 -41 -104q0 -76 30 -109q45 -49 166 -49q125 0 164 41 q29 29 29 117v317h596v-321l-207 26v-22q0 -186 -103 -303q-145 -168 -479 -168q-336 0 -485 182q-100 121 -101 289z" />
<glyph unicode="'" horiz-adv-x="583" d="M61 1378h461l-104 -700h-254z" />
<glyph unicode="(" horiz-adv-x="749" d="M-20 627q0 569 563 899l223 -277q-397 -236 -397 -622t401 -617l-223 -280q-567 334 -567 897z" />
<glyph unicode=")" horiz-adv-x="749" d="M-20 10q401 231 401 617q0 387 -397 622l223 277q563 -330 563 -899q0 -563 -567 -897z" />
<glyph unicode="*" horiz-adv-x="1251" d="M61 834l115 350l201 -66l96 -63l-31 108v215h369v-211l-33 -112l94 63l205 68l113 -350l-201 -66l-117 -4l91 -72l127 -172l-299 -217l-123 172l-41 109l-39 -107l-127 -174l-297 215l125 172l92 72l-115 4z" />
<glyph unicode="+" horiz-adv-x="1249" d="M41 430v332h418v418h332v-418h417v-332h-417v-418h-332v418h-418z" />
<glyph unicode="," horiz-adv-x="755" d="M0 -281l362 748l394 -225l-473 -691z" />
<glyph unicode="-" horiz-adv-x="901" d="M102 430v332h697v-332h-697z" />
<glyph unicode="." horiz-adv-x="593" d="M102 0v418h390v-418h-390z" />
<glyph unicode="/" horiz-adv-x="892" d="M0 37l535 1397l358 -123l-535 -1397z" />
<glyph unicode="0" horiz-adv-x="1353" d="M61 690q0 729 617 729q614 0 614 -729t-614 -729q-616 0 -617 729zM451 690q0 -211 22 -280q45 -133 205 -134q158 0 203 134q22 69 22 280q0 213 -22 281q-45 133 -203 133q-160 0 -205 -133q-23 -68 -22 -281z" />
<glyph unicode="1" horiz-adv-x="1155" d="M102 1001l553 377h275v-1378h-389v809l22 125h-4l-80 -82l-137 -94z" />
<glyph unicode="2" horiz-adv-x="1226" d="M61 1001q80 213 246 320q141 94 324 94q211 0 366 -115q168 -123 168 -313q0 -182 -180 -356l-264 -254l-119 -88l553 26v-315h-1092v240l631 610q82 80 82 137q0 47 -42 81t-103 34q-139 0 -217 -197z" />
<glyph unicode="3" horiz-adv-x="1263" d="M20 244l312 180q141 -145 268 -145q109 0 168 51q45 41 45 96q0 53 -43 90q-57 47 -170 47q-215 0 -211 0v316h184q190 0 191 108q0 49 -41 82t-107 33q-57 0 -101 -27.5t-118 -113.5l-315 172q129 150 252 216t282 66q201 0 355 -100q182 -119 182 -328 q0 -174 -129 -262q178 -94 178 -299q0 -193 -162 -324q-170 -139 -440 -139q-166 0 -295 62q-139 63 -285 219z" />
<glyph unicode="4" horiz-adv-x="1275" d="M41 225v269l491 952l342 -139l-352 -686l-73 -103v-4l204 8v242h389v-227l193 8v-320h-193v-225h-389v225h-612z" />
<glyph unicode="5" horiz-adv-x="1239" d="M20 246l299 192q139 -162 265 -162q96 0 155 58q53 53 54 125q0 68 -58 112q-70 55 -203 56q-139 0 -366 -64v815h938v-315l-549 31v-156h18q283 0 451 -150q154 -136 154 -335t-148 -336q-166 -154 -446 -154q-147 0 -265 51q-145 66 -299 232z" />
<glyph unicode="6" horiz-adv-x="1275" d="M61 504q0 297 203 547q221 276 631 405l139 -315q-252 -78 -385 -195q221 -6 379 -121q186 -135 186 -368q0 -201 -149 -342q-162 -154 -432 -154q-233 0 -393 135q-178 150 -179 408zM438 492q0 -213 193 -213q98 0 155 55q52 51 52 127q0 86 -74 131q-63 39 -158 39 q-90 0 -155 -35q-12 -66 -13 -104z" />
<glyph unicode="7" horiz-adv-x="1044" d="M0 1063v315h1044v-268l-602 -1173l-350 122l475 926l72 107z" />
<glyph unicode="8" horiz-adv-x="1296" d="M61 426q0 176 160 307q-111 98 -110 252q0 211 182 330q154 100 354 100q236 0 389.5 -126t153.5 -302q0 -154 -119 -256q164 -119 164 -305q0 -188 -156 -322q-168 -141 -432 -141t-430 143q-156 131 -156 320zM451 426q0 -55 45 -98q53 -49 151 -49t152 49q45 43 45 98 q0 137 -205 145q-27 2 -82 7q-106 -66 -106 -152zM500 985q0 -59 45 -84q31 -16 100 -24q27 -2 76 -11q76 49 76 119q0 47 -39 81t-111 34q-66 0 -106.5 -33t-40.5 -82z" />
<glyph unicode="9" horiz-adv-x="1275" d="M61 920q0 201 150 342q162 154 432 153q233 0 393 -135q178 -150 178 -408q0 -297 -200 -546q-223 -276 -633 -406l-139 316q252 78 385 194q-221 6 -379 121q-186 135 -187 369zM438 915q0 -86 74 -131q63 -39 158 -39q90 0 155 35q13 66 13 105q0 213 -193 213 q-98 0 -152.5 -53.5t-54.5 -129.5z" />
<glyph unicode=":" horiz-adv-x="675" d="M143 0v418h389v-418h-389zM143 563v418h389v-418h-389z" />
<glyph unicode=";" horiz-adv-x="755" d="M0 -281l362 748l394 -225l-473 -691zM264 563v418h389v-418h-389z" />
<glyph unicode="&#x3c;" horiz-adv-x="1187" d="M41 375v241l1106 445v-354l-612 -211l612 -211v-355z" />
<glyph unicode="=" horiz-adv-x="1167" d="M41 205v332h1085v-332h-1085zM41 655v332h1085v-332h-1085z" />
<glyph unicode="&#x3e;" horiz-adv-x="1187" d="M41 -70v355l612 211l-612 211v354l1106 -445v-241z" />
<glyph unicode="?" horiz-adv-x="1140" d="M0 1190q287 211 557 211q242 0 392.5 -116t150.5 -294q0 -176 -109 -282q-27 -27 -203 -142q-111 -70 -114 -155h-373q0 184 109 297q39 39 204 141q109 68 109 141q0 92 -170 92q-135 0 -322 -137zM299 0v287h379v-287h-379z" />
<glyph unicode="@" horiz-adv-x="1701" d="M41 672q0 307 139 499q201 276 674 277q469 0 670 -272q137 -191 137 -496q0 -262 -225 -381l143 -197q-348 -207 -725 -206q-473 0 -674 276q-139 193 -139 500zM410 672q0 -231 86 -338q102 -129 358 -129q143 0 262 33q-125 16 -196 100q-80 -25 -156 -25 q-127 0 -201 72q-84 80 -84 233q0 195 90 300q84 98 230 98q125 0 227 -64l70 78l164 -110q-78 219 -406 219q-256 0 -358 -129q-86 -106 -86 -338zM764 616q0 -78 74 -77q4 0 12 2h10l58 239q-37 12 -54 13q-100 0 -100 -177zM1182 502q45 2 77.5 50t32.5 128q0 39 -4 104 l-55 -57z" />
<glyph unicode="A" horiz-adv-x="1425" d="M-20 45l544 1333h377l545 -1333l-375 -80l-135 336l-72 -10h-303l-72 12l-135 -338zM602 602l53 4h111l55 -4l-26 78l-54 209l-28 158h-4l-29 -156l-53 -211z" />
<glyph unicode="B" horiz-adv-x="1327" d="M102 0v1378h625q219 0 352 -121q123 -113 123 -270q0 -59 -26 -129q-33 -82 -91 -133q92 -37 146.5 -120t54.5 -181q0 -168 -137 -291q-147 -133 -381 -133h-666zM492 293l274 16q131 8 131 123q0 45 -25.5 77t-64.5 34l-315 18v-268zM494 834l231 16q33 2 60.5 29.5 t27.5 76.5q0 106 -88 113l-231 16v-251z" />
<glyph unicode="C" horiz-adv-x="1280" d="M61 688q0 385 160 557q145 158 455 158q145 0 336 -31l166 -26l-68 -310l-135 25q-168 31 -287 31q-131 0 -178 -74q-57 -84 -57 -330q0 -236 45 -318.5t164 -82.5q88 0 270 45l174 43l113 -301l-236 -58q-184 -45 -342 -45q-580 0 -580 717z" />
<glyph unicode="D" horiz-adv-x="1415" d="M102 0v1378h541q311 0 500 -155q211 -176 211 -516q0 -328 -199 -517.5t-512 -189.5h-541zM492 293l149 12q324 27 324 402q0 203 -97 288q-72 63 -225 78l-151 14v-794z" />
<glyph unicode="E" horiz-adv-x="1206" d="M102 0v1378h1026v-315l-636 27v-240l497 27v-326l-497 24v-286l653 26v-315h-1043z" />
<glyph unicode="F" horiz-adv-x="1189" d="M102 0v1378h1026v-315l-636 27v-240l497 27v-326l-497 24v-575h-390z" />
<glyph unicode="G" horiz-adv-x="1380" d="M61 688q0 346 125 516q147 201 494 201q123 0 342 -35l168 -27l-68 -309l-121 21q-187 32 -304 32h-7q-137 0 -182 -63q-55 -80 -55 -336q0 -399 231 -399q76 0 205 39v186l-273 -29v320h662v-690l-254 -82q-197 -63 -350 -64q-322 0 -479 226q-133 188 -134 493z" />
<glyph unicode="H" horiz-adv-x="1372" d="M102 0v1378h390v-504h389v504h389v-1378h-389v561h-389v-561h-390z" />
<glyph unicode="I" horiz-adv-x="593" d="M102 0v1378h390v-1378h-390z" />
<glyph unicode="J" horiz-adv-x="1075" d="M-20 61l133 295l131 -37q170 -45 215 -45q125 0 125 132v972h389v-972q0 -213 -144 -332q-135 -111 -356 -111q-141 0 -307 47z" />
<glyph unicode="K" horiz-adv-x="1337" d="M102 0v1378h390v-510l49 -6l438 555l336 -176l-379 -440l-94 -84l92 -88l403 -533l-366 -137l-426 614l-53 -8v-565h-390z" />
<glyph unicode="L" horiz-adv-x="1148" d="M102 0v1378h390v-1089l636 26v-315h-1026z" />
<glyph unicode="M" horiz-adv-x="1830" d="M61 12l148 1366h389l276 -731l39 -192h5l40 192l279 731h385l147 -1366l-407 -35l-33 619l-4 197h-4l-41 -197l-213 -596h-305l-209 596l-41 197h-4l-4 -197l-35 -619z" />
<glyph unicode="N" horiz-adv-x="1406" d="M102 0v1378h355l405 -655l60 -135h4l-11 135v655h390v-1378h-353l-405 657l-64 142h-4l13 -142v-657h-390z" />
<glyph unicode="O" d="M61 688q0 717 682 717q678 0 678 -717q0 -719 -678 -719q-682 0 -682 719zM451 688q0 -217 55 -303q63 -100 237 -100q186 0 248 121q41 79 41 282t-41 283q-61 119 -248 119q-176 0 -239 -99q-53 -86 -53 -303z" />
<glyph unicode="P" horiz-adv-x="1275" d="M102 0v1378h658q223 0 356 -141q119 -129 119 -313q0 -223 -158 -349q-140 -112 -356 -112h-4q-57 0 -113 8l-112 16v-487h-390zM492 758l225 20q131 13 131 150q0 53 -25.5 96t-64.5 45l-266 16v-327z" />
<glyph unicode="Q" d="M61 688q0 717 682 717q678 0 678 -717q0 -471 -284 -631l161 -180l-327 -209l-205 301h-23h-11q-671 0 -671 719zM451 688q0 -217 55 -303q63 -100 237 -100q186 0 248 121q41 79 41 282t-41 283q-61 119 -248 119q-176 0 -239 -99q-53 -86 -53 -303z" />
<glyph unicode="R" horiz-adv-x="1318" d="M102 0v1378h658q225 0 358 -131q119 -115 119 -276q0 -117 -63 -219q-70 -111 -195 -168l74 -86l266 -426l-375 -103l-342 572l-110 8v-549h-390zM492 821l176 8q180 9 180 134q0 100 -90 106l-266 16v-264z" />
<glyph unicode="S" horiz-adv-x="1236" d="M0 106l127 295q178 -57 223 -69q121 -31 234 -31q202 0 202 114q0 62 -65 97q-35 18 -121 39q-264 61 -346 111q-158 96 -158 309q0 422 535 422q154 0 528 -66l-88 -309q-346 72 -424 72q-162 0 -162 -119q0 -43 80 -72q76 -18 236 -57q168 -45 254 -123 q121 -110 121 -303q0 -233 -183 -344q-147 -92 -393 -92q-262 0 -600 126z" />
<glyph unicode="T" horiz-adv-x="1220" d="M20 1063v315h1180v-315l-395 20v-1083h-389v1083z" />
<glyph unicode="U" horiz-adv-x="1439" d="M102 410v968h390v-968q0 -63 36 -91q48 -36 184 -36h7q143 0 192 36q37 27 37 91v968h389v-968q0 -205 -147 -318q-160 -123 -471 -123t-471 123q-145 113 -146 318z" />
<glyph unicode="V" horiz-adv-x="1409" d="M-20 1311l374 106l312 -813l36 -162h5l36 162l312 811l375 -102l-570 -1313h-309z" />
<glyph unicode="W" horiz-adv-x="1835" d="M-20 1350l387 63l155 -653l35 -217h4l33 217l133 618h379l135 -618l35 -221h4l35 221l153 655l387 -63l-403 -1352h-358l-154 690l-20 195h-5l-20 -195l-150 -690h-360z" />
<glyph unicode="X" horiz-adv-x="1298" d="M-20 104l438 584l-436 574l348 155l252 -387l65 -121h4l64 121l254 389l346 -157l-434 -574l438 -584l-350 -153l-252 389l-66 123h-4l-63 -123l-254 -389z" />
<glyph unicode="Y" horiz-adv-x="1320" d="M-20 1251l325 168l295 -463l59 -116h5l57 116l295 463l325 -168l-485 -712v-539h-389v537z" />
<glyph unicode="Z" horiz-adv-x="1236" d="M41 0v225l565 774l92 88l-622 -24v315h1100v-225l-555 -762l-101 -102l676 26v-315h-1155z" />
<glyph unicode="[" horiz-adv-x="776" d="M61 -233v1714h637v-318h-247v-1079h264v-317h-654z" />
<glyph unicode="\" horiz-adv-x="786" d="M0 1321l281 102l505 -1396l-280 -103z" />
<glyph unicode="]" horiz-adv-x="776" d="M61 84h265v1079h-248v318h637v-1714h-654v317z" />
<glyph unicode="_" horiz-adv-x="860" d="M0 -96h860v-164h-860v164z" />
<glyph unicode="`" horiz-adv-x="983" d="M154 1307l174 274l499 -283l-135 -221z" />
<glyph unicode="a" horiz-adv-x="1196" d="M20 303q0 125 97 207q106 90 297 90h252l-4 102q0 12 -31 13q-115 0 -355 -29l-137 -16l-71 293l202 26q203 27 330 27q170 0 289 -53q158 -72 162 -218l10 -432l145 -155l-321 -199l-125 135l-119 -49q-156 -65 -261 -65h-3q-156 0 -260 102q-96 96 -97 221zM383 295 q0 -53 66 -53q45 0 90 14l133 43l-2 84l-162 -6q-125 -4 -125 -82z" />
<glyph unicode="b" horiz-adv-x="1261" d="M0 162l145 160v1194h390v-543q127 39 221 39q211 0 336 -146q118 -143 118 -379t-136 -371.5t-339 -135.5q-166 0 -313 94l-103 -115zM535 297q90 -25 135 -25q147 0 147 207q0 158 -45 209q-35 37 -125 37q-51 0 -112 -6v-422z" />
<glyph unicode="c" horiz-adv-x="1095" d="M51 481q0 535 549 535q133 0 291 -27l145 -24l-57 -291l-109 14q-201 27 -274 27q-86 0 -117 -37q-39 -49 -39 -191q0 -221 181 -221q78 0 229 49l127 41l119 -282l-224 -68q-129 -39 -258 -39q-242 0 -393 125q-170 139 -170 389z" />
<glyph unicode="d" horiz-adv-x="1261" d="M51 487q0 236 122 380.5t333 144.5q94 0 221 -39v543h389v-1194l146 -160l-320 -203l-102 115q-147 -94 -314 -94q-203 0 -336 133q-139 139 -139 374zM444 479q0 -207 148 -207q45 0 135 25v422q-61 6 -113 6q-90 0 -125 -37q-45 -51 -45 -209z" />
<glyph unicode="e" horiz-adv-x="1157" d="M51 481q0 225 78 344q121 184 444 185q268 0 402 -133q112 -112 112 -301q0 -28 -10 -199l-628 24q33 -149 170 -149h2q92 0 278 63l102 35l115 -268l-190 -64q-154 -51 -310 -51q-242 0 -393 123q-172 135 -172 391zM442 621l306 12q-18 112 -158 112h-2 q-131 0 -146 -124z" />
<glyph unicode="f" horiz-adv-x="956" d="M20 733v248h179v250q0 323 358 323h2q121 0 260 -36l170 -45l-115 -295l-206 53q-16 4 -29 4q-51 0 -51 -29v-225h297v-305h-297v-676h-389v686z" />
<glyph unicode="g" horiz-adv-x="1261" d="M51 498q0 236 139 381q133 137 336 137q166 0 314 -94l102 114l320 -202l-146 -160v-656q0 -246 -170 -374q-150 -113 -387 -113q-137 0 -412 96l-75 27l121 289l49 -21q201 -84 307 -84q178 0 178 176q-133 -41 -221 -41q-211 0 -334 148q-121 141 -121 377zM444 508 q0 -158 45 -209q35 -37 125 -37q52 0 113 6v430q-90 25 -135 25q-147 0 -148 -215z" />
<glyph unicode="h" horiz-adv-x="1234" d="M102 0v1516h390v-560l24 13q106 53 234 53q154 0 262 -82q121 -92 121 -248v-692h-390v690q0 35 -61 35q-35 0 -113 -16l-77 -17v-692h-390z" />
<glyph unicode="i" horiz-adv-x="593" d="M102 0v981h390v-981h-390zM102 1128v388h390v-388h-390z" />
<glyph unicode="j" horiz-adv-x="591" d="M-184 -121q188 0 231 27q53 31 53 170v905h389v-905q0 -287 -174 -410q-158 -115 -499 -115v328zM100 1128v388h389v-388h-389z" />
<glyph unicode="k" horiz-adv-x="1208" d="M102 0v1516h390v-863l426 398l266 -263l-365 -258l369 -383l-330 -194l-366 457v-410h-390z" />
<glyph unicode="l" horiz-adv-x="593" d="M102 0v1516h390v-1516h-390z" />
<glyph unicode="m" horiz-adv-x="1816" d="M0 829l319 199l109 -117l119 52q129 55 233 55q162 0 258 -96l113 49q109 47 215 47q147 0 242 -80q106 -90 106 -246v-692h-389v692q0 31 -43 31q-14 0 -84 -14l-70 -15v-694h-389v692q0 31 -47 31q-27 0 -88 -14l-69 -17v-692h-390v674z" />
<glyph unicode="n" horiz-adv-x="1277" d="M0 831l317 197l115 -121l127 62q111 53 234 53q154 0 262 -82q121 -92 121 -248v-692h-390v690q0 35 -61 35q-35 0 -113 -16l-77 -17v-692h-390v674z" />
<glyph unicode="o" horiz-adv-x="1232" d="M51 477q0 539 563 539q568 0 568 -539q0 -514 -568 -514q-563 0 -563 514zM440 477q0 -133 41 -178q35 -39 133 -39q100 0 139.5 43t39.5 174q0 150 -39 199q-35 43 -140 43q-102 0 -135 -43q-39 -49 -39 -199z" />
<glyph unicode="p" horiz-adv-x="1261" d="M0 834l319 202l103 -114q147 94 313 94q203 0 336 -133q139 -139 139 -375t-118 -379q-125 -145 -336 -145q-94 0 -221 39v-472h-390v1123zM535 276q61 -6 112 -6q90 0 125 37q45 51 45 209q0 207 -147 207q-45 0 -135 -25v-422z" />
<glyph unicode="q" horiz-adv-x="1261" d="M51 508q0 236 139 375q133 133 336 133q166 0 314 -94l102 114l320 -202l-146 -160v-1123h-389v472q-127 -39 -221 -39q-211 0 -333 144t-122 380zM444 516q0 -158 45 -209q35 -37 125 -37q52 0 113 6v422q-90 25 -135 25q-147 0 -148 -207z" />
<glyph unicode="r" horiz-adv-x="899" d="M0 829l319 199l113 -121q147 82 430 105l17 -316q-207 0 -344 -24v-672h-390v674z" />
<glyph unicode="s" horiz-adv-x="1107" d="M41 53l111 279l92 -27q170 -49 319 -49q115 0 115 47q0 31 -152 53q-193 31 -278 76q-152 82 -152 250q0 332 473 332q147 0 318 -27l157 -24l-71 -287l-142 24q-164 29 -245 29q-84 0 -97 -18q-4 -8 -4 -19q0 -20 152 -43q186 -27 278 -80q152 -88 152 -266 q0 -184 -166 -270q-127 -68 -338 -68q-170 0 -432 66z" />
<glyph unicode="t" horiz-adv-x="987" d="M20 735v246h179v397h389v-397h297v-303h-297v-365q0 -29 35 -28q23 0 53 10l176 59l115 -288l-217 -64q-98 -29 -177 -29q-154 0 -254 70q-121 82 -120 240v403z" />
<glyph unicode="u" horiz-adv-x="1277" d="M102 289v692h390v-698q0 -27 49 -27q47 0 125 16l77 17v692h390v-674l145 -157l-317 -197l-115 121l-127 -62q-111 -53 -234 -53q-154 0 -262 82q-121 92 -121 248z" />
<glyph unicode="v" horiz-adv-x="1228" d="M-20 922l372 102l226 -526l34 -164l37 164l228 526l372 -104l-475 -920h-323z" />
<glyph unicode="w" horiz-adv-x="1646" d="M-20 940l374 86l135 -463l27 -174l27 174l121 418h329l113 -418l27 -170l24 170l139 463l371 -86l-383 -940h-315l-117 461l-27 164l-28 -164l-115 -461h-317z" />
<glyph unicode="x" horiz-adv-x="1181" d="M-20 127l374 371l-350 352l318 178l274 -332l270 332l322 -178l-350 -352l364 -371l-313 -182l-293 344l-295 -342z" />
<glyph unicode="y" horiz-adv-x="1222" d="M-123 -303l207 260l47 -27q115 -65 161 -65h1q49 0 92 102l35 84l-66 119l-364 745l366 109l224 -508l38 -149l41 149l226 510l358 -117l-530 -1122q-55 -117 -172 -180q-106 -55 -236 -56q-158 0 -344 101z" />
<glyph unicode="z" horiz-adv-x="1089" d="M41 0v219l432 434l94 68l-499 -47v307h974v-219l-417 -418l-109 -84l533 47v-307h-1008z" />
<glyph unicode="{" horiz-adv-x="958" d="M61 473v320h146q23 0 22 34v197q0 229 144 340q137 109 469 149l55 -319q-197 -25 -238 -51.5t-41 -118.5v-197q0 -113 -77 -194q78 -90 77 -193v-198q0 -92 41 -119.5t238 -52.5l-55 -320q-332 41 -472.5 152.5t-140.5 341.5v196q0 33 -22 33h-146z" />
<glyph unicode="|" horiz-adv-x="430" d="M61 -479v1995h308v-1995h-308z" />
<glyph unicode="}" horiz-adv-x="958" d="M61 70q197 25 242 53q37 27 37 119v198q0 102 78 193q-78 82 -78 194v197q0 92 -37 117q-45 29 -242 53l56 319q332 -41 472 -150.5t140 -338.5v-197q0 -35 23 -34h145v-320h-145q-23 0 -23 -33v-196q0 -229 -140 -341t-472 -153z" />
<glyph unicode="~" horiz-adv-x="1206" d="M31 598q45 389 348 389q84 0 230.5 -44t213.5 -46q12 16 39 131l314 -119q-45 -393 -349 -393q-80 0 -225 45t-219 45q-14 -23 -39 -135z" />
<glyph unicode="&#xa1;" horiz-adv-x="579" d="M61 0l101 891h258l98 -891h-457zM96 1024v354h389v-354h-389z" />
<glyph unicode="&#xa2;" horiz-adv-x="1210" d="M82 483q0 514 500 543v162h133v-162q45 -4 352 -43l-57 -297q-98 12 -295 29v-447q106 12 293 72l120 -287l-227 -59q-82 -20 -186 -29v-151h-133v151q-217 14 -351 139q-150 139 -149 379zM471 487q0 -188 111 -215v447q-61 -14 -86 -63.5t-25 -168.5z" />
<glyph unicode="&#xa3;" horiz-adv-x="1396" d="M82 0v313h88q59 0 80 17q12 10 12 39l2 184h-160v313h164l2 135q4 207 138 312q121 94 325 94q145 0 336 -45l164 -39l-84 -307l-88 22q-217 55 -297 56q-102 0 -105 -97l-2 -131h365v-313h-369v-172q0 -41 -8 -74l64 6h510v-313h-1137z" />
<glyph unicode="&#xa4;" horiz-adv-x="1366" d="M61 367v274h134v23q-2 18 -2 24q0 14 2 47h-134v275h162q47 211 185 307q125 86 344 86q143 0 331 -31l164 -26l-67 -310l-187 33q-129 23 -223 23q-117 0 -152 -82h242v-275h-274l-2 -47l2 -47h274v-274h-250q29 -78 127 -78t277 45l137 35l113 -301l-211 -52 q-186 -45 -334 -45q-403 0 -494 396h-164z" />
<glyph unicode="&#xa5;" horiz-adv-x="1607" d="M164 1251l328 170l274 -454l39 -97l41 97l270 454l328 -170l-262 -420h207v-313h-390v-76h390v-313h-390v-129h-389v129h-389v313h389v76h-389v313h205z" />
<glyph unicode="&#xa7;" horiz-adv-x="1153" d="M82 -104l100 294q281 -78 402 -77q33 0 63 14q39 16 39 47q0 33 -143 64q-182 39 -264 90q-143 88 -144 266q0 117 84 221q-92 88 -92 229q0 147 122 253t326 106q109 0 472 -53l-74 -306q-279 51 -379 52q-82 0 -82 -52q0 -12 18.5 -18t38.5 -10q59 -12 191 -43 q305 -86 305 -359q0 -106 -80 -208q86 -93 86 -230q0 -158 -125 -262q-133 -111 -350 -111q-176 0 -514 93zM520 608q0 -23 40 -34t87 -21q33 38 33 61q0 29 -16 37q-35 16 -93 29q-51 -47 -51 -72z" />
<glyph unicode="&#xa8;" horiz-adv-x="1150" d="M184 1190v346h308v-346h-308zM655 1190v346h308v-346h-308z" />
<glyph unicode="&#xa9;" horiz-adv-x="1681" d="M82 688q0 297 222 507t538 210q313 0 535 -210t222 -507t-222 -508t-535 -211q-315 0 -537.5 211t-222.5 508zM401 688q0 -174 129 -296t312 -122q161 1 286 99l-88 -13q-133 -18 -202 -18q-172 0 -256 78q-90 86 -90 274q0 350 346 350q80 0 202 -18l82 -12 q-123 94 -280 94q-182 0 -311.5 -122t-129.5 -294zM782 690q0 -125 74 -125q23 0 102 15l127 22l54 -223q145 123 145 309q0 184 -145 307l-54 -219l-127 23q-80 14 -102 14q-74 0 -74 -123z" />
<glyph unicode="&#xaa;" horiz-adv-x="862" d="M61 944q0 86 64.5 144.5t183.5 58.5h140l-3 51q0 8 -36 8q-66 0 -134 -12l-143 -18l-45 202l109 19q147 20 225 20q102 0 178 -37q100 -49 102 -151l7 -273l92 -108l-211 -141l-76 88l-72 -33q-90 -39 -155 -39q-98 0 -162 67.5t-64 153.5zM66 471v209h696v-209h-696z M317 936q0 -12 25 -12q12 0 47 6l64 14v27l-68 -4q-68 -4 -68 -31z" />
<glyph unicode="&#xab;" horiz-adv-x="1370" d="M0 498l494 485l241 -195l-237 -290l237 -291l-241 -195zM635 498l493 485l242 -195l-237 -290l237 -291l-242 -195z" />
<glyph unicode="&#xad;" horiz-adv-x="901" d="M102 430v332h697v-332h-697z" />
<glyph unicode="&#xae;" horiz-adv-x="1681" d="M82 688q0 297 222 507t538 210q313 0 535 -210t222 -507t-222 -508t-535 -211q-315 0 -537.5 211t-222.5 508zM401 688q0 -168 123 -291v580q-123 -123 -123 -289zM596 1032h297q129 0 209 -69q72 -66 72 -160q0 -115 -103 -182l21 -17l108 -160q84 107 84 244 q0 172 -130 294t-312 122q-135 0 -246 -72zM614 330q102 -59 228 -60q184 0 311 121l-215 -67l-78 149l-45 102v-245h-201zM815 752l41 2q47 2 47 37q0 29 -41 32l-47 4v-75z" />
<glyph unicode="&#xaf;" horiz-adv-x="1095" d="M217 1251v250h655v-250h-655z" />
<glyph unicode="&#xb0;" horiz-adv-x="927" d="M82 1032q0 158 112.5 269.5t270.5 111.5t269.5 -111.5t111.5 -269.5t-111.5 -270.5t-269.5 -112.5q-160 0 -271.5 111.5t-111.5 271.5zM246 1032q0 -90 64.5 -154.5t154.5 -64.5t153.5 64.5t63.5 154.5t-63.5 153.5t-153.5 63.5q-92 0 -155.5 -63.5t-63.5 -153.5z" />
<glyph unicode="&#xb4;" horiz-adv-x="983" d="M154 1298l499 283l174 -274l-538 -230z" />
<glyph unicode="&#xb6;" horiz-adv-x="1431" d="M20 897q0 195 144 332q156 150 418 149h829v-1585h-389v1268h-98v-1268h-389v631q-246 18 -388 162q-127 131 -127 311zM408 901q0 -116 127 -153v307q-127 -37 -127 -154z" />
<glyph unicode="&#xb7;" horiz-adv-x="675" d="M143 532v418h389v-418h-389z" />
<glyph unicode="&#xb8;" horiz-adv-x="1042" d="M254 -459l96 197q27 -27 82 -51.5t98 -24.5q47 0 48 37q0 82 -273 115l144 286l225 -96l-43 -82q94 -16 151 -94q52 -67 52 -145q0 -109 -84 -181.5t-215 -72.5q-162 0 -281 112z" />
<glyph unicode="&#xba;" horiz-adv-x="823" d="M61 1057q0 360 349 360q352 0 352 -360q0 -344 -352 -344q-348 0 -349 344zM80 471v209h655v-209h-655zM317 1057q0 -72 13 -96q20 -33 80 -33q61 0 82 33q14 24 14 96q0 94 -21 123q-18 23 -75 22q-55 0 -72 -22q-20 -29 -21 -123z" />
<glyph unicode="&#xbb;" horiz-adv-x="1370" d="M0 207l238 291l-238 290l242 195l493 -485l-493 -486zM635 207l237 291l-237 290l242 195l493 -485l-493 -486z" />
<glyph unicode="&#xbf;" horiz-adv-x="1140" d="M41 387q0 176 109 283q27 27 202 141q111 70 115 156h373q0 -184 -109 -297q-39 -39 -205 -142q-109 -68 -108 -141q0 -92 170 -92q135 0 321 137l232 -244q-287 -211 -557 -211q-242 0 -392.5 116t-150.5 294zM463 1092v286h379v-286h-379z" />
<glyph unicode="&#xc0;" horiz-adv-x="1425" d="M-20 45l544 1333h377l545 -1333l-375 -80l-135 336l-72 -10h-303l-72 12l-135 -338zM393 1581l121 301l543 -194l-94 -240zM602 602l53 4h111l55 -4l-26 78l-54 209l-28 158h-4l-29 -156l-53 -211z" />
<glyph unicode="&#xc1;" horiz-adv-x="1425" d="M-20 45l544 1333h377l545 -1333l-375 -80l-135 336l-72 -10h-303l-72 12l-135 -338zM375 1688l543 194l120 -301l-569 -133zM602 602l53 4h111l55 -4l-26 78l-54 209l-28 158h-4l-29 -156l-53 -211z" />
<glyph unicode="&#xc2;" horiz-adv-x="1425" d="M-20 45l544 1333h377l545 -1333l-375 -80l-135 336l-72 -10h-303l-72 12l-135 -338zM334 1657l379 229l381 -229l-115 -211l-266 113l-269 -113zM602 602l53 4h111l55 -4l-26 78l-54 209l-28 158h-4l-29 -156l-53 -211z" />
<glyph unicode="&#xc3;" horiz-adv-x="1425" d="M-20 45l544 1333h377l545 -1333l-375 -80l-135 336l-72 -10h-303l-72 12l-135 -338zM293 1548q33 281 289 281q63 0 139 -36t94 -36q82 0 103 88l186 -80q-33 -285 -289 -284q-63 0 -138 35.5t-95 35.5q-84 0 -103 -84zM602 602l53 4h111l55 -4l-26 78l-54 209l-28 158 h-4l-29 -156l-53 -211z" />
<glyph unicode="&#xc4;" horiz-adv-x="1425" d="M-20 45l544 1333h377l545 -1333l-375 -80l-135 336l-72 -10h-303l-72 12l-135 -338zM328 1518v325h307v-325h-307zM602 602l53 4h111l55 -4l-26 78l-54 209l-28 158h-4l-29 -156l-53 -211zM797 1518v325h307v-325h-307z" />
<glyph unicode="&#xc5;" horiz-adv-x="1425" d="M-20 45l538 1317q-106 68 -106 203q0 111 65 178q76 78 234 78q301 0 301 -256q0 -137 -105 -201l539 -1319l-375 -80l-135 336l-72 -10h-303l-72 12l-135 -338zM602 602l53 4h111l55 -4l-26 78l-54 209l-28 158h-4l-29 -156l-53 -211zM641 1565q0 -35 70 -35q71 0 71 35 q0 43 -71 43q-70 0 -70 -43z" />
<glyph unicode="&#xc6;" horiz-adv-x="1974" d="M-20 61l727 1317h1189v-315l-636 27v-240l497 24v-325l-497 26v-288l653 26v-313h-1043v291h-290l-62 8l-184 -336zM670 598l67 8h133v359l-41 -105l-112 -205z" />
<glyph unicode="&#xc7;" horiz-adv-x="1280" d="M61 688q0 385 160 557q145 158 455 158q145 0 336 -31l166 -26l-68 -310l-135 25q-168 31 -287 31q-131 0 -178 -74q-57 -84 -57 -330q0 -236 45 -318.5t164 -82.5q88 0 270 45l174 43l113 -301l-236 -58q-184 -45 -342 -45q-580 0 -580 717zM336 -459l96 197 q27 -27 82 -51.5t98 -24.5q47 0 48 37q0 82 -273 115l144 286l225 -96l-43 -82q94 -16 151 -94q52 -67 52 -145q0 -109 -84 -181.5t-215 -72.5q-162 0 -281 112z" />
<glyph unicode="&#xc8;" horiz-adv-x="1206" d="M102 0v1378h1026v-315l-636 27v-240l497 27v-326l-497 24v-286l653 26v-315h-1043zM270 1581l121 301l543 -194l-94 -240z" />
<glyph unicode="&#xc9;" horiz-adv-x="1206" d="M102 0v1378h1026v-315l-636 27v-240l497 27v-326l-497 24v-286l653 26v-315h-1043zM272 1688l543 194l121 -301l-569 -133z" />
<glyph unicode="&#xca;" horiz-adv-x="1206" d="M102 0v1378h1026v-315l-636 27v-240l497 27v-326l-497 24v-286l653 26v-315h-1043zM231 1657l379 229l381 -229l-114 -211l-267 113l-268 -113z" />
<glyph unicode="&#xcb;" horiz-adv-x="1206" d="M102 0v1378h1026v-315l-636 27v-240l497 27v-326l-497 24v-286l653 26v-315h-1043zM221 1518v325h307v-325h-307zM692 1518v325h307v-325h-307z" />
<glyph unicode="&#xcc;" horiz-adv-x="552" d="M-55 1581l121 301l542 -194l-94 -240zM102 0v1378h390v-1378h-390z" />
<glyph unicode="&#xcd;" horiz-adv-x="552" d="M-55 1688l542 194l121 -301l-569 -133zM102 0v1378h390v-1378h-390z" />
<glyph unicode="&#xce;" horiz-adv-x="552" d="M-104 1657l378 229l381 -229l-114 -211l-267 113l-268 -113zM102 0v1378h390v-1378h-390z" />
<glyph unicode="&#xcf;" horiz-adv-x="552" d="M-113 1518v325h308v-325h-308zM102 0v1378h390v-1378h-390zM358 1518v325h308v-325h-308z" />
<glyph unicode="&#xd0;" horiz-adv-x="1550" d="M0 653l238 115v610h540q311 0 500 -155q211 -176 211 -516q0 -328 -198.5 -517.5t-512.5 -189.5h-540v406l-58 -27zM627 293l149 12q324 27 324 402q0 203 -96 288q-72 63 -226 78l-151 14v-133l57 29l180 -274l-237 -115v-301z" />
<glyph unicode="&#xd1;" horiz-adv-x="1406" d="M102 0v1378h355l405 -655l60 -135h4l-11 135v655h390v-1378h-353l-405 657l-64 142h-4l13 -142v-657h-390zM293 1548q33 281 289 281q63 0 139 -36t94 -36q82 0 103 88l186 -80q-33 -285 -289 -284q-63 0 -138 35.5t-95 35.5q-84 0 -103 -84z" />
<glyph unicode="&#xd2;" d="M61 688q0 717 682 717q678 0 678 -717q0 -719 -678 -719q-682 0 -682 719zM414 1581l121 301l542 -194l-94 -240zM451 688q0 -217 55 -303q63 -100 237 -100q186 0 248 121q41 79 41 282t-41 283q-61 119 -248 119q-176 0 -239 -99q-53 -86 -53 -303z" />
<glyph unicode="&#xd3;" d="M61 688q0 717 682 717q678 0 678 -717q0 -719 -678 -719q-682 0 -682 719zM375 1688l543 194l120 -301l-569 -133zM451 688q0 -217 55 -303q63 -100 237 -100q186 0 248 121q41 79 41 282t-41 283q-61 119 -248 119q-176 0 -239 -99q-53 -86 -53 -303z" />
<glyph unicode="&#xd4;" d="M61 688q0 717 682 717q678 0 678 -717q0 -719 -678 -719q-682 0 -682 719zM360 1657l379 229l381 -229l-114 -211l-267 113l-268 -113zM451 688q0 -217 55 -303q63 -100 237 -100q186 0 248 121q41 79 41 282t-41 283q-61 119 -248 119q-176 0 -239 -99q-53 -86 -53 -303 z" />
<glyph unicode="&#xd5;" d="M61 688q0 717 682 717q678 0 678 -717q0 -719 -678 -719q-682 0 -682 719zM313 1548q33 281 289 281q63 0 139 -36t95 -36q82 0 102 88l186 -80q-33 -285 -288 -284q-63 0 -138 35.5t-96 35.5q-84 0 -102 -84zM451 688q0 -217 55 -303q63 -100 237 -100q186 0 248 121 q41 79 41 282t-41 283q-61 119 -248 119q-176 0 -239 -99q-53 -86 -53 -303z" />
<glyph unicode="&#xd6;" d="M61 688q0 717 682 717q678 0 678 -717q0 -719 -678 -719q-682 0 -682 719zM354 1518v325h308v-325h-308zM451 688q0 -217 55 -303q63 -100 237 -100q186 0 248 121q41 79 41 282t-41 283q-61 119 -248 119q-176 0 -239 -99q-53 -86 -53 -303zM825 1518v325h308v-325h-308 z" />
<glyph unicode="&#xd8;" d="M61 688q0 717 682 717q242 0 400 -90l119 151l127 -92l-125 -157q157 -175 157 -529q0 -719 -678 -719q-242 0 -399 90l-119 -151l-127 92l123 156q-160 176 -160 532zM451 688q0 -145 20 -219l457 575q-68 45 -185 46q-176 0 -239 -99q-53 -86 -53 -303zM559 330 q63 -45 184 -45q186 0 248 121q41 79 41 282q0 145 -16 215z" />
<glyph unicode="&#xd9;" horiz-adv-x="1439" d="M102 410v968h390v-968q0 -63 36 -91q49 -37 191 -36q143 0 192 36q37 27 37 91v968h389v-968q0 -205 -147 -318q-160 -123 -471 -123t-471 123q-145 113 -146 318zM373 1581l121 301l542 -194l-94 -240z" />
<glyph unicode="&#xda;" horiz-adv-x="1439" d="M102 410v968h390v-968q0 -63 36 -91q49 -37 191 -36q143 0 192 36q37 27 37 91v968h389v-968q0 -205 -147 -318q-160 -123 -471 -123t-471 123q-145 113 -146 318zM354 1688l543 194l121 -301l-569 -133z" />
<glyph unicode="&#xdb;" horiz-adv-x="1439" d="M102 410v968h390v-968q0 -63 36 -91q49 -37 191 -36q143 0 192 36q37 27 37 91v968h389v-968q0 -205 -147 -318q-160 -123 -471 -123t-471 123q-145 113 -146 318zM342 1657l379 229l381 -229l-115 -211l-266 113l-268 -113z" />
<glyph unicode="&#xdc;" horiz-adv-x="1439" d="M102 410v968h390v-968q0 -63 36 -91q49 -37 191 -36q143 0 192 36q37 27 37 91v968h389v-968q0 -205 -147 -318q-160 -123 -471 -123t-471 123q-145 113 -146 318zM328 1518v325h307v-325h-307zM799 1518v325h307v-325h-307z" />
<glyph unicode="&#xdd;" horiz-adv-x="1320" d="M-20 1251l325 168l295 -463l59 -116h5l57 116l295 463l325 -168l-485 -712v-539h-389v537zM293 1688l543 194l120 -301l-569 -133z" />
<glyph unicode="&#xde;" horiz-adv-x="1286" d="M102 0v1378h390v-250h268q223 0 356 -137q119 -123 119 -301q0 -201 -139.5 -322.5t-345.5 -121.5q-61 0 -146 6l-112 8v-260h-390zM492 528l225 21q131 12 131 139q0 55 -26.5 92t-63.5 39l-266 17v-308z" />
<glyph unicode="&#xdf;" horiz-adv-x="1595" d="M20 733v248h179v250q0 156 153 242q131 74 324 73q225 0 391 -92q193 -111 193 -303q0 -123 -56 -205q-27 -41 -104 -106q-55 -49 -56 -86q0 -14 54.5 -33t173.5 -57q282 -98 282 -338q0 -158 -137 -256q-147 -104 -401 -105q-119 0 -391 88l104 295q227 -78 283 -78 q145 0 145 60q0 25 -133 59q-166 43 -244 98q-133 94 -133 267q0 121 58 213q35 53 108 118q57 53 57 74q0 94 -172 94q-111 0 -110 -22v-1231h-389v686z" />
<glyph unicode="&#xe0;" horiz-adv-x="1196" d="M20 303q0 125 97 207q106 90 297 90h252l-4 102q0 12 -31 13q-115 0 -355 -29l-137 -16l-71 293l202 26q203 27 330 27q170 0 289 -53q158 -72 162 -218l10 -432l145 -155l-321 -199l-125 135l-119 -49q-158 -66 -264 -65q-156 0 -260 102q-96 96 -97 221zM236 1307 l174 274l499 -283l-135 -221zM383 295q0 -53 66 -53q45 0 90 14l133 43l-2 84l-162 -6q-125 -4 -125 -82z" />
<glyph unicode="&#xe1;" horiz-adv-x="1196" d="M20 303q0 125 97 207q106 90 297 90h252l-4 102q0 12 -31 13q-115 0 -355 -29l-137 -16l-71 293l202 26q203 27 330 27q170 0 289 -53q158 -72 162 -218l10 -432l145 -155l-321 -199l-125 135l-119 -49q-158 -66 -264 -65q-156 0 -260 102q-96 96 -97 221zM195 1298 l499 283l174 -274l-538 -230zM383 295q0 -53 66 -53q45 0 90 14l133 43l-2 84l-162 -6q-125 -4 -125 -82z" />
<glyph unicode="&#xe2;" horiz-adv-x="1196" d="M20 303q0 125 97 207q106 90 297 90h252l-4 102q0 12 -31 13q-115 0 -355 -29l-137 -16l-71 293l202 26q203 27 330 27q170 0 289 -53q158 -72 162 -218l10 -432l145 -155l-321 -199l-125 135l-119 -49q-158 -66 -264 -65q-156 0 -260 102q-96 96 -97 221zM178 1296 l389 283l391 -283l-127 -211l-264 154l-266 -154zM383 295q0 -53 66 -53q45 0 90 14l133 43l-2 84l-162 -6q-125 -4 -125 -82z" />
<glyph unicode="&#xe3;" horiz-adv-x="1196" d="M20 303q0 125 97 207q106 90 297 90h252l-4 102q0 12 -31 13q-115 0 -355 -29l-137 -16l-71 293l202 26q203 27 330 27q170 0 289 -53q158 -72 162 -218l10 -432l145 -155l-321 -199l-125 135l-119 -49q-158 -66 -264 -65q-156 0 -260 102q-96 96 -97 221zM148 1270 q33 281 289 280q63 0 139 -35.5t94 -35.5q82 0 103 88l186 -80q-33 -285 -289 -285q-63 0 -138 36t-95 36q-84 0 -103 -84zM383 295q0 -53 66 -53q45 0 90 14l133 43l-2 84l-162 -6q-125 -4 -125 -82z" />
<glyph unicode="&#xe4;" horiz-adv-x="1196" d="M20 303q0 125 97 207q106 90 297 90h252l-4 102q0 12 -31 13q-115 0 -355 -29l-137 -16l-71 293l202 26q203 27 330 27q170 0 289 -53q158 -72 162 -218l10 -432l145 -155l-321 -199l-125 135l-119 -49q-158 -66 -264 -65q-156 0 -260 102q-96 96 -97 221zM184 1190v346 h308v-346h-308zM383 295q0 -53 66 -53q45 0 90 14l133 43l-2 84l-162 -6q-125 -4 -125 -82zM655 1190v346h308v-346h-308z" />
<glyph unicode="&#xe5;" horiz-adv-x="1196" d="M20 303q0 125 97 207q106 90 297 90h252l-4 102q0 12 -31 13q-115 0 -355 -29l-137 -16l-71 293l202 26q203 27 330 27q170 0 289 -53q158 -72 162 -218l10 -432l145 -155l-321 -199l-125 135l-119 -49q-158 -66 -264 -65q-156 0 -260 102q-96 96 -97 221zM266 1339 q0 111 65 179q76 78 234 77q301 0 301 -256q0 -117 -78 -182t-223 -65q-143 0 -221 65.5t-78 181.5zM383 295q0 -53 66 -53q45 0 90 14l133 43l-2 84l-162 -6q-125 -4 -125 -82zM495 1339q0 -35 70 -34q72 -1 72 34q0 43 -72 43q-70 0 -70 -43z" />
<glyph unicode="&#xe6;" horiz-adv-x="1773" d="M20 303q0 121 97 203q106 90 297 94l250 4q0 27 -2 98q0 12 -31 13q-109 0 -352 -29l-140 -16l-71 293l202 26q203 27 330 27q182 0 297 -66q109 59 293 60q268 0 401 -133q113 -113 113 -304q0 -41 -10 -174l-623 -22q39 -125 166 -125q92 0 279 63l102 35l115 -268 l-191 -64q-154 -51 -309 -51q-270 0 -422 146l-199 -82q-127 -51 -235 -51q-154 0 -258 102q-98 96 -99 221zM383 295q0 -53 66 -53q45 0 90 14l151 49q-12 45 -16 78l-166 -6q-125 -4 -125 -82zM1055 612l309 4q-14 129 -162 129q-135 0 -147 -133z" />
<glyph unicode="&#xe7;" horiz-adv-x="1095" d="M51 481q0 535 549 535q133 0 291 -27l145 -24l-57 -291l-109 14q-201 27 -274 27q-86 0 -117 -37q-39 -49 -39 -191q0 -221 181 -221q78 0 229 49l127 41l119 -282l-224 -68q-129 -39 -258 -39q-242 0 -393 125q-170 139 -170 389zM254 -459l96 197q27 -27 82 -51.5 t98 -24.5q47 0 48 37q0 82 -273 115l144 286l225 -96l-43 -82q94 -16 151 -94q52 -67 52 -145q0 -109 -84 -181.5t-215 -72.5q-162 0 -281 112z" />
<glyph unicode="&#xe8;" horiz-adv-x="1157" d="M51 481q0 225 78 344q121 184 444 185q268 0 402 -133q113 -113 112 -304q0 -25 -10 -196l-628 24q33 -150 172 -149q92 0 278 63l102 35l115 -268l-190 -64q-154 -51 -310 -51q-242 0 -393 123q-172 135 -172 391zM256 1307l174 274l499 -283l-135 -221zM442 621l306 12 q-18 113 -160 112q-131 0 -146 -124z" />
<glyph unicode="&#xe9;" horiz-adv-x="1157" d="M51 481q0 225 78 344q121 184 444 185q268 0 402 -133q113 -113 112 -304q0 -25 -10 -196l-628 24q33 -150 172 -149q92 0 278 63l102 35l115 -268l-190 -64q-154 -51 -310 -51q-242 0 -393 123q-172 135 -172 391zM236 1298l499 283l174 -274l-538 -230zM442 621l306 12 q-18 113 -160 112q-131 0 -146 -124z" />
<glyph unicode="&#xea;" horiz-adv-x="1157" d="M51 481q0 225 78 344q121 184 444 185q268 0 402 -133q113 -113 112 -304q0 -25 -10 -196l-628 24q33 -150 172 -149q92 0 278 63l102 35l115 -268l-190 -64q-154 -51 -310 -51q-242 0 -393 123q-172 135 -172 391zM199 1296l389 283l391 -283l-127 -211l-264 154 l-266 -154zM442 621l306 12q-18 113 -160 112q-131 0 -146 -124z" />
<glyph unicode="&#xeb;" horiz-adv-x="1157" d="M51 481q0 225 78 344q121 184 444 185q268 0 402 -133q113 -113 112 -304q0 -25 -10 -196l-628 24q33 -150 172 -149q92 0 278 63l102 35l115 -268l-190 -64q-154 -51 -310 -51q-242 0 -393 123q-172 135 -172 391zM204 1190v346h308v-346h-308zM442 621l306 12 q-18 113 -160 112q-131 0 -146 -124zM675 1190v346h308v-346h-308z" />
<glyph unicode="&#xec;" horiz-adv-x="593" d="M-41 1307l174 274l500 -283l-135 -221zM102 0v981h390v-981h-390z" />
<glyph unicode="&#xed;" horiz-adv-x="593" d="M-41 1298l500 283l174 -274l-539 -230zM102 0v981h390v-981h-390z" />
<glyph unicode="&#xee;" horiz-adv-x="593" d="M-94 1296l389 283l391 -283l-127 -211l-264 154l-266 -154zM102 0v981h390v-981h-390z" />
<glyph unicode="&#xef;" horiz-adv-x="593" d="M-92 1190v346h307v-346h-307zM102 0v981h390v-981h-390zM379 1190v346h307v-346h-307z" />
<glyph unicode="&#xf0;" horiz-adv-x="1228" d="M51 453q0 248 156 378q145 121 401 123q-47 55 -82 76l-215 -106l-182 278l98 45l-61 31l196 283q106 -53 136 -70q43 -23 100 -64l209 103l182 -279l-106 -49q160 -186 229 -368q66 -170 66 -379q0 -231 -138 -363q-147 -139 -426 -139q-258 0 -405 123 q-158 129 -158 377zM440 453q0 -111 45 -150q35 -31 129 -31t129 31q45 39 45 150q0 113 -45 151q-35 31 -129 31t-129 -31q-45 -39 -45 -151z" />
<glyph unicode="&#xf1;" horiz-adv-x="1277" d="M0 831l317 197l115 -121l127 62q111 53 234 53q154 0 262 -82q121 -92 121 -248v-692h-390v690q0 35 -61 35q-35 0 -113 -16l-77 -17v-692h-390v674zM209 1270q33 281 289 280q63 0 139 -35.5t94 -35.5q82 0 103 88l186 -80q-33 -285 -289 -285q-63 0 -138 36t-95 36 q-84 0 -103 -84z" />
<glyph unicode="&#xf2;" horiz-adv-x="1232" d="M51 477q0 539 563 539q568 0 568 -539q0 -514 -568 -514q-563 0 -563 514zM256 1307l174 274l499 -283l-135 -221zM440 477q0 -133 41 -178q35 -39 133 -39q100 0 139.5 43t39.5 174q0 150 -39 199q-35 43 -140 43q-102 0 -135 -43q-39 -49 -39 -199z" />
<glyph unicode="&#xf3;" horiz-adv-x="1232" d="M51 477q0 539 563 539q568 0 568 -539q0 -514 -568 -514q-563 0 -563 514zM256 1298l499 283l174 -274l-538 -230zM440 477q0 -133 41 -178q35 -39 133 -39q100 0 139.5 43t39.5 174q0 150 -39 199q-35 43 -140 43q-102 0 -135 -43q-39 -49 -39 -199z" />
<glyph unicode="&#xf4;" horiz-adv-x="1232" d="M51 477q0 539 563 539q568 0 568 -539q0 -514 -568 -514q-563 0 -563 514zM226 1296l389 283l391 -283l-127 -211l-264 154l-266 -154zM440 477q0 -133 41 -178q35 -39 133 -39q100 0 139.5 43t39.5 174q0 150 -39 199q-35 43 -140 43q-102 0 -135 -43q-39 -49 -39 -199z " />
<glyph unicode="&#xf5;" horiz-adv-x="1232" d="M51 477q0 539 563 539q568 0 568 -539q0 -514 -568 -514q-563 0 -563 514zM188 1270q33 281 289 280q63 0 139 -35.5t94 -35.5q82 0 103 88l186 -80q-33 -285 -289 -285q-63 0 -138 36t-95 36q-84 0 -103 -84zM440 477q0 -133 41 -178q35 -39 133 -39q100 0 139.5 43 t39.5 174q0 150 -39 199q-35 43 -140 43q-102 0 -135 -43q-39 -49 -39 -199z" />
<glyph unicode="&#xf6;" horiz-adv-x="1232" d="M51 477q0 539 563 539q568 0 568 -539q0 -514 -568 -514q-563 0 -563 514zM225 1190v346h308v-346h-308zM440 477q0 -133 41 -178q35 -39 133 -39q100 0 139.5 43t39.5 174q0 150 -39 199q-35 43 -140 43q-102 0 -135 -43q-39 -49 -39 -199zM696 1190v346h308v-346h-308z " />
<glyph unicode="&#xf7;" horiz-adv-x="1208" d="M20 430v332h1168v-332h-1168zM438 12v316h332v-316h-332zM438 864v316h332v-316h-332z" />
<glyph unicode="&#xf8;" horiz-adv-x="1232" d="M51 477q0 539 563 539q182 0 306 -55l131 157l123 -92l-125 -152q133 -131 133 -397q0 -514 -568 -514q-168 0 -286 49l-135 -162l-123 93l125 149q-143 133 -144 385zM440 477q0 -39 4 -84l263 314q-29 12 -93 12q-102 0 -135 -43q-39 -49 -39 -199zM541 266 q31 -6 73 -6q100 0 139.5 43t39.5 174q0 39 -5 88z" />
<glyph unicode="&#xf9;" horiz-adv-x="1277" d="M102 289v692h390v-698q0 -27 49 -27q47 0 125 16l77 17v692h390v-674l145 -157l-317 -197l-115 121l-127 -62q-111 -53 -234 -53q-154 0 -262 82q-121 92 -121 248zM297 1307l174 274l499 -283l-135 -221z" />
<glyph unicode="&#xfa;" horiz-adv-x="1277" d="M102 289v692h390v-698q0 -27 49 -27q47 0 125 16l77 17v692h390v-674l145 -157l-317 -197l-115 121l-127 -62q-111 -53 -234 -53q-154 0 -262 82q-121 92 -121 248zM256 1298l499 283l174 -274l-538 -230z" />
<glyph unicode="&#xfb;" horiz-adv-x="1277" d="M102 289v692h390v-698q0 -27 49 -27q47 0 125 16l77 17v692h390v-674l145 -157l-317 -197l-115 121l-127 -62q-111 -53 -234 -53q-154 0 -262 82q-121 92 -121 248zM240 1296l389 283l391 -283l-127 -211l-264 154l-266 -154z" />
<glyph unicode="&#xfc;" horiz-adv-x="1277" d="M102 289v692h390v-698q0 -27 49 -27q47 0 125 16l77 17v692h390v-674l145 -157l-317 -197l-115 121l-127 -62q-111 -53 -234 -53q-154 0 -262 82q-121 92 -121 248zM231 1190v346h308v-346h-308zM702 1190v346h308v-346h-308z" />
<glyph unicode="&#xfd;" horiz-adv-x="1222" d="M-123 -303l207 260l47 -27q117 -66 162 -65q49 0 92 102l35 84l-66 119l-364 745l366 109l224 -508l38 -149l41 149l226 510l358 -117l-530 -1122q-55 -117 -172 -180q-106 -55 -236 -56q-158 0 -344 101zM256 1298l499 283l174 -274l-538 -230z" />
<glyph unicode="&#xfe;" horiz-adv-x="1218" d="M102 -449v1965h390v-537q98 37 200 37q203 0 336 -133q139 -139 139 -375t-118 -379q-125 -145 -336 -145q-94 0 -221 39v-472h-390zM492 276q61 -6 112 -6q90 0 125 37q45 51 45 209q0 207 -147 207q-45 0 -135 -25v-422z" />
<glyph unicode="&#xff;" horiz-adv-x="1222" d="M-123 -303l207 260l47 -27q117 -66 162 -65q49 0 92 102l35 84l-66 119l-364 745l366 109l224 -508l38 -149l41 149l226 510l358 -117l-530 -1122q-55 -117 -172 -180q-106 -55 -236 -56q-158 0 -344 101zM215 1190v346h308v-346h-308zM686 1190v346h308v-346h-308z" />
<glyph unicode="&#x152;" horiz-adv-x="1984" d="M61 688q0 690 703 690h1143v-315l-637 27v-240l497 27v-326l-497 24v-286l653 26v-315h-1159q-702 0 -703 688zM451 688q0 -203 63 -285q68 -88 250 -88h117v748h-117q-182 0 -252 -88q-61 -82 -61 -287z" />
<glyph unicode="&#x153;" horiz-adv-x="1900" d="M51 477q0 539 563 539q236 0 365 -92q121 86 338 86q268 0 401 -133q113 -113 113 -304q0 -25 -10 -196l-629 24q33 -150 172 -149q92 0 278 63l103 35l115 -268l-191 -64q-154 -51 -309 -51q-223 0 -359 109q-125 -113 -387 -113q-563 0 -563 514zM440 477 q0 -133 41 -178q35 -39 133 -39q100 0 139.5 43t39.5 174q0 150 -39 199q-35 43 -140 43q-102 0 -135 -43q-39 -49 -39 -199zM1186 621l305 12q-18 113 -160 112q-131 0 -145 -124z" />
<glyph unicode="&#x178;" horiz-adv-x="1320" d="M-20 1251l325 168l295 -463l59 -116h5l57 116l295 463l325 -168l-485 -712v-539h-389v537zM266 1518v325h307v-325h-307zM737 1518v325h307v-325h-307z" />
<glyph unicode="&#x2c6;" horiz-adv-x="1095" d="M158 1296l389 283l391 -283l-127 -211l-264 154l-266 -154z" />
<glyph unicode="&#x2dc;" horiz-adv-x="1142" d="M168 1270q33 281 289 280q63 0 139 -35.5t94 -35.5q82 0 103 88l186 -80q-33 -285 -289 -285q-63 0 -138 36t-95 36q-84 0 -103 -84z" />
<glyph unicode="&#x2000;" horiz-adv-x="943" />
<glyph unicode="&#x2001;" horiz-adv-x="1886" />
<glyph unicode="&#x2002;" horiz-adv-x="943" />
<glyph unicode="&#x2003;" horiz-adv-x="1886" />
<glyph unicode="&#x2004;" horiz-adv-x="628" />
<glyph unicode="&#x2005;" horiz-adv-x="471" />
<glyph unicode="&#x2006;" horiz-adv-x="314" />
<glyph unicode="&#x2007;" horiz-adv-x="314" />
<glyph unicode="&#x2008;" horiz-adv-x="235" />
<glyph unicode="&#x2009;" horiz-adv-x="377" />
<glyph unicode="&#x200a;" horiz-adv-x="104" />
<glyph unicode="&#x2010;" horiz-adv-x="901" d="M102 430v332h697v-332h-697z" />
<glyph unicode="&#x2011;" horiz-adv-x="901" d="M102 430v332h697v-332h-697z" />
<glyph unicode="&#x2012;" horiz-adv-x="901" d="M102 430v332h697v-332h-697z" />
<glyph unicode="&#x2013;" horiz-adv-x="1024" d="M0 430v332h1024v-332h-1024z" />
<glyph unicode="&#x2014;" horiz-adv-x="2048" d="M0 430v332h2048v-332h-2048z" />
<glyph unicode="&#x2018;" horiz-adv-x="714" d="M-20 717l473 690l282 -168l-362 -747z" />
<glyph unicode="&#x2019;" horiz-adv-x="714" d="M-20 659l362 748l393 -225l-473 -690z" />
<glyph unicode="&#x201a;" horiz-adv-x="755" d="M-20 -281l362 748l393 -225l-473 -691z" />
<glyph unicode="&#x201c;" horiz-adv-x="1308" d="M-20 717l473 690l282 -168l-362 -747zM573 717l474 690l282 -168l-362 -747z" />
<glyph unicode="&#x201d;" horiz-adv-x="1308" d="M-20 659l362 748l393 -225l-473 -690zM573 659l363 748l393 -225l-473 -690z" />
<glyph unicode="&#x201e;" horiz-adv-x="1349" d="M-20 -281l362 748l393 -225l-473 -691zM573 -281l363 748l393 -225l-473 -691z" />
<glyph unicode="&#x2022;" horiz-adv-x="978" d="M143 635q0 143 101.5 244.5t244.5 101.5t245 -101.5t102 -244.5t-101.5 -244.5t-245.5 -101.5q-143 0 -244.5 101.5t-101.5 244.5z" />
<glyph unicode="&#x202f;" horiz-adv-x="377" />
<glyph unicode="&#x2039;" horiz-adv-x="776" d="M20 498l494 485l242 -195l-238 -290l238 -291l-242 -195z" />
<glyph unicode="&#x203a;" horiz-adv-x="755" d="M20 207l238 291l-238 290l242 195l494 -485l-494 -486z" />
<glyph unicode="&#x205f;" horiz-adv-x="471" />
<glyph unicode="&#x2122;" horiz-adv-x="1710" d="M61 1130v248h678v-248l-188 41v-456h-299v456zM725 725l82 653h276l115 -323l115 323h272l84 -653l-301 -23l-10 271l-47 -258h-230l-47 258l-10 -271z" />
<glyph unicode="&#x25fc;" horiz-adv-x="1024" d="M0 0v1024h1024v-1024h-1024z" />
</font>
</defs>
</svg>
