<?xml version="1.0" standalone="no"?>
<!DOCTYPE svg PUBLIC "-//W3C//DTD SVG 1.1//EN" "http://www.w3.org/Graphics/SVG/1.1/DTD/svg11.dtd" >
<svg xmlns="http://www.w3.org/2000/svg">
<metadata></metadata>
<defs>
<font id="anomolybolditalic" horiz-adv-x="1427" >
<font-face units-per-em="2048" ascent="1638" descent="-410" />
<missing-glyph horiz-adv-x="491" />
<glyph horiz-adv-x="0" />
<glyph unicode="&#xd;" horiz-adv-x="491" />
<glyph unicode=" "  horiz-adv-x="491" />
<glyph unicode="&#x09;" horiz-adv-x="491" />
<glyph unicode="&#xa0;" horiz-adv-x="491" />
<glyph unicode="!" horiz-adv-x="591" d="M-20 0l71 336h307l-71 -336h-307zM143 473l103 905h366l-284 -905h-185z" />
<glyph unicode="&#x22;" horiz-adv-x="1001" d="M123 760l41 618h366l-223 -618h-184zM614 760l41 618h367l-223 -618h-185z" />
<glyph unicode="#" d="M0 375l51 243h281l78 170h-217l51 242h274l170 379l256 -53l-147 -326h131l170 379l256 -53l-148 -326h221l-51 -242h-278l-80 -170h219l-51 -243h-277l-178 -398l-256 48l156 350h-131l-178 -398l-256 48l155 350h-221zM618 618h123l78 170h-131z" />
<glyph unicode="$" horiz-adv-x="1267" d="M-51 106l127 228q270 -104 403 -105h27l76 363q-188 70 -252 115q-131 92 -131 247q0 219 180 336q147 94 373 103l34 163h66l-35 -163q181 -6 410 -80l-80 -232q-233 70 -365 70h-16l-64 -305q170 -61 250 -123q127 -100 127 -260q0 -217 -164 -348q-152 -123 -397 -133 l-35 -168h-65l35 168q-203 4 -504 124zM522 954q0 -45 119 -86l59 277q-178 -27 -178 -191zM573 238q183 35 183 225q0 61 -113 106z" />
<glyph unicode="%" horiz-adv-x="1605" d="M0 905q0 102 43 228q92 266 377 266q166 0 248 -90q63 -74 63 -191q0 -57 -14 -119q-37 -156 -94 -235q-106 -139 -314 -139q-166 0 -246 92q-63 72 -63 188zM117 82l1138 1366l246 -137l-1139 -1370zM270 909q0 -51 47 -51q51 0 79 38t48 128q17 72 17 86q0 55 -49 55 q-86 0 -125 -166q-16 -72 -17 -90zM874 256q0 102 44 227q92 266 376 267q166 0 248 -91q64 -73 64 -190q0 -57 -15 -119q-37 -156 -94 -235q-106 -139 -313 -140q-166 0 -246 93q-63 72 -64 188zM1145 260q0 -51 47 -51q51 0 78.5 38t48.5 128q16 72 16 86q0 55 -49 55 q-86 0 -125 -166q-16 -72 -16 -90z" />
<glyph unicode="&#x26;" horiz-adv-x="1392" d="M10 336q0 135 79 252t210 170q-88 68 -88 194q0 209 160 332q147 113 370 113q203 0 325 -92.5t122 -260.5q0 -57 -10 -102h-308q14 66 15 98q0 106 -150 107q-96 0 -155.5 -51.5t-59.5 -141.5q0 -100 230 -100l-54 -250q-182 0 -264 -41q-115 -59 -115 -215 q0 -147 211 -147q145 0 213 57q51 45 74 150l64 294h514l-54 -251l-200 26l-21 -88q-43 -188 -139 -285q-154 -154 -465 -153q-276 0 -405 135q-98 100 -99 250z" />
<glyph unicode="'" horiz-adv-x="571" d="M123 760l41 618h366l-223 -618h-184z" />
<glyph unicode="(" horiz-adv-x="788" d="M41 389q0 322 182 619q195 319 543 508l125 -236q-264 -141 -416 -401q-141 -242 -141 -490q0 -135 53 -231q57 -104 199 -207l-203 -203q-342 242 -342 641z" />
<glyph unicode=")" horiz-adv-x="768" d="M-143 -16q264 141 417 403q139 240 140 487q0 135 -54 232q-57 104 -198 207l203 203q342 -243 342 -642q0 -322 -183 -618q-195 -319 -542 -508z" />
<glyph unicode="*" horiz-adv-x="1021" d="M0 905l141 269l193 -68l90 -64l-4 119l47 217h287l-47 -217l-54 -119l119 60l221 67l29 -268l-221 -67l-123 -11l65 -80l93 -176l-230 -168l-90 176l-43 113l-72 -113l-163 -176l-205 168l164 176l108 80l-112 15z" />
<glyph unicode="+" horiz-adv-x="1261" d="M61 471l54 250h417l89 418h249l-88 -418h418l-53 -250h-418l-88 -418h-250l88 418h-418z" />
<glyph unicode="," horiz-adv-x="696" d="M-195 -264l461 674l287 -183l-549 -620z" />
<glyph unicode="-" horiz-adv-x="872" d="M102 471l54 250h614l-53 -250h-615z" />
<glyph unicode="." horiz-adv-x="571" d="M10 0l70 336h307l-70 -336h-307z" />
<glyph unicode="/" horiz-adv-x="835" d="M-113 27l795 1396l266 -102l-794 -1397z" />
<glyph unicode="0" horiz-adv-x="1290" d="M41 436q0 119 29 254q70 326 176 479q174 250 514 250q489 0 489 -475q0 -109 -30 -254q-70 -326 -177 -479q-172 -250 -512 -250q-489 0 -489 475zM336 428q0 -215 207 -215q176 0 266 152q53 92 102 325q41 192 41 264q0 213 -204 213q-178 0 -269 -151 q-53 -92 -102 -326q-41 -193 -41 -262z" />
<glyph unicode="1" horiz-adv-x="1099" d="M164 1034l581 344h232l-295 -1378h-307l231 1030l-295 -207z" />
<glyph unicode="2" horiz-adv-x="1171" d="M-61 0l41 197l753 632q133 113 133 205q0 57 -43 94t-110 37q-168 0 -285 -198l-258 80q197 369 553 368q176 0 302 -100t126 -252q0 -221 -229 -414l-514 -430l591 31l-51 -250h-1009z" />
<glyph unicode="3" horiz-adv-x="1206" d="M-20 215l260 141q100 -141 258 -141q111 0 194 59q94 66 94 170q0 154 -217 154h-170l52 250h143q268 0 268 188q0 59 -44 94t-113 35q-131 0 -259 -137l-213 141q195 246 484 246q217 0 340 -119q108 -104 108 -258q0 -113 -61 -202q-68 -96 -178 -127v-4 q170 -66 170 -263q0 -180 -150 -319q-172 -160 -450 -160q-352 0 -516 252z" />
<glyph unicode="4" horiz-adv-x="1290" d="M20 238l50 233l665 963l252 -115l-598 -856l234 8l53 254h307l-51 -242l256 9l-55 -254h-254l-50 -238h-307l49 238h-551z" />
<glyph unicode="5" horiz-adv-x="1177" d="M-61 219l254 152q94 -158 243 -158q115 0 207 81t92 193q0 176 -264 177q-158 0 -332 -52l162 766h856l-51 -250l-543 33l-53 -250q41 4 63 4q195 0 326 -102q143 -113 143 -307q0 -250 -186 -402q-170 -141 -420 -141q-160 0 -266 47q-137 59 -231 209z" />
<glyph unicode="6" horiz-adv-x="1243" d="M20 385q0 303 283 616q299 336 723 445l45 -250q-311 -88 -504 -287q41 6 86 6q190 0 322 -102q145 -114 145 -313q0 -250 -194 -404q-176 -137 -418 -137q-203 0 -338 104q-150 117 -150 322zM313 391q0 -92 62 -143q53 -45 139 -45q119 0 209 78q100 86 100 221 q0 170 -211 170q-133 0 -237 -62q-61 -115 -62 -219z" />
<glyph unicode="7" horiz-adv-x="1013" d="M6 61l780 1100l-665 -33l53 250h963l-50 -233l-808 -1198z" />
<glyph unicode="8" horiz-adv-x="1271" d="M41 342q0 244 258 412q-66 86 -66 188q0 223 175 354q152 117 368 117q188 0 316 -90q139 -98 139 -266q0 -209 -199 -344q102 -102 103 -248q0 -236 -195 -375q-172 -125 -412 -125q-203 0 -338 94q-150 102 -149 283zM344 346q0 -68 53.5 -103.5t132.5 -35.5 q115 0 201 65q98 74 98 195q0 61 -32.5 92t-122.5 41q-41 4 -125 16q-90 -37 -147.5 -110.5t-57.5 -159.5zM528 942q0 -68 93 -88q37 -4 157 -23q72 33 115 101q37 60 37 121q0 55 -45 86.5t-113 31.5q-94 0 -164 -55q-80 -66 -80 -174z" />
<glyph unicode="9" horiz-adv-x="1243" d="M123 877q0 250 196 403q174 137 416 137q203 0 338 -104q150 -117 150 -322q0 -303 -281 -616q-301 -336 -725 -445l-45 250q311 88 504 287q-39 -6 -86 -6q-190 0 -322 102q-145 115 -145 314zM420 874q0 -170 211 -169q133 0 237 61q62 115 62 219q0 92 -60 143 q-55 45 -141 46q-119 0 -209 -78q-100 -86 -100 -222z" />
<glyph unicode=":" horiz-adv-x="552" d="M20 0l70 336h307l-69 -336h-308zM156 645l69 336h307l-69 -336h-307z" />
<glyph unicode=";" horiz-adv-x="657" d="M-195 -264l461 674l287 -183l-549 -620zM240 645l69 336h307l-69 -336h-307z" />
<glyph unicode="&#x3c;" horiz-adv-x="1163" d="M41 393l45 205l1118 442l-65 -299l-742 -256l633 -256l-59 -278z" />
<glyph unicode="=" horiz-adv-x="1232" d="M0 246l53 250h1086l-54 -250h-1085zM94 696l53 250h1086l-53 -250h-1086z" />
<glyph unicode="&#x3e;" horiz-adv-x="1163" d="M-41 -49l66 299l741 256l-633 256l60 278l929 -442l-45 -205z" />
<glyph unicode="?" horiz-adv-x="997" d="M61 0l58 264h297l-58 -264h-297zM66 1219q256 182 481 182q209 0 340 -102.5t131 -254.5q0 -287 -352 -448q-94 -43 -142 -82q-59 -53 -82 -137h-290q43 172 149 282q66 68 199 140q123 68 153 92q76 66 76 151q0 111 -184 111q-162 0 -340 -131z" />
<glyph unicode="@" horiz-adv-x="1579" d="M41 457q0 440 209 702q231 289 672 289q626 0 626 -543q0 -207 -67 -370q-80 -188 -232 -269l92 -182q-344 -188 -657 -188q-326 0 -489 153q-154 143 -154 408zM322 432q0 -141 75 -211q88 -82 289 -82q197 0 379 78q-12 -2 -37 -2q-180 0 -229 115q-90 -29 -152 -29 q-96 0 -162 61q-72 66 -71 177q0 195 108 335q119 154 309 154q129 0 238 -57l76 71l125 -108q-2 135 -80 201q-86 70 -279 69q-309 0 -462 -243q-127 -203 -127 -529zM655 549q0 -68 82 -68q25 0 58 8l149 347q-41 8 -70 8q-100 0 -163 -101q-55 -86 -56 -194zM1034 416h21 q88 0 149 151q46 119 62 275l-82 -74z" />
<glyph unicode="A" horiz-adv-x="1376" d="M-123 37l811 1341h303l242 -1341l-297 -66l-57 344l-56 -6h-405l-51 6l-191 -344zM496 555l53 6h237l52 -6l-37 299l-23 223z" />
<glyph unicode="B" horiz-adv-x="1341" d="M0 0l295 1378h563q178 0 285 -104q96 -95 96 -230q0 -106 -71.5 -202.5t-174.5 -128.5q98 -18 151.5 -93t53.5 -176q0 -170 -127 -299q-145 -145 -385 -145h-686zM356 225l322 21q88 6 149.5 61t61.5 139q0 123 -101 129l-352 23zM479 797l281 22q70 6 117 65.5t47 131.5 q0 109 -99 117l-270 20z" />
<glyph unicode="C" horiz-adv-x="1144" d="M41 428q0 115 31 260q86 406 236.5 560.5t447.5 154.5q197 0 471 -57l-103 -242q-270 51 -366 51q-156 0 -236 -96q-84 -102 -141 -371q-37 -174 -37 -264q0 -201 188 -201q125 0 437 84l35 -239q-305 -96 -504 -97q-459 0 -459 457z" />
<glyph unicode="D" horiz-adv-x="1392" d="M0 0l295 1378h479q250 0 402 -125q165 -139 165 -391q0 -358 -215 -604q-227 -258 -585 -258h-541zM356 223l199 19q223 20 356 211q121 174 121 407q0 145 -86 213q-68 51 -201 64l-192 18z" />
<glyph unicode="E" horiz-adv-x="1157" d="M0 0l295 1378h944l-53 -250l-631 29l-74 -340l504 27l-55 -258l-492 26l-84 -391l660 29l-53 -250h-961z" />
<glyph unicode="F" horiz-adv-x="1157" d="M0 0l295 1378h944l-53 -250l-631 29l-74 -340l504 27l-55 -258l-492 26l-131 -612h-307z" />
<glyph unicode="G" horiz-adv-x="1329" d="M41 428q0 115 31 260q86 406 236.5 560.5t447.5 154.5q207 0 481 -57l-102 -242q-270 51 -377 51q-156 0 -236 -96q-84 -102 -141 -371q-37 -174 -37 -264q0 -201 188 -201q102 0 281 56l57 270l-278 -29l53 250h580l-142 -659l-241 -76q-203 -63 -342 -64 q-459 0 -459 457z" />
<glyph unicode="H" horiz-adv-x="1421" d="M0 0l295 1378h307l-115 -534h512l115 534h307l-295 -1378h-307l127 594h-512l-127 -594h-307z" />
<glyph unicode="I" horiz-adv-x="602" d="M0 0l295 1378h307l-295 -1378h-307z" />
<glyph unicode="J" horiz-adv-x="1050" d="M-123 57l146 232q201 -76 321 -76q154 0 191 176l208 989h308l-222 -1042q-80 -375 -510 -375q-223 0 -442 96z" />
<glyph unicode="K" horiz-adv-x="1296" d="M0 0l293 1378h307l-115 -534l107 -17l534 578l252 -143l-557 -568l307 -612l-292 -115l-285 643l-119 -16l-125 -594h-307z" />
<glyph unicode="L" horiz-adv-x="1140" d="M0 0l295 1378h307l-248 -1157l643 29l-53 -250h-944z" />
<glyph unicode="M" horiz-adv-x="1789" d="M-51 10l430 1368h330l122 -991l130 279l417 712h340l-151 -1368l-307 -28l90 675l51 279l-522 -936h-248l-92 657l-13 279l-268 -954z" />
<glyph unicode="N" horiz-adv-x="1415" d="M0 0l295 1378h291l268 -686l64 -217l190 903h307l-295 -1378h-289l-268 686l-65 217l-191 -903h-307z" />
<glyph unicode="O" d="M41 457q0 104 31 235q80 328 190 469q190 244 584 244q274 0 414 -137q126 -127 126 -350q0 -104 -30 -236q-80 -328 -191 -469q-190 -244 -583 -244q-274 0 -414 137q-127 125 -127 351zM344 444q0 -227 258 -227q213 0 320 148q74 100 125 329q36 160 36 236 q0 227 -258 227q-213 0 -319 -147q-74 -100 -125 -330q-37 -160 -37 -236z" />
<glyph unicode="P" horiz-adv-x="1294" d="M0 0l295 1378h594q180 0 287 -116q98 -107 98 -265q0 -197 -139 -335q-160 -158 -441 -158h-278l-109 -504h-307zM463 729l287 25q94 8 154.5 79.5t60.5 165.5q0 127 -97 134l-315 20z" />
<glyph unicode="Q" d="M41 457q0 109 31 235q80 326 190 469q190 244 584 244q274 0 414 -137q126 -127 126 -350q0 -109 -30 -236q-59 -248 -125 -367q-111 -205 -311 -286l110 -174l-291 -172l-135 286h-22q-274 0 -414 137q-127 125 -127 351zM344 444q0 -227 258 -227q213 0 320 148 q74 100 125 329q36 166 36 236q0 227 -258 227q-213 0 -319 -147q-74 -100 -125 -330q-37 -166 -37 -236z" />
<glyph unicode="R" horiz-adv-x="1300" d="M0 0l295 1378h594q182 0 291 -110q100 -104 100 -254q0 -143 -94 -260q-106 -129 -289 -170l61 -121l152 -404l-291 -88l-205 590h-186l-121 -561h-307zM475 786l287 25q98 8 156 74q51 57 51 129q0 113 -101 119l-315 20z" />
<glyph unicode="S" horiz-adv-x="1193" d="M-41 106l127 228q260 -104 393 -105q283 0 283 224q0 72 -146 129q-229 88 -272 116q-145 94 -145 256q0 229 198 346q158 92 396 93q190 0 421 -80l-79 -232q-188 70 -363 70q-256 0 -256 -186q0 -51 146 -107q203 -76 272 -123q145 -102 145 -272q0 -225 -176 -357 q-163 -124 -420 -124h-4q-238 0 -520 124z" />
<glyph unicode="T" horiz-adv-x="1171" d="M143 1128l54 250h1097l-53 -250l-391 23l-246 -1151h-307l246 1151z" />
<glyph unicode="U" horiz-adv-x="1386" d="M61 334q0 41 11 90l202 954h308l-209 -983q-6 -29 -6 -51q0 -80 71 -106q49 -18 166 -19q172 0 242 53q47 37 65 123l209 983h307l-217 -1020q-41 -197 -172 -286q-150 -102 -446 -103q-262 0 -404 107q-127 96 -127 258z" />
<glyph unicode="V" horiz-adv-x="1359" d="M143 1321l293 88l182 -1018l113 258l469 758l283 -86l-821 -1321h-256z" />
<glyph unicode="W" horiz-adv-x="1796" d="M143 1354l299 53l33 -756l-8 -256h6l78 256l315 727h326l2 -727l-10 -256h6l76 256l358 758l295 -53l-666 -1356h-301l-12 711l21 293h-7l-104 -293l-295 -711h-315z" />
<glyph unicode="X" horiz-adv-x="1349" d="M-61 90l567 615l-293 583l266 117l236 -490l448 492l248 -133l-559 -600l297 -596l-264 -115l-242 502l-459 -508z" />
<glyph unicode="Y" horiz-adv-x="1267" d="M143 1268l250 139l262 -655l90 166l398 489l248 -139l-625 -727l-115 -541h-307l115 539z" />
<glyph unicode="Z" horiz-adv-x="1200" d="M-82 0l41 184l729 834l148 139l-641 -29l53 250h1018l-41 -184l-727 -834l-150 -139l696 29l-53 -250h-1073z" />
<glyph unicode="[" horiz-adv-x="817" d="M-20 -233l364 1714h555l-53 -250h-248l-258 -1215h264l-53 -249h-571z" />
<glyph unicode="\" horiz-adv-x="819" d="M164 1321l282 102l209 -1396l-282 -103z" />
<glyph unicode="]" horiz-adv-x="755" d="M-143 -233l53 249h248l258 1215h-264l53 250h571l-364 -1714h-555z" />
<glyph unicode="_" horiz-adv-x="651" d="M-276 -260l36 164h861l-37 -164h-860z" />
<glyph unicode="`" horiz-adv-x="983" d="M346 1317l178 237l410 -264l-133 -186z" />
<glyph unicode="a" horiz-adv-x="1124" d="M0 240q0 131 100 223q113 104 303 104h283l29 156v10q0 41 -62 41q-143 0 -471 -45l-2 236q299 51 494 51q141 0 239 -53q117 -63 117 -179q0 -23 -4 -43l-88 -456l94 -146l-287 -168l-92 142q-193 -133 -374 -133q-137 0 -211 79q-68 70 -68 181zM301 264q0 -53 92 -53 q82 0 234 47l22 119l-235 -21q-113 -10 -113 -92z" />
<glyph unicode="b" horiz-adv-x="1263" d="M-20 139l155 146l262 1231h308l-121 -566q123 61 241 62q156 0 252 -101q105 -108 105 -303q0 -266 -144 -440q-156 -188 -420 -188q-158 0 -294 112l-129 -121zM434 244q90 -37 168 -37q137 0 209 149q55 117 55 273q0 159 -170 159h-2q-37 0 -147 -14z" />
<glyph unicode="c" horiz-adv-x="1036" d="M41 383q0 283 147 453q156 180 435 180q202 0 403 -47l-94 -236q-178 39 -311 39q-139 0 -211 -129q-57 -104 -58 -258q0 -178 172 -178q127 0 353 88l41 -227q-240 -100 -420 -101q-211 0 -334 115t-123 301z" />
<glyph unicode="d" horiz-adv-x="1196" d="M41 379q0 272 149.5 450.5t389.5 178.5q123 0 249 -58l121 566h307l-262 -1231l95 -146l-285 -168l-80 121q-172 -112 -329 -112h-3q-154 0 -246 94q-106 106 -106 305zM352 362q0 -155 142 -155h2q78 0 184 37l113 530q-80 12 -142 12q-156 0 -235 -139 q-63 -113 -64 -285z" />
<glyph unicode="e" horiz-adv-x="1118" d="M41 389q0 287 143 449q154 172 445 172q203 0 309 -105q98 -94 98 -254q0 -100 -53 -239l-637 26q-4 -41 -4 -55q0 -176 184 -176q111 0 373 94l41 -227q-225 -104 -442 -105q-201 0 -318 90q-139 109 -139 330zM377 596l379 14q4 33 4 45q0 119 -166 119 q-172 0 -217 -178z" />
<glyph unicode="f" horiz-adv-x="880" d="M61 793l39 188h179l61 285q61 286 381 286h2h5q160 0 347 -69l-123 -221q-168 49 -215 49q-80 0 -94 -64l-57 -266h297l-52 -240h-296l-158 -741h-307l157 741z" />
<glyph unicode="g" horiz-adv-x="1226" d="M-82 -350l135 221q166 -98 314 -98q213 0 268 237l8 35q-123 -57 -246 -57q-154 0 -247 98q-100 104 -101 299q0 258 137 436q152 195 402 195q170 0 315 -113l129 121l215 -168l-155 -145l-154 -725q-96 -455 -592 -455q-217 0 -428 119zM360 367q0 -160 170 -160 q39 0 150 14l113 531q-86 34 -154 34h-4q-135 0 -207 -120q-68 -111 -68 -299z" />
<glyph unicode="h" horiz-adv-x="1224" d="M20 0l324 1516h307l-127 -590q154 96 320 96q125 0 201.5 -73.5t76.5 -188.5q0 -41 -6 -70l-147 -690h-307l149 707q2 10 2 20q0 57 -94 57q-61 0 -234 -43l-157 -741h-308z" />
<glyph unicode="i" horiz-adv-x="600" d="M20 0l209 981h308l-209 -981h-308zM274 1190l70 326h307l-69 -326h-308z" />
<glyph unicode="j" horiz-adv-x="600" d="M-358 -449l55 261q170 0 227 34q76 45 111 211l194 924h308l-205 -969q-57 -270 -232 -372q-150 -88 -458 -89zM274 1190l70 326h307l-69 -326h-308z" />
<glyph unicode="k" horiz-adv-x="1159" d="M20 0l324 1516h307l-184 -861l51 -16l492 377l170 -215l-437 -297l263 -400l-265 -145l-274 463l-51 -16l-88 -406h-308z" />
<glyph unicode="l" horiz-adv-x="600" d="M20 0l324 1516h307l-323 -1516h-308z" />
<glyph unicode="m" horiz-adv-x="1765" d="M20 0l150 702l-94 146l284 168l82 -123l90 53q123 72 242 72q193 0 268 -117l76 45q123 72 242 72q139 0 221 -65.5t82 -182.5q0 -37 -10 -80l-146 -690h-307l152 713q2 10 2 16q0 51 -76 51q-49 0 -113 -16l-90 -21q-2 -18 -8 -53l-145 -690h-308l152 713q2 10 2 16 q0 51 -76 51q-49 0 -112 -16l-95 -23l-157 -741h-308z" />
<glyph unicode="n" horiz-adv-x="1224" d="M20 0l150 702l-94 146l284 168l82 -125l62 41q131 88 307 88q133 0 217 -59q94 -68 94 -195q0 -41 -8 -84q-39 -184 -145 -682h-307l149 707q2 6 2 20q0 57 -94 57q-70 0 -154 -22l-80 -21l-157 -741h-308z" />
<glyph unicode="o" horiz-adv-x="1196" d="M41 334q0 78 14 147q53 242 148 357q145 178 450 178q461 0 461 -381q0 -92 -14 -166q-51 -229 -166 -348q-152 -158 -436 -158q-457 0 -457 371zM336 336q0 -76 38 -107.5t130 -31.5q125 0 191.5 64.5t101.5 221.5q22 95 22 158q0 78 -37 109.5t-131 31.5 q-129 0 -192.5 -69.5t-102.5 -243.5q-20 -84 -20 -133z" />
<glyph unicode="p" horiz-adv-x="1210" d="M-72 -449l246 1151l-94 146l285 168l79 -121q174 113 334 113q152 0 246 -95q104 -106 104 -305q0 -272 -149.5 -450t-388.5 -178q-123 0 -250 57l-104 -486h-308zM377 213q80 -12 141 -12q156 0 236 139q63 113 63 285q0 155 -141 155h-2q-78 0 -185 -37z" />
<glyph unicode="q" horiz-adv-x="1222" d="M41 379q0 266 143 440q156 188 420 189q158 0 295 -113l129 121l215 -168l-156 -146l-245 -1151h-307l104 486q-123 -61 -242 -62q-156 0 -252 101q-104 109 -104 303zM356 358q0 -159 170 -159h2q37 0 148 14l112 530q-90 37 -167 37q-137 0 -209 -149 q-55 -117 -56 -273z" />
<glyph unicode="r" horiz-adv-x="831" d="M20 0l150 702l-94 146l284 168l86 -131q147 113 426 123l-43 -256q-188 0 -348 -33l-153 -719h-308z" />
<glyph unicode="s" horiz-adv-x="1050" d="M-41 27l80 231q266 -57 362 -57q193 0 193 106q0 43 -121 80q-166 51 -221 88q-121 78 -121 217q0 174 160 260q121 63 297 64q180 -1 422 -62l-82 -223q-236 53 -340 53q-152 0 -152 -79q0 -35 121 -72q160 -51 221 -94q121 -80 121 -217q0 -199 -174 -289 q-127 -68 -326 -68q-195 0 -440 62z" />
<glyph unicode="t" horiz-adv-x="884" d="M82 793l41 188h178l84 397h307l-84 -397h297l-51 -240h-297l-102 -481q-2 -4 -2 -8q0 -29 47 -29q35 0 82 15l159 51l45 -232l-192 -57q-90 -27 -170 -27q-123 0 -197 54q-86 59 -86 174q0 33 11 78l98 462z" />
<glyph unicode="u" horiz-adv-x="1224" d="M61 215q0 45 9 84l145 682h307l-149 -707q-2 -10 -2 -20q0 -57 94 -57q66 0 153 22l80 21l158 741h307l-149 -702l94 -146l-285 -168l-82 125l-61 -41q-131 -88 -307 -88q-133 0 -217 59q-94 68 -95 195z" />
<glyph unicode="v" horiz-adv-x="1196" d="M82 930l289 86l153 -727l101 215l315 512l297 -88l-641 -928h-270z" />
<glyph unicode="w" horiz-adv-x="1617" d="M82 946l291 72l47 -418l14 -225l96 225l207 381h279l37 -381l12 -221l92 221l221 418l281 -72l-557 -946h-256l-31 422v233l-104 -233l-213 -422h-258z" />
<glyph unicode="x" horiz-adv-x="1110" d="M-82 117l451 397l-256 365l254 133l213 -307l352 311l219 -158l-422 -371l275 -391l-263 -137l-223 338l-373 -342z" />
<glyph unicode="y" horiz-adv-x="1159" d="M-307 -317l194 202q106 -84 174 -84q80 0 148 111l82 129l-39 141l-191 744l285 90l156 -723l104 221l322 502l272 -96l-760 -1151q-141 -217 -393 -218q-176 0 -354 132z" />
<glyph unicode="z" horiz-adv-x="1087" d="M-20 0l38 180l519 482l143 102l-516 -27l51 244h893l-39 -180l-518 -482l-137 -102l542 27l-51 -244h-925z" />
<glyph unicode="{" horiz-adv-x="804" d="M20 506l54 254h104q63 0 80 76l57 266q47 219 188.5 313t424.5 94h10l-14 -264q-180 -14 -236.5 -53t-81.5 -160l-45 -215q-25 -119 -137 -201q55 -70 55 -155q0 -23 -4 -47l-39 -191q-12 -59 -12 -84q0 -61 49 -86.5t189 -44.5l-97 -254q-233 31 -339.5 118t-106.5 243 q0 53 16 135l37 182q2 10 2 21q0 53 -49 53h-105z" />
<glyph unicode="|" horiz-adv-x="589" d="M-72 -479l426 1995h308l-426 -1995h-308z" />
<glyph unicode="}" horiz-adv-x="835" d="M-133 -246l14 264q180 14 236.5 53.5t81.5 159.5l45 215q25 119 137 201q-55 70 -55 156q0 23 4 47l39 190q12 59 12 84q0 61 -49 87t-189 44l97 254q233 -31 339.5 -117.5t106.5 -242.5q0 -53 -16 -135l-37 -183q-2 -10 -2 -20q0 -53 49 -53h104l-53 -254h-104 q-63 0 -80 -76l-58 -266q-47 -219 -188 -313.5t-424 -94.5h-10z" />
<glyph unicode="~" horiz-adv-x="1191" d="M41 666q106 322 381 321q80 0 214 -45t198 -45q45 0 96 117l221 -90q-106 -326 -383 -326q-78 0 -210 45t-202 45q-43 0 -96 -121z" />
<glyph unicode="&#xa1;" horiz-adv-x="591" d="M-20 0l284 905h185l-103 -905h-366zM233 1042l72 336h307l-71 -336h-308z" />
<glyph unicode="&#xa2;" horiz-adv-x="1077" d="M41 383q0 283 147 453q156 180 435 180h55l37 172h63l-37 -176q162 -12 295 -43l-94 -236q-139 31 -252 37l-119 -561q141 16 316 86l41 -227q-225 -96 -408 -101l-33 -153h-63l33 153q-193 12 -304.5 126t-111.5 290zM352 385q0 -168 156 -178l119 565h-6 q-139 0 -211 -129q-57 -104 -58 -258z" />
<glyph unicode="&#xa3;" horiz-adv-x="1230" d="M-82 0l53 250h47q131 0 154 98l53 238h-159l53 250h164l45 198q84 373 473 373q204 0 450 -78l-116 -246q-203 74 -330 74q-145 0 -176 -141l-39 -180h364l-53 -250h-369l-53 -242q-14 -63 -53 -108l133 14h467l-53 -250h-1055z" />
<glyph unicode="&#xa4;" horiz-adv-x="1269" d="M41 389l49 229h133q10 47 27 140h-131l49 229h154q76 227 206 324q125 92 336 92q222 0 447 -53l-105 -246q-172 51 -334 51q-90 0 -146 -37t-97 -131h256l-49 -229h-279q-20 -82 -29 -140h279l-49 -229h-262v-6q0 -158 155 -158q96 0 393 76l35 -240q-299 -90 -458 -90 q-197 0 -306 95q-119 102 -118 303v20h-156z" />
<glyph unicode="&#xa5;" horiz-adv-x="1372" d="M41 201l53 250h389l21 98h-389l53 250h256l-184 477l256 131l202 -608h15l88 166l352 442l240 -139l-377 -469h237l-53 -250h-389l-20 -98h389l-54 -250h-389l-43 -201h-307l43 201h-389z" />
<glyph unicode="&#xa7;" horiz-adv-x="1085" d="M-20 -104l81 229q221 -57 330 -57q78 0 140.5 33.5t62.5 93.5q0 33 -119 65q-156 45 -217 86q-119 76 -119 211q0 176 174 309q-70 70 -69 172q0 178 145 279q127 88 305 88q168 0 412 -68l-96 -233q-209 53 -316 53q-63 0 -110 -27q-53 -27 -54 -69q0 -27 119 -66 q154 -49 221 -96q119 -86 119 -227q0 -166 -168 -297q59 -72 60 -174q0 -184 -162 -293q-137 -92 -328 -92q-156 0 -411 80zM424 588q0 -33 70 -58l98 -24q113 75 113 147q0 47 -156 95q-125 -80 -125 -160z" />
<glyph unicode="&#xa8;" horiz-adv-x="1150" d="M295 1210l65 306h267l-66 -306h-266zM745 1210l66 306h266l-65 -306h-267z" />
<glyph unicode="&#xa9;" horiz-adv-x="1697" d="M82 563q0 334 272.5 588t620.5 254q272 0 456.5 -172t184.5 -424q0 -332 -271.5 -586t-619.5 -254q-272 0 -457.5 171t-185.5 423zM338 567q0 -158 106.5 -257t280.5 -99q242 0 440.5 184.5t198.5 411.5q0 158 -107.5 257t-281.5 99q-242 0 -439.5 -184t-197.5 -412z M530 563q0 45 13 105q41 188 119.5 265t226.5 77q143 0 258 -29l-62 -164q-127 29 -186 29q-57 0 -91 -38t-56 -140q-14 -70 -15 -103q0 -76 80 -76q51 0 215 43l31 -157q-172 -51 -264 -51q-123 0 -193 59q-76 63 -76 180z" />
<glyph unicode="&#xaa;" horiz-adv-x="786" d="M20 492l41 188h656l-41 -188h-656zM129 928q0 100 76 159.5t178 59.5h160l16 84v2q0 14 -27 14q-78 0 -217 -18l-77 -10l-2 163l116 17q131 18 211 18q84 0 144 -33q72 -41 71 -114q0 -23 -2 -33l-53 -268l63 -97l-202 -118l-56 86q-162 -76 -231 -76q-78 0 -125 51 q-43 45 -43 113zM330 952q0 -18 28 -18q27 0 68 8l80 16l10 43l-113 -8q-74 -6 -73 -41z" />
<glyph unicode="&#xab;" horiz-adv-x="1216" d="M20 498l535 450l150 -153l-295 -297l143 -318l-170 -133zM573 498l535 450l149 -153l-294 -297l143 -318l-170 -133z" />
<glyph unicode="&#xad;" horiz-adv-x="872" d="M102 471l54 250h614l-53 -250h-615z" />
<glyph unicode="&#xae;" horiz-adv-x="1697" d="M82 563q0 334 272.5 588t620.5 254q272 0 456.5 -172t184.5 -424q0 -332 -271.5 -586t-619.5 -254q-272 0 -457.5 171t-185.5 423zM338 567q0 -158 106.5 -257t280.5 -99q242 0 440.5 184.5t198.5 411.5q0 158 -107.5 257t-281.5 99q-242 0 -439.5 -184t-197.5 -412z M508 350l139 662h328q90 0 146.5 -54.5t56.5 -128.5q0 -160 -179 -204l37 -54l74 -172l-195 -67l-79 205l-19 59h-49l-51 -246h-209zM799 739l110 17q58 8 58 67q0 29 -27 33l-113 14z" />
<glyph unicode="&#xaf;" horiz-adv-x="1095" d="M338 1272l45 209h614l-45 -209h-614z" />
<glyph unicode="&#xb0;" horiz-adv-x="825" d="M184 991q0 168 133.5 298t300.5 130q133 0 221.5 -87t88.5 -216q0 -168 -134.5 -297t-301.5 -129q-133 0 -220.5 86t-87.5 215zM313 991q0 -76 48.5 -124t130.5 -48q115 0 211 92t96 205q0 76 -50.5 125t-130.5 49q-117 0 -211 -92t-94 -207z" />
<glyph unicode="&#xb4;" horiz-adv-x="983" d="M319 1290l459 264l142 -237l-484 -213z" />
<glyph unicode="&#xb6;" horiz-adv-x="1476" d="M143 872q0 201 142 345q158 162 424 161h809l-336 -1585h-308l283 1333h-139l-283 -1333h-307l139 662q-201 2 -317 131q-106 115 -107 286zM455 870q0 -158 168 -163l88 419q-113 -4 -189 -88q-68 -76 -67 -168z" />
<glyph unicode="&#xb7;" horiz-adv-x="520" d="M72 573l69 336h308l-70 -336h-307z" />
<glyph unicode="&#xb8;" horiz-adv-x="1042" d="M111 -455l110 158q80 -61 162 -61q80 0 80 67q0 90 -236 121l174 244l170 -80l-63 -88q170 -39 170 -203q0 -121 -94 -190q-86 -63 -213 -64q-168 0 -260 96z" />
<glyph unicode="&#xba;" horiz-adv-x="755" d="M20 492l41 188h615l-41 -188h-615zM119 997q0 45 8 80q31 152 88 223q90 117 283 117q299 0 299 -250q0 -37 -11 -90q-33 -147 -98 -221q-92 -102 -274 -102q-295 0 -295 243zM332 1004q0 -76 90 -76q66 0 98.5 30.5t50.5 118.5q13 61 13 90q0 76 -95 76 q-66 0 -96.5 -32.5t-50.5 -133.5q-10 -45 -10 -73z" />
<glyph unicode="&#xbb;" horiz-adv-x="1277" d="M-41 201l295 297l-143 317l170 133l362 -450l-534 -451zM512 201l295 297l-143 317l170 133l362 -450l-534 -451z" />
<glyph unicode="&#xbf;" horiz-adv-x="1089" d="M-20 334q0 289 352 448q96 43 141 82q59 53 82 137h291q-43 -172 -150 -282q-66 -66 -198 -139q-121 -66 -154 -93q-76 -66 -76 -151q0 -111 185 -111q162 0 340 131l139 -196q-256 -182 -481 -183q-209 0 -340 103.5t-131 253.5zM582 1114l57 264h297l-57 -264h-297z " />
<glyph unicode="&#xc0;" horiz-adv-x="1376" d="M-123 37l811 1341h303l242 -1341l-297 -66l-57 344l-56 -6h-405l-51 6l-191 -344zM496 555l53 6h237l52 -6l-37 299l-23 223zM551 1618l158 237l430 -202l-113 -187z" />
<glyph unicode="&#xc1;" horiz-adv-x="1376" d="M-123 37l811 1341h303l242 -1341l-297 -66l-57 344l-56 -6h-405l-51 6l-191 -344zM496 555l53 6h237l52 -6l-37 299l-23 223zM535 1659l448 199l141 -238l-483 -147z" />
<glyph unicode="&#xc2;" horiz-adv-x="1376" d="M-123 37l811 1341h303l242 -1341l-297 -66l-57 344l-56 -6h-405l-51 6l-191 -344zM481 1647l420 215l307 -215l-106 -177l-246 117l-256 -117zM496 555l53 6h237l52 -6l-37 299l-23 223z" />
<glyph unicode="&#xc3;" horiz-adv-x="1376" d="M-123 37l811 1341h303l242 -1341l-297 -66l-57 344l-56 -6h-405l-51 6l-191 -344zM449 1561q80 248 307 247q66 0 123 -35.5t77 -35.5q80 0 119 80l135 -64q-82 -252 -303 -252q-63 0 -121.5 36t-80.5 36q-84 0 -121 -76zM496 555l53 6h237l52 -6l-37 299l-23 223z" />
<glyph unicode="&#xc4;" horiz-adv-x="1376" d="M-123 37l811 1341h303l242 -1341l-297 -66l-57 344l-56 -6h-405l-51 6l-191 -344zM496 555l53 6h237l52 -6l-37 299l-23 223zM500 1538l61 285h266l-61 -285h-266zM950 1538l62 285h266l-61 -285h-267z" />
<glyph unicode="&#xc5;" horiz-adv-x="1376" d="M-123 37l797 1317q-96 51 -96 159q0 141 98 209q82 57 215 58q123 0 190.5 -57.5t67.5 -147.5q0 -176 -152 -234l236 -1304l-297 -66l-57 344l-56 -6h-405l-51 6l-191 -344zM496 555l53 6h237l52 -6l-37 299l-23 223zM764 1518q0 -31 76 -31q66 0 90 12q33 19 33 74 q0 35 -78 35q-66 0 -90 -15q-31 -18 -31 -75z" />
<glyph unicode="&#xc6;" horiz-adv-x="1894" d="M-123 51l965 1327h1134l-53 -250l-631 29l-71 -340l503 27l-55 -258l-491 26l-84 -391l659 29l-53 -250h-961l66 309h-334l-74 6l-250 -344zM567 553l70 8h221l131 610h-6l-117 -204z" />
<glyph unicode="&#xc7;" horiz-adv-x="1144" d="M41 428q0 115 31 260q86 406 236.5 560.5t447.5 154.5q197 0 471 -57l-103 -242q-270 51 -366 51q-156 0 -236 -96q-84 -102 -141 -371q-37 -174 -37 -264q0 -201 188 -201q125 0 437 84l35 -239q-305 -96 -504 -97q-459 0 -459 457zM111 -455l110 158q80 -61 162 -61 q80 0 80 67q0 90 -236 121l174 244l170 -80l-63 -88q170 -39 170 -203q0 -121 -94 -190q-86 -63 -213 -64q-168 0 -260 96z" />
<glyph unicode="&#xc8;" horiz-adv-x="1157" d="M0 0l295 1378h944l-53 -250l-631 29l-74 -340l504 27l-55 -258l-492 26l-84 -391l660 29l-53 -250h-961zM530 1618l158 237l430 -202l-112 -187z" />
<glyph unicode="&#xc9;" horiz-adv-x="1157" d="M0 0l295 1378h944l-53 -250l-631 29l-74 -340l504 27l-55 -258l-492 26l-84 -391l660 29l-53 -250h-961zM535 1659l448 199l141 -238l-483 -147z" />
<glyph unicode="&#xca;" horiz-adv-x="1157" d="M0 0l295 1378h944l-53 -250l-631 29l-74 -340l504 27l-55 -258l-492 26l-84 -391l660 29l-53 -250h-961zM440 1647l420 215l307 -215l-106 -177l-246 117l-256 -117z" />
<glyph unicode="&#xcb;" horiz-adv-x="1157" d="M0 0l295 1378h944l-53 -250l-631 29l-74 -340l504 27l-55 -258l-492 26l-84 -391l660 29l-53 -250h-961zM438 1538l62 285h266l-61 -285h-267zM889 1538l61 285h267l-62 -285h-266z" />
<glyph unicode="&#xcc;" horiz-adv-x="602" d="M0 0l295 1378h307l-295 -1378h-307zM223 1618l158 237l430 -202l-113 -187z" />
<glyph unicode="&#xcd;" horiz-adv-x="602" d="M0 0l295 1378h307l-295 -1378h-307zM166 1659l448 199l142 -238l-484 -147z" />
<glyph unicode="&#xce;" horiz-adv-x="602" d="M0 0l295 1378h307l-295 -1378h-307zM113 1647l419 215l308 -215l-107 -177l-246 117l-256 -117z" />
<glyph unicode="&#xcf;" horiz-adv-x="602" d="M0 0l295 1378h307l-295 -1378h-307zM131 1538l62 285h266l-62 -285h-266zM582 1538l61 285h266l-61 -285h-266z" />
<glyph unicode="&#xd0;" horiz-adv-x="1492" d="M0 659l262 101l133 618h479q250 0 402 -125q166 -139 166 -391q0 -358 -215 -604q-227 -258 -586 -258h-541l101 471l-103 -39zM457 223l198 19q221 20 357 211q121 174 121 407q0 145 -86 213q-68 51 -201 64l-193 18l-57 -266l104 39l101 -228l-264 -100z" />
<glyph unicode="&#xd1;" horiz-adv-x="1415" d="M0 0l295 1378h291l268 -686l64 -217l190 903h307l-295 -1378h-289l-268 686l-65 217l-191 -903h-307zM489 1561q80 248 308 247q66 0 123 -35.5t77 -35.5q80 0 119 80l135 -64q-82 -252 -303 -252q-63 0 -121.5 36t-81.5 36q-84 0 -120 -76z" />
<glyph unicode="&#xd2;" d="M41 457q0 109 31 235q80 326 190 469q190 244 584 244q274 0 414 -137q126 -127 126 -350q0 -109 -30 -236q-80 -326 -191 -469q-190 -244 -583 -244q-274 0 -414 137q-127 125 -127 351zM344 444q0 -227 258 -227q213 0 320 148q74 100 125 329q36 166 36 236 q0 227 -258 227q-213 0 -319 -147q-74 -100 -125 -330q-37 -166 -37 -236zM592 1618l158 237l430 -202l-113 -187z" />
<glyph unicode="&#xd3;" d="M41 457q0 109 31 235q80 326 190 469q190 244 584 244q274 0 414 -137q126 -127 126 -350q0 -109 -30 -236q-80 -326 -191 -469q-190 -244 -583 -244q-274 0 -414 137q-127 125 -127 351zM344 444q0 -227 258 -227q213 0 320 148q74 100 125 329q36 166 36 236 q0 227 -258 227q-213 0 -319 -147q-74 -100 -125 -330q-37 -166 -37 -236zM555 1659l449 199l141 -238l-483 -147z" />
<glyph unicode="&#xd4;" d="M41 457q0 109 31 235q80 326 190 469q190 244 584 244q274 0 414 -137q126 -127 126 -350q0 -109 -30 -236q-80 -326 -191 -469q-190 -244 -583 -244q-274 0 -414 137q-127 125 -127 351zM344 444q0 -227 258 -227q213 0 320 148q74 100 125 329q36 166 36 236 q0 227 -258 227q-213 0 -319 -147q-74 -100 -125 -330q-37 -166 -37 -236zM481 1647l420 215l307 -215l-106 -177l-246 117l-256 -117z" />
<glyph unicode="&#xd5;" d="M41 457q0 109 31 235q80 326 190 469q190 244 584 244q274 0 414 -137q126 -127 126 -350q0 -109 -30 -236q-80 -326 -191 -469q-190 -244 -583 -244q-274 0 -414 137q-127 125 -127 351zM344 444q0 -227 258 -227q213 0 320 148q74 100 125 329q36 166 36 236 q0 227 -258 227q-213 0 -319 -147q-74 -100 -125 -330q-37 -166 -37 -236zM510 1561q80 248 307 247q66 0 123 -35.5t78 -35.5q80 0 119 80l135 -64q-82 -252 -303 -252q-63 0 -122 36t-81 36q-84 0 -121 -76z" />
<glyph unicode="&#xd6;" d="M41 457q0 109 31 235q80 326 190 469q190 244 584 244q274 0 414 -137q126 -127 126 -350q0 -109 -30 -236q-80 -326 -191 -469q-190 -244 -583 -244q-274 0 -414 137q-127 125 -127 351zM344 444q0 -227 258 -227q213 0 320 148q74 100 125 329q36 166 36 236 q0 227 -258 227q-213 0 -319 -147q-74 -100 -125 -330q-37 -166 -37 -236zM500 1538l61 285h266l-61 -285h-266zM950 1538l62 285h266l-61 -285h-267z" />
<glyph unicode="&#xd8;" d="M-25 -33l164 170q-98 123 -98 320q0 109 31 235q80 326 190 469q190 244 584 244q260 0 399 -123l158 164l49 -43l-162 -168q96 -123 96 -317q0 -109 -30 -236q-80 -326 -191 -469q-190 -244 -583 -244q-256 0 -398 121l-159 -166zM344 444q0 -43 10 -84l690 713 q-61 84 -219 84q-213 0 -319 -147q-74 -100 -125 -330q-37 -166 -37 -236zM385 297q59 -80 217 -80q213 0 320 148q74 100 125 329q36 166 36 236q0 49 -10 82z" />
<glyph unicode="&#xd9;" horiz-adv-x="1386" d="M61 334q0 41 11 90l202 954h308l-209 -983q-6 -29 -6 -51q0 -80 71 -106q49 -18 166 -19q172 0 242 53q47 37 65 123l209 983h307l-217 -1020q-41 -197 -172 -286q-150 -102 -446 -103q-262 0 -404 107q-127 96 -127 258zM592 1618l158 237l430 -202l-113 -187z" />
<glyph unicode="&#xda;" horiz-adv-x="1386" d="M61 334q0 41 11 90l202 954h308l-209 -983q-6 -29 -6 -51q0 -80 71 -106q49 -18 166 -19q172 0 242 53q47 37 65 123l209 983h307l-217 -1020q-41 -197 -172 -286q-150 -102 -446 -103q-262 0 -404 107q-127 96 -127 258zM555 1659l449 199l141 -238l-483 -147z" />
<glyph unicode="&#xdb;" horiz-adv-x="1386" d="M61 334q0 41 11 90l202 954h308l-209 -983q-6 -29 -6 -51q0 -80 71 -106q49 -18 166 -19q172 0 242 53q47 37 65 123l209 983h307l-217 -1020q-41 -197 -172 -286q-150 -102 -446 -103q-262 0 -404 107q-127 96 -127 258zM502 1647l420 215l307 -215l-107 -177l-245 117 l-256 -117z" />
<glyph unicode="&#xdc;" horiz-adv-x="1386" d="M61 334q0 41 11 90l202 954h308l-209 -983q-6 -29 -6 -51q0 -80 71 -106q49 -18 166 -19q172 0 242 53q47 37 65 123l209 983h307l-217 -1020q-41 -197 -172 -286q-150 -102 -446 -103q-262 0 -404 107q-127 96 -127 258zM500 1538l61 285h266l-61 -285h-266zM950 1538 l62 285h266l-61 -285h-267z" />
<glyph unicode="&#xdd;" horiz-adv-x="1267" d="M143 1268l250 139l262 -655l90 166l398 489l248 -139l-625 -727l-115 -541h-307l115 539zM473 1659l449 199l141 -238l-483 -147z" />
<glyph unicode="&#xde;" horiz-adv-x="1198" d="M-25 0l295 1378h308l-56 -254h291q180 0 287 -116q98 -107 98 -265q0 -197 -139 -335q-160 -158 -441 -158h-278l-57 -250h-308zM387 475l287 25q94 8 154.5 79.5t60.5 165.5q0 127 -96 134l-316 20z" />
<glyph unicode="&#xdf;" horiz-adv-x="1523" d="M61 793l39 188h179l59 274q31 139 180 220q137 72 320 71q190 0 315 -78q137 -86 137 -231q0 -203 -190 -330q-98 -66 -115 -80q-51 -49 -51 -112q0 -41 117 -82q160 -57 213 -94q116 -82 116 -217q0 -199 -174 -289q-127 -68 -325 -68q-164 0 -410 62l80 231 q227 -57 332 -57q186 0 186 106q0 43 -117 80q-160 51 -213 88q-117 78 -116 217q0 139 96 244q39 43 180 145q96 70 96 121q0 106 -176 107q-66 0 -119 -19.5t-59 -50.5l-264 -1239h-307l157 741z" />
<glyph unicode="&#xe0;" horiz-adv-x="1124" d="M0 240q0 131 100 223q113 104 303 104h283l29 156v10q0 41 -62 41q-143 0 -471 -45l-2 236q299 51 494 51q141 0 239 -53q117 -63 117 -179q0 -23 -4 -43l-88 -456l94 -146l-287 -168l-92 142q-193 -133 -374 -133q-137 0 -211 79q-68 70 -68 181zM301 264q0 -53 92 -53 q82 0 234 47l22 119l-235 -21q-113 -10 -113 -92zM346 1317l178 237l410 -264l-133 -186z" />
<glyph unicode="&#xe1;" horiz-adv-x="1124" d="M0 240q0 131 100 223q113 104 303 104h283l29 156v10q0 41 -62 41q-143 0 -471 -45l-2 236q299 51 494 51q141 0 239 -53q117 -63 117 -179q0 -23 -4 -43l-88 -456l94 -146l-287 -168l-92 142q-193 -133 -374 -133q-137 0 -211 79q-68 70 -68 181zM301 264q0 -53 92 -53 q82 0 234 47l22 119l-235 -21q-113 -10 -113 -92zM319 1290l459 264l142 -237l-484 -213z" />
<glyph unicode="&#xe2;" horiz-adv-x="1124" d="M0 240q0 131 100 223q113 104 303 104h283l29 156v10q0 41 -62 41q-143 0 -471 -45l-2 236q299 51 494 51q141 0 239 -53q117 -63 117 -179q0 -23 -4 -43l-88 -456l94 -146l-287 -168l-92 142q-193 -133 -374 -133q-137 0 -211 79q-68 70 -68 181zM297 1290l420 264 l307 -264l-106 -176l-246 166l-256 -166zM301 264q0 -53 92 -53q82 0 234 47l22 119l-235 -21q-113 -10 -113 -92z" />
<glyph unicode="&#xe3;" horiz-adv-x="1124" d="M0 240q0 131 100 223q113 104 303 104h283l29 156v10q0 41 -62 41q-143 0 -471 -45l-2 236q299 51 494 51q141 0 239 -53q117 -63 117 -179q0 -23 -4 -43l-88 -456l94 -146l-287 -168l-92 142q-193 -133 -374 -133q-137 0 -211 79q-68 70 -68 181zM301 264q0 -53 92 -53 q82 0 234 47l22 119l-235 -21q-113 -10 -113 -92zM305 1282q80 248 307 248q66 0 123.5 -36t77.5 -36q80 0 119 80l135 -63q-82 -252 -303 -252q-63 0 -121.5 35.5t-81.5 35.5q-84 0 -121 -75z" />
<glyph unicode="&#xe4;" horiz-adv-x="1124" d="M0 240q0 131 100 223q113 104 303 104h283l29 156v10q0 41 -62 41q-143 0 -471 -45l-2 236q299 51 494 51q141 0 239 -53q117 -63 117 -179q0 -23 -4 -43l-88 -456l94 -146l-287 -168l-92 142q-193 -133 -374 -133q-137 0 -211 79q-68 70 -68 181zM295 1210l65 306h267 l-66 -306h-266zM301 264q0 -53 92 -53q82 0 234 47l22 119l-235 -21q-113 -10 -113 -92zM745 1210l66 306h266l-65 -306h-267z" />
<glyph unicode="&#xe5;" horiz-adv-x="1124" d="M0 240q0 131 100 223q113 104 303 104h283l29 156v10q0 41 -62 41q-143 0 -471 -45l-2 236q299 51 494 51q141 0 239 -53q117 -63 117 -179q0 -23 -4 -43l-88 -456l94 -146l-287 -168l-92 142q-193 -133 -374 -133q-137 0 -211 79q-68 70 -68 181zM301 264q0 -53 92 -53 q82 0 234 47l22 119l-235 -21q-113 -10 -113 -92zM424 1311q0 141 98 209q82 57 215 57q123 0 190.5 -57.5t67.5 -147.5q0 -260 -313 -260q-115 0 -186.5 54.5t-71.5 144.5zM610 1315q0 -31 76 -31q66 0 90 12q33 19 33 74q0 35 -78 35q-66 0 -90 -14q-31 -18 -31 -76z" />
<glyph unicode="&#xe6;" horiz-adv-x="1753" d="M0 240q0 129 100 221q111 102 303 106l285 6l29 160v8q0 33 -64 33q-137 0 -471 -45l-2 236q299 51 494 51q176 0 274 -76q133 70 316 70q203 0 309 -105q98 -94 98 -254q0 -109 -47 -221l-647 -39v-8q0 -176 184 -176q111 0 373 94l41 -227q-225 -104 -442 -105 q-299 0 -396 183q-254 -172 -458 -172q-137 0 -211 79q-68 70 -68 181zM301 264q0 -53 92 -53q92 -1 293 65q-6 29 -10 97l-262 -17q-53 -4 -83 -30.5t-30 -61.5zM1008 580l381 8q6 34 6 59q0 127 -166 127q-172 0 -217 -178z" />
<glyph unicode="&#xe7;" horiz-adv-x="1036" d="M41 383q0 283 147 453q156 180 435 180q202 0 403 -47l-94 -236q-178 39 -311 39q-139 0 -211 -129q-57 -104 -58 -258q0 -178 172 -178q127 0 353 88l41 -227q-240 -100 -420 -101q-211 0 -334 115t-123 301zM111 -455l110 158q80 -61 162 -61q80 0 80 67q0 90 -236 121 l174 244l170 -80l-63 -88q170 -39 170 -203q0 -121 -94 -190q-86 -63 -213 -64q-168 0 -260 96z" />
<glyph unicode="&#xe8;" horiz-adv-x="1118" d="M41 389q0 287 143 449q154 172 445 172q203 0 309 -105q98 -94 98 -254q0 -100 -53 -239l-637 26q-4 -41 -4 -55q0 -176 184 -176q111 0 373 94l41 -227q-225 -104 -442 -105q-201 0 -318 90q-139 109 -139 330zM346 1317l178 237l410 -264l-133 -186zM377 596l379 14 q4 33 4 45q0 119 -166 119q-172 0 -217 -178z" />
<glyph unicode="&#xe9;" horiz-adv-x="1118" d="M41 389q0 287 143 449q154 172 445 172q203 0 309 -105q98 -94 98 -254q0 -100 -53 -239l-637 26q-4 -41 -4 -55q0 -176 184 -176q111 0 373 94l41 -227q-225 -104 -442 -105q-201 0 -318 90q-139 109 -139 330zM319 1290l459 264l142 -237l-484 -213zM377 596l379 14 q4 33 4 45q0 119 -166 119q-172 0 -217 -178z" />
<glyph unicode="&#xea;" horiz-adv-x="1118" d="M41 389q0 287 143 449q154 172 445 172q203 0 309 -105q98 -94 98 -254q0 -100 -53 -239l-637 26q-4 -41 -4 -55q0 -176 184 -176q111 0 373 94l41 -227q-225 -104 -442 -105q-201 0 -318 90q-139 109 -139 330zM297 1290l420 264l307 -264l-106 -176l-246 166l-256 -166 zM377 596l379 14q4 33 4 45q0 119 -166 119q-172 0 -217 -178z" />
<glyph unicode="&#xeb;" horiz-adv-x="1118" d="M41 389q0 287 143 449q154 172 445 172q203 0 309 -105q98 -94 98 -254q0 -100 -53 -239l-637 26q-4 -41 -4 -55q0 -176 184 -176q111 0 373 94l41 -227q-225 -104 -442 -105q-201 0 -318 90q-139 109 -139 330zM295 1210l65 306h267l-66 -306h-266zM377 596l379 14 q4 33 4 45q0 119 -166 119q-172 0 -217 -178zM745 1210l66 306h266l-65 -306h-267z" />
<glyph unicode="&#xec;" horiz-adv-x="600" d="M20 0l209 981h308l-209 -981h-308zM162 1317l178 237l410 -264l-134 -186z" />
<glyph unicode="&#xed;" horiz-adv-x="600" d="M20 0l209 981h308l-209 -981h-308zM135 1290l459 264l141 -237l-483 -213z" />
<glyph unicode="&#xee;" horiz-adv-x="600" d="M20 0l209 981h308l-209 -981h-308zM72 1290l420 264l307 -264l-107 -176l-246 166l-256 -166z" />
<glyph unicode="&#xef;" horiz-adv-x="600" d="M20 0l209 981h308l-209 -981h-308zM49 1210l66 306h266l-66 -306h-266zM500 1210l65 306h266l-65 -306h-266z" />
<glyph unicode="&#xf0;" horiz-adv-x="1208" d="M41 322q0 268 160.5 434t429.5 166q76 0 139 -15q-18 68 -63 135l-256 -98l-99 227l180 70q-70 61 -137 100l183 205q133 -84 239 -196l230 88l100 -228l-172 -65q135 -231 135 -486q0 -299 -125 -481q-158 -225 -489 -225q-195 0 -316 86q-139 98 -139 283zM330 328 q0 -127 168 -127q147 0 229 100q74 92 74 246q0 70 -39 98.5t-129 28.5q-147 0 -225 -96.5t-78 -249.5z" />
<glyph unicode="&#xf1;" horiz-adv-x="1224" d="M20 0l150 702l-94 146l284 168l82 -125l62 41q131 88 307 88q133 0 217 -59q94 -68 94 -195q0 -41 -8 -84q-39 -184 -145 -682h-307l149 707q2 6 2 20q0 57 -94 57q-70 0 -154 -22l-80 -21l-157 -741h-308zM305 1282q80 248 307 248q66 0 123.5 -36t77.5 -36q80 0 119 80 l135 -63q-82 -252 -303 -252q-63 0 -121.5 35.5t-81.5 35.5q-84 0 -121 -75z" />
<glyph unicode="&#xf2;" horiz-adv-x="1196" d="M41 334q0 78 14 147q53 242 148 357q145 178 450 178q461 0 461 -381q0 -92 -14 -166q-51 -229 -166 -348q-152 -158 -436 -158q-457 0 -457 371zM336 336q0 -76 38 -107.5t130 -31.5q125 0 191.5 64.5t101.5 221.5q22 95 22 158q0 78 -37 109.5t-131 31.5 q-129 0 -192.5 -69.5t-102.5 -243.5q-20 -84 -20 -133zM428 1317l178 237l410 -264l-133 -186z" />
<glyph unicode="&#xf3;" horiz-adv-x="1196" d="M41 334q0 78 14 147q53 242 148 357q145 178 450 178q461 0 461 -381q0 -92 -14 -166q-51 -229 -166 -348q-152 -158 -436 -158q-457 0 -457 371zM336 336q0 -76 38 -107.5t130 -31.5q125 0 191.5 64.5t101.5 221.5q22 95 22 158q0 78 -37 109.5t-131 31.5 q-129 0 -192.5 -69.5t-102.5 -243.5q-20 -84 -20 -133zM401 1290l459 264l142 -237l-484 -213z" />
<glyph unicode="&#xf4;" horiz-adv-x="1196" d="M41 334q0 78 14 147q53 242 148 357q145 178 450 178q461 0 461 -381q0 -92 -14 -166q-51 -229 -166 -348q-152 -158 -436 -158q-457 0 -457 371zM336 336q0 -76 38 -107.5t130 -31.5q125 0 191.5 64.5t101.5 221.5q22 95 22 158q0 78 -37 109.5t-131 31.5 q-129 0 -192.5 -69.5t-102.5 -243.5q-20 -84 -20 -133zM338 1290l420 264l307 -264l-106 -176l-246 166l-256 -166z" />
<glyph unicode="&#xf5;" horiz-adv-x="1196" d="M41 334q0 78 14 147q53 242 148 357q145 178 450 178q461 0 461 -381q0 -92 -14 -166q-51 -229 -166 -348q-152 -158 -436 -158q-457 0 -457 371zM336 336q0 -76 38 -107.5t130 -31.5q125 0 191.5 64.5t101.5 221.5q22 95 22 158q0 78 -37 109.5t-131 31.5 q-129 0 -192.5 -69.5t-102.5 -243.5q-20 -84 -20 -133zM346 1282q80 248 307 248q66 0 123.5 -36t77.5 -36q80 0 119 80l135 -63q-82 -252 -303 -252q-63 0 -121.5 35.5t-81.5 35.5q-84 0 -121 -75z" />
<glyph unicode="&#xf6;" horiz-adv-x="1196" d="M41 334q0 78 14 147q53 242 148 357q145 178 450 178q461 0 461 -381q0 -92 -14 -166q-51 -229 -166 -348q-152 -158 -436 -158q-457 0 -457 371zM336 336q0 -76 38 -107.5t130 -31.5q125 0 191.5 64.5t101.5 221.5q22 95 22 158q0 78 -37 109.5t-131 31.5 q-129 0 -192.5 -69.5t-102.5 -243.5q-20 -84 -20 -133zM356 1210l65 306h267l-66 -306h-266zM806 1210l66 306h266l-65 -306h-267z" />
<glyph unicode="&#xf7;" horiz-adv-x="1261" d="M61 471l54 250h1085l-53 -250h-1086zM391 53l53 254h250l-53 -254h-250zM567 885l54 254h249l-53 -254h-250z" />
<glyph unicode="&#xf8;" horiz-adv-x="1196" d="M-31 -88l166 166q-94 96 -94 256q0 82 14 147q53 242 146 357q147 178 452 178q213 0 330 -86l168 170l45 -43l-168 -168q86 -94 86 -254q0 -100 -14 -166q-49 -229 -166 -348q-152 -158 -436 -158q-199 0 -314 76l-170 -170zM336 336q0 -18 4 -51l453 454 q-35 43 -142 43q-129 0 -192.5 -69.5t-102.5 -243.5q-20 -90 -20 -133zM373 229q39 -33 131 -32q123 0 190.5 64.5t102.5 221.5q22 101 22 158q0 25 -2 35z" />
<glyph unicode="&#xf9;" horiz-adv-x="1224" d="M61 215q0 45 9 84l145 682h307l-149 -707q-2 -10 -2 -20q0 -57 94 -57q66 0 153 22l80 21l158 741h307l-149 -702l94 -146l-285 -168l-82 125l-61 -41q-131 -88 -307 -88q-133 0 -217 59q-94 68 -95 195zM428 1317l178 237l410 -264l-133 -186z" />
<glyph unicode="&#xfa;" horiz-adv-x="1224" d="M61 215q0 45 9 84l145 682h307l-149 -707q-2 -10 -2 -20q0 -57 94 -57q66 0 153 22l80 21l158 741h307l-149 -702l94 -146l-285 -168l-82 125l-61 -41q-131 -88 -307 -88q-133 0 -217 59q-94 68 -95 195zM421 1290l459 264l142 -237l-484 -213z" />
<glyph unicode="&#xfb;" horiz-adv-x="1224" d="M61 215q0 45 9 84l145 682h307l-149 -707q-2 -10 -2 -20q0 -57 94 -57q66 0 153 22l80 21l158 741h307l-149 -702l94 -146l-285 -168l-82 125l-61 -41q-131 -88 -307 -88q-133 0 -217 59q-94 68 -95 195zM358 1290l420 264l307 -264l-106 -176l-246 166l-256 -166z" />
<glyph unicode="&#xfc;" horiz-adv-x="1224" d="M61 215q0 45 9 84l145 682h307l-149 -707q-2 -10 -2 -20q0 -57 94 -57q66 0 153 22l80 21l158 741h307l-149 -702l94 -146l-285 -168l-82 125l-61 -41q-131 -88 -307 -88q-133 0 -217 59q-94 68 -95 195zM377 1210l65 306h267l-66 -306h-266zM827 1210l66 306h266 l-65 -306h-267z" />
<glyph unicode="&#xfd;" horiz-adv-x="1159" d="M-307 -317l194 202q106 -84 174 -84q80 0 148 111l82 129l-39 141l-191 744l285 90l156 -723l104 221l322 502l272 -96l-760 -1151q-141 -217 -393 -218q-176 0 -354 132zM380 1290l459 264l142 -237l-484 -213z" />
<glyph unicode="&#xfe;" horiz-adv-x="1230" d="M-72 -449l420 1965h307l-120 -570q121 61 231 62q362 -1 362 -400q0 -272 -149.5 -450t-388.5 -178q-123 0 -250 57l-104 -486h-308zM377 213q80 -12 141 -12q156 0 236 139q63 113 63 285q0 156 -143 155q-78 0 -182 -37z" />
<glyph unicode="&#xff;" horiz-adv-x="1159" d="M-307 -317l194 202q106 -84 174 -84q80 0 148 111l82 129l-39 141l-191 744l285 90l156 -723l104 221l322 502l272 -96l-760 -1151q-141 -217 -393 -218q-176 0 -354 132zM295 1210l65 306h267l-66 -306h-266zM745 1210l66 306h266l-65 -306h-267z" />
<glyph unicode="&#x152;" horiz-adv-x="1894" d="M41 487q0 109 31 236q74 307 190 440q188 215 584 215h1130l-53 -250l-631 29l-73 -340l503 27l-55 -258l-491 26l-84 -391l659 29l-53 -250h-1116q-274 0 -414 137q-127 125 -127 350zM344 473q0 -221 258 -221h191l184 874h-152q-217 0 -319 -116q-78 -88 -125 -299 q-37 -166 -37 -238z" />
<glyph unicode="&#x153;" horiz-adv-x="1873" d="M41 334q0 82 14 147q53 242 146 357q147 178 452 178q250 0 359 -119q139 113 372 113q203 0 310 -105q98 -94 98 -254q0 -100 -53 -239l-637 26q-4 -41 -4 -55q0 -176 184 -176q111 0 373 94l41 -227q-225 -104 -443 -105q-238 0 -348 131q-141 -137 -407 -137 q-457 0 -457 371zM336 336q0 -76 38 -107.5t130 -31.5q123 0 190.5 64.5t102.5 221.5q22 101 22 158q0 78 -37 109.5t-131 31.5q-129 0 -192.5 -69.5t-102.5 -243.5q-20 -90 -20 -133zM1133 596l378 14q5 33 5 45q0 119 -166 119q-172 0 -217 -178z" />
<glyph unicode="&#x178;" horiz-adv-x="1267" d="M143 1268l250 139l262 -655l90 166l398 489l248 -139l-625 -727l-115 -541h-307l115 539zM418 1538l61 285h266l-61 -285h-266zM868 1538l62 285h266l-61 -285h-267z" />
<glyph unicode="&#x2c6;" horiz-adv-x="1095" d="M297 1290l420 264l307 -264l-106 -176l-246 166l-256 -166z" />
<glyph unicode="&#x2dc;" horiz-adv-x="1142" d="M305 1282q80 248 307 248q66 0 123.5 -36t77.5 -36q80 0 119 80l135 -63q-82 -252 -303 -252q-63 0 -121.5 35.5t-81.5 35.5q-84 0 -121 -75z" />
<glyph unicode="&#x2000;" horiz-adv-x="931" />
<glyph unicode="&#x2001;" horiz-adv-x="1862" />
<glyph unicode="&#x2002;" horiz-adv-x="931" />
<glyph unicode="&#x2003;" horiz-adv-x="1862" />
<glyph unicode="&#x2004;" horiz-adv-x="620" />
<glyph unicode="&#x2005;" horiz-adv-x="465" />
<glyph unicode="&#x2006;" horiz-adv-x="310" />
<glyph unicode="&#x2007;" horiz-adv-x="310" />
<glyph unicode="&#x2008;" horiz-adv-x="232" />
<glyph unicode="&#x2009;" horiz-adv-x="372" />
<glyph unicode="&#x200a;" horiz-adv-x="103" />
<glyph unicode="&#x2010;" horiz-adv-x="872" d="M102 471l54 250h614l-53 -250h-615z" />
<glyph unicode="&#x2011;" horiz-adv-x="872" d="M102 471l54 250h614l-53 -250h-615z" />
<glyph unicode="&#x2012;" horiz-adv-x="872" d="M102 471l54 250h614l-53 -250h-615z" />
<glyph unicode="&#x2013;" horiz-adv-x="1024" d="M-27 471l54 250h1024l-54 -250h-1024z" />
<glyph unicode="&#x2014;" horiz-adv-x="2048" d="M-27 471l54 250h2048l-54 -250h-2048z" />
<glyph unicode="&#x2018;" horiz-adv-x="645" d="M20 786l549 621l199 -129l-461 -674z" />
<glyph unicode="&#x2019;" horiz-adv-x="645" d="M0 733l461 674l287 -182l-549 -621z" />
<glyph unicode="&#x201a;" horiz-adv-x="593" d="M-215 -264l461 674l286 -183l-548 -620z" />
<glyph unicode="&#x201c;" horiz-adv-x="1198" d="M20 786l549 621l199 -129l-461 -674zM594 786l549 621l198 -129l-460 -674z" />
<glyph unicode="&#x201d;" horiz-adv-x="1218" d="M0 733l461 674l287 -182l-549 -621zM573 733l461 674l287 -182l-549 -621z" />
<glyph unicode="&#x201e;" horiz-adv-x="1167" d="M-215 -264l461 674l286 -183l-548 -620zM358 -264l461 674l287 -183l-549 -620z" />
<glyph unicode="&#x2022;" horiz-adv-x="839" d="M82 565q0 156 126 278t281 122q119 0 194 -73.5t75 -186.5q0 -156 -126 -278t-282 -122q-119 0 -193.5 74t-74.5 186z" />
<glyph unicode="&#x202f;" horiz-adv-x="372" />
<glyph unicode="&#x2039;" horiz-adv-x="663" d="M20 498l535 450l150 -153l-295 -297l143 -318l-170 -133z" />
<glyph unicode="&#x203a;" horiz-adv-x="724" d="M-41 201l295 297l-143 317l170 133l362 -450l-534 -451z" />
<glyph unicode="&#x205f;" horiz-adv-x="465" />
<glyph unicode="&#x2122;" horiz-adv-x="1587" d="M102 1194l39 184h596l-39 -184l-178 45l-112 -522h-218l113 522zM608 723l213 655h211l41 -456l236 456h217l-64 -655l-231 -18l43 262l26 108l-176 -358h-168l-24 246l-4 112l-99 -370z" />
<glyph unicode="&#x25fc;" horiz-adv-x="1013" d="M0 0v1014h1014v-1014h-1014z" />
</font>
</defs>
</svg>
